<?xml version="1.0" encoding="utf-8"?>
<!-- Generator: Adobe Illustrator 16.0.0, SVG Export Plug-In . SVG Version: 6.00 Build 0)  -->
<!DOCTYPE svg PUBLIC "-//W3C//DTD SVG 1.1//EN" "http://www.w3.org/Graphics/SVG/1.1/DTD/svg11.dtd">
<svg version="1.1" id="Capa_1" xmlns="http://www.w3.org/2000/svg" xmlns:xlink="http://www.w3.org/1999/xlink" x="0px" y="0px"
	 width="302.1px" height="301.9px" viewBox="-227.1 -240.7 302.1 301.9" style="enable-background:new -227.1 -240.7 302.1 301.9;"
	 xml:space="preserve">
<g>
	<g>
		<path style="fill:#01319F;" d="M-219.9-89.7c0,26.2,7,50.7,19.2,71.9l128.5,52.7L48.4-17.8c12.2-21.1,19.2-45.7,19.2-71.9
			l-143.8-49.6L-219.9-89.7z"/>
		<path style="fill:#FD0805;" d="M48.4-17.8c-24.9,43-71.3,71.9-124.5,71.9c-53.2,0-99.7-28.9-124.5-71.9L48.4-17.8z"/>
		<path style="fill:#FFCC21;" d="M67.6-89.7c0-79.4-64.4-143.8-143.8-143.8c-79.4,0-143.8,64.4-143.8,143.8H67.6z"/>
	</g>
	<g>
		<g>
			<path style="fill:#EFB81D;" d="M-76.2-233.4c-72.7,0-132.8,54-142.4,124.1c15.9-63.9,73.6-111.3,142.4-111.3
				c68.8,0,126.5,47.4,142.4,111.3C56.6-179.4-3.4-233.4-76.2-233.4z"/>
		</g>
	</g>
	<g>
		<g>
			<path style="fill:#D31313;" d="M-188.2,0.4c26.4,32.8,66.8,53.7,112.1,53.7c45.3,0,85.7-21,112.1-53.7
				C6,26.6-33.2,42.6-76.2,42.6C-119.1,42.6-158.3,26.6-188.2,0.4z"/>
		</g>
	</g>
	<path style="fill:#283F72;" d="M67.6-89.7C67.6-10.3,3.2,54.1-76.2,54.1c-79.4,0-143.8-64.4-143.8-143.8h-7.2
		c0,83.4,67.6,151,151,151c83.4,0,151-67.6,151-151H67.6z"/>
	<path style="fill:#162954;" d="M-76.2-240.7c-83.4,0-151,67.6-151,151c0,83.4,67.6,151,151,151c83.4,0,151-67.6,151-151
		C74.8-173.1,7.2-240.7-76.2-240.7z M-76.2,54.1c-79.4,0-143.8-64.4-143.8-143.8c0-79.4,64.4-143.8,143.8-143.8
		c79.4,0,143.8,64.4,143.8,143.8C67.6-10.3,3.2,54.1-76.2,54.1z"/>
</g>
<linearGradient id="SVGID_1_" gradientUnits="userSpaceOnUse" x1="-76.1609" y1="85.1184" x2="-76.1609" y2="-137.2815">
	<stop  offset="0" style="stop-color:#FFFFFF;stop-opacity:0"/>
	<stop  offset="1" style="stop-color:#FFFFFF"/>
</linearGradient>
<path style="opacity:0.3;fill:url(#SVGID_1_);" d="M-76.2-240.7c-83.4,0-151,67.6-151,151c0,83.4,67.6,151,151,151
	c83.4,0,151-67.6,151-151C74.8-173.1,7.2-240.7-76.2-240.7z"/>
<path style="opacity:5.000000e-002;fill:#FFFFFF;" d="M-76.2-240.7c-83.4,0-151,67.6-151,151c0,11.6,1.3,22.9,3.8,33.7
	c22.7-26,271.7-26.9,293.4,4c3.1-12,4.7-24.7,4.7-37.7C74.8-173.1,7.2-240.7-76.2-240.7z"/>
</svg>
