<?xml version="1.0" encoding="utf-8"?>
<!-- Generator: Adobe Illustrator 16.0.0, SVG Export Plug-In . SVG Version: 6.00 Build 0)  -->
<!DOCTYPE svg PUBLIC "-//W3C//DTD SVG 1.1//EN" "http://www.w3.org/Graphics/SVG/1.1/DTD/svg11.dtd">
<svg version="1.1" id="Capa_1" xmlns="http://www.w3.org/2000/svg" xmlns:xlink="http://www.w3.org/1999/xlink" x="0px" y="0px"
	 width="256.4px" height="257px" viewBox="-227.1 -240.7 256.4 257" style="enable-background:new -227.1 -240.7 256.4 257;"
	 xml:space="preserve">
<g>
	<g>
		<g>
			<path style="fill:#FFFFFF;" d="M-29.2-11.7C-49,2.2-73.1,10.3-99.1,10.3c-26,0-50-8.1-69.8-21.9l-32.6-117l32.5-83.5
				c19.8-13.8,43.9-21.9,69.9-21.9c26,0,50.1,8.1,69.9,21.9l25.4,80L-29.2-11.7z"/>
			<path style="fill:#25A64A;" d="M-168.9-11.7c-31.6-22.1-52.4-58.8-52.4-100.3c0-41.5,20.7-78.2,52.3-100.3L-168.9-11.7z"/>
			<path style="fill:#C90505;" d="M-29.2-212.2c31.6,22.1,52.3,58.8,52.3,100.3c0,41.5-20.7,78.2-52.3,100.3L-29.2-212.2z"/>
			<g>
				<g>
					<g>
						<path style="fill:#AA0707;" d="M-29.3-201.9c25.1,17,43.7,42.9,51.2,73.2c-4.7-34.6-23.9-64.5-51.2-83.6L-29.3-201.9z"/>
					</g>
					<g>
						<path style="fill:#1E8438;" d="M-168.9-201.8c-25.1,17-43.6,42.9-51.1,73.2c4.7-34.5,23.9-64.5,51.2-83.5L-168.9-201.8z"/>
					</g>
					<path style="fill:#D3D3D3;" d="M-29.3-201.9c-19.9-13.5-43.9-21.4-69.8-21.4c-25.9,0-49.9,7.9-69.9,21.4l0-10.4
						c19.8-13.8,43.9-21.9,69.9-21.9c26,0,50,8.1,69.8,21.9L-29.3-201.9z"/>
				</g>
			</g>
			<g>
				<path style="fill:#CC4E4E;" d="M-29.2-11.7c9.6-6.7,18.1-14.7,25.4-23.7c-7.8,6.8-16.3,12.8-25.4,17.9L-29.2-11.7z"/>
				<path style="fill:#D3D3D3;" d="M-29.2-11.7C-49,2.2-73.1,10.3-99.1,10.3c-26,0-50.1-8.1-70-22l0.1-5.8
					c20.7,11.5,44.5,18,69.9,18c25.3,0,49.1-6.5,69.8-18L-29.2-11.7z"/>
				<path style="fill:#49C168;" d="M-169-11.8c-9.5-6.7-18-14.6-25.3-23.7c7.8,6.8,16.3,12.8,25.4,17.9L-169-11.8z"/>
				<path style="fill:#D3D3D3;" d="M-168.9-17.5"/>
			</g>
			<path style="fill:#162954;" d="M-99.1-240.2c-70.9,0-128.3,57.4-128.3,128.3c0,70.9,57.4,128.3,128.3,128.3
				c70.9,0,128.3-57.4,128.3-128.3C29.3-182.8-28.2-240.2-99.1-240.2z M-99.1,10.3c-67.5,0-122.2-54.7-122.2-122.2
				c0-67.5,54.7-122.2,122.2-122.2c67.5,0,122.2,54.7,122.2,122.2C23.1-44.4-31.6,10.3-99.1,10.3z"/>
			<path style="fill:#283F72;" d="M23.1-111.9c0,67.5-54.7,122.2-122.2,122.2c-67.5,0-122.2-54.7-122.2-122.2h-6.1
				c0,70.9,57.4,128.3,128.3,128.3c70.9,0,128.3-57.4,128.3-128.3H23.1z"/>
		</g>
	</g>
	<circle style="fill:none;stroke:#162954;stroke-miterlimit:10;" cx="-99.1" cy="-111.9" r="122.2"/>
</g>
<g>
	<path style="fill:#016C44;stroke:#004007;stroke-miterlimit:10;" d="M-120.2-99.9c-2.3-2.8-2.8-9.4-8-6.1c-3.6,2.3,0.8,8.8,7.8,8
		C-113.3-98.8-119.4-99.6-120.2-99.9z"/>
	<path style="fill:#016C44;stroke:#004007;stroke-miterlimit:10;" d="M-109.9-97.1c-4.1-2.6-10.1-7.2-11.9-1.6
		c-1.8,5.6,7.9,5.4,12.2,3.6C-109.9-95.8-108.6-96.3-109.9-97.1z"/>
	<path style="fill:#016C44;stroke:#004007;stroke-miterlimit:10;" d="M-88.2-93.9c1.2,0.5,2.7,1,3.7-0.3c1.1-1.4,3.9-4.3,7.4-1.2
		c3.4,3-4.3,9.4-12.6,3.1C-89.9-93.2-89.7-94.4-88.2-93.9z"/>
	<path style="fill:#016C44;stroke:#004007;stroke-miterlimit:10;" d="M-96.1-95.1c-2.9-2.4-9.8-6.5-14.4-3.2
		c-2.4,1.7-2.8,8.8,11.9,6.1C-98.3-92.3-95.2-94.4-96.1-95.1z"/>
	<path style="fill:#016C44;stroke:#004007;stroke-miterlimit:10;" d="M-100.4-86.3c0.4,1.6,4.1,2,4.4,0c0.3-2,1-3.6,2.7-4
		c1.7-0.5,5.4-0.5,6-3c0.6-2.5-0.9-5.1-8.6-3.3C-100-95.7-100.7-87.7-100.4-86.3z"/>
	<path style="fill:#EC0527;stroke:#CC112C;stroke-miterlimit:10;" d="M-116-101.8c-0.3,0.6-1.7,3.4,0.4,3.8c2.1,0.4,2.3-1.9,2-3.4
		C-113.8-102.7-115.3-103-116-101.8z"/>
	<path style="fill:#EC0527;stroke:#CC112C;stroke-miterlimit:10;" d="M-129.9-108c-0.2,0.8-2.2,0.5-2.1-0.4
		C-131.9-109.4-129.7-108.8-129.9-108z"/>
	<path style="fill:#EC0527;stroke:#CC112C;stroke-miterlimit:10;" d="M-129.2-109.1c-0.8-0.2-0.5-2.2,0.4-2.1
		C-127.9-111.1-128.4-109-129.2-109.1z"/>
	<circle style="fill:#EC0527;stroke:#CC112C;stroke-miterlimit:10;" cx="-131.6" cy="-112.9" r="0.6"/>
	<path style="fill:#EC0527;stroke:#CC112C;stroke-miterlimit:10;" d="M-114.4-103.4c0,0.4-0.3,0.7-0.7,0.7c-0.4,0-0.7-0.3-0.7-0.7
		c0-0.4,0.3-0.7,0.7-0.7C-114.7-104.1-114.4-103.8-114.4-103.4z"/>
	<circle style="fill:#EC0527;stroke:#CC112C;stroke-miterlimit:10;" cx="-116.2" cy="-102.7" r="0.7"/>
	<circle style="fill:#EC0527;stroke:#CC112C;stroke-miterlimit:10;" cx="-113.4" cy="-103.1" r="0.7"/>
	<line style="fill:none;stroke:#CC112C;stroke-miterlimit:10;" x1="-131.5" y1="-112.7" x2="-130.4" y2="-110.4"/>
	<path style="fill:#EC0527;stroke:#CC112C;stroke-miterlimit:10;" d="M-130-108.5c-0.5,0.6-2.1-0.7-1.6-1.4
		C-131-110.6-129.4-109-130-108.5z"/>
	<path style="fill:#EC0527;stroke:#CC112C;stroke-miterlimit:10;" d="M-129.7-109.1c-0.7,0.3-1.7-1.5-0.9-1.9
		C-129.9-111.6-129-109.5-129.7-109.1z"/>
	<path style="fill:#EC0527;stroke:#CC112C;stroke-miterlimit:10;" d="M-129.8-109.3c-1.3,0.6-0.2,5.2,2.1,3.8
		C-126.2-106.5-128.5-109.9-129.8-109.3z"/>
	<path style="fill:#EC0527;stroke:#CC112C;stroke-miterlimit:10;" d="M-76-96.8c-0.8,0-0.9-2.1,0-2.1C-75-99-75.2-96.8-76-96.8z"/>
	<path style="fill:#EC0527;stroke:#CC112C;stroke-miterlimit:10;" d="M-74.8-96.4c0-0.8,2.1-0.9,2.1,0
		C-72.5-95.5-74.8-95.6-74.8-96.4z"/>
	<circle style="fill:#EC0527;stroke:#CC112C;stroke-miterlimit:10;" cx="-71.5" cy="-99.4" r="0.6"/>
	<line style="fill:none;stroke:#CC112C;stroke-miterlimit:10;" x1="-71.7" y1="-99.3" x2="-73.8" y2="-97.8"/>
	<path style="fill:#EC0527;stroke:#CC112C;stroke-miterlimit:10;" d="M-75.6-97c-0.7-0.4,0.3-2.2,1.1-1.8
		C-73.6-98.5-74.9-96.6-75.6-97z"/>
	<path style="fill:#EC0527;stroke:#CC112C;stroke-miterlimit:10;" d="M-74.8-96.9c-0.5-0.6,1.1-2,1.7-1.3
		C-72.5-97.5-74.4-96.2-74.8-96.9z"/>
	<path style="fill:#EC0527;stroke:#CC112C;stroke-miterlimit:10;" d="M-74.7-97c-0.8-1.1-5.1,0.8-3.3,2.8
		C-76.8-92.9-73.9-95.9-74.7-97z"/>
	<circle style="fill:#EC0527;stroke:#CC112C;stroke-miterlimit:10;" cx="-114.6" cy="-102.3" r="1"/>
	<circle style="fill:#EC0527;stroke:#CC112C;stroke-miterlimit:10;" cx="-114.2" cy="-103.9" r="0.7"/>
	<circle style="fill:#EC0527;stroke:#CC112C;stroke-miterlimit:10;" cx="-112.9" cy="-102.1" r="0.7"/>
	<path style="fill:#FFC11E;" d="M-91.9-100.3c0.5-0.1,1.4,0.6,2.6,2c0.9-0.1,3.9-0.2,3.2,1.2c-0.7,0.5-1.4,1.1-1.2,1.5
		c-0.6,0.2-1.2,0.6-2.3-1c-0.7,0.2-1,0-1.2,0c-0.2,0-1.2-0.2-1.9,0c-0.9,0.2-1.4,0.4-1.5,0.9c-0.1,0.5-1,1.4-1.6,1
		c-0.3,0.1-0.3-0.2-0.4-0.9c-0.1-0.7-0.7-1-1-1c0.2-0.3,0.6-0.6,1.2-0.7c-0.8-0.1-1,0.3-1.5,0.5c-0.7,0.2-0.7,0-0.7-0.5
		c0-0.5-0.8-2.3,0.6-2.1c1.4,0.2,1.9,0.3,2.5,0.3c0.6,0,1.3-1.1,1.6-1.4C-93.2-100.7-91.9-100.3-91.9-100.3z"/>
	<path style="fill:#FFFFFF;" d="M-97.9-98.6c-0.6-0.1-3.1-0.7-2.4,2.2c0.3-0.2,0.9-0.9,1.6-0.5c0.7,0.5,0.8-0.5,0.8-0.5V-98.6z"/>
	<path style="fill:#FFFFFF;" d="M-97.1-96.6c-0.3,0.1-2.5,1.1-0.5,3c0-0.8,1.3-1,1.9-1.6C-95-95.8-96.5-96.9-97.1-96.6z"/>
	<path style="fill:#FFFFFF;" d="M-87.8-96c0.7,0.3,1.3,1.3,1.2,1.6c-0.1,0.3,0,0.3,0.5,0c0.5-0.3,1.6-2.7-0.6-2.7
		C-88.7-97.1-88-96.1-87.8-96z"/>
	<path style="fill:#FFB000;" d="M-93.3-100.8c-0.2,0.8-0.1,2.2,0,2.3c0.1,0.1,0.9,0.3,1.5,0c0.6-0.3,0.2-2.8,0.2-3.1
		C-91.7-101.9-93.2-101.6-93.3-100.8z"/>
	<path style="fill:#7C4605;" d="M-98.5-103.7c1,0.8,2.6,3.8,3,3.6c0.4-0.2,1.7-1.3,1.5-1.5c-0.2-0.3-2.2-3.3-2.9-3.7
		C-97.7-105.9-98.9-104-98.5-103.7z"/>
	<path style="fill:#A16002;" d="M-96.4-104.7c0.2,0.7,2.4,4.7,3.4,4.4c1.1-0.3,0.9-1.1,0.6-1.5c0.5,0.8,1,0.9,1.1,0.8
		c0.1-0.1,0-1,0-1.5c0.4,1,0.9,1.4,1.1,0.5c0.2-0.9,0.4-4.5-0.1-5.7C-90.8-108.9-97.1-107.1-96.4-104.7z"/>
	<path style="fill:#A16002;" d="M-90-112.6c1.7,1.3,14.2,9.7,14.7,10.7c0.5,0.9-2.8,1.4-3.5,1c-0.7-0.4-12-8.9-12-8.9
		S-91.3-113.1-90-112.6z"/>
	<path style="fill:#7C4605;" d="M-91.1-107.1c1.8,1.4,7.9,6.2,9.2,6.9c1.2,0.7,2.6,0,2.7-1.4c-1.4-1.4-10.3-8.7-12.1-8.4
		C-93.2-109.6-92.6-107.9-91.1-107.1z"/>
	<path style="fill:#A16002;" d="M-90.5-104.9c0.8,0.6,4.5,4.1,5.2,4.8c0.7,0.6,3.3,0.9,2.9-0.6c-2-2.5-8.4-6.3-9-6.5
		S-90.9-105.3-90.5-104.9z"/>
	<path style="fill:#7C4605;" d="M-90.4-102.7c1.1,1.3,2.9,2.7,3.5,2.8c0.5,0.1,1.6-0.2,1.1-1.1c-0.5-1-4.4-4.5-5.3-3.9
		C-92-104.3-91.2-103.5-90.4-102.7z"/>
	<path style="fill:#7C4605;" d="M-103.8-110c0.1,1.2,0.6,5.4,1.9,5.8c1.3,0.4,1.9-0.7,1-3.4C-101.7-110.2-103.1-111.6-103.8-110z"/>
	<path style="fill:#7C4605;" d="M-103.1-107.3c-0.9,0.4-3.7,1.9-3.9,2.7c-0.1,0.9,0.7,2.2,5.5,0
		C-101.5-105.9-102.6-107.1-103.1-107.3z"/>
	<path style="fill:#A16002;" d="M-90.3-111.2c2.7-3.4-0.6-7.4-1.7-8C-92.5-115.7-92.6-113.5-90.3-111.2z"/>
	<path style="fill:#A16002;" d="M-104.3-110.8c0.5,1,5.9,7.3,6.1,7.3c0.3,0,1.1-0.9,1-1.4c-0.2-0.5-5-5.3-5.7-6.2
		C-103.7-112-104.8-111.8-104.3-110.8z"/>
	<path style="fill:#7C4605;" d="M-99.8-111.2c0.7,1.1,3.6,5,3.8,5.4c0.2,0.4-0.2,1.1-0.2,1.2c0,0.1-1,0.1-1.6-0.3
		c-0.6-0.4-5-5.6-5.1-6.4C-103-111.9-100.7-112.5-99.8-111.2z"/>
	<path style="fill:#A16002;" d="M-96.9-112c0.7,0.8,2.8,5.8,2.9,6.1c0.1,0.3-0.5,0.9-0.6,1c-0.1,0.1-1.5-0.5-1.8-0.7
		c-0.3-0.2-3.6-4.1-3.4-6.4C-99.7-114.3-97.3-112.5-96.9-112z"/>
	<path style="fill:#7C4605;" d="M-94.9-114c0.6,1.1,2.7,6.8,2.6,7.5c-0.2,0.7-1,1.3-2.1,0c-1-1.3-3.3-5.8-3.2-6.5
		C-97.4-113.7-95.5-115.4-94.9-114z"/>
	<path style="fill:#A16002;" d="M-94.4-116.1c1.1,0.6,1.6,0.5,1.9,1.4c0.3,0.8,1.5,6.5,1.5,7s-0.5,1.9-1.2,1.2
		C-93-107.3-95.9-114.8-94.4-116.1z"/>
	<path style="fill:#7C4605;" d="M-91.8-117.9c0.5,1,2.1,9.1,1.7,9.8c-0.3,0.7-0.6,1.6-2-0.3c-1.4-1.9-1.6-9.3-0.8-9.7
		C-92-118.5-92.2-118.3-91.8-117.9z"/>
	<path style="fill:#A16002;" d="M-95.4-123.7c0.7,0.6,2.8,5.9,2.8,6.5c0,0.6-0.1,1.5-0.3,1.6c-0.2,0.2-1.4-0.2-1.4-0.2s-3-5.6-3-6.5
		C-97.2-123.2-96.4-124.6-95.4-123.7z"/>
	<path style="fill:#7C4605;" d="M-99.4-120c0.7,1.9,1.5,5.3,2.4,5.8c0.9,0.5,1.5,0.8,1.9,0.7c0.3-0.2,0.3-2.6,0.3-3.2
		c0-0.6-1.7-5.8-2.4-6.1c-0.6-0.2-2-0.2-2.1,0.4C-99.6-121.7-99.4-120-99.4-120z"/>
	<path style="fill:#A16002;" d="M-101.9-117.8c0.7,1.9,3.2,7.3,5.2,6.1c1.2-0.7-2.1-7.3-2.8-8.5
		C-100.2-121.4-102.7-120.5-101.9-117.8z"/>
	<path style="fill:#7C4605;" d="M-105.9-116.2c1.5,2,5.6,5.7,6.3,5.7c0.6-0.1,0.7-1.5,0.7-2.6c0-1.1-2.3-5.7-5.8-5.7
		C-105.9-118.9-106.3-117.5-105.9-116.2z"/>
	<path style="fill:#A16002;" d="M-109.9-117.1c1.5,2,4.9,6,5.9,6.5c1,0.5,1.9,0.1,2.1-0.2c0.2-0.3,0.3-1.6-0.4-2.9
		c-0.8-1.4-6.2-6.7-7-4.6C-110-118.1-109.9-117.1-109.9-117.1z"/>
	<path style="fill:#7C4605;" d="M-93.5-118.2c0.5,0.9,1.1,0.7,1.4,0.7c0.3,0,0.4-1.5,0.3-2.3c-0.1-0.8-2.4-4.3-3.4-4.2
		C-96.3-123.9-93.7-118.6-93.5-118.2z"/>
	<path style="fill:#7C4605;" d="M-108.5-115.6c-0.4,0.6,0.4,3.6,2.4,4.1C-104.4-112.7-106.1-114.9-108.5-115.6z"/>
	<path style="fill:#A16002;" d="M-109.9-126c-0.5,1.1-1.1,1.9-1.4,3.9c-0.3,2,0.1,3.3,0.5,3.7c0.4,0.4-0.5,1.3,0.4,1.7
		c0.9,0.4,2.1-0.9,2.5-1.7c0.4-0.8,0.6-6.8,0.6-6.8l-0.2-2.1L-109.9-126z"/>
	<path style="fill:#7C4605;" d="M-101.9-125.4c0,1.1,0,5.1,0.7,5.5c0.7,0.4,1.8,1,2.2,0.8c0.4-0.3,0.7-2.8,0.4-3.6
		c-0.3-0.8-2.2-3.3-2.2-3.3L-101.9-125.4z"/>
	<path style="fill:#A16002;" d="M-101-126c0.1,1.1,0,8.3-0.7,8.2c-0.8,0-3.5-1.7-3.4-1.9c0.4,2.4,0.8,3.5-0.3,3.1
		c-1.1-0.4-2-1.9-2-1.9s-0.1-6,0-6.9C-107.3-126.3-101.1-126.5-101-126z"/>
	<path style="fill:#7C4605;" d="M-108.5-124.5c-0.9,1.8-0.7,5.8,0.4,6.7c1.1,0.9,1.6-0.4,1.6-0.4s0.1-7.3-0.8-7
		C-108.2-124.9-108.5-124.5-108.5-124.5z"/>
	<path style="fill:#7C4605;" d="M-108.3-129.8c-0.7,0.6-2.5,3.4-2.6,3.7c-0.1,0.4-0.3,1.6,2.8-0.1C-105-128-105.4-132.3-108.3-129.8
		z"/>
	<path style="fill:#7C4605;" d="M-102.8-138.8c1.1,0.6,2.9,1.7,3,2.2c0.1-2.1-0.3-3.1-0.7-3.1c-0.4-0.1-5.2-0.6-4.8-2.3
		c0.3-1.7,2.5-2.7,3.4-2.5c0.7,1.4,2.9,3.1,4.9,4.1c2,1,2.7,5.8,2.4,7.5c-0.4,1.7-2.1,3.4-2.2,4.5c-0.1,1.1,1.1,3.3,1.4,3.8
		c0.3,0.4,0.3,1.5,0.3,1.5h-1.6c0,0-3.1-3.4-3.6-3.9C-100.7-127.4-104.2-140-102.8-138.8z"/>
	<path style="fill:#A16002;" d="M-107.9-140.2c0.6-0.2,2.3-0.1,3,0.3c0.7,0.4,2.3,0.9,3,0.8c0.7-0.2,0,1.2-1.1,1.3
		c-1.1,0-4.7-1.1-5.1-1.4C-108.5-139.6-107.9-140.2-107.9-140.2z"/>
	<path style="fill:#7C4605;" d="M-108.6-138.3c0.3,0.1,3.7,1.6,4,1.9c0.3,0.3,2,0.2,1.2-1.3c-0.9-1.5-4.1-2-4.7-1.4
		C-108.7-138.6-108.6-138.3-108.6-138.3z"/>
	<path style="fill:#A16002;" d="M-111.7-136.8c-0.3,0.2-0.3,0.2-0.3,0.2s0.3,1.2,1.3,1.1c1-0.1,1.6-1.4,2-1.3
		c0.5,0.2,2.2,1.4,3.2,1.3c1-0.1,1.3-0.5,1.1-1c-0.2-0.5-3.3-2.4-4.8-1.8C-110.7-137.7-111.7-136.8-111.7-136.8z"/>
	<path style="fill:#A16002;" d="M-108.3-136.9c-0.6,1.5-0.2,3.3,1,3.5c1.3,0.2,2.6-0.3,2.6-1.2c0-0.9-0.7-1.9-1.4-2.2
		C-106.8-137.1-108.3-136.9-108.3-136.9z"/>
	<path style="fill:#A16002;" d="M-108.4-131.9c-0.2,1.1-0.5,1.5-0.9,2.1c-0.4,0.6,1.3,0.7,3.1-0.6c-1.3,1.4-2.7,5.6-2.2,6.3
		c0.5,0.7,2.2,0,2.7-1.8c0.2,1.9,0.6,2.8,1.1,2.8c0.5-0.1,2-1.1,2-2.5c0.1,0.6,1.3,1.8,1.6,1.7c0.2-0.1,1.4-1.8,1.4-3.1
		c0.1-1.4,0.6-2.6-0.2-4.9C-100.6-134.4-107.3-135-108.4-131.9z"/>
	<path style="fill:#A16002;" d="M-102.9-138.3c1.3,0.6,3.7,3.6,4.1,5.6c0.4,2-1.1,1.5-2.3,0.7c-1.2-0.8-2.5-4.3-2.7-5.1
		C-104-137.8-104-138.8-102.9-138.3z"/>
	<path style="fill:#7C4605;" d="M-105.3-134.1c0.7,1.3,3,4.1,3.4,4.2c0.4,0.1,1.3-0.3,0.8-2.5c-0.4-2.2-2.1-5.1-3.2-4.5
		C-105.2-136.4-105.3-134.1-105.3-134.1z"/>
	<path style="fill:#A16002;" d="M-90.6-120.6c1.7,1.9,3.4,1.9,3.9,2.7c0.5,0.8,2.4,3.9,3,3.8c0.6-0.1-1.4-3.9-2.2-4.6
		c-0.8-0.7-1.5-3.1-2.3-3.5C-89.4-122.3-90.9-121-90.6-120.6z"/>
	<path style="fill:#7C4605;" d="M-87.7-122.9c0,1,0.7,4,2.6,4.1c1.9,0.1,3.6,6.7,4.5,6.7c0.9,0,0-2.8-1.1-6.3
		c-1.2-3.5-2.9-5.3-3.7-5.7C-86.3-124.5-87.7-123.1-87.7-122.9z"/>
	<path style="fill:#A16002;" d="M-85.1-124.5c-0.1,1.6,1.2,6.4,4.3,7.3c0.9,0.3,1.4,5.2,2.1,6c0.7,0.7,1.2,0.6,1.1-0.9
		c-0.1-1.5-3.1-10.6-3.1-11.6S-84.3-127-85.1-124.5z"/>
	<path style="fill:#7C4605;" d="M-81.6-123.5c0.1,2.6,2.4,6.8,3.3,7.1c0.9,0.3,2.5,8.6,3.1,8.8c0.7,0.2-0.5-10.4-0.5-11.9
		C-75.7-121.1-80.1-128.1-81.6-123.5z"/>
	<path style="fill:#A16002;" d="M-79.4-125.3c0,1.4,2.2,7.1,4.2,8.9c2,1.8,0.9,9.3,2,10.7c1,1.4,1.1-3.7,1.1-5.1
		c0-1.4-0.9-6.4-0.9-9.8C-73-124.1-76.2-130.2-79.4-125.3z"/>
	<path style="fill:#7C4605;" d="M-76.1-126.1c0,2.2,1.9,5.8,4,8.6c2.1,2.7,0,13.6,1.1,14.2c1.1,0.6,2.3-10.5,2.4-12.8
		c0-2.3,0.7-6.6-1.4-8.7C-72.1-127-75.9-127.6-76.1-126.1z"/>
	<path style="fill:#7C4605;" d="M-92-125.2c-0.8,0.5-2,2.9,1.2,4.3c3.1,1.4,3.3,0,3.4-1.1c0.1-1.1-1.3-2.3-2.6-3.7
		C-90.7-125.9-91.3-126.2-92-125.2z"/>
	<path style="fill:#A16002;" d="M-87.8-128.6c1.5,1.6,3.8,3,3.8,4.2c0,1.2-0.1,2.5-0.4,2.4c-0.3,0-3.3-0.2-3.9-1.1
		c-0.6-1-3-2.5-1.3-4.7C-88.5-129.1-87.8-128.6-87.8-128.6z"/>
	<path style="fill:#7C4605;" d="M-86.6-131.1c0.8,0.7,6.1,6.1,6.4,6.6c0.3,0.6,0.5,1.6,0,2c-0.5,0.4-1.7-0.2-3.8-2
		c-2.1-1.8-4.9-3.1-4.3-5.2C-87.7-131.8-86.6-131.1-86.6-131.1z"/>
	<path style="fill:#A16002;" d="M-85.5-134.9c0.8,0.4,7.1,7.9,7.4,8.6c0.3,0.8,0.3,2.3-0.2,2.5c-0.5,0.2-1.5,0.2-4-1.3
		C-84.7-126.5-91-136.1-85.5-134.9z"/>
	<path style="fill:#7C4605;" d="M-84.5-137.4c1.3,0.9,9.9,10.2,9.9,11.5c0,1.3-0.5,2.4-2.5,0.9c-2-1.5-9.2-9.2-8.9-11.1
		C-85.6-138-85.1-137.6-84.5-137.4z"/>
	<path style="fill:#A16002;" d="M-82.1-140.6c2.1,1.4,8.7,6.7,11.1,13.4c1.1,3.2,2.1,3.8,2.6,4c0.5,0.3,0.3,1-1,0.7
		c-1.2-0.3-4.8-1.5-7-4.5c-2.3-3.1-9.1-10.1-9.1-10.1S-83-141.2-82.1-140.6z"/>
	<path style="fill:#7C4605;" d="M-92.1-138.5c1.3,0.6,6,2.4,7.1,1.9c1.1-0.5,1.1-2.4,0.9-3.1c-0.2-0.7-8.6-2.7-9.4-2.1
		C-94.2-141.3-92.8-138.8-92.1-138.5z"/>
	<path style="fill:#A16002;" d="M-92.3-136c1.6,0.6,4.4,1.7,5.8,2.7c1.4,1,1.5-2.1,1-3.7c-0.6-1.6-7.2-2.5-7.8-1.8
		C-93.9-138.1-92.3-136-92.3-136z"/>
	<path style="fill:#7C4605;" d="M-91.6-132.2c1.4,0.6,3.2,1.6,4.2,1.9c1.1,0.3,2.1-2.7,0.8-4.2c-1.4-1.5-6.4-1.3-6.5-0.4
		C-93.3-133.9-92.4-132.6-91.6-132.2z"/>
	<path style="fill:#A16002;" d="M-92.6-129.9c1.4,1.5,2.2,2.8,3.5,2.6c1.4-0.2,2.3-2.2,0.9-4.2C-89.7-133.7-94.6-131.9-92.6-129.9z"
		/>
	<path style="fill:#A16002;" d="M-102-144c-0.2,1.3,4.8,3,5.7,4.9c1.1,1.9,1.6,3.4,1,6.2c-0.6,2.9-3.3,3.3-0.6,8.2
		c1,1.8,1.8-0.6,1-2.2c2,0.6,2.7-1.4,1.5-2.2c2.7,0.1,2.8-1.6,1.2-2.5c2-0.5,1.6-2.7,0-2.7c1.7-1.1,1.2-2.7,0.4-3.1
		c1.2-0.3-0.7-3.2-1.6-3.8c1.6,1.3,3.3,1.5,2.6,0.2c0.7,1.4,2.4,1.3,2,0c1.9,2.4,2.7,2.5,2.8,1.4c0.9,0.8,2.2,1.9,4.7-1.1
		c0.1-1.1-0.3-0.6-2-1C-84.9-142.2-100.6-150.3-102-144z"/>
	<path style="fill:#A16002;" d="M-95.1-126.9c2,0.6,4.5,1.8,3,4.3c1,0.1,3.2,4.1,0.7,4C-94.2-120.5-98.2-125.7-95.1-126.9z"/>
	<path style="fill:#7C4605;" d="M-113.1-138.6c0.4-0.5,0.8-1.3,0.8-1.9c0-0.6,0.2-0.8,0.4-0.3c0.2,0.4,0.6,1.7,0.4,2.1
		c-0.2,0.4-0.9,1.3-1.9,1.3C-113.3-137.9-113.1-138.6-113.1-138.6z"/>
	<path style="fill:#A16002;" d="M-111.9-136.6c0.5-0.7,1.7-3.5,2-5.1c0-0.2,0.1-0.2,0.2-0.1c0.4,1.2,0.6,3.2,0.4,3.6
		C-109.7-137.8-111.2-136.7-111.9-136.6z"/>
	<path style="fill:#FFFFFF;" d="M-109.7-139.6"/>
	<path style="fill:#7C4605;" d="M-109.6-139.2c0.3-0.4,1.3-1.9,1.5-2.5c0.3-0.7,0.6-0.3,0.7,0.2c0,0.5-0.3,3-0.9,3.3
		c-0.5,0.4-1.8,0.3-1.8,0.1C-110.1-138.4-109.6-139.2-109.6-139.2z"/>
	<path style="fill:#A16002;" d="M-99.5-127.1c1.5,1.1,3.4,2.7,3.2,3.4c-0.1,0.7-0.3,1.9-0.3,1.9s-1.6-0.1-2.2-0.2
		c-0.5-0.1-1.8-4.2-1.8-4.2L-99.5-127.1z"/>
	<path style="fill:#7C4605;" d="M-106.6-113.2c0.1,1.2-0.2,5.1,1.5,5.6c1.7,0.5,1.9-1.2,1.9-2.1
		C-103.1-110.6-105.6-113.9-106.6-113.2z"/>
	<path style="fill:#A16002;" d="M-106.4-110.8c-0.7-0.6-1.5-1.1-1.8-0.4c-0.3,0.7,1.1,2.2,2.8,2.2
		C-103.7-109-105.7-110.3-106.4-110.8z"/>
	<path style="fill:#FFB000;" d="M-109.1-108.5c0.6,0.1,5.1,1.6,5.3,1.7s-1.1,1.4-1.1,1.4s-4.3-0.6-6.5-1.7
		C-111.3-107-110-108.9-109.1-108.5z"/>
	<path style="fill:#036D45;" d="M-119.8-139.4c-0.9,0.2-1.2,1.2-1.8,1.4c-0.6,0.2-2.2,0.4-2.5,1.9c-0.9,3.9,0.6,6.7,4.9,6.2
		c3.1-0.4,5.6,1.6,1,4.6c-3,1.9-6.4,6.7-3.3,10.2c3.1,3.5,8,2,8.1,2.7c0.2,0.7-3.2,4.6-6,4.1c-1.5-2-1.1-3.7-2.1-4.4
		c-0.9-0.7-3.8-1.6-3.6-2.6c0.2-0.9,1.7-3.7,0.9-5.2c-0.9-1.6-3-3.8-4.3-3.1c-1.4,0.7-1.6,1.4,0.3,2.2c1.8,0.8,2.1,2,1.6,3.9
		c-0.5,1.9-2,3.7,1.6,6.2c2.4,1.7,1.7,4.6,4.6,5.6c1.8,0.6,2.5-0.1,3.6-0.7c1.1-0.6,7.3-1.3,6.9-4.9c-0.3-3.5-0.6-3.8-3.9-4.3
		c-3.4-0.5-5,0-5.3-2.8c-0.3-2.8,3.3-4.3,5.6-6.9c2.3-2.6,2.3-5.8-3.3-6.9c-1-0.1-4.2-0.4-4.6-0.6c-0.4-0.3,1-0.7,1.9-0.9
		c0.9-0.2,1-0.9,0.6-1.1c-0.3-0.1-2,0.5-2.3,0.4c-0.1-0.4-0.2-1.5,1.1-2.4c0.6,0.1,0.1,0.8,0.5,1c0.4,0.1,1.1-1.7,0.3-2.5
		C-119.2-138.4-119.4-139.5-119.8-139.4z"/>
	<path style="fill:#FFC11E;" d="M-109.4-133.1c-0.2,1.5-2.5,2.6-3.3,3c0,0-0.9-0.8-2.2-1.5c-2.2-0.4-2.2,2.2-1.3,3.4
		c-4.8,0.1-2.4-4.3-1.7-4.9c0-0.7,0.7-1.7,1.2-1.8C-111.6-135.3-109.6-134.5-109.4-133.1z"/>
	<path style="fill:#7C4605;" d="M-94.2-126.8c1.4,1.6,2.2,2.6,2.9,2.3c0.8-0.3,2.6-0.9,1.2-3.7c-1.6-1.6-4-1.4-4.4-0.9
		C-94.7-128.6-94.7-127.4-94.2-126.8z"/>
	<path style="fill:#FFB000;" d="M-115.3-111c-0.3-0.1-1.4,0-1.6,0.5c-0.2,0.5,0.9,4,1.5,4c0.6,0,0.9-0.7,0.9-0.7
		S-115.6-110.6-115.3-111z"/>
	<path style="fill:#FFC11E;" d="M-115.2-108.5c0.6,0.1,1.6-0.5,1.6-1c0.5,0.4,0.5,1.5,1.2,1.3c0.4-0.6,2.6-1.3,2.5-2.3
		c0.8,0.3,2,1.3,0.8,2.6c-1.2,1.2-2.8,2.1-3.3,2.1C-113.1-105.8-115.7-107.2-115.2-108.5z"/>
	<path style="fill:#FFFFFF;" d="M-114.2-112c-0.6,0.3-2.1,2.1-1,3.4c0.7,0.1,1.7-0.3,1.6-1C-114-110.1-113.5-112.3-114.2-112z"/>
	<path style="fill:#FFC11E;" d="M-116.7-110.1c-0.4-0.1-1.2-0.3-1.3,0.8c-0.1,1.1,1.4,3.2,2.1,2.9c0.7-0.2,0.4-1.1,0.2-1.5
		C-115.8-108.3-116.7-110.1-116.7-110.1z"/>
	<path style="fill:#FFB000;" d="M-117.8-109.1c-0.5-0.3-0.9,0.2-0.8,0.9c0.1,0.7,1.7,3.9,2,1.2
		C-116.8-108.1-117.8-109.1-117.8-109.1z"/>
	<path style="fill:#7C4605;" d="M-114.6-134.2c0.3,0.8,0.7,1.2,2.2,0.9c1.5-0.4,3.3-1,3.7,1.9c0,0.4,2.8-1.8,0.4-2.6
		c1.1,0.2,1.1-0.6,0.6-1.1c0.5-0.7,0-2.4-1.3-1.5c-1.2,0.8-2.9,0.6-2.9,0.2c0.3-0.5,1.4-1.9,1.3-2.1c-0.1-0.2-1-0.3-1-0.3
		S-114.9-136.1-114.6-134.2z"/>
	<path style="fill:#FFFFFF;" d="M-113.6-136.9c0.3,0.1,1.4,0.6,1.1,1.5c-0.3,0.8-2.2,2.3-3.1,1.1C-115.3-135.3-114-137-113.6-136.9z
		"/>
	<path d="M-113.9-136.6c0.6,0.3,1.1,1.5-0.1,2c-0.9,0.4-1.4-0.2-1.4-0.5C-115.4-135.3-114.3-136.8-113.9-136.6z"/>
	<path style="fill:#AE6506;" d="M-117-134.8c0.5-1.4,2.1-2.1,2.7-3c0.6-0.9,0.7-1.9,0.9-1.9c0.2,0,0.7,1.3,0.6,1.7
		c-0.1,0.4-2.7,3.2-2.9,3.6C-116.4-134.2-116.8-134.7-117-134.8z"/>
	<path style="fill:#A16002;" d="M-106.4-109.1c-0.9,0.5-1.8,0.7-1.3,1.5c0.5,0.9-1.9,1.4-1.9,2.2c0,0.8,2,1.6,4.8,0.4
		c2.7-1.3,3.3-3.3,2.7-4C-102.8-109.6-105.3-109.6-106.4-109.1z"/>
	<path style="fill:#8FBEEA;" d="M-122-91.6c1.1,0.8,5.6,2.8,3.1,4.3l0.3,0.8c2.8-0.1,8.5,0.5,5.8,3c-1.1,0.2-1,0.4-1,0.4l1,0.7
		c0,0,3.5,0.4,5.3,0.4c1.8,0.9,1.2,2.8,2.6,2.8c1.4,0,9.5,0,10.3,0c0.8,0,1.1-1.4,0.9-2.3c0.9-0.1,5.2-0.4,7.2-1.7l0.3-0.7
		c0,0-1.4-0.3-1.7-0.8c-0.3-0.4,2-1.5,3.1-2l-0.4-0.8c-1.8,0.4-5,1.1-7.2,0.9c-3.3-0.1-13.2-0.5-15.1-0.7c-2-0.3-4.3-1.8-4.9-4
		c-0.8,0-0.9,0.2-0.9,0.2s0.1,1.2-0.8,1.4c-0.9,0.3-6.4-2.1-8.2-2.8L-122-91.6z"/>
	<path style="fill:#FFFFFF;" d="M-111.6-92.1c0,0.8-0.7,1.5-1.5,1.5l0,0c-0.8,0-1.5-0.7-1.5-1.5l0,0c0-0.8,0.7-1.5,1.5-1.5l0,0
		C-112.3-93.6-111.6-92.9-111.6-92.1L-111.6-92.1z"/>
	<path style="fill:#FFFFFF;" d="M-118.5-86.8c0,0.8-0.7,1.5-1.5,1.5l0,0c-0.8,0-1.5-0.7-1.5-1.5l0,0c0-0.8,0.7-1.5,1.5-1.5l0,0
		C-119.2-88.3-118.5-87.6-118.5-86.8L-118.5-86.8z"/>
	<path style="fill:#FFFFFF;" d="M-84.2-83.5c0,0.8-0.7,1.5-1.5,1.5l0,0c-0.8,0-1.5-0.7-1.5-1.5l0,0c0-0.8,0.7-1.5,1.5-1.5l0,0
		C-84.9-85-84.2-84.3-84.2-83.5L-84.2-83.5z"/>
	<path style="fill:#A16002;" d="M-83.5-85.9c-1.1,0.3-2.1,0-2.4-0.8l0,0c-0.2-0.8,0.4-1.7,1.5-2l0,0c1.1-0.3,2.1,0,2.4,0.8l0,0
		C-81.7-87.2-82.4-86.3-83.5-85.9L-83.5-85.9z"/>
	<path style="fill:#A16002;" d="M-114.7-81c-1.1,0.3-2.1,0-2.4-0.8l0,0c-0.2-0.8,0.4-1.7,1.5-2l0,0c1.1-0.3,2.1,0,2.4,0.8l0,0
		C-112.9-82.2-113.6-81.3-114.7-81L-114.7-81z"/>
	<path style="fill:#A16002;" d="M-123.7-91.3c-0.9-0.6-1.4-1.6-0.9-2.3l0,0c0.4-0.7,1.6-0.7,2.5-0.1l0,0c0.9,0.6,1.4,1.6,0.9,2.3
		l0,0C-121.6-90.7-122.7-90.7-123.7-91.3L-123.7-91.3z"/>
	<circle style="fill:#A16002;" cx="-107.6" cy="-88.9" r="1.6"/>
	<circle style="fill:#A16002;" cx="-107.6" cy="-81.7" r="1.6"/>
	<circle style="fill:#A16002;" cx="-92.8" cy="-88.9" r="1.6"/>
	<circle style="fill:#A16002;" cx="-92.8" cy="-81.7" r="1.6"/>
	<path style="fill:#A16002;" d="M-92.2-82.4c0,0.7-0.6,1.2-1.2,1.2h-13.4c-0.7,0-1.2-0.5-1.2-1.2v-6.1c0-0.7,0.6-1.2,1.2-1.2h13.4
		c0.7,0,1.2,0.6,1.2,1.2V-82.4z"/>
	<path style="fill:#016C44;stroke:#004007;stroke-miterlimit:10;" d="M-63.5-111.2c-0.3,2.3,0,5.9,1.9,6.9
		C-60.3-108.3-61.8-109.8-63.5-111.2z"/>
	<path style="fill:#016C44;stroke:#004007;stroke-miterlimit:10;" d="M-69-88.7c1.8-3.5-1.9-9.5,4.5-11.8
		C-64.2-96.7-64.2-92-69-88.7z"/>
	<path style="fill:#016C44;stroke:#004007;stroke-miterlimit:10;" d="M-80.2-79.9c1.7-0.1,7.4-4.2,7.4-5.3c0-1.1,0.2-2.2-0.4-3.9
		C-75.5-85.1-78.4-84.8-80.2-79.9z"/>
	<path style="fill:#016C44;stroke:#004007;stroke-miterlimit:10;" d="M-68.7-85.8c-0.6,2.6-2.1,4.5-3.3,4.8
		c-1.1,0.4-5.6,0.4-7.7,0.8C-76-82.1-76.6-85.5-68.7-85.8z"/>
	<path style="fill:#016C44;stroke:#004007;stroke-miterlimit:10;" d="M-83.9-80.5c-4,0-5-0.5-8.9,4C-91.6-75.6-86.7-75.4-83.9-80.5z
		"/>
	<path style="fill:#016C44;stroke:#004007;stroke-miterlimit:10;" d="M-91.3-75c0.6,1.1,1.4,3.6,10.1,0
		C-84.9-77.9-89.5-75.4-91.3-75z"/>
	<path style="fill:#A16002;" d="M-138-97.9c-0.3-1.3-0.5-2-0.4-2.2c0.1-0.3,1.4-1.1,1.4-1.4s-1-0.9-0.9-1.1c0-0.2,2-2,1.7-2.5
		c-0.3-0.6-1.5,0.3-1.6,0c-0.2-0.3,1.5-3.3,1-3.5c-0.5-0.1-1.4,0.4-1.4,0c0-0.4,1.5-2.4,0.9-3c-0.5-0.6-1.7-0.2-1.9-0.5
		c-0.3-0.3-0.8-1.5-1.2-1.2c-0.9,0.5,0.6,3,0.1,3.6c-0.5,0.6-1.4-0.3-1.4,0.5c0,0.7,2.1,2.7,1.3,3.2c-0.8,0.5-1.8-0.1-1.8,0.3
		c0,0.4,2,1.8,1.7,2.4c-0.3,0.6-2,0.6-2,1c0.2,1.4,2.7,1.2,3.3,2.7c0.2,0.5,0.3,1.1,0.5,2C-138.7-96.9-137.8-97.1-138-97.9z"/>
	<path style="fill:#A16002;" d="M-138.3-97.3c0.3-0.3,0.7-1.3,0.8-1.4c0.1,0,0.6,0.2,0.6,0.1c0.1-0.1,0-0.4,0.1-0.5
		c0.1,0,0.9,0.1,1-0.1c0.1-0.2-0.4-0.3-0.3-0.4c0-0.1,1.1-0.3,1.1-0.4c-0.1-0.2-0.4-0.3-0.3-0.4c0.1-0.1,0.9-0.1,0.9-0.4
		c0.1-0.3-0.3-0.5-0.3-0.6c0-0.1,0.2-0.5,0.1-0.6c-0.3-0.1-0.6,0.7-0.9,0.7c-0.2,0-0.2-0.4-0.4-0.3c-0.2,0.2-0.3,1.1-0.6,1
		c-0.3-0.1-0.3-0.5-0.4-0.4c-0.1,0.1-0.1,0.9-0.3,0.9s-0.6-0.4-0.6-0.3c-0.3,0.3,0.2,0.9,0,1.4c-0.1,0.1-0.5,1.1-0.7,1.3
		C-138.7-97.3-138.5-97.1-138.3-97.3z"/>
	<path style="fill:#A16002;" d="M-138.5-97.3c-0.3-0.3-1.1-1.1-1.1-1.1c-0.1,0-0.5,0.3-0.6,0.2c-0.1-0.1-0.1-0.4-0.2-0.4
		c-0.1,0-0.8,0.3-1,0.2c-0.1-0.2,0.3-0.4,0.2-0.5c-0.1-0.1-1.2,0-1.1-0.1c0-0.2,0.3-0.4,0.2-0.4c-0.1-0.1-0.9,0.1-1-0.1
		c-0.1-0.2,0.1-0.5,0.1-0.6s-0.3-0.4-0.2-0.5c0.3-0.2,0.8,0.6,1,0.5c0.2-0.1,0.1-0.5,0.3-0.4c0.2,0.1,0.5,1,0.8,0.8
		c0.2-0.2,0.2-0.5,0.3-0.5c0.1,0,0.3,0.8,0.5,0.8c0.2,0,0.4-0.5,0.5-0.5c0.4,0.2,0,0.9,0.4,1.3c0.1,0.1,0.8,1,1,1.1
		C-138.1-97.4-138.3-97.2-138.5-97.3z"/>
	<path style="fill:#A16002;" d="M-128.9-87c0-0.4-0.2-1.5-0.1-1.6c0.1-0.1,0.5-0.2,0.6-0.3c0-0.1-0.2-0.4-0.2-0.4
		c0-0.1,0.8-0.4,0.7-0.6c0-0.2-0.5,0-0.5-0.1c0-0.1,0.8-0.9,0.6-1s-0.5,0-0.4-0.1c0-0.1,0.7-0.6,0.6-0.8c-0.1-0.2-0.5-0.2-0.6-0.3
		c-0.1-0.1-0.1-0.5-0.3-0.5c-0.3,0.1-0.1,1-0.3,1.1c-0.2,0.1-0.4-0.2-0.5,0c-0.1,0.2,0.4,1,0.1,1.1c-0.3,0.1-0.5-0.2-0.6-0.1
		c0,0.1,0.4,0.7,0.3,0.9s-0.7,0-0.7,0.1c-0.1,0.5,0.7,0.6,0.8,1.1c0,0.2,0.2,1.2,0.2,1.5C-129.2-86.7-128.9-86.7-128.9-87z"/>
	<path style="fill:#A16002;" d="M-129.5-86.9c-0.4,0-1.5-0.3-1.6-0.3c-0.1,0.1-0.2,0.5-0.3,0.5c-0.1,0-0.4-0.2-0.4-0.2
		c-0.1,0-0.5,0.8-0.7,0.7c-0.2-0.1,0-0.5-0.1-0.5c-0.1,0-0.9,0.7-1,0.5c-0.1-0.1,0-0.5-0.1-0.4c-0.1,0-0.6,0.6-0.9,0.5
		c-0.2-0.1-0.2-0.5-0.3-0.6c-0.1-0.1-0.5-0.2-0.5-0.3c0.1-0.3,1,0,1.1-0.2c0.1-0.2-0.2-0.4,0-0.5c0.2,0,1,0.5,1.1,0.2
		c0.1-0.3-0.2-0.6-0.1-0.6c0.1,0,0.7,0.5,0.9,0.4s0.1-0.7,0.2-0.7c0.5,0,0.5,0.8,1.1,0.9c0.2,0,1.2,0.3,1.5,0.3
		C-129.2-87.1-129.3-86.9-129.5-86.9z"/>
	<path style="fill:#A16002;" d="M-119.6-77.9c0-0.4-0.3-1.5-0.2-1.6c0.1-0.1,0.5-0.2,0.5-0.3c0-0.1-0.2-0.4-0.2-0.4
		c0-0.1,0.8-0.5,0.7-0.7c-0.1-0.2-0.5,0-0.5-0.1c0-0.1,0.7-0.9,0.6-1c-0.1-0.1-0.5,0-0.4-0.1c0-0.1,0.6-0.6,0.5-0.9
		c-0.1-0.2-0.5-0.2-0.6-0.3c-0.1-0.1-0.2-0.5-0.3-0.5c-0.3,0.1,0,1-0.2,1.1c-0.2,0.1-0.4-0.2-0.5,0c0,0.2,0.5,1,0.2,1.1
		c-0.3,0.1-0.6-0.2-0.6-0.1c0,0.1,0.5,0.7,0.4,0.9c-0.1,0.2-0.7,0.1-0.7,0.2c0,0.5,0.7,0.6,0.8,1.1c0,0.2,0.3,1.2,0.3,1.5
		C-119.9-77.6-119.6-77.7-119.6-77.9z"/>
	<path style="fill:#A16002;" d="M-119.7-77.3c-0.4,0.1-1.5,0.2-1.6,0.3c-0.1,0.1,0,0.6-0.1,0.6c-0.1,0-0.4-0.1-0.5-0.1
		c0,0-0.2,0.9-0.4,0.9s-0.2-0.5-0.3-0.4c-0.1,0-0.7,1-0.8,0.9c-0.1-0.1-0.1-0.4-0.2-0.4c-0.1,0.1-0.4,0.8-0.7,0.8
		c-0.3,0-0.4-0.4-0.5-0.4c-0.1,0-0.5,0-0.5-0.1c0-0.3,0.9-0.3,1-0.6c0.1-0.2-0.3-0.3-0.1-0.5c0.2-0.1,1.1,0.1,1.1-0.2
		c0-0.3-0.3-0.5-0.2-0.5c0.1-0.1,0.8,0.2,0.9,0.1c0.1-0.2-0.2-0.7-0.1-0.7c0.4-0.2,0.8,0.5,1.3,0.4c0.2,0,1.2-0.1,1.5-0.2
		C-119.6-77.6-119.5-77.3-119.7-77.3z"/>
	<path style="fill:#016C44;stroke:#004007;stroke-miterlimit:10;" d="M-127.8-86.5c-1.7-1.2-2.6-2.1-2.7-2.3c-0.1-0.3,0.4-1.8,0.2-2
		c-0.2-0.2-1.3-0.1-1.4-0.3c-0.1-0.2,0.3-2.8-0.3-3c-0.6-0.2-0.9,1.2-1.2,1c-0.3-0.1-0.9-3.5-1.4-3.3c-0.5,0.2-0.8,1.2-1.1,0.8
		c-0.3-0.3-0.3-2.8-1.2-2.9c-0.8-0.2-1.5,0.9-1.8,0.8c-0.4,0-1.6-0.6-1.8-0.2c-0.4,0.9,2.4,2,2.4,2.7c0,0.7-1.3,0.7-0.8,1.2
		c0.5,0.6,3.3,0.8,3,1.7c-0.3,0.9-1.5,1.1-1.3,1.3c0.2,0.3,2.7,0.2,2.8,0.8c0.2,0.6-0.9,1.2-0.7,1.5c0.1,0.2,4.4,0.5,6.7,2.7
		C-127.9-85.3-127.4-86.2-127.8-86.5z"/>
	<path style="fill:#016C44;stroke:#004007;stroke-miterlimit:10;" d="M-118.2-77.1c-1.4-0.9-2.2-1.4-2.3-1.6c-0.1-0.3,0.3-1.8,0-2
		c-0.3-0.2-1.3,0-1.4-0.1s0-2.8-0.6-3c-0.6-0.2-0.8,1.3-1.1,1.2c-0.3-0.1-1.3-3.4-1.7-3.1c-0.4,0.3-0.7,1.2-1,0.9s-0.6-2.7-1.4-2.8
		c-0.8-0.1-1.4,1-1.7,1c-0.4,0-1.6-0.5-1.8,0c-0.3,1,2.5,1.7,2.6,2.5s-1.2,0.8-0.7,1.3c0.5,0.5,3.4,0.5,3.2,1.3
		c-0.2,0.9-1.4,1.2-1.1,1.5c0.2,0.3,2.7-0.1,2.9,0.5c0.2,0.6-1,1.9-0.7,2.1c1.1,0.8,2.7-1,4.2-0.4c0.6,0.3,1.4,0.9,2.4,1.6
		C-117.8-75.8-117.6-76.7-118.2-77.1z"/>
	<path style="fill:#016C44;stroke:#004007;stroke-miterlimit:10;" d="M-103.1-77.3c-3,0.4-4.5,0.8-4.8,0.7c-0.3-0.1-0.9-1.6-1.2-1.6
		s-1,0.9-1.2,0.8c-0.2-0.1-1.7-2.2-2.3-2c-0.6,0.2,0.2,1.5-0.2,1.6c-0.3,0.1-3.1-1.9-3.3-1.4c-0.2,0.5,0.2,1.4-0.2,1.4
		c-0.4,0-2.2-1.7-2.9-1.3c-0.7,0.4-0.4,1.6-0.7,1.9c-0.3,0.2-1.6,0.7-1.4,1.1c0.4,0.9,3.1-0.3,3.6,0.3c0.5,0.5-0.4,1.4,0.3,1.4
		c0.7,0.1,2.9-1.8,3.3-0.9c0.4,0.8-0.3,1.8,0,1.9c0.4,0.1,2-1.7,2.6-1.4c0.5,0.3,0.2,1.5,0.5,1.6c0.4,0.1,5.9-3.7,8.3-3.2
		C-100.6-76-101-77.5-103.1-77.3z"/>
	<path style="fill:#016C44;stroke:#004007;stroke-miterlimit:10;" d="M-57.5-111.5c1.5,4.1,0.3,6.6-4.5,9.2
		C-62.4-105-60.4-110.1-57.5-111.5z"/>
	<path style="fill:#016C44;stroke:#004007;stroke-miterlimit:10;" d="M-59.5-98.7c-5.3,0.2-6,4.3-6.9,5.4c-0.9,1.1-1.6,3.7-2.7,4.6
		c5.1-2,6.7-3.3,7.5-5.8C-60.6-97-59.9-98.3-59.5-98.7z"/>
	<path style="fill:#016C44;stroke:#004007;stroke-miterlimit:10;" d="M-80.4-79.8c1.3-1.2,4.4-5,5.5-5.8c2.3-1.6,4.7-3.3,6.5-3.5
		C-68.9-87.6-70.6-81.3-80.4-79.8z"/>
	<path style="fill:#016C44;stroke:#004007;stroke-miterlimit:10;" d="M-98.7-77c1.9-0.2,6.1,0.8,8.1,0.4c2-0.4,2.9-2.2,10.6-3.2
		c-0.8,1.5-4.7,6.5-10.7,5.5c-4.3-0.7-8-2.4-8-2.4V-77z"/>
	<path style="fill:#016C44;stroke:#004007;stroke-miterlimit:10;" d="M-60.5-112.8c-0.6,1.3-2,4.2-1.7,10.8
		C-60.2-103.3-57.6-109.3-60.5-112.8z"/>
	<path style="fill:#016C44;stroke:#004007;stroke-miterlimit:10;" d="M-62-102.6c0.4,4.7,0.3,5.8-0.7,7.5c-1,1.7-2.2,4.2-6.6,6.8
		c2.1-3.3,1.9-6.9,2.9-8.4C-65.3-98.2-64.3-99.6-62-102.6z"/>
	<path style="fill:#FFFFFF;" d="M-107.2-71.9c0.9,0.1,3.1,0.9,3.7,1.5c2-1.7,4.8-4.8,4.8-4.8l-4-0.5
		C-102.7-75.8-105-74.9-107.2-71.9z"/>
	<path style="fill:#016C44;" d="M-101.8-75.7l-0.9-0.1c0,0-2.3,0.9-4.5,3.9c0.3,0,0.7,0.1,1.1,0.3
		C-104.4-73.3-102.8-75.3-101.8-75.7z"/>
	<line style="fill:#016C44;" x1="-100.3" y1="-75.5" x2="-101.8" y2="-75.7"/>
	<path style="fill:#F5032B;" d="M-100.3-75.5l1.6,0.2c0,0-2.8,3.2-4.8,4.8c-0.1-0.1-0.4-0.3-0.7-0.5
		C-104.2-70.9-103-73.3-100.3-75.5z"/>
	<path style="fill:#FFFFFF;" d="M-93-71.8c-0.9,0.1-3.1,0.9-3.7,1.5c-2-1.7-4.8-4.9-4.8-4.9l4-0.5C-97.4-75.7-95.1-74.8-93-71.8z"/>
	<path style="fill:#F5032B;" d="M-98.3-75.6l0.9-0.1c0,0,2.3,0.9,4.5,3.9c-0.3,0-0.7,0.1-1.1,0.3C-95.7-73.2-97.3-75.2-98.3-75.6z"
		/>
	<path style="fill:#016C44;" d="M-99.8-75.4l-1.6,0.2c0,0,2.8,3.2,4.8,4.9c0.1-0.1,0.4-0.3,0.7-0.5C-96-70.8-97.1-73.2-99.8-75.4z"
		/>
	<path style="fill:#016C44;" d="M-106-71.7c0.6,0.2,1.3,0.5,1.9,0.8"/>
	<path style="fill:#FFFFFF;" d="M-97.1-76.4c0,1.2-0.9,2.1-2.1,2.1h-1.8c-1.2,0-2.1-0.9-2.1-2.1l0,0c0-1.2,0.9-2.1,2.1-2.1h1.8
		C-98.1-78.6-97.1-77.6-97.1-76.4L-97.1-76.4z"/>
	<path style="fill:#016C44;" d="M-101-78.6c-1.2,0-2.1,0.9-2.1,2.1l0,0c0,1.2,0.9,2.1,2.1,2.1V-78.6z"/>
	<path style="fill:#F5032B;" d="M-99.2-74.3c1.2,0,2.1-0.9,2.1-2.1l0,0c0-1.2-0.9-2.1-2.1-2.1V-74.3z"/>
</g>
<linearGradient id="SVGID_1_" gradientUnits="userSpaceOnUse" x1="-99.26" y1="36.6697" x2="-99.26" y2="-152.6725">
	<stop  offset="0" style="stop-color:#FFFFFF;stop-opacity:0"/>
	<stop  offset="1" style="stop-color:#FFFFFF"/>
</linearGradient>
<path style="opacity:0.3;fill:url(#SVGID_1_);" d="M-99.3-240.7c-71,0-128.5,57.5-128.5,128.5S-170.2,16.4-99.3,16.4
	c71,0,128.5-57.5,128.5-128.5S-28.3-240.7-99.3-240.7z"/>
<path style="opacity:5.000000e-002;fill:#FFFFFF;" d="M-99.3-240.7c-71,0-128.5,57.5-128.5,128.5c0,9.9,1.1,19.5,3.2,28.7
	c19.3-22.1,231.3-22.9,249.8,3.4c2.6-10.3,4-21,4-32.1C29.3-183.1-28.3-240.7-99.3-240.7z"/>
</svg>
