<?xml version="1.0" encoding="utf-8"?>
<!-- Generator: Adobe Illustrator 16.0.0, SVG Export Plug-In . SVG Version: 6.00 Build 0)  -->
<!DOCTYPE svg PUBLIC "-//W3C//DTD SVG 1.1//EN" "http://www.w3.org/Graphics/SVG/1.1/DTD/svg11.dtd">
<svg version="1.1" id="Capa_1" xmlns="http://www.w3.org/2000/svg" xmlns:xlink="http://www.w3.org/1999/xlink" x="0px" y="0px"
	 width="254.2px" height="318.5px" viewBox="-227.1 -240.7 254.2 318.5" style="enable-background:new -227.1 -240.7 254.2 318.5;"
	 xml:space="preserve">
<g>
	<ellipse style="fill:#BCBCBC;" cx="-100.3" cy="73.7" rx="35.3" ry="4.2"/>
	<g>
		<path style="fill:#1E336C;" d="M-94.1,70.5C-18.9-0.5,26.5-69.8,26.5-112.3c0-70.1-56.8-126.8-126.8-126.8
			c-70.1,0-126.8,56.8-126.8,126.8c0,43.8,31.9,98.5,119.1,182.8C-103.3,75-97.5,73.6-94.1,70.5z"/>
		<path style="fill:#192D5B;" d="M-39.7,13.5c-15.7,18.5-34,37.7-54.5,57c-3.3,3.2-9.1,4.6-13.9,0c-21.4-20.7-39.5-39.6-54.6-57
			C-103.4,62.6-96.7,61.8-39.7,13.5z"/>
		<g>
			<path style="fill:#01319F;" d="M-202.3-114.3c0,18.6,5,36,13.6,51L-97.5-26l85.5-37.4c8.7-15,13.6-32.4,13.6-51l-102-35.2
				L-202.3-114.3z"/>
			<path style="fill:#FD0805;" d="M-11.9-63.3c-17.6,30.5-50.6,51-88.4,51c-37.8,0-70.7-20.5-88.4-51L-11.9-63.3z"/>
			<path style="fill:#FFCC21;" d="M1.7-114.3c0-56.3-45.7-102-102-102c-56.3,0-102,45.7-102,102H1.7z"/>
		</g>
		<g>
			<g>
				<path style="fill:#EFB81D;" d="M-100.3-216.3c-51.6,0-94.2,38.3-101,88c11.2-45.3,52.2-79,101-79c48.8,0,89.8,33.6,101,79
					C-6.1-178-48.7-216.3-100.3-216.3z"/>
			</g>
		</g>
		<g>
			<g>
				<g>
					<path style="fill:#F75454;" d="M-179.8-50.5c18.7,23.2,47.4,38.1,79.5,38.1c32.1,0,60.8-14.9,79.5-38.1
						c-21.2,18.6-49,30-79.5,30C-130.8-20.5-158.6-31.8-179.8-50.5z"/>
				</g>
			</g>
		</g>
		<path style="fill:#162954;" d="M-100.3-221.5c-59.2,0-107.1,48-107.1,107.1s48,107.1,107.1,107.1c59.2,0,107.1-48,107.1-107.1
			S-41.1-221.5-100.3-221.5z M-100.3-12.3c-56.3,0-102-45.7-102-102s45.7-102,102-102c56.3,0,102,45.7,102,102S-44-12.3-100.3-12.3z
			"/>
		<g>
			<path style="fill:#FE0201;" d="M-102.3-64.8c0,2.1-1.1,13.3-5.1,13.3c4.8,2.5,11.1,3.1,17,0c-3.9,0-5.1-11.1-5.1-13.3H-102.3z"/>
			<path style="fill:#FFCC21;" d="M-110.1-64.3c-0.8,2.3-2.1,6.2-5.1,6.9c2.3,2.1,5.2,5.2,8.6,3.9s5.3-11.5,5-12.6
				C-101.8-67.2-108.7-64.6-110.1-64.3z"/>
			<path style="fill:#FFCC21;" d="M-87.9-64.3c0.8,2.3,2.1,6.2,5.1,6.9c-2.3,2.1-5.2,5.2-8.6,3.9c-3.4-1.3-5.3-11.5-5-12.6
				C-96.2-67.2-89.2-64.6-87.9-64.3z"/>
			<path style="fill:#0033A0;" d="M-115.8-57.2c0.6,0.8,3.9,4.3,9.1,5.9c5.7-2.3,5.8-11.3,5.8-13.6c0-2.2-2.2-0.8-2.2-0.8
				s-0.3,7.8-3.9,11.3c-1.2,1.1-5.1-0.8-7.7-3.2C-115.6-58.3-115.7-57.4-115.8-57.2z"/>
			<path style="fill:#0033A0;" d="M-82.2-57.2c-0.6,0.8-3.9,4.3-9.1,5.9C-97-53.6-97-62.6-97-64.8c0-2.2,2.2-0.8,2.2-0.8
				s0.3,7.8,3.9,11.3c1.2,1.1,5.1-0.8,7.7-3.2C-82.4-58.3-82.2-57.4-82.2-57.2z"/>
			<path style="fill:#FFCC21;" d="M-75.7-62.2c2.2,2.1,6.8,6.9,7.9,7.9c0.9,0.9,2.2-0.4,1.3-1.4c-1.5-1.6-7.5-8-7.5-8L-75.7-62.2z"
				/>
			<path style="fill:#FFCC21;" d="M-69.4-69.3c2.2,2.1,6.8,6.9,7.9,7.9c0.9,0.9,2.2-0.4,1.3-1.4c-1.5-1.6-7.5-8-7.5-8L-69.4-69.3z"
				/>
			<path style="fill:#7D3831;" d="M-110.8-69.8c4.7,0,19.5,0,22.7,0c3.2,0,2.9,6.6,0,6.6c-4.7,0-19.7,0-22.7,0
				C-113.8-63.2-113.9-69.8-110.8-69.8z"/>
			<g>
				<path style="fill:#FFCC21;" d="M-72.9-124.5c-2.3,2.1-10.8,9.3-10.8,9.3c0,0.5,0,10.4,0,12c0,1.6-1.8,5.2-6.8,7.8
					c2,2.6,5.2,8.1,11.2,7.2c5.5-0.7,6.4-5.1,6.4-8S-72.9-124.5-72.9-124.5z"/>
				<path style="fill:#0033A0;" d="M-86.9-90.9c-1.6-1.5-2.7-3.3-3.7-4.5c5-2.6,6.8-6.2,6.8-7.8c0-1.6,0-11.5,0-12
					c0,0,3.1-2.6,6.1-5.2c0,5,0,18.3,0,20.4S-78.2-90.3-86.9-90.9z"/>
				<path style="fill:#FE0201;" d="M-88.6-92.9c-0.7-0.9-1.4-1.8-1.9-2.5c5-2.6,6.8-6.2,6.8-7.8c0-1.6,0-11.5,0-12
					c0,0,1.3-1.1,3-2.5c0,4.1,0,12.4,0,15.3C-80.8-99.6-81.2-95-88.6-92.9z"/>
				<path style="fill:#F0F4F3;" d="M-73.2-123.8c2.3-2.2,4-3.6,4.5-4c0.4-0.4,1.3,0.2,0.7,0.9c-0.6,0.7-5.2,4.6-5.2,4.6L-73.2-123.8
					z"/>
				<path style="fill:#FE0201;" d="M-72.9-111.8c0-6.6,0-12.7,0-12.7c-0.3,0.3-0.8,0.7-1.4,1.3l0.7,1.2L-72.9-111.8z"/>
				<path style="fill:#0033A0;" d="M-72.9-122.2c0,0.4,0,0.8,0,1.3l-1.4-2.3c0.2-0.2,0.5-0.4,0.7-0.6L-72.9-122.2z"/>
			</g>
			<path style="fill:#B4A5C2;" d="M-136-138c10.8-2.4,20.3-2.9,21.4-2.5c1.1,0.5,7.2,9.7,9.7,10.5c-1.1,2.2-3.6,7.9-3.6,7.9l10.2-7
				h2.2l0.6,5.9l1.3-6.8c0,0,1.5,0,1.6-1.1c2.7,0.4,5.5,0.5,8.7-4.1c3.1-4.6,5.6-6,7.1-5.9c1.5,0.1,14.8,2.7,15.7,2.8
				c-3.2-3.2-15-12.4-22.1-11.5c-7.1,0.8-8.2,10.2-8.5,11c-0.3,0.7-10.4-1.1-12.1,0c0.2-6.2-4.1-10.7-8-11
				C-115.7-150.1-133.4-143.6-136-138z"/>
			<path style="fill:#6C2B29;" d="M-136-138c10.8-2.4,19.8-1.4,20.8-0.9c1.1,0.5,7.2,9.7,9.7,10.5c-1.1,2.2-3.6,7.9-3.6,7.9
				l10.2-2.1v-4.9h2.2l0.6,5.9l2.9,0.5v-2.1l-1.5-0.6l-0.1-4.6c0,0,1.5,0,1.6-1.1c2.7,0.4,5.5,0.5,8.6-4.1c3.1-4.6,5.6-6,7.1-5.9
				c1.5,0.1,15.3,1.2,16.3,1.3c-2.9-1.5-15.5-10.8-22.6-10c-7.1,0.8-8.2,10.2-8.5,11c-0.3,0.7-10.4-1.1-12.1,0
				c0.2-6.2-4.1-10.7-8-11C-116.2-148.6-130.6-142.8-136-138z"/>
			<g>
				<path style="fill:#FFCC21;" d="M-64.3-119.4c-3.6,3.3-17.1,14.7-17.1,14.7c0,0.8,0,16.5,0,19.1c0,2.6-2.9,8.3-10.8,12.4
					c3.2,4.2,8.3,12.8,17.8,11.5c8.7-1.2,10.1-8.1,10.1-12.7C-64.3-79-64.3-119.4-64.3-119.4z"/>
				<path style="fill:#0033A0;" d="M-86.4-66c-2.5-2.4-4.4-5.2-5.8-7.1c8-4.1,10.8-9.9,10.8-12.4c0-2.6,0-18.3,0-19.1
					c0,0,4.9-4.2,9.6-8.2c0,8,0,29.1,0,32.5C-71.8-77-72.6-65.1-86.4-66z"/>
				<path style="fill:#FE0201;" d="M-89.2-69.1c-1.2-1.5-2.2-2.9-3-4c8-4.1,10.8-9.9,10.8-12.4c0-2.6,0-18.3,0-19.1c0,0,2-1.7,4.7-4
					c0,6.6,0,19.6,0,24.2S-77.3-72.5-89.2-69.1z"/>
				<path style="fill:#F0F4F3;" d="M-64.7-118.3c3.7-3.5,6.4-5.8,7.1-6.4c0.6-0.6,2,0.3,1.1,1.4c-0.9,1.1-8.2,7.3-8.2,7.3
					L-64.7-118.3z"/>
				<path style="fill:#FE0201;" d="M-64.3-99.2c0-10.4,0-20.1,0-20.1c-0.6,0.5-1.3,1.2-2.3,2l1.1,1.9L-64.3-99.2z"/>
				<path style="fill:#0033A0;" d="M-64.3-115.7c0,0.6,0,1.3,0,2l-2.3-3.7c0.4-0.3,0.7-0.6,1.1-0.9L-64.3-115.7z"/>
			</g>
			<path style="fill:#FFCC21;" d="M-124.9-62.2c-2.2,2.1-6.8,6.9-7.9,7.9c-0.9,0.9-2.2-0.4-1.3-1.4c1.5-1.6,7.5-8,7.5-8L-124.9-62.2
				z"/>
			<path style="fill:#FFCC21;" d="M-131.2-69.3c-2.2,2.1-6.8,6.9-7.9,7.9c-0.9,0.9-2.2-0.4-1.3-1.4c1.5-1.6,7.5-8,7.5-8L-131.2-69.3
				z"/>
			<g>
				<path style="fill:#FFCC21;" d="M-126.7-124.5c2.3,2.1,10.8,9.3,10.8,9.3c0,0.5,0,10.4,0,12c0,1.6,1.8,5.2,6.8,7.8
					c-2,2.6-5.2,8.1-11.2,7.2c-5.5-0.7-6.4-5.1-6.4-8S-126.7-124.5-126.7-124.5z"/>
				<path style="fill:#0033A0;" d="M-112.8-90.9c1.6-1.5,2.7-3.3,3.7-4.5c-5-2.6-6.8-6.2-6.8-7.8c0-1.6,0-11.5,0-12
					c0,0-3.1-2.6-6.1-5.2c0,5,0,18.3,0,20.4S-121.5-90.3-112.8-90.9z"/>
				<path style="fill:#FE0201;" d="M-111-92.9c0.7-0.9,1.4-1.8,1.9-2.5c-5-2.6-6.8-6.2-6.8-7.8c0-1.6,0-11.5,0-12c0,0-1.3-1.1-3-2.5
					c0,4.1,0,12.4,0,15.3C-118.9-99.6-118.5-95-111-92.9z"/>
				<path style="fill:#F0F4F3;" d="M-126.4-123.8c-2.3-2.2-4-3.6-4.5-4c-0.4-0.4-1.3,0.2-0.7,0.9c0.6,0.7,5.2,4.6,5.2,4.6
					L-126.4-123.8z"/>
				<path style="fill:#FE0201;" d="M-126.7-111.8c0-6.6,0-12.7,0-12.7c0.3,0.3,0.8,0.7,1.4,1.3l-0.7,1.2L-126.7-111.8z"/>
				<path style="fill:#0033A0;" d="M-126.7-122.2c0,0.4,0,0.8,0,1.3l1.4-2.3c-0.2-0.2-0.5-0.4-0.7-0.6L-126.7-122.2z"/>
			</g>
			<g>
				<path style="fill:#FFCC21;" d="M-136.3-119.4c3.7,3.3,17.1,14.7,17.1,14.7c0,0.8,0,16.5,0,19.1c0,2.6,2.9,8.3,10.8,12.4
					c-3.2,4.2-8.3,12.8-17.8,11.5c-8.7-1.2-10.1-8.1-10.1-12.7C-136.3-79-136.3-119.4-136.3-119.4z"/>
				<path style="fill:#0033A0;" d="M-114.2-66c2.5-2.4,4.4-5.2,5.8-7.1c-8-4.1-10.8-9.9-10.8-12.4c0-2.6,0-18.3,0-19.1
					c0,0-4.9-4.2-9.6-8.2c0,8,0,29.1,0,32.5C-128.8-77-128-65.1-114.2-66z"/>
				<path style="fill:#FE0201;" d="M-111.4-69.1c1.2-1.5,2.2-2.9,3-4c-8-4.1-10.8-9.9-10.8-12.4c0-2.6,0-18.3,0-19.1
					c0,0-2-1.7-4.7-4c0,6.6,0,19.6,0,24.2S-123.3-72.5-111.4-69.1z"/>
				<path style="fill:#F0F4F3;" d="M-135.9-118.3c-3.7-3.5-6.4-5.8-7.1-6.4c-0.6-0.6-2,0.3-1.1,1.4c0.9,1.1,8.2,7.3,8.2,7.3
					L-135.9-118.3z"/>
				<path style="fill:#FE0201;" d="M-136.3-99.2c0-10.4,0-20.1,0-20.1c0.6,0.5,1.3,1.2,2.3,2l-1.1,1.9L-136.3-99.2z"/>
				<path style="fill:#0033A0;" d="M-136.3-115.7c0,0.6,0,1.3,0,2l2.3-3.7c-0.4-0.3-0.7-0.6-1.1-0.9L-136.3-115.7z"/>
			</g>
			<path style="fill:#2E3192;" d="M-100.1-118.8c-8.1,0-15.2,6.7-15.2,10.8v21.7c0,2.8,3.6,12.5,15.2,12.5
				c11.5,0,16.6-9.4,16.6-11.8v-23.1C-83.5-112.8-90-118.8-100.1-118.8z"/>
			<path style="fill:none;stroke:#01BEFF;stroke-width:2;stroke-miterlimit:10;" d="M-81.9-103.9c0-4.1-8.3-9-18.4-9
				c-8.1,0-17.2,5.6-17.2,9.7"/>
			<circle style="fill:#FEDC01;" cx="-99.7" cy="-112.9" r="3.3"/>
			<path style="fill:#AFBD72;" d="M-81.5-95.9c-3.9,0.8-8.9,0-11.6,0.1c-2.7,0.1-11.5-4.9-16.8-3.3c-5.3,1.5-6.4,1.9-7.1,3.6
				c-0.6,1.7-1.8,23.7,18.3,23.7C-78.6-71.8-80.6-91-81.5-95.9z"/>
			<path style="fill:#01BEFF;" d="M-116.2-84.8c0,0,0.8-1.4,2.7-1.6c1.9-0.2,1.9-0.7,4.1,0c2.2,0.7,7.6,0,5.7-1.7
				c-1.9-1.8-3-2.6-3.1-3.2c-0.2-1.2,3.8-3.3,4.4-3.2c0.6,0.2,2.4,1,1.4,1c-0.5,0-4,1.4-4,1.9s2.2,1.8,3.7,2c1.5,0.2,2.5-0.3,3.3,0
				c0.8,0.3,0.5,0.5,0.5,1.1c0,0.6,1.4,0.2,4.2,0.2s8.1-1,9.3,0.1c1.2,1.1,2,5.1,1.5,6.2c-0.4,1.1-1.3,3.1-2.1,4.1
				c-0.8,1-2.3,3-4.7,4.1c-2.4,1-7.9,2.2-9.7,2.1c-1.8-0.1-3.8,0.1-6.1-0.8c-2.3-0.9-3.8-1.2-5.4-2.7c-1.6-1.5-3.8-2.1-4.8-4.9
				C-116.2-83.6-116.2-84.8-116.2-84.8z"/>
			<path style="fill:#AFBD72;" d="M-109.7-82.1c1.4-0.5,3.5-0.7,6.3-0.4c2.8,0.2,6.6,1,8,0c1.4-1,7.2-3.8,7.9-3.1
				c0.6,0.7-1.6,2.7-2.2,3.6s-0.6,2.9-4.8,2.7c-4.2-0.2-7.7,0.1-11.6-0.9S-109.7-82.1-109.7-82.1z"/>
			<path style="fill:#FFFFFF;" d="M-117.9-97.9c3.1-2.9,7.3-6.7,9.3-6.4c2,0.4,12.9,7.1,15.5,8.5c-3.8,0.7-4.7-1.2-6.5-1.4
				c-1.8-0.2-3.3,1.4-4.9,1.6c-1.6,0.2-4-2.3-5.4-2.3c-1.4,0-2.4,2.3-2.4,2.3S-117.5-93.4-117.9-97.9z"/>
			<path style="fill:#FFCC21;" d="M-100.1-69.8c-13.4,0-19.2-11-19.2-16.6v-21.4c0-6.5,9-14.8,19.2-14.8c12.1,0,20.6,7.4,20.6,14.1
				v22.8C-79.5-81-86.5-69.8-100.1-69.8z M-100.1-118.8c-8.1,0-15.2,6.7-15.2,10.8v21.7c0,2.8,3.6,12.5,15.2,12.5
				c11.5,0,16.6-9.4,16.6-11.8v-23.1C-83.5-112.8-90-118.8-100.1-118.8z"/>
		</g>
		<path style="fill:#283F72;" d="M1.7-114.3c0,56.3-45.7,102-102,102c-56.3,0-102-45.7-102-102h-5.1c0,59.2,48,107.1,107.1,107.1
			c59.2,0,107.1-48,107.1-107.1H1.7z"/>
	</g>
</g>
<linearGradient id="SVGID_1_" gradientUnits="userSpaceOnUse" x1="-100.2927" y1="64.177" x2="-100.2927" y2="-241.1926">
	<stop  offset="0" style="stop-color:#FFFFFF;stop-opacity:0"/>
	<stop  offset="1" style="stop-color:#FFFFFF"/>
</linearGradient>
<path style="opacity:0.3;fill:url(#SVGID_1_);" d="M-70.1,46.5c1.3-1.3,2.6-2.7,3.9-4c0.9-1,1.9-2,2.8-2.9c1.2-1.3,2.5-2.6,3.7-3.9
	c0.9-1,1.8-2,2.8-3c1.2-1.3,2.4-2.6,3.5-3.9c0.9-1,1.8-2,2.7-3c1.1-1.3,2.3-2.6,3.4-3.8c0.9-1,1.7-2,2.6-2.9
	c1.1-1.3,2.2-2.6,3.3-3.8c0.6-0.7,1.1-1.3,1.7-2c0,0,0,0-0.1,0.1C2.4-36.4,26.5-81.6,26.5-112.6c0-70.1-56.8-126.8-126.8-126.8
	s-126.8,56.8-126.8,126.8c0,33.1,18.2,72.3,64.6,125.8c0,0,0,0,0,0c0.3,0.3,0.6,0.7,0.9,1c0.5,0.6,1.1,1.2,1.6,1.9
	c0.4,0.5,0.9,1,1.3,1.5c0.5,0.6,1.1,1.2,1.6,1.8c0.5,0.5,0.9,1.1,1.4,1.6c0.5,0.6,1.1,1.2,1.6,1.8c0.5,0.5,1,1.1,1.5,1.6
	c0.5,0.6,1.1,1.2,1.6,1.8c0.5,0.6,1,1.1,1.6,1.7c0.5,0.6,1.1,1.2,1.6,1.7c0.5,0.6,1.1,1.2,1.6,1.8c0.5,0.6,1.1,1.1,1.6,1.7
	c0.6,0.6,1.1,1.2,1.7,1.8c0.5,0.6,1.1,1.1,1.6,1.7c0.6,0.6,1.1,1.2,1.7,1.8c0.6,0.6,1.1,1.2,1.7,1.8c0.6,0.6,1.2,1.2,1.7,1.8
	c0.6,0.6,1.1,1.2,1.7,1.8c0.6,0.6,1.2,1.2,1.8,1.9c0.6,0.6,1.1,1.2,1.7,1.8c0.6,0.6,1.3,1.3,1.9,1.9c0.6,0.6,1.1,1.2,1.7,1.8
	c0.6,0.6,1.3,1.3,1.9,1.9c0.6,0.6,1.2,1.2,1.8,1.8c0.6,0.6,1.3,1.3,2,2c0.6,0.6,1.2,1.2,1.8,1.8c0.7,0.7,1.3,1.3,2,2
	c0.6,0.6,1.2,1.2,1.8,1.8c0.8,0.8,1.6,1.6,2.4,2.4c0.5,0.5,1,1,1.5,1.5c1.3,1.3,2.7,2.6,4,3.9c4.7,4.6,10.5,3.2,13.9,0
	c2.5-2.3,4.9-4.6,7.3-7c0.8-0.7,1.5-1.5,2.3-2.2c1.6-1.6,3.2-3.1,4.8-4.7c0.9-0.9,1.8-1.8,2.7-2.7c1.4-1.4,2.8-2.8,4.2-4.2
	C-71.9,48.4-71,47.5-70.1,46.5z"/>
<path style="opacity:5.000000e-002;fill:#FFFFFF;" d="M-4.9-32.9C15.5-64,26.5-91.6,26.5-112.6c0-70.1-56.8-126.8-126.8-126.8
	s-126.8,56.8-126.8,126.8c0,23,8.8,48.9,29.7,80.5C-175.4-57.5-28.3-59.8-4.9-32.9z"/>
</svg>
