<?xml version="1.0" encoding="utf-8"?>
<!-- Generator: Adobe Illustrator 16.0.0, SVG Export Plug-In . SVG Version: 6.00 Build 0)  -->
<!DOCTYPE svg PUBLIC "-//W3C//DTD SVG 1.1//EN" "http://www.w3.org/Graphics/SVG/1.1/DTD/svg11.dtd">
<svg version="1.1" id="Capa_1" xmlns="http://www.w3.org/2000/svg" xmlns:xlink="http://www.w3.org/1999/xlink" x="0px" y="0px"
	 width="302.1px" height="377.5px" viewBox="-227.1 -240.7 302.1 377.5" style="enable-background:new -227.1 -240.7 302.1 377.5;"
	 xml:space="preserve">
<ellipse style="fill:#BCBCBC;" cx="-76.1" cy="131.9" rx="42" ry="5"/>
<g>
	<path style="fill:#1E336C;" d="M-68.8,128C20.9,43.5,74.9-39,74.9-89.6c0-83.4-67.6-151-151-151s-151,67.6-151,151
		c0,52.2,38,117.3,141.8,217.6C-79.7,133.5-72.8,131.8-68.8,128z"/>
	<path style="fill:#192D5B;" d="M-3.9,60.2c-18.7,22.1-40.5,44.9-64.8,67.8c-4,3.8-10.9,5.4-16.5,0c-25.5-24.6-47-47.1-65-67.8
		C-79.8,118.7-71.8,117.7-3.9,60.2z"/>
	<g>
		<path style="fill:#01319F;" d="M-197.6-92c0,22.1,5.9,42.9,16.3,60.7l108.6,44.5L29.1-31.3C39.4-49.2,45.4-69.9,45.4-92
			l-121.5-41.9L-197.6-92z"/>
		<path style="fill:#FD0805;" d="M29.1-31.3C8.1,5-31.1,29.4-76.1,29.4c-45,0-84.2-24.4-105.2-60.7L29.1-31.3z"/>
		<path style="fill:#FFCC21;" d="M45.4-92c0-67.1-54.4-121.5-121.5-121.5S-197.6-159.1-197.6-92H45.4z"/>
	</g>
	<g>
		<g>
			<path style="fill:#EFB81D;" d="M-76.1-213.5c-61.4,0-112.2,45.6-120.3,104.8c13.4-54,62.2-94,120.3-94s106.9,40,120.3,94
				C36.1-167.9-14.7-213.5-76.1-213.5z"/>
		</g>
	</g>
	<g>
		<g>
			<path style="fill:#D31313;" d="M-170.8-16c22.3,27.7,56.4,45.4,94.7,45.4c38.3,0,72.4-17.7,94.7-45.4
				C-6.7,6.2-39.8,19.7-76.1,19.7C-112.4,19.7-145.5,6.2-170.8-16z"/>
		</g>
	</g>
	<path style="fill:#283F72;" d="M45.4-92C45.4-25-9,29.4-76.1,29.4S-197.6-25-197.6-92h-6.1c0,70.4,57.1,127.5,127.5,127.5
		S51.4-21.6,51.4-92H45.4z"/>
	<path style="fill:#162954;" d="M-76.1-219.6c-70.4,0-127.5,57.1-127.5,127.5c0,70.4,57.1,127.5,127.5,127.5S51.4-21.6,51.4-92
		C51.4-162.5-5.7-219.6-76.1-219.6z M-76.1,29.4C-143.2,29.4-197.6-25-197.6-92s54.4-121.5,121.5-121.5S45.4-159.1,45.4-92
		S-9,29.4-76.1,29.4z"/>
</g>
<linearGradient id="SVGID_1_" gradientUnits="userSpaceOnUse" x1="-76.1013" y1="120.8528" x2="-76.1013" y2="-242.7588">
	<stop  offset="0" style="stop-color:#FFFFFF;stop-opacity:0"/>
	<stop  offset="1" style="stop-color:#FFFFFF"/>
</linearGradient>
<path style="opacity:0.3;fill:url(#SVGID_1_);" d="M-40.1,99.8c1.6-1.6,3.1-3.2,4.7-4.8c1.1-1.2,2.2-2.3,3.3-3.5
	c1.5-1.6,3-3.1,4.4-4.7c1.1-1.2,2.2-2.4,3.3-3.5c1.4-1.5,2.8-3.1,4.2-4.6c1.1-1.2,2.1-2.4,3.2-3.5c1.4-1.5,2.7-3.1,4.1-4.6
	c1-1.2,2.1-2.3,3.1-3.5c1.3-1.5,2.6-3.1,3.9-4.6c0.7-0.8,1.4-1.6,2-2.3c0,0,0,0-0.1,0.1C46.2,1.1,74.9-52.7,74.9-89.6
	c0-83.4-67.6-151-151-151s-151,67.6-151,151c0,39.4,21.6,86.1,76.9,149.8c0,0,0,0,0,0c0.3,0.4,0.7,0.8,1.1,1.2
	c0.6,0.7,1.3,1.5,1.9,2.2c0.5,0.6,1.1,1.2,1.6,1.8c0.6,0.7,1.3,1.4,1.9,2.1c0.6,0.6,1.1,1.3,1.7,1.9c0.6,0.7,1.3,1.4,1.9,2.1
	c0.6,0.6,1.2,1.3,1.8,2c0.6,0.7,1.3,1.4,1.9,2.1c0.6,0.7,1.2,1.4,1.9,2c0.6,0.7,1.3,1.4,1.9,2.1c0.6,0.7,1.3,1.4,2,2.1
	c0.6,0.7,1.3,1.4,1.9,2c0.7,0.7,1.3,1.4,2,2.1c0.6,0.7,1.3,1.4,1.9,2.1c0.7,0.7,1.4,1.4,2,2.2c0.7,0.7,1.3,1.4,2,2.1
	c0.7,0.7,1.4,1.4,2.1,2.2c0.7,0.7,1.4,1.4,2.1,2.1c0.7,0.7,1.4,1.5,2.2,2.2c0.7,0.7,1.4,1.4,2,2.1c0.7,0.8,1.5,1.5,2.3,2.3
	c0.7,0.7,1.4,1.4,2.1,2.1c0.8,0.8,1.5,1.5,2.3,2.3c0.7,0.7,1.4,1.4,2.1,2.1c0.8,0.8,1.6,1.6,2.3,2.3c0.7,0.7,1.4,1.4,2.2,2.2
	c0.8,0.8,1.6,1.6,2.4,2.4c0.7,0.7,1.5,1.4,2.2,2.2c1,0.9,1.9,1.9,2.9,2.8c0.6,0.6,1.2,1.2,1.8,1.7c1.6,1.5,3.2,3.1,4.8,4.6
	c5.6,5.4,12.5,3.8,16.5,0c2.9-2.8,5.8-5.5,8.7-8.3c0.9-0.9,1.8-1.8,2.7-2.7c1.9-1.9,3.8-3.7,5.7-5.6c1.1-1.1,2.1-2.1,3.2-3.2
	c1.7-1.7,3.4-3.4,5-5.1C-42.3,102.1-41.2,101-40.1,99.8z"/>
<path style="opacity:5.000000e-002;fill:#FFFFFF;" d="M37.5,5.2c24.2-37,37.4-69.8,37.4-94.8c0-83.4-67.6-151-151-151
	s-151,67.6-151,151c0,27.3,10.4,58.2,35.3,95.9C-165.5-24,9.6-26.7,37.5,5.2z"/>
</svg>
