<?xml version="1.0" encoding="utf-8"?>
<!-- Generator: Adobe Illustrator 16.0.0, SVG Export Plug-In . SVG Version: 6.00 Build 0)  -->
<!DOCTYPE svg PUBLIC "-//W3C//DTD SVG 1.1//EN" "http://www.w3.org/Graphics/SVG/1.1/DTD/svg11.dtd">
<svg version="1.1" id="Capa_1" xmlns="http://www.w3.org/2000/svg" xmlns:xlink="http://www.w3.org/1999/xlink" x="0px" y="0px"
	 width="302.1px" height="377.5px" viewBox="-227.1 -240.7 302.1 377.5" style="enable-background:new -227.1 -240.7 302.1 377.5;"
	 xml:space="preserve">
<g>
	<g>
		<ellipse style="fill:#BCBCBC;" cx="-75.8" cy="132.7" rx="42.1" ry="5"/>
		<g>
			<path style="fill:#1E336C;" d="M-68.4,128.8c89.8-84.7,144-167.3,144-218.1c0-83.6-67.8-151.4-151.4-151.4
				c-83.6,0-151.4,67.8-151.4,151.4c0,52.3,38.1,117.6,142.1,218.1C-79.3,134.3-72.4,132.6-68.4,128.8z"/>
			<path style="fill:#192D5B;" d="M-3.5,60.8c-18.8,22.1-40.6,45-65,68c-4,3.8-10.9,5.4-16.5,0c-25.5-24.7-47.1-47.2-65.1-68
				C-79.5,119.5-71.5,118.5-3.5,60.8z"/>
			<circle style="fill:#36CC08;" cx="-75.8" cy="-91.7" r="121.7"/>
			<g>
				<g>
					<path style="fill:#35A80F;" d="M-75.8-213.4c-61.6,0-112.4,45.7-120.5,105.1c13.4-54.1,62.3-94.2,120.5-94.2
						c58.3,0,107.1,40.1,120.6,94.2C36.7-167.7-14.2-213.4-75.8-213.4z"/>
				</g>
			</g>
			<g>
				<g>
					<path style="fill:#75D656;" d="M-170.7-15.5C-148.3,12.2-114.1,30-75.8,30c38.4,0,72.6-17.8,94.9-45.5
						C-6.2,6.8-39.4,20.3-75.8,20.3C-112.1,20.3-145.3,6.8-170.7-15.5z"/>
				</g>
			</g>
			<path style="fill:#162954;" d="M-75.8-219.5c-70.6,0-127.8,57.2-127.8,127.8S-146.4,36.1-75.8,36.1C-5.2,36.1,52-21.1,52-91.7
				S-5.2-219.5-75.8-219.5z M-75.8,30C-143,30-197.5-24.5-197.5-91.7S-143-213.4-75.8-213.4c67.2,0,121.7,54.5,121.7,121.7
				S-8.6,30-75.8,30z"/>
			<path style="fill:#283F72;" d="M45.9-91.7C45.9-24.5-8.6,30-75.8,30C-143,30-197.5-24.5-197.5-91.7h-6.1
				c0,70.6,57.2,127.8,127.8,127.8C-5.2,36.1,52-21.1,52-91.7H45.9z"/>
		</g>
	</g>
	<g>
		<polygon style="fill:#FFCC21;" points="-74.8,-159.9 -182.9,-91.7 -74.8,-23.6 29.4,-91.7 		"/>
		<path style="fill:#0248A8;" d="M-30.3-91.4c0,24.1-19.5,43.6-43.6,43.6c-24.1,0-43.6-19.5-43.6-43.6c0-24.1,19.5-43.7,43.6-43.7
			C-49.9-135.1-30.3-115.5-30.3-91.4z"/>
		<path style="fill:#FFFFFF;" d="M-116.7-100.7c14.3-3.7,29.7-3.7,44.9,0.6c15.4,4.4,28.5,12.8,38.7,23.6c0.9-2.3,1.7-4.5,1.7-5.8
			c-10.4-11.6-24-20.5-40.1-25.1c-14.5-4.2-29.1-4.3-42.8-1.1C-115.9-104.8-116.4-102-116.7-100.7z"/>
	</g>
</g>
<linearGradient id="SVGID_1_" gradientUnits="userSpaceOnUse" x1="-75.7732" y1="121.6321" x2="-75.7732" y2="-242.7629">
	<stop  offset="0" style="stop-color:#FFFFFF;stop-opacity:0"/>
	<stop  offset="1" style="stop-color:#FFFFFF"/>
</linearGradient>
<path style="opacity:0.3;fill:url(#SVGID_1_);" d="M-39.7,100.6c1.6-1.6,3.1-3.2,4.7-4.8c1.1-1.2,2.2-2.3,3.3-3.5
	c1.5-1.6,3-3.1,4.4-4.7c1.1-1.2,2.2-2.4,3.3-3.5c1.4-1.5,2.8-3.1,4.2-4.6c1.1-1.2,2.1-2.4,3.2-3.5c1.4-1.5,2.7-3.1,4.1-4.6
	c1-1.2,2.1-2.3,3.1-3.5c1.3-1.5,2.6-3.1,4-4.6c0.7-0.8,1.4-1.6,2-2.3c0,0,0,0-0.1,0.1C46.8,1.6,75.6-52.3,75.6-89.3
	c0-83.6-67.8-151.4-151.4-151.4c-83.6,0-151.4,67.8-151.4,151.4c0,39.4,21.7,86.3,77,150.1c0,0,0,0,0,0c0.4,0.4,0.7,0.8,1.1,1.2
	c0.6,0.7,1.3,1.5,1.9,2.2c0.5,0.6,1.1,1.2,1.6,1.8c0.6,0.7,1.3,1.4,1.9,2.2c0.6,0.6,1.1,1.3,1.7,1.9c0.6,0.7,1.3,1.4,1.9,2.1
	c0.6,0.6,1.2,1.3,1.8,2c0.6,0.7,1.3,1.4,1.9,2.1c0.6,0.7,1.2,1.4,1.9,2c0.6,0.7,1.3,1.4,1.9,2.1c0.6,0.7,1.3,1.4,2,2.1
	c0.6,0.7,1.3,1.4,1.9,2c0.7,0.7,1.3,1.4,2,2.2c0.6,0.7,1.3,1.4,1.9,2.1c0.7,0.7,1.4,1.4,2.1,2.2c0.7,0.7,1.3,1.4,2,2.1
	c0.7,0.7,1.4,1.4,2.1,2.2c0.7,0.7,1.4,1.4,2.1,2.1c0.7,0.7,1.4,1.5,2.2,2.2c0.7,0.7,1.4,1.4,2,2.1c0.8,0.8,1.5,1.5,2.3,2.3
	c0.7,0.7,1.4,1.4,2.1,2.1c0.8,0.8,1.5,1.5,2.3,2.3c0.7,0.7,1.4,1.4,2.1,2.1c0.8,0.8,1.6,1.6,2.3,2.3c0.7,0.7,1.4,1.4,2.2,2.2
	c0.8,0.8,1.6,1.6,2.4,2.4c0.7,0.7,1.5,1.4,2.2,2.2c1,0.9,1.9,1.9,2.9,2.8c0.6,0.6,1.2,1.2,1.8,1.7c1.6,1.5,3.2,3.1,4.8,4.6
	c5.6,5.4,12.6,3.8,16.5,0c2.9-2.8,5.8-5.5,8.7-8.3c0.9-0.9,1.8-1.8,2.7-2.7c1.9-1.9,3.8-3.7,5.7-5.6c1.1-1.1,2.1-2.1,3.2-3.2
	c1.7-1.7,3.4-3.4,5-5.1C-41.9,102.8-40.8,101.7-39.7,100.6z"/>
<path style="opacity:5.000000e-002;fill:#FFFFFF;" d="M38.1,5.7c24.2-37.1,37.5-69.9,37.5-95c0-83.6-67.8-151.4-151.4-151.4
	c-83.6,0-151.4,67.8-151.4,151.4c0,27.4,10.5,58.4,35.4,96.1C-165.4-23.5,10.1-26.3,38.1,5.7z"/>
</svg>
