<?xml version="1.0" encoding="utf-8"?>
<!-- Generator: Adobe Illustrator 16.0.0, SVG Export Plug-In . SVG Version: 6.00 Build 0)  -->
<!DOCTYPE svg PUBLIC "-//W3C//DTD SVG 1.1//EN" "http://www.w3.org/Graphics/SVG/1.1/DTD/svg11.dtd">
<svg version="1.1" id="Capa_1" xmlns="http://www.w3.org/2000/svg" xmlns:xlink="http://www.w3.org/1999/xlink" x="0px" y="0px"
	 width="302.1px" height="377.5px" viewBox="-227.1 -240.7 302.1 377.5" style="enable-background:new -227.1 -240.7 302.1 377.5;"
	 xml:space="preserve">
<g>
	<ellipse style="fill:#BCBCBC;" cx="-76.6" cy="130.5" rx="41.9" ry="5"/>
	<g>
		<path style="fill:#1E336C;" d="M-69.3,126.7C20,42.5,73.9-39.7,73.9-90.2c0-83.1-67.4-150.5-150.5-150.5
			c-83.1,0-150.5,67.4-150.5,150.5c0,52,37.9,116.9,141.3,216.9C-80.2,132.1-73.3,130.5-69.3,126.7z"/>
		<path style="fill:#192D5B;" d="M-4.7,59.1c-18.7,22-40.3,44.7-64.6,67.6c-4,3.7-10.8,5.4-16.5,0c-25.4-24.5-46.8-47-64.8-67.6
			C-80.3,117.4-72.4,116.4-4.7,59.1z"/>
		<path style="fill:#25A64A;" d="M37.5-52.2C20.9-5.2-23.9,28.5-76.6,28.5c-52.7,0-97.5-33.7-114.1-80.7L37.5-52.2z"/>
		<path style="fill:#C90505;" d="M-190.8-132.9c16.6-47,61.4-80.7,114.1-80.7c52.7,0,97.5,33.7,114.1,80.7L-190.8-132.9z"/>
		<g>
			<g>
				<g>
					<path style="fill:#AA0707;" d="M-76.6-213.6c-52.7,0-97.5,33.7-114.1,80.7c11.8-24.2,56.2-69.9,114.1-69.9
						c67.1,0,108,54.4,114.1,70C20.9-179.9-23.9-213.6-76.6-213.6z"/>
				</g>
			</g>
		</g>
		<g>
			<g>
				<g>
					<path style="fill:#46BC64;" d="M-171-16.8c22.2,27.6,56.2,45.2,94.3,45.2c38.1,0,72.2-17.7,94.3-45.2
						C-7.5,5.4-40.5,18.8-76.6,18.8C-112.8,18.8-145.8,5.4-171-16.8z"/>
				</g>
			</g>
		</g>
		<path style="fill:#162954;" d="M-76.6-219.7c-70.2,0-127.1,56.9-127.1,127.1S-146.8,34.5-76.6,34.5c70.2,0,127.1-56.9,127.1-127.1
			S-6.4-219.7-76.6-219.7z M-76.6,28.5c-66.8,0-121-54.2-121-121s54.2-121,121-121s121,54.2,121,121S-9.8,28.5-76.6,28.5z"/>
		<path style="fill:#283F72;" d="M44.4-92.6c0,66.8-54.2,121-121,121s-121-54.2-121-121h-6.1c0,70.2,56.9,127.1,127.1,127.1
			c70.2,0,127.1-56.9,127.1-127.1H44.4z"/>
		<path style="fill:#FFCC21;" d="M-190.8-52.2c-4.5-12.6-6.9-26.2-6.9-40.3c0-14.1,2.4-27.7,6.9-40.3l228.3,0
			c4.5,12.6,6.9,26.2,6.9,40.3c0,14.1-2.4,27.7-6.9,40.3L-190.8-52.2z"/>
	</g>
</g>
<linearGradient id="SVGID_1_" gradientUnits="userSpaceOnUse" x1="-76.6355" y1="119.5754" x2="-76.6355" y2="-242.7509">
	<stop  offset="0" style="stop-color:#FFFFFF;stop-opacity:0"/>
	<stop  offset="1" style="stop-color:#FFFFFF"/>
</linearGradient>
<path style="opacity:0.3;fill:url(#SVGID_1_);" d="M-40.8,98.6c1.6-1.6,3.1-3.2,4.6-4.8c1.1-1.2,2.2-2.3,3.3-3.5
	c1.5-1.6,2.9-3.1,4.4-4.7c1.1-1.2,2.2-2.3,3.3-3.5c1.4-1.5,2.8-3.1,4.2-4.6c1.1-1.2,2.1-2.3,3.2-3.5c1.4-1.5,2.7-3,4.1-4.6
	c1-1.2,2.1-2.3,3.1-3.5c1.3-1.5,2.6-3,3.9-4.6c0.7-0.8,1.4-1.6,2-2.3c0,0,0,0-0.1,0.1C45.3,0.2,73.9-53.4,73.9-90.2
	c0-83.1-67.4-150.5-150.5-150.5c-83.1,0-150.5,67.4-150.5,150.5c0,39.2,21.6,85.8,76.6,149.3c0,0,0,0,0,0c0.3,0.4,0.7,0.8,1.1,1.2
	c0.6,0.7,1.3,1.5,1.9,2.2c0.5,0.6,1.1,1.2,1.6,1.8c0.6,0.7,1.3,1.4,1.9,2.1c0.6,0.6,1.1,1.3,1.7,1.9c0.6,0.7,1.3,1.4,1.9,2.1
	c0.6,0.6,1.2,1.3,1.8,1.9c0.6,0.7,1.3,1.4,1.9,2.1c0.6,0.7,1.2,1.3,1.9,2c0.6,0.7,1.3,1.4,1.9,2.1c0.6,0.7,1.3,1.4,2,2.1
	c0.6,0.7,1.3,1.4,1.9,2c0.7,0.7,1.3,1.4,2,2.1c0.6,0.7,1.3,1.4,1.9,2.1c0.7,0.7,1.4,1.4,2,2.1c0.7,0.7,1.3,1.4,2,2.1
	c0.7,0.7,1.4,1.4,2.1,2.2c0.7,0.7,1.4,1.4,2,2.1c0.7,0.7,1.4,1.5,2.2,2.2c0.7,0.7,1.4,1.4,2,2.1c0.7,0.8,1.5,1.5,2.3,2.3
	c0.7,0.7,1.4,1.4,2,2.1c0.8,0.8,1.5,1.5,2.3,2.3c0.7,0.7,1.4,1.4,2.1,2.1c0.8,0.8,1.5,1.5,2.3,2.3c0.7,0.7,1.4,1.4,2.2,2.2
	c0.8,0.8,1.6,1.6,2.4,2.4c0.7,0.7,1.5,1.4,2.2,2.2c1,0.9,1.9,1.9,2.9,2.8c0.6,0.6,1.2,1.2,1.8,1.7c1.6,1.5,3.2,3.1,4.8,4.6
	c5.6,5.4,12.5,3.7,16.5,0c2.9-2.8,5.8-5.5,8.6-8.3c0.9-0.9,1.8-1.8,2.7-2.6c1.9-1.9,3.8-3.7,5.7-5.6c1.1-1.1,2.1-2.1,3.2-3.2
	c1.7-1.7,3.4-3.4,5-5C-43,100.9-41.9,99.8-40.8,98.6z"/>
<path style="opacity:5.000000e-002;fill:#FFFFFF;" d="M36.6,4.3c24.1-36.8,37.3-69.5,37.3-94.5c0-83.1-67.4-150.5-150.5-150.5
	c-83.1,0-150.5,67.4-150.5,150.5c0,27.2,10.4,58,35.2,95.6C-165.7-24.8,8.8-27.5,36.6,4.3z"/>
</svg>
