<?xml version="1.0" encoding="utf-8"?>
<!-- Generator: Adobe Illustrator 16.0.0, SVG Export Plug-In . SVG Version: 6.00 Build 0)  -->
<!DOCTYPE svg PUBLIC "-//W3C//DTD SVG 1.1//EN" "http://www.w3.org/Graphics/SVG/1.1/DTD/svg11.dtd">
<svg version="1.1" id="Capa_1" xmlns="http://www.w3.org/2000/svg" xmlns:xlink="http://www.w3.org/1999/xlink" x="0px" y="0px"
	 width="256.4px" height="255px" viewBox="-227.1 -240.7 256.4 255" style="enable-background:new -227.1 -240.7 256.4 255;"
	 xml:space="preserve">
<g>
	<path style="fill:#FFFFFF;" d="M-30.3-13.6C-49.9,0.1-73.9,8.2-99.7,8.2c-25.8,0-49.7-8-69.4-21.8l-32.4-116.2l32.3-83
		c19.7-13.7,43.6-21.8,69.4-21.8c25.8,0,49.7,8.1,69.4,21.8L-5-133.3L-30.3-13.6z"/>
	<path style="fill:#C90505;" d="M-169-13.6c-31.4-21.9-52-58.4-52-99.6c0-41.2,20.6-77.7,52-99.6L-169-13.6z"/>
	<path style="fill:#C90505;" d="M-30.3-212.8c31.4,21.9,52,58.4,52,99.6c0,41.2-20.6,77.7-52,99.6L-30.3-212.8z"/>
	<g>
		<g>
			<g>
				<path style="fill:#AA0707;" d="M-30.3-202.5c25,16.9,43.4,42.6,50.9,72.7c-4.7-34.3-23.7-64.1-50.9-83L-30.3-202.5z"/>
			</g>
			<g>
				<path style="fill:#AA0707;" d="M-169.1-202.5c-24.9,16.9-43.3,42.6-50.8,72.7c4.7-34.3,23.7-64,50.8-83L-169.1-202.5z"/>
			</g>
			<path style="fill:#D3D3D3;" d="M-30.3-202.5c-19.8-13.4-43.6-21.2-69.3-21.2c-25.7,0-49.6,7.8-69.4,21.3l0-10.3
				c19.7-13.7,43.6-21.8,69.4-21.8c25.8,0,49.7,8,69.3,21.8L-30.3-202.5z"/>
		</g>
	</g>
	<g>
		<path style="fill:#AA0707;" d="M-30.3-13.6c9.5-6.6,18-14.6,25.2-23.6c-7.7,6.8-16.2,12.8-25.2,17.8L-30.3-13.6z"/>
		<path style="fill:#D3D3D3;" d="M-30.3-13.6C-49.9,0.1-73.9,8.2-99.7,8.2c-25.9,0-49.8-8.1-69.5-21.9l0.1-5.7
			C-148.5-8-124.8-1.5-99.7-1.5c25.2,0,48.8-6.5,69.4-17.9L-30.3-13.6z"/>
		<path style="fill:#AA0707;" d="M-169.2-13.7c-9.4-6.6-17.9-14.5-25.1-23.5c7.7,6.8,16.2,12.7,25.2,17.8L-169.2-13.7z"/>
		<path style="fill:#D3D3D3;" d="M-169.1-19.4"/>
	</g>
	<path style="fill:#283F72;" d="M21.7-113.2c0,67-54.3,121.4-121.4,121.4c-67,0-121.4-54.3-121.4-121.4h-6.1
		c0,70.4,57.1,127.5,127.5,127.5c70.4,0,127.5-57.1,127.5-127.5H21.7z"/>
	<path style="fill:#162954;" d="M-99.7-240.7c-70.4,0-127.5,57.1-127.5,127.5S-170.1,14.3-99.7,14.3c70.4,0,127.5-57.1,127.5-127.5
		S-29.3-240.7-99.7-240.7z M-99.7,8.2c-67,0-121.4-54.3-121.4-121.4s54.3-121.4,121.4-121.4c67,0,121.4,54.3,121.4,121.4
		S-32.6,8.2-99.7,8.2z"/>
</g>
<linearGradient id="SVGID_1_" gradientUnits="userSpaceOnUse" x1="-99.3728" y1="34.4167" x2="-99.3728" y2="-153.3703">
	<stop  offset="0" style="stop-color:#FFFFFF;stop-opacity:0"/>
	<stop  offset="1" style="stop-color:#FFFFFF"/>
</linearGradient>
<path style="opacity:0.3;fill:url(#SVGID_1_);" d="M-99.4-240.7c-70.4,0-127.5,57.1-127.5,127.5c0,70.4,57.1,127.5,127.5,127.5
	c70.4,0,127.5-57.1,127.5-127.5C28.1-183.6-29-240.7-99.4-240.7z"/>
<path style="opacity:5.000000e-002;fill:#FFFFFF;" d="M-99.4-240.7c-70.4,0-127.5,57.1-127.5,127.5c0,9.8,1.1,19.3,3.2,28.5
	c19.1-22,229.4-22.7,247.8,3.4c2.6-10.2,4-20.8,4-31.8C28.1-183.6-29-240.7-99.4-240.7z"/>
</svg>
