<?xml version="1.0" encoding="utf-8"?>
<!-- Generator: Adobe Illustrator 16.0.0, SVG Export Plug-In . SVG Version: 6.00 Build 0)  -->
<!DOCTYPE svg PUBLIC "-//W3C//DTD SVG 1.1//EN" "http://www.w3.org/Graphics/SVG/1.1/DTD/svg11.dtd">
<svg version="1.1" id="Capa_1" xmlns="http://www.w3.org/2000/svg" xmlns:xlink="http://www.w3.org/1999/xlink" x="0px" y="0px"
	 width="254.2px" height="319.5px" viewBox="-227.1 -240.7 254.2 319.5" style="enable-background:new -227.1 -240.7 254.2 319.5;"
	 xml:space="preserve">
<g>
	<ellipse style="fill:#BCBCBC;" cx="-99.3" cy="74.6" rx="35.6" ry="4.2"/>
	<g>
		<path style="fill:#1E336C;" d="M-93.1,71.4C-17.2-0.1,28.5-69.9,28.5-112.8c0-70.6-57.2-127.8-127.8-127.8
			s-127.8,57.2-127.8,127.8c0,44.1,32.2,99.3,120,184.2C-102.3,76-96.5,74.6-93.1,71.4z"/>
		<path style="fill:#192D5B;" d="M-38.2,14c-15.9,18.7-34.3,38-54.9,57.4c-3.4,3.2-9.2,4.6-14,0c-21.6-20.8-39.8-39.9-55-57.4
			C-102.4,63.5-95.7,62.7-38.2,14z"/>
		<circle style="fill:#FFFFFF;" cx="-99.3" cy="-114.9" r="102.8"/>
		<g>
			<defs>
				<circle id="SVGID_1_" cx="-99.3" cy="-114.9" r="102.8"/>
			</defs>
			<clipPath id="SVGID_2_">
				<use xlink:href="#SVGID_1_"  style="overflow:visible;"/>
			</clipPath>
			<rect x="-207.3" y="-200.2" style="clip-path:url(#SVGID_2_);fill:#FC0000;" width="222.5" height="17.1"/>
			<rect x="-207.3" y="-165.9" style="clip-path:url(#SVGID_2_);fill:#FC0000;" width="222.5" height="17.1"/>
			<rect x="-207.3" y="-131.6" style="clip-path:url(#SVGID_2_);fill:#FC0000;" width="222.5" height="17.1"/>
			<rect x="-207.3" y="-97.3" style="clip-path:url(#SVGID_2_);fill:#FC0000;" width="222.5" height="17.1"/>
			<rect x="-207.3" y="-63" style="clip-path:url(#SVGID_2_);fill:#FC0000;" width="222.5" height="17.1"/>
			<rect x="-207.3" y="-28.7" style="clip-path:url(#SVGID_2_);fill:#FC0000;" width="222.5" height="17.1"/>
		</g>
		<g>
			<defs>
				<rect id="SVGID_3_" x="-216.8" y="-238.5" width="115.2" height="123.7"/>
			</defs>
			<clipPath id="SVGID_4_">
				<use xlink:href="#SVGID_3_"  style="overflow:visible;"/>
			</clipPath>
			<circle style="clip-path:url(#SVGID_4_);fill:#022C9A;" cx="-99.3" cy="-114.9" r="102.8"/>
		</g>
		<g>
			<g>
				<g>
					<path style="fill:#032A70;" d="M-101.6-217.6c-51,1.1-92.8,39.3-99.6,88.7c11.2-45,51.3-78.5,99.5-79.5L-101.6-217.6z"/>
				</g>
				<g>
					<path style="fill:#AA0707;" d="M-22.4-183.1c-5.7-6.4-12.2-12.2-19.4-17l-16.5-0.1c10.1,4.3,19.3,10.1,27.4,17.1L-22.4-183.1z"
						/>
				</g>
				<path style="fill:#D3D3D3;" d="M-10.1-165.9c-3.5-6.1-7.7-11.9-12.3-17.1l-8.4,0c5.9,5.1,11.3,10.9,15.9,17.1L-10.1-165.9z"/>
				<g>
					<path style="fill:#AA0707;" d="M-2.3-148.8c-2.1-6-4.7-11.7-7.8-17.1l-4.8,0c4,5.4,7.4,11.1,10.3,17.2L-2.3-148.8z"/>
				</g>
				<path style="fill:#D3D3D3;" d="M-2.3-148.8c2.2,6.4,3.8,13,4.8,19.8c-1.7-6.9-4.1-13.5-7.1-19.8L-2.3-148.8z"/>
				<path style="fill:#D3D3D3;" d="M-42-200.2c-16.4-11-36.1-17.4-57.3-17.4c-0.8,0-1.5,0-2.3,0l-0.1,9.2c0.8,0,1.5,0,2.3,0
					c14.5,0,28.4,3,40.9,8.3L-42-200.2z"/>
			</g>
		</g>
		<g>
			<g>
				<path style="fill:#CC4E4E;" d="M-40.9-30.3c-16.6,11.5-36.7,18.2-58.4,18.2c-20.7,0-40-6.1-56.1-16.6l11.6,0
					c13.8,5.4,28.8,8.4,44.5,8.4c15.7,0,30.7-3,44.4-8.4L-40.9-30.3z"/>
			</g>
		</g>
		<g>
			<g>
				<path style="fill:#D3D3D3;" d="M-143.8-28.7c-13.1-5.2-25.2-12.6-35.6-21.8c6.8,8.5,14.9,15.8,24,21.8L-143.8-28.7z"/>
				<path style="fill:#D3D3D3;" d="M-43.2-28.7c9.1-6,17.2-13.3,24-21.8c-10.4,9.2-22.5,16.6-35.6,21.8L-43.2-28.7z"/>
			</g>
		</g>
		<path style="fill:#162954;" d="M-99.3-222.8c-59.6,0-107.9,48.3-107.9,107.9c0,59.6,48.3,107.9,107.9,107.9
			C-39.7-6.9,8.6-55.2,8.6-114.9C8.6-174.5-39.7-222.8-99.3-222.8z M-99.3-12.1c-56.8,0-102.8-46-102.8-102.8
			c0-56.8,46-102.8,102.8-102.8c56.8,0,102.8,46,102.8,102.8C3.5-58.1-42.5-12.1-99.3-12.1z"/>
		<path style="fill:#283F72;" d="M3.5-114.9c0,56.8-46,102.8-102.8,102.8c-56.8,0-102.8-46-102.8-102.8h-5.2
			c0,59.6,48.3,107.9,107.9,107.9C-39.7-6.9,8.6-55.2,8.6-114.9H3.5z"/>
	</g>
	<polygon style="fill:#FFFFFF;" points="-109.6,-204.5 -108.4,-206.8 -107.3,-204.5 -104.7,-204.1 -106.5,-202.3 -106.1,-199.7 
		-108.4,-200.9 -110.7,-199.7 -110.3,-202.3 -112.2,-204.1 	"/>
	<polygon style="fill:#FFFFFF;" points="-109.6,-188.5 -108.4,-190.9 -107.3,-188.5 -104.7,-188.1 -106.5,-186.3 -106.1,-183.7 
		-108.4,-184.9 -110.7,-183.7 -110.3,-186.3 -112.2,-188.2 	"/>
	<polygon style="fill:#FFFFFF;" points="-109.6,-172.5 -108.4,-174.9 -107.3,-172.5 -104.7,-172.1 -106.5,-170.3 -106.1,-167.7 
		-108.4,-169 -110.7,-167.8 -110.3,-170.3 -112.2,-172.2 	"/>
	<polygon style="fill:#FFFFFF;" points="-109.6,-156.5 -108.4,-158.9 -107.3,-156.5 -104.7,-156.1 -106.5,-154.3 -106.1,-151.7 
		-108.4,-153 -110.7,-151.8 -110.3,-154.3 -112.2,-156.2 	"/>
	<polygon style="fill:#FFFFFF;" points="-109.6,-140.6 -108.4,-142.9 -107.3,-140.5 -104.7,-140.2 -106.5,-138.3 -106.1,-135.8 
		-108.4,-137 -110.7,-135.8 -110.3,-138.4 -112.2,-140.2 	"/>
	<polygon style="fill:#FFFFFF;" points="-109.6,-124.6 -108.4,-126.9 -107.3,-124.6 -104.7,-124.2 -106.5,-122.4 -106.1,-119.8 
		-108.4,-121 -110.7,-119.8 -110.3,-122.4 -112.2,-124.2 	"/>
	<polygon style="fill:#FFFFFF;" points="-126.9,-204.5 -126.7,-204.9 -125,-205.3 -124.5,-204.5 -122,-204.1 -123.8,-202.3 
		-123.4,-199.7 -125.7,-200.9 -128,-199.7 -127.6,-202.3 -129.5,-204.1 	"/>
	<polygon style="fill:#FFFFFF;" points="-126.9,-188.5 -125.7,-190.9 -124.5,-188.5 -122,-188.1 -123.8,-186.3 -123.4,-183.7 
		-125.7,-184.9 -128,-183.7 -127.6,-186.3 -129.5,-188.2 	"/>
	<polygon style="fill:#FFFFFF;" points="-126.9,-172.5 -125.7,-174.9 -124.5,-172.5 -122,-172.1 -123.8,-170.3 -123.4,-167.7 
		-125.7,-169 -128,-167.8 -127.6,-170.3 -129.5,-172.2 	"/>
	<polygon style="fill:#FFFFFF;" points="-126.9,-156.5 -125.7,-158.9 -124.5,-156.5 -122,-156.1 -123.8,-154.3 -123.4,-151.7 
		-125.7,-153 -128,-151.8 -127.6,-154.3 -129.5,-156.2 	"/>
	<polygon style="fill:#FFFFFF;" points="-126.9,-140.6 -125.7,-142.9 -124.5,-140.5 -122,-140.2 -123.8,-138.3 -123.4,-135.8 
		-125.7,-137 -128,-135.8 -127.6,-138.4 -129.5,-140.2 	"/>
	<polygon style="fill:#FFFFFF;" points="-126.9,-124.6 -125.7,-126.9 -124.5,-124.6 -122,-124.2 -123.8,-122.4 -123.4,-119.8 
		-125.7,-121 -128,-119.8 -127.6,-122.4 -129.5,-124.2 	"/>
	<polygon style="fill:#FFFFFF;" points="-144.2,-188.5 -143.1,-190.9 -141.9,-188.5 -139.3,-188.1 -141.2,-186.3 -140.8,-183.7 
		-143.1,-184.9 -145.4,-183.7 -145,-186.3 -146.8,-188.2 	"/>
	<polygon style="fill:#FFFFFF;" points="-144.2,-172.5 -143.1,-174.9 -141.9,-172.5 -139.3,-172.1 -141.2,-170.3 -140.8,-167.7 
		-143.1,-169 -145.4,-167.8 -145,-170.3 -146.8,-172.2 	"/>
	<polygon style="fill:#FFFFFF;" points="-144.2,-156.5 -143.1,-158.9 -141.9,-156.5 -139.3,-156.1 -141.2,-154.3 -140.8,-151.7 
		-143.1,-153 -145.4,-151.8 -145,-154.3 -146.8,-156.2 	"/>
	<polygon style="fill:#FFFFFF;" points="-144.2,-140.6 -143.1,-142.9 -141.9,-140.5 -139.3,-140.2 -141.2,-138.3 -140.8,-135.8 
		-143.1,-137 -145.4,-135.8 -145,-138.4 -146.8,-140.2 	"/>
	<polygon style="fill:#FFFFFF;" points="-144.2,-124.6 -143.1,-126.9 -141.9,-124.6 -139.3,-124.2 -141.2,-122.4 -140.8,-119.8 
		-143.1,-121 -145.4,-119.8 -145,-122.4 -146.8,-124.2 	"/>
	<polygon style="fill:#FFFFFF;" points="-161.2,-188.3 -160.1,-188.1 -162,-186.3 -161.5,-183.7 -163.8,-184.9 -166.2,-183.7 
		-166,-184.6 	"/>
	<polygon style="fill:#FFFFFF;" points="-165,-172.5 -163.8,-174.9 -162.7,-172.5 -160.1,-172.1 -162,-170.3 -161.5,-167.7 
		-163.8,-169 -166.2,-167.8 -165.7,-170.3 -167.6,-172.2 	"/>
	<polygon style="fill:#FFFFFF;" points="-165,-156.5 -163.8,-158.9 -162.7,-156.5 -160.1,-156.1 -162,-154.3 -161.5,-151.7 
		-163.8,-153 -166.2,-151.8 -165.7,-154.3 -167.6,-156.2 	"/>
	<polygon style="fill:#FFFFFF;" points="-165,-140.6 -163.8,-142.9 -162.7,-140.5 -160.1,-140.2 -162,-138.3 -161.5,-135.8 
		-163.8,-137 -166.2,-135.8 -165.7,-138.4 -167.6,-140.2 	"/>
	<polygon style="fill:#FFFFFF;" points="-165,-124.6 -163.8,-126.9 -162.7,-124.6 -160.1,-124.2 -162,-122.4 -161.5,-119.8 
		-163.8,-121 -166.2,-119.8 -165.7,-122.4 -167.6,-124.2 	"/>
	<polygon style="fill:#FFFFFF;" points="-178.6,-172.3 -177.6,-172.1 -179.5,-170.3 -179,-167.7 -181.3,-169 	"/>
	<polygon style="fill:#FFFFFF;" points="-182.5,-156.5 -181.3,-158.9 -180.2,-156.5 -177.6,-156.1 -179.5,-154.3 -179,-151.7 
		-181.3,-153 -183.7,-151.8 -183.2,-154.3 -185.1,-156.2 	"/>
	<polygon style="fill:#FFFFFF;" points="-182.5,-140.6 -181.3,-142.9 -180.2,-140.5 -177.6,-140.2 -179.5,-138.3 -179,-135.8 
		-181.3,-137 -183.7,-135.8 -183.2,-138.4 -185.1,-140.2 	"/>
	<polygon style="fill:#FFFFFF;" points="-182.5,-124.6 -181.3,-126.9 -180.2,-124.6 -177.6,-124.2 -179.5,-122.4 -179,-119.8 
		-181.3,-121 -183.7,-119.8 -183.2,-122.4 -185.1,-124.2 	"/>
	<polygon style="fill:#FFFFFF;" points="-196.6,-140.6 -195.4,-142.9 -194.3,-140.5 -191.7,-140.2 -193.6,-138.3 -193.1,-135.8 
		-195.4,-137 -197.8,-135.8 -197.3,-138.4 -198,-139.1 -197.6,-140.4 	"/>
	<polygon style="fill:#FFFFFF;" points="-196.6,-124.6 -195.4,-126.9 -194.3,-124.6 -191.7,-124.2 -193.6,-122.4 -193.1,-119.8 
		-195.4,-121 -197.8,-119.8 -197.3,-122.4 -199.2,-124.2 	"/>
</g>
<linearGradient id="SVGID_5_" gradientUnits="userSpaceOnUse" x1="-99.3064" y1="65.3108" x2="-99.3064" y2="-242.4356">
	<stop  offset="0" style="stop-color:#FFFFFF;stop-opacity:0"/>
	<stop  offset="1" style="stop-color:#FFFFFF"/>
</linearGradient>
<path style="opacity:0.3;fill:url(#SVGID_5_);" d="M-68.9,47.5c1.3-1.4,2.6-2.7,3.9-4.1c0.9-1,1.9-2,2.8-3c1.3-1.3,2.5-2.6,3.7-4
	c0.9-1,1.9-2,2.8-3c1.2-1.3,2.4-2.6,3.6-3.9c0.9-1,1.8-2,2.7-3c1.2-1.3,2.3-2.6,3.4-3.9c0.9-1,1.7-2,2.6-3c1.1-1.3,2.2-2.6,3.3-3.9
	c0.6-0.7,1.1-1.3,1.7-2c0,0,0,0-0.1,0.1C4.2-36.1,28.5-81.6,28.5-112.8c0-70.6-57.2-127.8-127.8-127.8s-127.8,57.2-127.8,127.8
	c0,33.3,18.3,72.9,65.1,126.8c0,0,0,0,0,0c0.3,0.3,0.6,0.7,0.9,1c0.5,0.6,1.1,1.2,1.6,1.9c0.4,0.5,0.9,1,1.3,1.5
	c0.5,0.6,1.1,1.2,1.6,1.8c0.5,0.5,1,1.1,1.4,1.6c0.5,0.6,1.1,1.2,1.6,1.8c0.5,0.5,1,1.1,1.5,1.7c0.5,0.6,1.1,1.2,1.6,1.8
	c0.5,0.6,1,1.1,1.6,1.7c0.5,0.6,1.1,1.2,1.6,1.8c0.5,0.6,1.1,1.2,1.7,1.8c0.5,0.6,1.1,1.1,1.6,1.7c0.6,0.6,1.1,1.2,1.7,1.8
	c0.5,0.6,1.1,1.2,1.6,1.7c0.6,0.6,1.2,1.2,1.7,1.8c0.6,0.6,1.1,1.2,1.7,1.8c0.6,0.6,1.2,1.2,1.8,1.8c0.6,0.6,1.2,1.2,1.7,1.8
	c0.6,0.6,1.2,1.3,1.8,1.9c0.6,0.6,1.1,1.2,1.7,1.8c0.6,0.6,1.3,1.3,1.9,2c0.6,0.6,1.2,1.2,1.7,1.8c0.6,0.6,1.3,1.3,1.9,2
	c0.6,0.6,1.2,1.2,1.8,1.8c0.7,0.7,1.3,1.3,2,2c0.6,0.6,1.2,1.2,1.8,1.8c0.7,0.7,1.3,1.3,2,2c0.6,0.6,1.2,1.2,1.9,1.8
	c0.8,0.8,1.6,1.6,2.4,2.4c0.5,0.5,1,1,1.5,1.5c1.3,1.3,2.7,2.6,4,3.9c4.8,4.6,10.6,3.2,14,0c2.5-2.3,4.9-4.7,7.3-7
	c0.8-0.8,1.5-1.5,2.3-2.2c1.6-1.6,3.2-3.2,4.8-4.7c0.9-0.9,1.8-1.8,2.7-2.7c1.4-1.4,2.9-2.9,4.3-4.3C-70.7,49.4-69.8,48.5-68.9,47.5
	z"/>
<path style="opacity:5.000000e-002;fill:#FFFFFF;" d="M-3.1-32.6c20.5-31.3,31.6-59.1,31.6-80.3c0-70.6-57.2-127.8-127.8-127.8
	s-127.8,57.2-127.8,127.8c0,23.1,8.8,49.3,29.9,81.2C-175-57.3-26.8-59.6-3.1-32.6z"/>
</svg>
