<?xml version="1.0" encoding="utf-8"?>
<!-- Generator: Adobe Illustrator 16.0.0, SVG Export Plug-In . SVG Version: 6.00 Build 0)  -->
<!DOCTYPE svg PUBLIC "-//W3C//DTD SVG 1.1//EN" "http://www.w3.org/Graphics/SVG/1.1/DTD/svg11.dtd">
<svg version="1.1" id="Capa_1" xmlns="http://www.w3.org/2000/svg" xmlns:xlink="http://www.w3.org/1999/xlink" x="0px" y="0px"
	 width="254.2px" height="318.7px" viewBox="-227.1 -240.7 254.2 318.7" style="enable-background:new -227.1 -240.7 254.2 318.7;"
	 xml:space="preserve">
<g>
	<g>
		<ellipse style="fill:#BCBCBC;" cx="-99.5" cy="73.8" rx="35.5" ry="4.2"/>
		<g>
			<path style="fill:#1E336C;" d="M-94.2,70.6C-18.5-0.7,27.2-70.4,27.2-113.1c0-70.4-57.1-127.5-127.5-127.5
				c-70.4,0-127.5,57.1-127.5,127.5c0,44,32.1,99,119.7,183.7C-103.3,75.2-97.5,73.8-94.2,70.6z"/>
			<path style="fill:#192D5B;" d="M-39.4,13.3c-15.8,18.6-34.2,37.9-54.7,57.3c-3.4,3.2-9.2,4.6-13.9,0
				c-21.5-20.8-39.7-39.8-54.9-57.3C-103.5,62.7-96.7,61.9-39.4,13.3z"/>
			<path style="fill:#FFFFFF;" d="M-41.7-31c-16.6,11.6-36.8,18.4-58.6,18.4c-21.8,0-42-6.8-58.6-18.4l-27.3-98.2l27.3-70.1
				c16.6-11.6,36.8-18.4,58.6-18.4c21.8,0,42,6.8,58.6,18.4l21.3,67.1L-41.7-31z"/>
			<path style="fill:#25A64A;" d="M-158.9-31c-26.6-18.5-43.9-49.3-43.9-84.1c0-34.8,17.4-65.6,43.9-84.1L-158.9-31z"/>
			<path style="fill:#C90505;" d="M-41.7-199.3c26.5,18.5,43.9,49.3,43.9,84.1c0,34.8-17.4,65.6-43.9,84.1L-41.7-199.3z"/>
			<g>
				<g>
					<g>
						<path style="fill:#AA0707;" d="M-41.8-190.7c21.1,14.3,36.7,36,43,61.4c-4-29-20.1-54.1-43-70.1L-41.8-190.7z"/>
					</g>
					<g>
						<path style="fill:#1E8438;" d="M-159-190.6c-21,14.3-36.6,36-42.9,61.4c4-29,20-54.1,42.9-70.1L-159-190.6z"/>
					</g>
					<path style="fill:#D3D3D3;" d="M-41.8-190.7c-16.7-11.3-36.9-17.9-58.6-17.9c-21.7,0-41.9,6.6-58.6,18l0-8.7
						c16.6-11.6,36.8-18.4,58.6-18.4c21.8,0,42,6.8,58.6,18.4L-41.8-190.7z"/>
				</g>
			</g>
			<g>
				<path style="fill:#CC4E4E;" d="M-41.7-31.1c8-5.6,15.2-12.3,21.3-19.9c-6.5,5.7-13.7,10.8-21.3,15L-41.7-31.1z"/>
				<path style="fill:#D3D3D3;" d="M-41.7-31.1c-16.6,11.6-36.8,18.4-58.6,18.4c-21.8,0-42.1-6.8-58.7-18.5l0.1-4.9
					c17.4,9.6,37.4,15.1,58.6,15.1c21.3,0,41.2-5.5,58.6-15.1L-41.7-31.1z"/>
				<path style="fill:#49C168;" d="M-159-31.1c-8-5.6-15.1-12.3-21.2-19.8c6.5,5.7,13.6,10.8,21.3,15L-159-31.1z"/>
				<path style="fill:#D3D3D3;" d="M-159-36"/>
			</g>
			<path style="fill:#162954;" d="M-100.3-222.9c-59.5,0-107.7,48.2-107.7,107.7S-159.8-7.5-100.3-7.5C-40.9-7.5,7.3-55.7,7.3-115.2
				S-40.9-222.9-100.3-222.9z M-100.3-12.6c-56.6,0-102.5-45.9-102.5-102.5c0-56.6,45.9-102.5,102.5-102.5
				c56.6,0,102.5,45.9,102.5,102.5C2.2-58.6-43.7-12.6-100.3-12.6z"/>
			<path style="fill:#283F72;" d="M2.2-115.2c0,56.6-45.9,102.5-102.5,102.5c-56.6,0-102.5-45.9-102.5-102.5h-5.1
				c0,59.5,48.2,107.7,107.7,107.7C-40.9-7.5,7.3-55.7,7.3-115.2H2.2z"/>
		</g>
	</g>
	<circle style="fill:none;stroke:#162954;stroke-miterlimit:10;" cx="-100.3" cy="-115.2" r="102.5"/>
</g>
<g>
	<path style="fill:#016C44;stroke:#004007;stroke-miterlimit:10;" d="M-118.1-105.1c-1.9-2.4-2.4-7.9-6.7-5.1
		c-3,1.9,0.6,7.4,6.6,6.7C-112.3-104.2-117.4-104.8-118.1-105.1z"/>
	<path style="fill:#016C44;stroke:#004007;stroke-miterlimit:10;" d="M-109.5-102.8c-3.4-2.2-8.4-6-10-1.3c-1.5,4.7,6.6,4.5,10.2,3
		C-109.4-101.7-108.4-102-109.5-102.8z"/>
	<path style="fill:#016C44;stroke:#004007;stroke-miterlimit:10;" d="M-91.3-100c1,0.4,2.2,0.9,3.1-0.3c0.9-1.2,3.3-3.6,6.2-1
		c2.9,2.5-3.6,7.9-10.5,2.6C-92.7-99.4-92.5-100.4-91.3-100z"/>
	<path style="fill:#016C44;stroke:#004007;stroke-miterlimit:10;" d="M-97.8-101.1c-2.4-2-8.2-5.4-12.1-2.7c-2,1.4-2.4,7.4,10,5.1
		C-99.7-98.7-97.1-100.5-97.8-101.1z"/>
	<path style="fill:#016C44;stroke:#004007;stroke-miterlimit:10;" d="M-101.5-93.7c0.3,1.3,3.5,1.7,3.7,0c0.3-1.7,0.8-3,2.2-3.4
		c1.4-0.4,4.5-0.4,5-2.5c0.5-2.1-0.8-4.3-7.2-2.8C-101.1-101.5-101.7-94.8-101.5-93.7z"/>
	<path style="fill:#EC0527;stroke:#CC112C;stroke-miterlimit:10;" d="M-114.5-106.7c-0.3,0.5-1.4,2.8,0.3,3.2
		c1.8,0.4,1.9-1.6,1.7-2.9C-112.7-107.4-113.9-107.7-114.5-106.7z"/>
	<path style="fill:#EC0527;stroke:#CC112C;stroke-miterlimit:10;" d="M-126.2-111.9c-0.1,0.6-1.8,0.4-1.8-0.4
		C-127.9-113-126.1-112.6-126.2-111.9z"/>
	<path style="fill:#EC0527;stroke:#CC112C;stroke-miterlimit:10;" d="M-125.6-112.8c-0.6-0.1-0.4-1.8,0.3-1.8
		C-124.5-114.5-125-112.7-125.6-112.8z"/>
	<circle style="fill:#EC0527;stroke:#CC112C;stroke-miterlimit:10;" cx="-127.6" cy="-116" r="0.5"/>
	<circle style="fill:#EC0527;stroke:#CC112C;stroke-miterlimit:10;" cx="-113.8" cy="-108" r="0.6"/>
	<circle style="fill:#EC0527;stroke:#CC112C;stroke-miterlimit:10;" cx="-114.7" cy="-107.4" r="0.6"/>
	<circle style="fill:#EC0527;stroke:#CC112C;stroke-miterlimit:10;" cx="-112.3" cy="-107.8" r="0.6"/>
	<line style="fill:none;stroke:#CC112C;stroke-miterlimit:10;" x1="-127.5" y1="-115.8" x2="-126.6" y2="-113.9"/>
	<path style="fill:#EC0527;stroke:#CC112C;stroke-miterlimit:10;" d="M-126.3-112.3c-0.4,0.5-1.8-0.6-1.3-1.2
		C-127.2-114.1-125.8-112.8-126.3-112.3z"/>
	<path style="fill:#EC0527;stroke:#CC112C;stroke-miterlimit:10;" d="M-126-112.8c-0.6,0.3-1.4-1.2-0.8-1.6
		C-126.2-114.9-125.5-113.1-126-112.8z"/>
	<path style="fill:#EC0527;stroke:#CC112C;stroke-miterlimit:10;" d="M-126.2-113c-1.1,0.5-0.2,4.3,1.8,3.2
		C-123.1-110.6-125.1-113.5-126.2-113z"/>
	<path style="fill:#EC0527;stroke:#CC112C;stroke-miterlimit:10;" d="M-81-102.5c-0.7,0-0.7-1.7,0-1.8
		C-80.2-104.4-80.3-102.5-81-102.5z"/>
	<path style="fill:#EC0527;stroke:#CC112C;stroke-miterlimit:10;" d="M-79.9-102.1c0-0.7,1.7-0.8,1.8,0
		C-78.1-101.4-80-101.5-79.9-102.1z"/>
	<circle style="fill:#EC0527;stroke:#CC112C;stroke-miterlimit:10;" cx="-77.2" cy="-104.7" r="0.5"/>
	<line style="fill:none;stroke:#CC112C;stroke-miterlimit:10;" x1="-77.4" y1="-104.6" x2="-79.1" y2="-103.3"/>
	<path style="fill:#EC0527;stroke:#CC112C;stroke-miterlimit:10;" d="M-80.6-102.7c-0.6-0.3,0.2-1.9,0.9-1.5
		C-79-103.9-80.1-102.3-80.6-102.7z"/>
	<path style="fill:#EC0527;stroke:#CC112C;stroke-miterlimit:10;" d="M-80-102.5c-0.4-0.5,0.9-1.7,1.4-1.1
		C-78.1-103.1-79.6-102-80-102.5z"/>
	<path style="fill:#EC0527;stroke:#CC112C;stroke-miterlimit:10;" d="M-79.9-102.7c-0.7-1-4.3,0.7-2.8,2.4
		C-81.6-99.2-79.2-101.7-79.9-102.7z"/>
	<circle style="fill:#EC0527;stroke:#CC112C;stroke-miterlimit:10;" cx="-113.4" cy="-107.1" r="0.9"/>
	<circle style="fill:#EC0527;stroke:#CC112C;stroke-miterlimit:10;" cx="-113" cy="-108.5" r="0.6"/>
	<circle style="fill:#EC0527;stroke:#CC112C;stroke-miterlimit:10;" cx="-111.9" cy="-106.9" r="0.6"/>
	<path style="fill:#FFC11E;" d="M-94.3-105.4c0.4-0.1,1.2,0.5,2.2,1.6c0.7-0.1,3.2-0.2,2.7,1c-0.6,0.4-1.2,0.9-1,1.3
		c-0.5,0.2-1,0.5-1.9-0.8c-0.6,0.2-0.9,0-1,0c-0.2,0-1-0.2-1.6,0c-0.8,0.2-1.2,0.4-1.3,0.8c-0.1,0.4-0.8,1.2-1.3,0.9
		c-0.2,0.1-0.2-0.2-0.4-0.8c-0.1-0.6-0.6-0.8-0.9-0.9c0.2-0.3,0.5-0.5,1-0.6c-0.6-0.1-0.8,0.2-1.2,0.4c-0.6,0.1-0.6,0-0.6-0.4
		c0-0.4-0.7-1.9,0.5-1.8c1.1,0.2,1.6,0.3,2.1,0.3c0.5,0,1.1-0.9,1.3-1.1C-95.4-105.7-94.3-105.4-94.3-105.4z"/>
	<path style="fill:#FFFFFF;" d="M-99.4-104c-0.5-0.1-2.6-0.6-2,1.9c0.3-0.1,0.8-0.8,1.3-0.4c0.6,0.4,0.7-0.4,0.7-0.4V-104z"/>
	<path style="fill:#FFFFFF;" d="M-98.7-102.3c-0.2,0.1-2.1,0.9-0.4,2.5c0-0.6,1.1-0.9,1.6-1.4C-97-101.7-98.2-102.6-98.7-102.3z"/>
	<path style="fill:#FFFFFF;" d="M-90.9-101.8c0.6,0.2,1.1,1.1,1,1.3c-0.1,0.3,0,0.2,0.4,0c0.4-0.2,1.3-2.2-0.5-2.2
		C-91.6-102.8-91.1-101.9-90.9-101.8z"/>
	<path style="fill:#FFB000;" d="M-95.5-105.9c-0.1,0.7-0.1,1.8,0,2c0.1,0.1,0.7,0.2,1.2,0c0.5-0.2,0.2-2.4,0.2-2.6
		C-94.1-106.8-95.4-106.5-95.5-105.9z"/>
	<path style="fill:#7C4605;" d="M-99.9-108.3c0.8,0.7,2.2,3.2,2.5,3c0.3-0.2,1.5-1.1,1.3-1.3c-0.2-0.2-1.8-2.8-2.5-3.1
		C-99.2-110.1-100.2-108.6-99.9-108.3z"/>
	<path style="fill:#A16002;" d="M-98.1-109.1c0.2,0.6,2,4,2.9,3.7c0.9-0.3,0.8-0.9,0.5-1.3c0.4,0.6,0.8,0.8,0.9,0.7
		c0.1-0.1,0-0.8,0-1.3c0.4,0.8,0.7,1.2,0.9,0.4c0.2-0.7,0.4-3.8-0.1-4.8C-93.4-112.6-98.7-111.1-98.1-109.1z"/>
	<path style="fill:#A16002;" d="M-92.7-115.8c1.4,1.1,11.9,8.2,12.4,8.9c0.5,0.8-2.4,1.2-3,0.8c-0.6-0.4-10-7.4-10-7.4
		S-93.8-116.2-92.7-115.8z"/>
	<path style="fill:#7C4605;" d="M-93.6-111.1c1.5,1.2,6.7,5.2,7.7,5.8c1,0.6,2.1,0,2.3-1.1c-1.2-1.2-8.6-7.3-10.2-7.1
		C-95.4-113.3-94.9-111.8-93.6-111.1z"/>
	<path style="fill:#A16002;" d="M-93.1-109.3c0.7,0.5,3.8,3.5,4.4,4c0.6,0.5,2.7,0.7,2.4-0.5c-1.7-2.1-7.1-5.3-7.5-5.4
		C-94.3-111.4-93.5-109.6-93.1-109.3z"/>
	<path style="fill:#7C4605;" d="M-93.1-107.4c1,1.1,2.4,2.2,2.9,2.3s1.3-0.2,0.9-1c-0.4-0.8-3.7-3.8-4.4-3.3
		C-94.4-108.8-93.7-108.1-93.1-107.4z"/>
	<path style="fill:#7C4605;" d="M-104.3-113.5c0.1,1,0.5,4.5,1.6,4.8c1.1,0.3,1.6-0.6,0.9-2.8C-102.6-113.7-103.7-114.9-104.3-113.5
		z"/>
	<path style="fill:#7C4605;" d="M-103.8-111.3c-0.7,0.3-3.1,1.6-3.2,2.3c-0.1,0.7,0.6,1.8,4.6,0
		C-102.4-110.1-103.3-111.1-103.8-111.3z"/>
	<path style="fill:#A16002;" d="M-93-114.6c2.3-2.8-0.5-6.2-1.4-6.7C-94.8-118.3-94.9-116.5-93-114.6z"/>
	<path style="fill:#A16002;" d="M-104.8-114.2c0.4,0.8,4.9,6.1,5.2,6.1c0.2,0,1-0.7,0.8-1.2c-0.1-0.4-4.2-4.4-4.8-5.2
		C-104.2-115.2-105.2-115.1-104.8-114.2z"/>
	<path style="fill:#7C4605;" d="M-101-114.6c0.6,0.9,3,4.2,3.2,4.6c0.2,0.3-0.2,1-0.2,1c0,0.1-0.8,0.1-1.4-0.2
		c-0.5-0.3-4.2-4.7-4.2-5.3C-103.6-115.2-101.7-115.7-101-114.6z"/>
	<path style="fill:#A16002;" d="M-98.5-115.2c0.6,0.7,2.4,4.9,2.4,5.1c0.1,0.2-0.4,0.8-0.5,0.8c-0.1,0.1-1.3-0.4-1.5-0.6
		c-0.2-0.2-3-3.5-2.9-5.4C-100.8-117.1-98.8-115.6-98.5-115.2z"/>
	<path style="fill:#7C4605;" d="M-96.8-116.9c0.5,1,2.3,5.7,2.2,6.3c-0.1,0.6-0.9,1.1-1.7,0c-0.9-1.1-2.8-4.9-2.7-5.5
		C-99-116.7-97.4-118.1-96.8-116.9z"/>
	<path style="fill:#A16002;" d="M-96.5-118.7c1,0.5,1.4,0.5,1.6,1.2c0.2,0.7,1.3,5.4,1.3,5.9c0,0.4-0.4,1.6-1,1
		C-95.3-111.3-97.7-117.6-96.5-118.7z"/>
	<path style="fill:#7C4605;" d="M-94.2-120.2c0.4,0.8,1.8,7.7,1.5,8.2c-0.3,0.6-0.5,1.3-1.7-0.3c-1.2-1.6-1.3-7.8-0.7-8.1
		C-94.4-120.7-94.6-120.5-94.2-120.2z"/>
	<path style="fill:#A16002;" d="M-97.3-125.1c0.6,0.5,2.3,4.9,2.4,5.5c0,0.5-0.1,1.2-0.2,1.4c-0.1,0.1-1.2-0.1-1.2-0.1
		s-2.5-4.7-2.5-5.5C-98.8-124.6-98.1-125.8-97.3-125.1z"/>
	<path style="fill:#7C4605;" d="M-100.7-122c0.6,1.6,1.3,4.5,2,4.9c0.7,0.4,1.3,0.7,1.6,0.6c0.3-0.1,0.3-2.2,0.2-2.7
		c0-0.5-1.5-4.9-2-5.1c-0.5-0.2-1.7-0.1-1.8,0.4C-100.8-123.4-100.7-122-100.7-122z"/>
	<path style="fill:#A16002;" d="M-102.7-120.1c0.6,1.6,2.7,6.2,4.4,5.1c1-0.6-1.7-6.2-2.4-7.2C-101.3-123.1-103.4-122.4-102.7-120.1
		z"/>
	<path style="fill:#7C4605;" d="M-106.1-118.8c1.2,1.7,4.7,4.8,5.3,4.8c0.5-0.1,0.6-1.3,0.6-2.2c0-0.9-2-4.8-4.9-4.8
		C-106.1-121-106.4-119.9-106.1-118.8z"/>
	<path style="fill:#A16002;" d="M-109.5-119.5c1.3,1.7,4.1,5.1,5,5.5c0.9,0.4,1.6,0.1,1.8-0.2c0.2-0.3,0.3-1.3-0.4-2.5
		c-0.6-1.1-5.2-5.6-5.9-3.9C-109.5-120.4-109.5-119.5-109.5-119.5z"/>
	<path style="fill:#7C4605;" d="M-95.6-120.5c0.4,0.7,0.9,0.6,1.2,0.6c0.2,0,0.3-1.3,0.2-1.9c-0.1-0.6-2-3.6-2.9-3.6
		C-98-125.3-95.8-120.8-95.6-120.5z"/>
	<path style="fill:#7C4605;" d="M-108.3-118.2c-0.3,0.5,0.4,3,2,3.4C-104.8-115.9-106.2-117.7-108.3-118.2z"/>
	<path style="fill:#A16002;" d="M-109.5-127c-0.4,0.9-1,1.6-1.2,3.3c-0.2,1.7,0.1,2.8,0.4,3.1c0.4,0.3-0.4,1.1,0.3,1.4
		c0.7,0.3,1.7-0.7,2.1-1.4c0.4-0.7,0.5-5.7,0.5-5.7l-0.2-1.8L-109.5-127z"/>
	<path style="fill:#7C4605;" d="M-102.7-126.5c0,0.9,0,4.3,0.6,4.6c0.6,0.3,1.5,0.9,1.8,0.6c0.3-0.2,0.6-2.4,0.3-3.1
		c-0.2-0.7-1.9-2.7-1.9-2.7L-102.7-126.5z"/>
	<path style="fill:#A16002;" d="M-102-127c0.1,0.9,0,6.9-0.6,6.9c-0.6,0-2.9-1.4-2.8-1.6c0.3,2,0.7,2.9-0.2,2.6
		c-0.9-0.3-1.7-1.6-1.7-1.6s-0.1-5,0-5.8C-107.3-127.3-102-127.4-102-127z"/>
	<path style="fill:#7C4605;" d="M-108.3-125.7c-0.8,1.5-0.6,4.9,0.3,5.6c0.9,0.7,1.4-0.4,1.4-0.4s0.1-6.1-0.7-5.9
		C-108-126.1-108.3-125.7-108.3-125.7z"/>
	<path style="fill:#7C4605;" d="M-108.1-130.2c-0.5,0.5-2.1,2.8-2.1,3.1c-0.1,0.3-0.3,1.4,2.3-0.1
		C-105.3-128.7-105.6-132.3-108.1-130.2z"/>
	<path style="fill:#7C4605;" d="M-103.4-137.7c0.9,0.5,2.5,1.4,2.5,1.8c0.1-1.7-0.3-2.6-0.6-2.6c-0.3-0.1-4.3-0.5-4-1.9
		c0.3-1.4,2.1-2.3,2.9-2.1c0.6,1.2,2.4,2.6,4.1,3.4s2.3,4.8,2,6.3c-0.3,1.4-1.7,2.9-1.8,3.8c-0.1,0.9,1,2.8,1.2,3.2
		c0.2,0.4,0.2,1.3,0.2,1.3h-1.3c0,0-2.6-2.9-3-3.3C-101.7-128.2-104.6-138.7-103.4-137.7z"/>
	<path style="fill:#A16002;" d="M-107.7-138.9c0.5-0.2,1.9-0.1,2.5,0.2c0.5,0.3,1.9,0.8,2.5,0.6c0.6-0.1,0,1-1,1.1
		c-0.9,0-3.9-0.9-4.3-1.2C-108.3-138.4-107.7-138.9-107.7-138.9z"/>
	<path style="fill:#7C4605;" d="M-108.3-137.3c0.2,0.1,3.1,1.4,3.4,1.6c0.3,0.2,1.7,0.2,1-1.1c-0.8-1.3-3.4-1.7-3.9-1.2
		C-108.4-137.6-108.3-137.3-108.3-137.3z"/>
	<path style="fill:#A16002;" d="M-110.9-136.1c-0.2,0.2-0.2,0.2-0.2,0.2s0.2,1,1.1,0.9c0.9-0.1,1.3-1.2,1.7-1.1
		c0.4,0.1,1.8,1.1,2.7,1.1c0.8-0.1,1.1-0.4,0.9-0.8c-0.2-0.4-2.7-2-4-1.5C-110.1-136.8-110.9-136.1-110.9-136.1z"/>
	<path style="fill:#A16002;" d="M-108.1-136.1c-0.5,1.2-0.2,2.8,0.9,2.9c1.1,0.1,2.2-0.2,2.2-1c0-0.8-0.6-1.6-1.2-1.8
		C-106.8-136.3-108.1-136.1-108.1-136.1z"/>
	<path style="fill:#A16002;" d="M-108.2-132c-0.2,1-0.4,1.3-0.8,1.8c-0.3,0.5,1.1,0.6,2.6-0.5c-1.1,1.2-2.3,4.7-1.9,5.3
		c0.4,0.5,1.9,0,2.3-1.6c0.2,1.6,0.5,2.4,0.9,2.3c0.4-0.1,1.7-0.9,1.7-2.1c0.1,0.5,1.1,1.5,1.3,1.4c0.2-0.1,1.2-1.5,1.2-2.6
		c0.1-1.1,0.5-2.2-0.2-4.1C-101.6-134.1-107.3-134.6-108.2-132z"/>
	<path style="fill:#A16002;" d="M-103.5-137.3c1.1,0.5,3.1,3,3.4,4.7c0.3,1.7-0.9,1.3-1.9,0.6c-1-0.7-2.1-3.6-2.2-4.3
		C-104.5-136.9-104.5-137.8-103.5-137.3z"/>
	<path style="fill:#7C4605;" d="M-105.5-133.8c0.6,1.1,2.5,3.4,2.9,3.5c0.3,0.1,1.1-0.3,0.7-2.1s-1.8-4.2-2.7-3.8
		C-105.5-135.7-105.5-133.8-105.5-133.8z"/>
	<path style="fill:#A16002;" d="M-93.2-122.5c1.4,1.6,2.9,1.6,3.3,2.2c0.4,0.7,2,3.3,2.5,3.2c0.5-0.1-1.2-3.3-1.8-3.9
		c-0.7-0.6-1.2-2.6-1.9-2.9C-92.2-123.9-93.5-122.8-93.2-122.5z"/>
	<path style="fill:#7C4605;" d="M-90.8-124.4c0,0.9,0.6,3.3,2.2,3.4c1.6,0.1,3,5.6,3.8,5.6c0.8,0,0-2.3-1-5.3
		c-1-2.9-2.4-4.5-3.1-4.8C-89.7-125.8-90.8-124.6-90.8-124.4z"/>
	<path style="fill:#A16002;" d="M-88.7-125.7c-0.1,1.3,1,5.4,3.6,6.1c0.8,0.2,1.2,4.4,1.7,5c0.6,0.6,1,0.5,0.9-0.7
		c-0.1-1.2-2.6-8.9-2.6-9.7C-85-125.9-88-127.8-88.7-125.7z"/>
	<path style="fill:#7C4605;" d="M-85.7-124.9c0.1,2.2,2,5.7,2.7,6c0.8,0.3,2.1,7.2,2.6,7.4c0.6,0.2-0.5-8.7-0.4-10
		C-80.7-122.9-84.4-128.7-85.7-124.9z"/>
	<path style="fill:#A16002;" d="M-83.8-126.4c0,1.2,1.8,5.9,3.5,7.4c1.6,1.5,0.8,7.8,1.6,8.9c0.9,1.2,1-3.1,1-4.2
		c0-1.2-0.8-5.3-0.8-8.2C-78.4-125.4-81.2-130.6-83.8-126.4z"/>
	<path style="fill:#7C4605;" d="M-81.1-127.1c0,1.8,1.6,4.9,3.4,7.2c1.8,2.3,0,11.4,0.9,11.9c0.9,0.5,2-8.8,2-10.7
		c0-1.9,0.6-5.5-1.2-7.3C-77.7-127.9-80.9-128.3-81.1-127.1z"/>
	<path style="fill:#7C4605;" d="M-94.4-126.3c-0.7,0.4-1.7,2.5,1,3.6c2.6,1.1,2.8,0,2.9-0.9c0.1-0.9-1.1-1.9-2.1-3.1
		C-93.3-126.9-93.8-127.2-94.4-126.3z"/>
	<path style="fill:#A16002;" d="M-90.9-129.2c1.3,1.4,3.2,2.5,3.2,3.5c0,1-0.1,2.1-0.3,2c-0.3,0-2.8-0.1-3.2-0.9
		c-0.5-0.8-2.5-2.1-1.1-3.9C-91.5-129.6-90.9-129.2-90.9-129.2z"/>
	<path style="fill:#7C4605;" d="M-89.9-131.3c0.7,0.6,5.1,5.1,5.4,5.6c0.2,0.5,0.4,1.3,0,1.7c-0.4,0.4-1.4-0.2-3.2-1.7
		c-1.8-1.5-4.1-2.6-3.6-4.4C-90.8-131.9-89.9-131.3-89.9-131.3z"/>
	<path style="fill:#A16002;" d="M-89-134.4c0.6,0.3,6,6.6,6.2,7.2c0.2,0.6,0.2,1.9-0.2,2.1c-0.4,0.2-1.3,0.2-3.3-1.1
		C-88.3-127.4-93.6-135.4-89-134.4z"/>
	<path style="fill:#7C4605;" d="M-88.1-136.6c1.1,0.7,8.3,8.6,8.3,9.7c0,1.1-0.4,2-2.1,0.8c-1.7-1.2-7.7-7.7-7.5-9.3
		C-89.1-137.1-88.6-136.7-88.1-136.6z"/>
	<path style="fill:#A16002;" d="M-86.1-139.2c1.7,1.2,7.3,5.6,9.3,11.3c0.9,2.7,1.8,3.2,2.2,3.4c0.4,0.2,0.2,0.8-0.8,0.6
		c-1-0.2-4-1.2-5.9-3.8c-1.9-2.6-7.6-8.5-7.6-8.5S-86.8-139.8-86.1-139.2z"/>
	<path style="fill:#7C4605;" d="M-94.5-137.4c1.1,0.5,5,2,5.9,1.6c0.9-0.4,0.9-2,0.7-2.6c-0.1-0.6-7.2-2.2-7.9-1.8
		C-96.3-139.8-95.1-137.7-94.5-137.4z"/>
	<path style="fill:#A16002;" d="M-94.6-135.4c1.3,0.5,3.7,1.4,4.9,2.3c1.2,0.8,1.3-1.8,0.8-3.1c-0.5-1.3-6.1-2.1-6.6-1.5
		C-96-137.1-94.6-135.4-94.6-135.4z"/>
	<path style="fill:#7C4605;" d="M-94.1-132.2c1.2,0.5,2.7,1.4,3.6,1.6c0.9,0.2,1.8-2.3,0.6-3.5c-1.1-1.2-5.4-1.1-5.5-0.3
		C-95.5-133.6-94.8-132.5-94.1-132.2z"/>
	<path style="fill:#A16002;" d="M-94.9-130.3c1.2,1.2,1.8,2.3,3,2.2c1.1-0.1,2-1.8,0.7-3.6C-92.5-133.4-96.5-132-94.9-130.3z"/>
	<path style="fill:#A16002;" d="M-102.8-142.1c-0.1,1.1,4,2.5,4.8,4.1c0.9,1.6,1.3,2.8,0.9,5.2c-0.5,2.4-2.8,2.7-0.5,6.9
		c0.8,1.5,1.5-0.5,0.8-1.9c1.7,0.5,2.2-1.2,1.3-1.9c2.2,0.1,2.3-1.3,1-2.1c1.7-0.4,1.3-2.2,0-2.3c1.5-0.9,1-2.3,0.3-2.6
		c1-0.3-0.6-2.7-1.4-3.2c1.4,1.1,2.8,1.3,2.1,0.1c0.6,1.1,2,1.1,1.7,0c1.6,2,2.3,2.1,2.3,1.1c0.8,0.6,1.8,1.6,3.9-1
		c0.1-0.9-0.3-0.5-1.7-0.8C-88.5-140.6-101.6-147.4-102.8-142.1z"/>
	<path style="fill:#A16002;" d="M-97-127.8c1.6,0.5,3.8,1.5,2.6,3.6c0.9,0.1,2.7,3.4,0.6,3.3C-96.2-122.4-99.6-126.7-97-127.8z"/>
	<path style="fill:#7C4605;" d="M-112.1-137.6c0.3-0.4,0.7-1.1,0.7-1.6c0-0.5,0.2-0.7,0.4-0.3c0.2,0.4,0.5,1.4,0.4,1.8
		c-0.2,0.3-0.8,1.1-1.6,1.1C-112.3-137-112.1-137.6-112.1-137.6z"/>
	<path style="fill:#A16002;" d="M-111.1-135.9c0.4-0.6,1.4-2.9,1.6-4.3c0-0.1,0.1-0.2,0.2-0.1c0.3,1,0.5,2.7,0.3,3
		C-109.3-136.9-110.5-136-111.1-135.9z"/>
	<path style="fill:#FFFFFF;" d="M-109.3-138.4"/>
	<path style="fill:#7C4605;" d="M-109.2-138.1c0.2-0.3,1.1-1.6,1.3-2.1c0.2-0.6,0.5-0.2,0.5,0.2c0,0.4-0.3,2.5-0.7,2.8
		s-1.5,0.3-1.5,0.1C-109.6-137.4-109.2-138.1-109.2-138.1z"/>
	<path style="fill:#A16002;" d="M-100.7-128c1.2,0.9,2.8,2.3,2.7,2.8c-0.1,0.6-0.3,1.6-0.3,1.6s-1.4-0.1-1.8-0.2
		c-0.5-0.1-1.5-3.6-1.5-3.6L-100.7-128z"/>
	<path style="fill:#7C4605;" d="M-106.6-116.2c0.1,1-0.1,4.3,1.3,4.7c1.4,0.4,1.6-1,1.6-1.8C-103.8-114-105.8-116.8-106.6-116.2z"/>
	<path style="fill:#A16002;" d="M-106.5-114.3c-0.5-0.5-1.3-0.9-1.5-0.4c-0.2,0.6,0.9,1.9,2.4,1.9
		C-104.2-112.7-105.9-113.8-106.5-114.3z"/>
	<path style="fill:#FFB000;" d="M-108.8-112.3c0.5,0.1,4.3,1.4,4.5,1.5c0.2,0.1-0.9,1.2-0.9,1.2s-3.6-0.5-5.4-1.4
		C-110.6-111.1-109.5-112.6-108.8-112.3z"/>
	<path style="fill:#036D45;" d="M-117.7-138.2c-0.8,0.1-1,1-1.5,1.2c-0.5,0.2-1.8,0.3-2.1,1.6c-0.8,3.3,0.5,5.6,4.1,5.2
		c2.6-0.3,4.7,1.4,0.8,3.9c-2.5,1.6-5.4,5.6-2.7,8.6c2.6,3,6.7,1.6,6.8,2.3c0.1,0.6-2.7,3.9-5,3.4c-1.3-1.7-1-3.1-1.8-3.7
		c-0.8-0.6-3.2-1.4-3-2.1c0.2-0.8,1.5-3.1,0.8-4.4c-0.7-1.3-2.5-3.2-3.6-2.6c-1.1,0.6-1.3,1.2,0.2,1.9s1.8,1.6,1.4,3.3
		c-0.4,1.6-1.7,3.1,1.3,5.2c2,1.4,1.5,3.9,3.8,4.7c1.5,0.5,2.1,0,3-0.6c0.9-0.5,6.1-1.1,5.8-4.1c-0.3-3-0.5-3.2-3.3-3.6
		c-2.8-0.4-4.2,0-4.5-2.4s2.8-3.6,4.7-5.8c1.9-2.2,1.9-4.8-2.8-5.8c-0.9-0.1-3.5-0.3-3.8-0.5c-0.3-0.2,0.8-0.6,1.6-0.8
		c0.7-0.2,0.8-0.8,0.5-0.9c-0.3-0.1-1.6,0.4-1.9,0.4c-0.1-0.3-0.1-1.2,0.9-2c0.5,0.1,0.1,0.7,0.4,0.8c0.3,0.1,0.9-1.4,0.2-2.1
		C-117.3-137.4-117.4-138.3-117.7-138.2z"/>
	<path style="fill:#FFC11E;" d="M-109-133c-0.2,1.3-2.1,2.2-2.8,2.5c0,0-0.7-0.7-1.8-1.2c-1.8-0.3-1.8,1.8-1.1,2.9
		c-4,0.1-2-3.6-1.4-4.1c0-0.6,0.6-1.4,1-1.5C-110.9-134.8-109.1-134.1-109-133z"/>
	<path style="fill:#7C4605;" d="M-96.2-127.7c1.2,1.4,1.8,2.2,2.5,1.9c0.6-0.2,2.2-0.7,1-3.1c-1.4-1.4-3.4-1.2-3.7-0.8
		C-96.7-129.1-96.6-128.1-96.2-127.7z"/>
	<path style="fill:#FFB000;" d="M-113.9-114.4c-0.2-0.1-1.1,0-1.3,0.4c-0.2,0.4,0.7,3.3,1.2,3.3c0.5,0,0.7-0.6,0.7-0.6
		S-114.2-114-113.9-114.4z"/>
	<path style="fill:#FFC11E;" d="M-113.9-112.3c0.5,0.1,1.3-0.4,1.4-0.8c0.4,0.3,0.4,1.3,1,1.1c0.4-0.5,2.2-1.1,2.1-1.9
		c0.7,0.3,1.7,1.1,0.7,2.2c-1,1-2.3,1.8-2.8,1.8C-112.1-110-114.3-111.2-113.9-112.3z"/>
	<path style="fill:#FFFFFF;" d="M-113-115.2c-0.5,0.2-1.8,1.8-0.9,2.9c0.6,0.1,1.4-0.2,1.4-0.8C-112.9-113.7-112.5-115.5-113-115.2z
		"/>
	<path style="fill:#FFC11E;" d="M-115.1-113.6c-0.3-0.1-1-0.3-1.1,0.7c-0.1,0.9,1.2,2.7,1.8,2.5c0.6-0.2,0.3-0.9,0.2-1.3
		C-114.4-112.2-115.1-113.6-115.1-113.6z"/>
	<path style="fill:#FFB000;" d="M-116-112.8c-0.4-0.2-0.8,0.2-0.7,0.7c0.1,0.6,1.4,3.3,1.7,1C-115.2-112-116-112.8-116-112.8z"/>
	<path style="fill:#7C4605;" d="M-113.4-133.8c0.2,0.6,0.6,1,1.8,0.7c1.2-0.3,2.7-0.9,3.1,1.6c0,0.3,2.4-1.5,0.3-2.2
		c0.9,0.2,0.9-0.5,0.5-0.9c0.4-0.6,0-2-1.1-1.3c-1,0.7-2.4,0.5-2.5,0.2c0.3-0.4,1.1-1.6,1-1.7c-0.1-0.1-0.8-0.2-0.8-0.2
		S-113.6-135.5-113.4-133.8z"/>
	<path style="fill:#FFFFFF;" d="M-112.6-136.2c0.3,0.1,1.2,0.5,0.9,1.2c-0.3,0.7-1.9,1.9-2.6,0.9
		C-113.9-134.8-112.9-136.2-112.6-136.2z"/>
	<path d="M-112.8-135.9c0.5,0.3,0.9,1.2-0.1,1.7c-0.7,0.3-1.1-0.2-1.2-0.4C-114.1-134.8-113.2-136-112.8-135.9z"/>
	<path style="fill:#AE6506;" d="M-115.4-134.4c0.4-1.2,1.8-1.7,2.2-2.5c0.5-0.8,0.6-1.6,0.8-1.6c0.2,0,0.6,1.1,0.5,1.4
		c-0.1,0.3-2.3,2.7-2.4,3.1C-114.9-133.9-115.2-134.3-115.4-134.4z"/>
	<path style="fill:#A16002;" d="M-106.5-112.8c-0.7,0.4-1.5,0.6-1.1,1.3c0.4,0.7-1.6,1.2-1.6,1.9c0,0.7,1.7,1.3,4,0.3
		c2.3-1.1,2.8-2.7,2.3-3.3C-103.5-113.2-105.6-113.2-106.5-112.8z"/>
	<path style="fill:#8FBEEA;" d="M-119.6-98.1c0.9,0.7,4.7,2.4,2.6,3.6l0.2,0.7c2.3-0.1,7.1,0.4,4.9,2.5c-0.9,0.1-0.8,0.3-0.8,0.3
		l0.8,0.6c0,0,2.9,0.3,4.4,0.3c1.5,0.8,1,2.3,2.2,2.3c1.2,0,8,0,8.6,0c0.6,0,0.9-1.1,0.7-1.9c0.8-0.1,4.4-0.4,6-1.4l0.3-0.6
		c0,0-1.1-0.3-1.4-0.6c-0.3-0.4,1.7-1.3,2.6-1.7l-0.3-0.6c-1.5,0.3-4.2,0.9-6,0.8c-2.7-0.1-11.1-0.4-12.7-0.6
		c-1.6-0.2-3.6-1.5-4.1-3.4c-0.6,0-0.7,0.2-0.7,0.2s0.1,1-0.7,1.2c-0.8,0.2-5.3-1.8-6.9-2.4L-119.6-98.1z"/>
	<path style="fill:#FFFFFF;" d="M-110.9-98.5c0,0.7-0.6,1.3-1.3,1.3l0,0c-0.7,0-1.3-0.6-1.3-1.3l0,0c0-0.7,0.6-1.3,1.3-1.3l0,0
		C-111.4-99.8-110.9-99.2-110.9-98.5L-110.9-98.5z"/>
	<path style="fill:#FFFFFF;" d="M-116.6-94.1c0,0.7-0.6,1.3-1.3,1.3l0,0c-0.7,0-1.3-0.6-1.3-1.3l0,0c0-0.7,0.6-1.3,1.3-1.3l0,0
		C-117.2-95.3-116.6-94.8-116.6-94.1L-116.6-94.1z"/>
	<path style="fill:#FFFFFF;" d="M-87.9-91.3c0,0.7-0.6,1.3-1.3,1.3l0,0c-0.7,0-1.3-0.6-1.3-1.3l0,0c0-0.7,0.6-1.3,1.3-1.3l0,0
		C-88.4-92.6-87.9-92-87.9-91.3L-87.9-91.3z"/>
	<path style="fill:#A16002;" d="M-87.2-93.4c-0.9,0.3-1.8,0-2-0.7l0,0c-0.2-0.6,0.4-1.4,1.3-1.7l0,0c0.9-0.3,1.8,0,2,0.7l0,0
		C-85.8-94.4-86.3-93.7-87.2-93.4L-87.2-93.4z"/>
	<path style="fill:#A16002;" d="M-113.4-89.2c-0.9,0.3-1.8,0-2-0.7l0,0c-0.2-0.6,0.4-1.4,1.3-1.7l0,0c0.9-0.3,1.8,0,2,0.7l0,0
		C-112-90.2-112.5-89.5-113.4-89.2L-113.4-89.2z"/>
	<path style="fill:#A16002;" d="M-121-97.8c-0.8-0.5-1.1-1.4-0.8-1.9l0,0c0.4-0.6,1.3-0.6,2.1-0.1l0,0c0.8,0.5,1.1,1.4,0.8,1.9l0,0
		C-119.3-97.4-120.2-97.3-121-97.8L-121-97.8z"/>
	<circle style="fill:#A16002;" cx="-107.5" cy="-95.9" r="1.3"/>
	<circle style="fill:#A16002;" cx="-107.5" cy="-89.9" r="1.3"/>
	<circle style="fill:#A16002;" cx="-95.1" cy="-95.9" r="1.3"/>
	<circle style="fill:#A16002;" cx="-95.1" cy="-89.9" r="1.3"/>
	<path style="fill:#A16002;" d="M-94.6-90.4c0,0.6-0.5,1-1,1h-11.3c-0.6,0-1-0.5-1-1v-5.1c0-0.6,0.5-1,1-1h11.3c0.6,0,1,0.5,1,1
		V-90.4z"/>
	<path style="fill:#016C44;stroke:#004007;stroke-miterlimit:10;" d="M-70.5-114.6c-0.2,2,0,5,1.6,5.8
		C-67.8-112.2-69-113.4-70.5-114.6z"/>
	<path style="fill:#016C44;stroke:#004007;stroke-miterlimit:10;" d="M-75.1-95.7c1.5-3-1.6-7.9,3.8-9.9
		C-71.1-102.4-71.1-98.5-75.1-95.7z"/>
	<path style="fill:#016C44;stroke:#004007;stroke-miterlimit:10;" d="M-84.5-88.3c1.4-0.1,6.2-3.6,6.2-4.5c0-0.9,0.2-1.8-0.3-3.3
		C-80.6-92.7-83-92.4-84.5-88.3z"/>
	<path style="fill:#016C44;stroke:#004007;stroke-miterlimit:10;" d="M-74.9-93.3c-0.5,2.2-1.8,3.7-2.7,4c-0.9,0.3-4.7,0.3-6.5,0.7
		C-81-90.2-81.5-93-74.9-93.3z"/>
	<path style="fill:#016C44;stroke:#004007;stroke-miterlimit:10;" d="M-87.6-88.8c-3.3,0-4.2-0.4-7.5,3.4
		C-94.1-84.7-90-84.5-87.6-88.8z"/>
	<path style="fill:#016C44;stroke:#004007;stroke-miterlimit:10;" d="M-93.8-84.2c0.5,0.9,1.2,3,8.5,0
		C-88.5-86.6-92.3-84.5-93.8-84.2z"/>
	<path style="fill:#A16002;" d="M-133-103.4c-0.3-1.1-0.4-1.7-0.3-1.9c0.1-0.3,1.2-0.9,1.2-1.2c0-0.3-0.8-0.8-0.8-0.9
		c0-0.2,1.7-1.7,1.4-2.1c-0.3-0.5-1.2,0.3-1.4,0c-0.1-0.3,1.2-2.8,0.8-2.9c-0.4-0.1-1.1,0.3-1.2,0c0-0.3,1.2-2,0.8-2.5
		c-0.4-0.5-1.4-0.2-1.6-0.4c-0.2-0.2-0.7-1.2-1-1c-0.7,0.4,0.5,2.5,0.1,3c-0.4,0.5-1.2-0.2-1.2,0.4c0,0.6,1.8,2.3,1.1,2.7
		c-0.7,0.4-1.5-0.1-1.5,0.2c0,0.3,1.7,1.5,1.4,2c-0.2,0.5-1.7,0.5-1.7,0.8c0.2,1.2,2.2,1,2.8,2.2c0.2,0.4,0.3,1,0.4,1.6
		C-133.6-102.6-132.9-102.7-133-103.4z"/>
	<path style="fill:#A16002;" d="M-133.3-102.9c0.2-0.3,0.6-1.1,0.7-1.1c0.1,0,0.5,0.1,0.5,0.1c0.1-0.1,0-0.4,0.1-0.4
		c0,0,0.7,0.1,0.8-0.1c0.1-0.2-0.3-0.3-0.3-0.3c0-0.1,1-0.2,0.9-0.4c-0.1-0.1-0.3-0.2-0.2-0.3c0.1-0.1,0.7-0.1,0.8-0.3
		c0.1-0.2-0.2-0.4-0.2-0.5c0-0.1,0.2-0.4,0.1-0.5c-0.2-0.1-0.5,0.6-0.7,0.6c-0.2,0-0.2-0.4-0.3-0.2c-0.2,0.1-0.2,0.9-0.5,0.8
		c-0.2-0.1-0.3-0.4-0.4-0.4c-0.1,0.1-0.1,0.7-0.2,0.8c-0.2,0-0.5-0.3-0.5-0.3c-0.3,0.3,0.2,0.8,0,1.1c-0.1,0.1-0.4,0.9-0.6,1.1
		C-133.6-102.9-133.4-102.8-133.3-102.9z"/>
	<path style="fill:#A16002;" d="M-133.4-102.9c-0.3-0.2-0.9-0.9-0.9-0.9c-0.1,0-0.4,0.2-0.5,0.2c-0.1,0-0.1-0.3-0.2-0.3
		c-0.1,0-0.7,0.3-0.8,0.1c-0.1-0.1,0.2-0.3,0.2-0.4c-0.1-0.1-1,0-1-0.1c0-0.1,0.2-0.3,0.1-0.3c-0.1,0-0.7,0.1-0.8-0.1
		c-0.1-0.2,0.1-0.4,0.1-0.5c0-0.1-0.3-0.4-0.2-0.4c0.2-0.2,0.7,0.5,0.9,0.4c0.2-0.1,0.1-0.4,0.3-0.3c0.2,0.1,0.4,0.8,0.6,0.7
		c0.2-0.1,0.2-0.5,0.3-0.4c0.1,0,0.2,0.7,0.4,0.7c0.2,0,0.4-0.4,0.5-0.4c0.3,0.2,0,0.8,0.3,1.1c0.1,0.1,0.7,0.8,0.9,0.9
		C-133.1-103-133.2-102.8-133.4-102.9z"/>
	<path style="fill:#A16002;" d="M-125.4-94.2c0-0.4-0.1-1.3-0.1-1.3c0-0.1,0.5-0.2,0.5-0.3c0-0.1-0.2-0.3-0.2-0.4
		c0,0,0.7-0.4,0.6-0.5c0-0.2-0.4,0-0.4-0.1c0-0.1,0.6-0.7,0.5-0.8c-0.1-0.1-0.4,0-0.4-0.1c0-0.1,0.6-0.5,0.5-0.7
		c-0.1-0.2-0.4-0.2-0.5-0.3c0-0.1-0.1-0.4-0.2-0.4c-0.3,0.1-0.1,0.8-0.2,0.9c-0.2,0.1-0.3-0.2-0.4,0c0,0.2,0.3,0.9,0.1,0.9
		c-0.2,0.1-0.5-0.2-0.5-0.1c0,0.1,0.4,0.6,0.3,0.8c-0.1,0.1-0.6,0-0.6,0.1c0,0.4,0.6,0.5,0.7,0.9c0,0.1,0.2,1,0.2,1.3
		C-125.6-94-125.4-94-125.4-94.2z"/>
	<path style="fill:#A16002;" d="M-125.9-94.2c-0.4,0-1.3-0.2-1.3-0.2c-0.1,0-0.2,0.4-0.3,0.5c-0.1,0-0.3-0.2-0.3-0.2
		c0,0-0.4,0.6-0.6,0.6c-0.2,0,0-0.4-0.1-0.4c-0.1,0-0.8,0.6-0.9,0.5c-0.1-0.1,0-0.4-0.1-0.4c-0.1,0-0.5,0.5-0.7,0.4
		c-0.2-0.1-0.2-0.4-0.2-0.5c-0.1-0.1-0.4-0.1-0.4-0.3c0.1-0.3,0.8,0,1-0.2c0.1-0.2-0.2-0.4,0-0.4c0.2,0,0.8,0.4,0.9,0.2
		c0.1-0.2-0.1-0.5,0-0.5c0.1,0,0.6,0.4,0.7,0.3c0.1-0.1,0-0.6,0.1-0.6c0.4,0,0.5,0.6,0.9,0.7c0.1,0,1,0.3,1.2,0.2
		C-125.7-94.4-125.7-94.2-125.9-94.2z"/>
	<path style="fill:#A16002;" d="M-117.6-86.6c0-0.4-0.2-1.3-0.2-1.3c0-0.1,0.4-0.2,0.5-0.3c0-0.1-0.2-0.3-0.2-0.3
		c0-0.1,0.6-0.4,0.6-0.6c0-0.2-0.4,0-0.4-0.1c0-0.1,0.6-0.8,0.5-0.8c-0.1-0.1-0.4,0-0.4-0.1c0-0.1,0.5-0.5,0.4-0.7
		c-0.1-0.2-0.4-0.2-0.5-0.3s-0.1-0.4-0.3-0.4c-0.3,0.1,0,0.8-0.2,0.9c-0.2,0.1-0.4-0.2-0.4,0c0,0.2,0.4,0.8,0.2,0.9
		c-0.2,0.1-0.5-0.1-0.5,0c0,0.1,0.4,0.6,0.3,0.7c-0.1,0.1-0.6,0-0.6,0.1c0,0.4,0.6,0.5,0.7,0.9c0,0.1,0.2,1,0.2,1.2
		C-117.8-86.4-117.6-86.4-117.6-86.6z"/>
	<path style="fill:#A16002;" d="M-117.7-86.1c-0.3,0.1-1.3,0.2-1.3,0.2c-0.1,0.1,0,0.5-0.1,0.5c-0.1,0-0.3-0.1-0.4-0.1
		c0,0-0.2,0.7-0.3,0.7S-120-85-120-85c-0.1,0-0.5,0.8-0.7,0.7c-0.1-0.1-0.1-0.4-0.2-0.3c-0.1,0.1-0.3,0.7-0.6,0.6
		c-0.2,0-0.3-0.4-0.4-0.4c-0.1,0-0.5,0-0.5-0.1c0-0.3,0.8-0.3,0.8-0.5c0.1-0.2-0.3-0.3-0.1-0.4c0.2-0.1,0.9,0.1,0.9-0.2
		c0-0.2-0.3-0.4-0.2-0.5c0.1-0.1,0.7,0.2,0.8,0c0.1-0.1-0.1-0.6-0.1-0.6c0.4-0.1,0.6,0.4,1.1,0.4c0.1,0,1-0.1,1.3-0.2
		C-117.5-86.4-117.5-86.2-117.7-86.1z"/>
	<path style="fill:#016C44;stroke:#004007;stroke-miterlimit:10;" d="M-124.5-93.8c-1.4-1-2.2-1.7-2.3-1.9c-0.1-0.2,0.4-1.5,0.2-1.7
		c-0.2-0.2-1.1-0.1-1.2-0.2c-0.1-0.1,0.3-2.3-0.2-2.5c-0.5-0.2-0.8,1-1,0.9c-0.3-0.1-0.8-2.9-1.2-2.8c-0.4,0.2-0.7,1-0.9,0.7
		c-0.2-0.3-0.3-2.3-1-2.5c-0.7-0.1-1.2,0.7-1.5,0.7c-0.3,0-1.3-0.5-1.5-0.2c-0.3,0.8,2,1.6,2,2.3c0,0.6-1.1,0.6-0.7,1
		c0.4,0.5,2.8,0.7,2.5,1.4c-0.3,0.7-1.2,0.9-1.1,1.1c0.2,0.2,2.3,0.2,2.4,0.7c0.1,0.5-0.8,1-0.6,1.3c0.1,0.2,3.7,0.5,5.7,2.2
		C-124.5-92.8-124.2-93.6-124.5-93.8z"/>
	<path style="fill:#016C44;stroke:#004007;stroke-miterlimit:10;" d="M-116.4-85.9c-1.2-0.7-1.9-1.2-2-1.4c-0.1-0.2,0.2-1.5,0-1.7
		c-0.2-0.2-1.1,0-1.2-0.1c-0.1-0.1,0-2.4-0.5-2.5c-0.5-0.2-0.7,1.1-1,1c-0.3-0.1-1.1-2.9-1.5-2.6c-0.4,0.2-0.6,1-0.8,0.8
		c-0.3-0.2-0.5-2.3-1.2-2.3c-0.7-0.1-1.1,0.9-1.5,0.8c-0.3,0-1.4-0.4-1.5,0c-0.2,0.8,2.1,1.4,2.2,2.1c0,0.6-1,0.7-0.6,1.1
		s2.8,0.4,2.7,1.1c-0.2,0.7-1.1,1-1,1.2c0.2,0.2,2.3-0.1,2.4,0.4c0.2,0.5-0.8,1.6-0.6,1.8c1,0.7,2.3-0.9,3.6-0.4
		c0.5,0.2,1.2,0.7,2.1,1.4C-116.1-84.9-115.9-85.6-116.4-85.9z"/>
	<path style="fill:#016C44;stroke:#004007;stroke-miterlimit:10;" d="M-103.7-86.1c-2.5,0.4-3.8,0.7-4,0.6c-0.2-0.1-0.8-1.3-1-1.3
		s-0.9,0.7-1,0.7c-0.2-0.1-1.4-1.9-2-1.6c-0.5,0.2,0.1,1.3-0.1,1.4c-0.3,0.1-2.6-1.6-2.8-1.2c-0.2,0.4,0.2,1.2-0.2,1.2
		c-0.3,0-1.8-1.4-2.4-1.1c-0.6,0.4-0.4,1.4-0.6,1.6c-0.2,0.2-1.3,0.5-1.2,0.9c0.3,0.8,2.6-0.2,3,0.2c0.4,0.5-0.4,1.2,0.2,1.2
		c0.6,0,2.5-1.5,2.8-0.8c0.3,0.7-0.3,1.5,0,1.6c0.3,0.1,1.7-1.5,2.2-1.2c0.5,0.3,0.2,1.3,0.5,1.4c0.3,0.1,5-3.1,6.9-2.7
		C-101.6-85-102-86.3-103.7-86.1z"/>
	<path style="fill:#016C44;stroke:#004007;stroke-miterlimit:10;" d="M-65.4-114.8c1.3,3.4,0.3,5.6-3.8,7.7
		C-69.6-109.4-67.9-113.6-65.4-114.8z"/>
	<path style="fill:#016C44;stroke:#004007;stroke-miterlimit:10;" d="M-67.1-104.1c-4.4,0.2-5,3.6-5.8,4.5c-0.8,0.9-1.3,3.1-2.2,3.9
		c4.3-1.6,5.6-2.8,6.3-4.8C-68.1-102.6-67.4-103.8-67.1-104.1z"/>
	<path style="fill:#016C44;stroke:#004007;stroke-miterlimit:10;" d="M-84.6-88.2c1.1-1,3.7-4.2,4.6-4.9c1.9-1.4,4-2.8,5.4-2.9
		C-75-94.8-76.5-89.5-84.6-88.2z"/>
	<path style="fill:#016C44;stroke:#004007;stroke-miterlimit:10;" d="M-100-85.9c1.6-0.1,5.2,0.6,6.8,0.3c1.6-0.3,2.5-1.9,8.9-2.7
		c-0.7,1.3-3.9,5.5-8.9,4.6c-3.6-0.6-6.7-2-6.7-2V-85.9z"/>
	<path style="fill:#016C44;stroke:#004007;stroke-miterlimit:10;" d="M-68-115.9c-0.5,1.1-1.6,3.5-1.4,9.1
		C-67.7-107.9-65.5-113-68-115.9z"/>
	<path style="fill:#016C44;stroke:#004007;stroke-miterlimit:10;" d="M-69.3-107.4c0.4,3.9,0.3,4.9-0.6,6.3
		c-0.9,1.5-1.9,3.5-5.5,5.7c1.8-2.8,1.6-5.8,2.5-7.1C-72-103.7-71.1-104.8-69.3-107.4z"/>
	<path style="fill:#FFFFFF;" d="M-107.1-81.6c0.8,0.1,2.6,0.8,3.1,1.3c1.7-1.4,4-4.1,4-4.1l-3.4-0.4
		C-103.4-84.9-105.3-84.1-107.1-81.6z"/>
	<path style="fill:#016C44;" d="M-102.6-84.8l-0.8-0.1c0,0-1.9,0.8-3.8,3.2c0.2,0,0.6,0.1,1,0.2C-104.8-82.8-103.5-84.5-102.6-84.8z
		"/>
	<line style="fill:#016C44;" x1="-101.4" y1="-84.6" x2="-102.6" y2="-84.8"/>
	<path style="fill:#F5032B;" d="M-101.4-84.6l1.3,0.2c0,0-2.3,2.7-4,4.1c-0.1-0.1-0.3-0.3-0.6-0.4
		C-104.6-80.8-103.7-82.8-101.4-84.6z"/>
	<path style="fill:#FFFFFF;" d="M-95.2-81.5c-0.7,0.1-2.6,0.8-3.1,1.2c-1.7-1.4-4-4.1-4-4.1l3.4-0.4C-99-84.8-97-84-95.2-81.5z"/>
	<path style="fill:#F5032B;" d="M-99.7-84.7l0.8-0.1c0,0,1.9,0.8,3.8,3.2c-0.2,0-0.6,0.1-1,0.2C-97.5-82.7-98.8-84.4-99.7-84.7z"/>
	<path style="fill:#016C44;" d="M-101-84.5l-1.3,0.2c0,0,2.3,2.7,4,4.1c0.1-0.1,0.3-0.3,0.6-0.4C-97.7-80.7-98.7-82.7-101-84.5z"/>
	<path style="fill:#016C44;" d="M-106.2-81.4c0.5,0.2,1.1,0.4,1.6,0.6"/>
	<path style="fill:#FFFFFF;" d="M-98.7-85.4c0,1-0.8,1.8-1.8,1.8h-1.5c-1,0-1.8-0.8-1.8-1.8l0,0c0-1,0.8-1.8,1.8-1.8h1.5
		C-99.5-87.2-98.7-86.4-98.7-85.4L-98.7-85.4z"/>
	<path style="fill:#016C44;" d="M-102-87.2c-1,0-1.8,0.8-1.8,1.8l0,0c0,1,0.8,1.8,1.8,1.8V-87.2z"/>
	<path style="fill:#F5032B;" d="M-100.5-83.6c1,0,1.8-0.8,1.8-1.8l0,0c0-1-0.8-1.8-1.8-1.8V-83.6z"/>
</g>
<linearGradient id="SVGID_1_" gradientUnits="userSpaceOnUse" x1="-100.3308" y1="64.5432" x2="-100.3308" y2="-242.4312">
	<stop  offset="0" style="stop-color:#FFFFFF;stop-opacity:0"/>
	<stop  offset="1" style="stop-color:#FFFFFF"/>
</linearGradient>
<path style="opacity:0.3;fill:url(#SVGID_1_);" d="M-70,46.8c1.3-1.4,2.6-2.7,3.9-4.1c0.9-1,1.9-2,2.8-2.9c1.3-1.3,2.5-2.6,3.7-4
	c0.9-1,1.8-2,2.8-3c1.2-1.3,2.4-2.6,3.6-3.9c0.9-1,1.8-2,2.7-3c1.2-1.3,2.3-2.6,3.4-3.9c0.9-1,1.7-2,2.6-3c1.1-1.3,2.2-2.6,3.3-3.9
	c0.6-0.7,1.1-1.3,1.7-2c0,0,0,0-0.1,0.1C2.9-36.6,27.2-82,27.2-113.1c0-70.4-57.1-127.5-127.5-127.5c-70.4,0-127.5,57.1-127.5,127.5
	c0,33.2,18.3,72.7,64.9,126.5c0,0,0,0,0,0c0.3,0.3,0.6,0.7,0.9,1c0.5,0.6,1.1,1.2,1.6,1.9c0.4,0.5,0.9,1,1.3,1.5
	c0.5,0.6,1.1,1.2,1.6,1.8c0.5,0.5,0.9,1.1,1.4,1.6c0.5,0.6,1.1,1.2,1.6,1.8c0.5,0.5,1,1.1,1.5,1.6c0.5,0.6,1.1,1.2,1.6,1.8
	c0.5,0.6,1,1.1,1.6,1.7c0.5,0.6,1.1,1.2,1.6,1.7c0.5,0.6,1.1,1.2,1.7,1.8c0.5,0.6,1.1,1.1,1.6,1.7c0.6,0.6,1.1,1.2,1.7,1.8
	c0.5,0.6,1.1,1.2,1.6,1.7c0.6,0.6,1.2,1.2,1.7,1.8c0.6,0.6,1.1,1.2,1.7,1.8c0.6,0.6,1.2,1.2,1.8,1.8c0.6,0.6,1.2,1.2,1.7,1.8
	c0.6,0.6,1.2,1.3,1.8,1.9c0.6,0.6,1.1,1.2,1.7,1.8c0.6,0.6,1.3,1.3,1.9,1.9c0.6,0.6,1.1,1.2,1.7,1.8c0.6,0.6,1.3,1.3,1.9,1.9
	c0.6,0.6,1.2,1.2,1.8,1.8c0.6,0.7,1.3,1.3,2,2c0.6,0.6,1.2,1.2,1.8,1.8c0.7,0.7,1.3,1.3,2,2c0.6,0.6,1.2,1.2,1.9,1.8
	c0.8,0.8,1.6,1.6,2.4,2.4c0.5,0.5,1,1,1.5,1.5c1.3,1.3,2.7,2.6,4,3.9c4.8,4.6,10.6,3.2,13.9,0c2.5-2.3,4.9-4.7,7.3-7
	c0.8-0.7,1.5-1.5,2.3-2.2c1.6-1.6,3.2-3.2,4.8-4.7c0.9-0.9,1.8-1.8,2.7-2.7c1.4-1.4,2.8-2.8,4.2-4.3C-71.8,48.7-70.9,47.8-70,46.8z"
	/>
<path style="opacity:5.000000e-002;fill:#FFFFFF;" d="M-4.4-33.1C16-64.3,27.2-92,27.2-113.1c0-70.4-57.1-127.5-127.5-127.5
	c-70.4,0-127.5,57.1-127.5,127.5c0,23.1,8.8,49.2,29.8,81C-175.8-57.7-28-60.1-4.4-33.1z"/>
</svg>
