<?xml version="1.0" encoding="utf-8"?>
<!-- Generator: Adobe Illustrator 16.0.0, SVG Export Plug-In . SVG Version: 6.00 Build 0)  -->
<!DOCTYPE svg PUBLIC "-//W3C//DTD SVG 1.1//EN" "http://www.w3.org/Graphics/SVG/1.1/DTD/svg11.dtd">
<svg version="1.1" id="Capa_1" xmlns="http://www.w3.org/2000/svg" xmlns:xlink="http://www.w3.org/1999/xlink" x="0px" y="0px"
	 width="256.4px" height="320.7px" viewBox="-227.1 -240.7 256.4 320.7" style="enable-background:new -227.1 -240.7 256.4 320.7;"
	 xml:space="preserve">
<ellipse style="fill:#BCBCBC;" cx="-98" cy="75.7" rx="35.7" ry="4.2"/>
<g>
	<path style="fill:#1E336C;" d="M-92.6,72.5C-16.5,0.7,29.4-69.3,29.4-112.4c0-70.8-57.4-128.3-128.3-128.3
		c-70.8,0-128.3,57.4-128.3,128.3c0,44.3,32.3,99.6,120.5,184.9C-101.9,77.1-96,75.7-92.6,72.5z"/>
	<path style="fill:#192D5B;" d="M-37.6,14.9C-53.5,33.6-71.9,53-92.6,72.5c-3.4,3.2-9.2,4.6-14,0c-21.7-20.9-39.9-40-55.2-57.6
		C-102,64.6-95.2,63.7-37.6,14.9z"/>
	<path style="fill:#FFFFFF;" d="M-39.9-29.8c-16.7,11.7-37,18.5-59,18.5c-21.9,0-42.2-6.8-59-18.5l-27.5-98.8l27.5-70.5
		c16.7-11.7,37-18.5,59-18.5c21.9,0,42.3,6.8,59,18.5l21.4,67.5L-39.9-29.8z"/>
	<path style="fill:#C90505;" d="M-157.8-29.8c-26.7-18.6-44.2-49.6-44.2-84.7c0-35,17.5-66,44.2-84.6L-157.8-29.8z"/>
	<path style="fill:#C90505;" d="M-39.9-199.1c26.7,18.6,44.2,49.6,44.2,84.6c0,35-17.5,66-44.2,84.7L-39.9-199.1z"/>
	<g>
		<g>
			<g>
				<path style="fill:#AA0707;" d="M-39.9-190.4C-18.7-176-3-154.1,3.3-128.5c-4-29.2-20.2-54.5-43.2-70.6L-39.9-190.4z"/>
			</g>
			<g>
				<path style="fill:#AA0707;" d="M-157.8-190.3c-21.2,14.4-36.8,36.2-43.2,61.8c4-29.1,20.1-54.4,43.2-70.5L-157.8-190.3z"/>
			</g>
			<path style="fill:#D3D3D3;" d="M-39.9-190.4c-16.8-11.4-37.1-18-58.9-18c-21.9,0-42.2,6.7-59,18.1l0-8.7
				c16.7-11.7,37-18.5,59-18.5c21.9,0,42.2,6.8,58.9,18.5L-39.9-190.4z"/>
		</g>
	</g>
	<g>
		<path style="fill:#AA0707;" d="M-39.9-29.8c8.1-5.6,15.3-12.4,21.4-20C-25-44.1-32.2-39-39.9-34.7L-39.9-29.8z"/>
		<path style="fill:#D3D3D3;" d="M-39.9-29.8c-16.7,11.7-37,18.5-59,18.5c-22,0-42.3-6.9-59.1-18.6l0.1-4.9
			c17.5,9.7,37.6,15.2,59,15.2c21.4,0,41.5-5.5,59-15.2L-39.9-29.8z"/>
		<path style="fill:#AA0707;" d="M-157.9-29.8c-8-5.6-15.2-12.3-21.3-20c6.6,5.8,13.7,10.8,21.4,15.1L-157.9-29.8z"/>
		<path style="fill:#D3D3D3;" d="M-157.8-34.7"/>
	</g>
	<path style="fill:#283F72;" d="M4.3-114.4c0,57-46.2,103.2-103.2,103.2c-57,0-103.2-46.2-103.2-103.2h-5.2
		c0,59.8,48.5,108.3,108.3,108.3S9.5-54.6,9.5-114.4H4.3z"/>
	<path style="fill:#162954;" d="M-98.9-222.8c-59.8,0-108.3,48.5-108.3,108.3S-158.7-6.1-98.9-6.1S9.5-54.6,9.5-114.4
		S-39-222.8-98.9-222.8z M-98.9-11.3c-57,0-103.2-46.2-103.2-103.2s46.2-103.2,103.2-103.2c57,0,103.2,46.2,103.2,103.2
		S-41.9-11.3-98.9-11.3z"/>
</g>
<linearGradient id="SVGID_1_" gradientUnits="userSpaceOnUse" x1="-98.825" y1="66.3977" x2="-98.825" y2="-242.4421">
	<stop  offset="0" style="stop-color:#FFFFFF;stop-opacity:0"/>
	<stop  offset="1" style="stop-color:#FFFFFF"/>
</linearGradient>
<path style="opacity:0.3;fill:url(#SVGID_1_);" d="M-68.3,48.5c1.3-1.4,2.7-2.7,4-4.1c0.9-1,1.9-2,2.8-3c1.3-1.3,2.5-2.7,3.8-4
	c0.9-1,1.9-2,2.8-3c1.2-1.3,2.4-2.6,3.6-3.9c0.9-1,1.8-2,2.7-3c1.2-1.3,2.3-2.6,3.5-3.9c0.9-1,1.8-2,2.6-3c1.1-1.3,2.2-2.6,3.4-3.9
	c0.6-0.7,1.2-1.3,1.7-2c0,0,0,0-0.1,0.1C5.1-35.3,29.5-81,29.5-112.4c0-70.8-57.4-128.3-128.3-128.3c-70.9,0-128.3,57.4-128.3,128.3
	c0,33.4,18.4,73.2,65.3,127.2c0,0,0,0,0,0c0.3,0.3,0.6,0.7,0.9,1c0.5,0.6,1.1,1.3,1.6,1.9c0.4,0.5,0.9,1,1.4,1.5
	c0.5,0.6,1.1,1.2,1.6,1.8c0.5,0.5,1,1.1,1.4,1.6c0.5,0.6,1.1,1.2,1.6,1.8c0.5,0.6,1,1.1,1.5,1.7c0.5,0.6,1.1,1.2,1.6,1.8
	c0.5,0.6,1.1,1.1,1.6,1.7c0.5,0.6,1.1,1.2,1.6,1.8c0.5,0.6,1.1,1.2,1.7,1.8c0.5,0.6,1.1,1.2,1.6,1.7c0.6,0.6,1.1,1.2,1.7,1.8
	c0.5,0.6,1.1,1.2,1.6,1.7c0.6,0.6,1.2,1.2,1.7,1.8c0.6,0.6,1.1,1.2,1.7,1.8c0.6,0.6,1.2,1.2,1.8,1.8c0.6,0.6,1.2,1.2,1.7,1.8
	c0.6,0.6,1.2,1.3,1.8,1.9c0.6,0.6,1.2,1.2,1.7,1.8c0.6,0.6,1.3,1.3,1.9,2c0.6,0.6,1.2,1.2,1.7,1.8c0.6,0.7,1.3,1.3,1.9,2
	c0.6,0.6,1.2,1.2,1.8,1.8c0.7,0.7,1.3,1.3,2,2c0.6,0.6,1.2,1.2,1.8,1.8c0.7,0.7,1.4,1.3,2,2c0.6,0.6,1.2,1.2,1.9,1.8
	c0.8,0.8,1.6,1.6,2.5,2.4c0.5,0.5,1,1,1.5,1.5c1.3,1.3,2.7,2.6,4.1,3.9c4.8,4.6,10.6,3.2,14,0c2.5-2.3,4.9-4.7,7.4-7
	c0.8-0.8,1.5-1.5,2.3-2.3c1.6-1.6,3.3-3.2,4.9-4.8c0.9-0.9,1.8-1.8,2.7-2.7c1.4-1.4,2.9-2.9,4.3-4.3C-70.1,50.5-69.2,49.5-68.3,48.5
	z"/>
<path style="opacity:5.000000e-002;fill:#FFFFFF;" d="M-2.3-31.8c20.5-31.4,31.8-59.3,31.8-80.5c0-70.8-57.4-128.3-128.3-128.3
	c-70.9,0-128.3,57.4-128.3,128.3c0,23.2,8.9,49.5,30,81.5C-174.8-56.6-26-59-2.3-31.8z"/>
</svg>
