<?xml version="1.0" encoding="utf-8"?>
<!-- Generator: Adobe Illustrator 16.0.0, SVG Export Plug-In . SVG Version: 6.00 Build 0)  -->
<!DOCTYPE svg PUBLIC "-//W3C//DTD SVG 1.1//EN" "http://www.w3.org/Graphics/SVG/1.1/DTD/svg11.dtd">
<svg version="1.1" id="Capa_1" xmlns="http://www.w3.org/2000/svg" xmlns:xlink="http://www.w3.org/1999/xlink" x="0px" y="0px"
	 width="254.2px" height="255.3px" viewBox="-227.1 -240.7 254.2 255.3" style="enable-background:new -227.1 -240.7 254.2 255.3;"
	 xml:space="preserve">
<g>
	<g>
		<g>
			<path style="fill:#01319F;" d="M-221.1-112.7c0,22.1,5.9,42.8,16.2,60.7L-96.4-7.6L5.4-52.1c10.3-17.8,16.2-38.6,16.2-60.7
				l-121.3-41.8L-221.1-112.7z"/>
			<path style="fill:#FD0805;" d="M5.4-52.1C-15.6-15.8-54.8,8.6-99.7,8.6c-44.9,0-84.1-24.4-105.1-60.7L5.4-52.1z"/>
			<path style="fill:#FFCC21;" d="M21.6-112.7c0-67-54.3-121.3-121.3-121.3c-67,0-121.3,54.3-121.3,121.3H21.6z"/>
		</g>
		<g>
			<g>
				<path style="fill:#EFB81D;" d="M-99.7-234.1c-61.4,0-112.1,45.6-120.2,104.7c13.4-53.9,62.1-93.9,120.2-93.9
					c58.1,0,106.8,40,120.2,93.9C12.3-188.5-38.4-234.1-99.7-234.1z"/>
			</g>
		</g>
		<g>
			<g>
				<g>
					<path style="fill:#F75454;" d="M-194.3-36.8C-172.1-9.1-138,8.6-99.7,8.6S-27.4-9.1-5.2-36.8C-30.4-14.6-63.5-1.1-99.7-1.1
						C-136-1.1-169.1-14.6-194.3-36.8z"/>
				</g>
			</g>
		</g>
		<path style="fill:#162954;" d="M-99.7-240.1c-70.4,0-127.4,57-127.4,127.4s57,127.4,127.4,127.4c70.4,0,127.4-57,127.4-127.4
			S-29.4-240.1-99.7-240.1z M-99.7,8.6c-67,0-121.3-54.3-121.3-121.3c0-67,54.3-121.3,121.3-121.3c67,0,121.3,54.3,121.3,121.3
			C21.6-45.7-32.7,8.6-99.7,8.6z"/>
		<g>
			<path style="fill:#FE0201;" d="M-102.1-53.8c0,2.5-1.3,15.8-6,15.8c5.7,2.9,13.3,3.6,20.2,0c-4.7,0-6-13.2-6-15.8H-102.1z"/>
			<path style="fill:#FFCC21;" d="M-111.3-53.2c-0.9,2.8-2.5,7.4-6.1,8.2c2.7,2.5,6.2,6.2,10.2,4.6c4-1.6,6.3-13.6,6-15
				C-101.5-56.7-109.8-53.6-111.3-53.2z"/>
			<path style="fill:#FFCC21;" d="M-85-53.2c0.9,2.8,2.5,7.4,6.1,8.2c-2.7,2.5-6.2,6.2-10.2,4.6c-4-1.6-6.3-13.6-6-15
				C-94.8-56.7-86.6-53.6-85-53.2z"/>
			<path style="fill:#0033A0;" d="M-118.2-44.7c0.7,1,4.6,5.2,10.8,7c6.8-2.8,6.9-13.5,6.9-16.1s-2.7-1-2.7-1s-0.3,9.2-4.7,13.4
				c-1.4,1.4-6-0.9-9.1-3.8C-117.9-46.1-118.1-45-118.2-44.7z"/>
			<path style="fill:#0033A0;" d="M-78.2-44.7c-0.7,1-4.6,5.2-10.8,7c-6.8-2.8-6.9-13.5-6.9-16.1s2.7-1,2.7-1s0.3,9.2,4.7,13.4
				c1.4,1.4,6-0.9,9.1-3.8C-78.5-46.1-78.3-45-78.2-44.7z"/>
			<path style="fill:#FFCC21;" d="M-70.5-50.8c2.7,2.5,8.1,8.2,9.4,9.4c1.1,1,2.7-0.5,1.5-1.7c-1.8-1.9-8.9-9.5-8.9-9.5L-70.5-50.8z
				"/>
			<path style="fill:#FFCC21;" d="M-63-59.1c2.7,2.5,8.1,8.2,9.4,9.4c1.1,1,2.7-0.5,1.5-1.7c-1.8-1.9-9-9.5-9-9.5L-63-59.1z"/>
			<path style="fill:#7D3831;" d="M-112.2-59.7c5.6,0,23.2,0,27,0c3.8,0,3.5,7.8,0,7.8c-5.6,0-23.4,0-27,0
				C-115.8-51.9-116-59.7-112.2-59.7z"/>
			<g>
				<path style="fill:#FFCC21;" d="M-67.2-124.8c-2.7,2.5-12.8,11-12.8,11c0,0.6,0,12.4,0,14.3c0,1.9-2.1,6.2-8.1,9.3
					c2.4,3.1,6.2,9.6,13.4,8.6c6.5-0.9,7.6-6,7.6-9.5C-67.2-94.6-67.2-124.8-67.2-124.8z"/>
				<path style="fill:#0033A0;" d="M-83.8-84.8c-1.9-1.8-3.3-3.9-4.4-5.3c6-3.1,8.1-7.4,8.1-9.3c0-1.9,0-13.7,0-14.3
					c0,0,3.7-3.1,7.2-6.1c0,6,0,21.8,0,24.3S-73.4-84.1-83.8-84.8z"/>
				<path style="fill:#FE0201;" d="M-85.9-87.2c-0.9-1.1-1.6-2.2-2.3-3c6-3.1,8.1-7.4,8.1-9.3c0-1.9,0-13.7,0-14.3
					c0,0,1.5-1.3,3.5-3c0,4.9,0,14.7,0,18.2C-76.5-95.2-77-89.7-85.9-87.2z"/>
				<path style="fill:#F0F4F3;" d="M-67.5-124c2.8-2.6,4.8-4.3,5.3-4.8c0.5-0.4,1.5,0.2,0.8,1c-0.7,0.8-6.1,5.5-6.1,5.5L-67.5-124z"
					/>
				<path style="fill:#FE0201;" d="M-67.2-109.7c0-7.8,0-15.1,0-15.1c-0.4,0.4-1,0.9-1.7,1.5l0.8,1.4L-67.2-109.7z"/>
				<path style="fill:#0033A0;" d="M-67.2-122c0,0.5,0,1,0,1.5l-1.7-2.8c0.3-0.2,0.6-0.5,0.8-0.7L-67.2-122z"/>
			</g>
			<path style="fill:#B4A5C2;" d="M-142.2-140.8c12.9-2.8,24.2-3.5,25.4-2.9c1.3,0.6,8.5,11.5,11.5,12.5c-1.3,2.7-4.3,9.4-4.3,9.4
				l12.1-8.3h2.6l0.7,7.1l1.5-8.1c0,0,1.8,0,2-1.3c3.2,0.4,6.6,0.6,10.3-4.9c3.7-5.5,6.7-7.1,8.5-7c1.8,0.1,17.6,3.2,18.7,3.4
				c-3.8-3.8-17.8-14.7-26.3-13.7c-8.4,1-9.8,12.2-10.1,13c-0.4,0.8-12.4-1.3-14.4,0c0.3-7.4-4.9-12.7-9.5-13.1
				C-118-155.3-139.1-147.6-142.2-140.8z"/>
			<path style="fill:#6C2B29;" d="M-142.2-140.8c12.9-2.8,23.5-1.7,24.8-1.1c1.3,0.6,8.5,11.5,11.5,12.5c-1.3,2.7-4.3,9.4-4.3,9.4
				l12.1-2.5v-5.8h2.7l0.7,7.1l3.5,0.6v-2.5L-93-124l-0.1-5.5c0,0,1.8,0,2-1.3c3.2,0.4,6.6,0.6,10.3-4.9c3.7-5.5,6.7-7.1,8.5-7
				c1.8,0.1,18.2,1.4,19.3,1.5C-56.6-142.9-71.6-154-80-153c-8.4,1-9.8,12.2-10.1,13c-0.4,0.8-12.4-1.3-14.4,0
				c0.3-7.4-4.9-12.7-9.5-13.1C-118.6-153.5-135.7-146.6-142.2-140.8z"/>
			<g>
				<path style="fill:#FFCC21;" d="M-56.9-118.7c-4.3,3.9-20.4,17.5-20.4,17.5c0,1,0,19.7,0,22.7c0,3-3.4,9.9-12.9,14.8
					c3.8,4.9,9.9,15.2,21.2,13.7c10.4-1.4,12-9.6,12-15.1C-56.9-70.7-56.9-118.7-56.9-118.7z"/>
				<path style="fill:#0033A0;" d="M-83.2-55.3c-3-2.8-5.2-6.2-6.9-8.5c9.5-4.8,12.9-11.7,12.9-14.8c0-3,0-21.7,0-22.7
					c0,0,5.9-5,11.5-9.8c0,9.5,0,34.6,0,38.6S-66.8-54.1-83.2-55.3z"/>
				<path style="fill:#FE0201;" d="M-86.5-59c-1.4-1.8-2.6-3.5-3.6-4.8c9.5-4.8,12.9-11.7,12.9-14.8c0-3,0-21.7,0-22.7
					c0,0,2.4-2,5.6-4.7c0,7.8,0,23.4,0,28.8S-72.4-63-86.5-59z"/>
				<path style="fill:#F0F4F3;" d="M-57.4-117.5c4.4-4.1,7.6-6.9,8.4-7.6c0.8-0.7,2.4,0.4,1.3,1.6c-1.1,1.3-9.7,8.7-9.7,8.7
					L-57.4-117.5z"/>
				<path style="fill:#FE0201;" d="M-56.9-94.8c0-12.4,0-24,0-24c-0.7,0.6-1.6,1.4-2.7,2.4l1.3,2.2L-56.9-94.8z"/>
				<path style="fill:#0033A0;" d="M-56.9-114.3c0,0.7,0,1.5,0,2.4l-2.7-4.4c0.5-0.4,0.9-0.8,1.3-1.1L-56.9-114.3z"/>
			</g>
			<path style="fill:#FFCC21;" d="M-129-50.8c-2.7,2.5-8.1,8.2-9.4,9.4c-1.1,1-2.7-0.5-1.5-1.7c1.8-1.9,8.9-9.5,8.9-9.5L-129-50.8z"
				/>
			<path style="fill:#FFCC21;" d="M-136.4-59.1c-2.7,2.5-8.1,8.2-9.4,9.4c-1.1,1-2.7-0.5-1.5-1.7c1.8-1.9,8.9-9.5,8.9-9.5
				L-136.4-59.1z"/>
			<g>
				<path style="fill:#FFCC21;" d="M-131.2-124.8c2.7,2.5,12.8,11,12.8,11c0,0.6,0,12.4,0,14.3c0,1.9,2.1,6.2,8.1,9.3
					c-2.4,3.1-6.2,9.6-13.4,8.6c-6.5-0.9-7.6-6-7.6-9.5C-131.2-94.6-131.2-124.8-131.2-124.8z"/>
				<path style="fill:#0033A0;" d="M-114.6-84.8c1.9-1.8,3.3-3.9,4.4-5.3c-6-3.1-8.1-7.4-8.1-9.3c0-1.9,0-13.7,0-14.3
					c0,0-3.7-3.1-7.2-6.1c0,6,0,21.8,0,24.3S-124.9-84.1-114.6-84.8z"/>
				<path style="fill:#FE0201;" d="M-112.5-87.2c0.9-1.1,1.6-2.2,2.3-3c-6-3.1-8.1-7.4-8.1-9.3c0-1.9,0-13.7,0-14.3
					c0,0-1.5-1.3-3.5-3c0,4.9,0,14.7,0,18.2C-121.9-95.2-121.4-89.7-112.5-87.2z"/>
				<path style="fill:#F0F4F3;" d="M-130.8-124c-2.8-2.6-4.8-4.3-5.3-4.8c-0.5-0.4-1.5,0.2-0.8,1c0.7,0.8,6.1,5.5,6.1,5.5
					L-130.8-124z"/>
				<path style="fill:#FE0201;" d="M-131.2-109.7c0-7.8,0-15.1,0-15.1c0.4,0.4,1,0.9,1.7,1.5l-0.8,1.4L-131.2-109.7z"/>
				<path style="fill:#0033A0;" d="M-131.2-122c0,0.5,0,1,0,1.5l1.7-2.8c-0.3-0.2-0.6-0.5-0.8-0.7L-131.2-122z"/>
			</g>
			<g>
				<path style="fill:#FFCC21;" d="M-142.6-118.7c4.3,3.9,20.4,17.5,20.4,17.5c0,1,0,19.7,0,22.7c0,3,3.4,9.9,12.9,14.8
					c-3.8,4.9-9.9,15.2-21.2,13.7c-10.4-1.4-12-9.6-12-15.1C-142.6-70.7-142.6-118.7-142.6-118.7z"/>
				<path style="fill:#0033A0;" d="M-116.3-55.3c3-2.8,5.2-6.2,6.9-8.5c-9.5-4.8-12.9-11.7-12.9-14.8c0-3,0-21.7,0-22.7
					c0,0-5.9-5-11.5-9.8c0,9.5,0,34.6,0,38.6S-132.6-54.1-116.3-55.3z"/>
				<path style="fill:#FE0201;" d="M-112.9-59c1.4-1.8,2.6-3.5,3.6-4.8c-9.5-4.8-12.9-11.7-12.9-14.8c0-3,0-21.7,0-22.7
					c0,0-2.4-2-5.6-4.7c0,7.8,0,23.4,0,28.8S-127-63-112.9-59z"/>
				<path style="fill:#F0F4F3;" d="M-142-117.5c-4.4-4.1-7.6-6.9-8.4-7.6c-0.8-0.7-2.4,0.4-1.3,1.6c1.1,1.3,9.7,8.7,9.7,8.7
					L-142-117.5z"/>
				<path style="fill:#FE0201;" d="M-142.6-94.8c0-12.4,0-24,0-24c0.7,0.6,1.6,1.4,2.7,2.4l-1.3,2.2L-142.6-94.8z"/>
				<path style="fill:#0033A0;" d="M-142.6-114.3c0,0.7,0,1.5,0,2.4l2.7-4.4c-0.5-0.4-0.9-0.8-1.3-1.1L-142.6-114.3z"/>
			</g>
			<path style="fill:#2E3192;" d="M-99.5-118c-9.6,0-18.1,8-18.1,12.8v25.8c0,3.3,4.3,14.9,18.1,14.9c13.6,0,19.8-11.2,19.8-14.1
				V-106C-79.8-110.9-87.5-118-99.5-118z"/>
			<path style="fill:none;stroke:#01BEFF;stroke-width:2;stroke-miterlimit:10;" d="M-77.8-100.3c0-4.9-9.8-10.8-21.9-10.8
				c-9.6,0-20.4,6.7-20.4,11.5"/>
			<circle style="fill:#FEDC01;" cx="-99" cy="-111" r="4"/>
			<path style="fill:#AFBD72;" d="M-77.3-90.8c-4.6,1-10.6,0-13.8,0.1c-3.2,0.1-13.7-5.8-20-4c-6.4,1.8-7.6,2.3-8.4,4.3
				c-0.8,2-2.2,28.2,21.7,28.2C-73.9-62.1-76.4-84.9-77.3-90.8z"/>
			<path style="fill:#01BEFF;" d="M-118.6-77.6c0,0,1-1.7,3.3-2c2.3-0.3,2.3-0.8,4.8,0c2.6,0.8,9,0,6.8-2.1
				c-2.3-2.1-3.6-3.1-3.7-3.8c-0.2-1.4,4.5-4,5.3-3.8c0.8,0.2,2.9,1.2,1.7,1.2c-0.6,0-4.7,1.6-4.7,2.3s2.6,2.1,4.4,2.3
				c1.8,0.2,3-0.4,4,0c1,0.4,0.6,0.6,0.6,1.3c0,0.8,1.6,0.2,5,0.2s9.7-1.2,11.1,0.1c1.4,1.3,2.3,6,1.8,7.4c-0.5,1.3-1.6,3.7-2.5,4.9
				c-0.9,1.1-2.7,3.6-5.5,4.8c-2.8,1.2-9.4,2.6-11.6,2.5c-2.2-0.1-4.5,0.1-7.3-1c-2.8-1-4.5-1.5-6.4-3.2c-1.9-1.7-4.5-2.5-5.7-5.9
				C-118.6-76.1-118.6-77.6-118.6-77.6z"/>
			<path style="fill:#AFBD72;" d="M-110.9-74.4c1.7-0.5,4.2-0.8,7.5-0.5c3.3,0.3,7.9,1.2,9.5,0c1.6-1.2,8.6-4.5,9.4-3.7
				c0.8,0.8-1.9,3.2-2.6,4.3c-0.6,1.1-0.8,3.4-5.7,3.2c-5-0.2-9.2,0.2-13.8-1.1C-111.2-73.4-110.9-74.4-110.9-74.4z"/>
			<path style="fill:#FFFFFF;" d="M-120.6-93.2c3.7-3.5,8.7-8,11.1-7.6c2.4,0.4,15.4,8.5,18.4,10.2c-4.5,0.9-5.6-1.4-7.8-1.7
				c-2.2-0.3-3.9,1.6-5.8,1.9c-1.9,0.2-4.7-2.8-6.5-2.8c-1.7,0-2.8,2.8-2.8,2.8S-120.2-87.8-120.6-93.2z"/>
			<path style="fill:#FFCC21;" d="M-99.5-59.8c-15.9,0-22.8-13-22.8-19.7V-105c0-7.8,10.7-17.6,22.8-17.6c14.4,0,24.5,8.8,24.5,16.8
				v27.2C-75-73-83.4-59.8-99.5-59.8z M-99.5-118c-9.6,0-18.1,8-18.1,12.8v25.8c0,3.3,4.3,14.9,18.1,14.9
				c13.6,0,19.8-11.2,19.8-14.1V-106C-79.8-110.9-87.5-118-99.5-118z"/>
		</g>
		<path style="fill:#283F72;" d="M21.6-112.7c0,67-54.3,121.3-121.3,121.3c-67,0-121.3-54.3-121.3-121.3h-6.1
			c0,70.4,57,127.4,127.4,127.4c70.4,0,127.4-57,127.4-127.4H21.6z"/>
	</g>
</g>
<linearGradient id="SVGID_1_" gradientUnits="userSpaceOnUse" x1="-99.3728" y1="34.8132" x2="-99.3728" y2="-153.2446">
	<stop  offset="0" style="stop-color:#FFFFFF;stop-opacity:0"/>
	<stop  offset="1" style="stop-color:#FFFFFF"/>
</linearGradient>
<path style="opacity:0.3;fill:url(#SVGID_1_);" d="M-99.4-240.7c-70.5,0-127.7,57.2-127.7,127.7c0,70.5,57.2,127.7,127.7,127.7
	c70.5,0,127.7-57.2,127.7-127.7C28.3-183.5-28.9-240.7-99.4-240.7z"/>
<path style="opacity:5.000000e-002;fill:#FFFFFF;" d="M-99.4-240.7c-70.5,0-127.7,57.2-127.7,127.7c0,9.8,1.1,19.3,3.2,28.5
	c19.2-22,229.8-22.7,248.1,3.4c2.6-10.2,4-20.9,4-31.9C28.3-183.5-28.9-240.7-99.4-240.7z"/>
</svg>
