<?xml version="1.0" encoding="utf-8"?>
<!-- Generator: Adobe Illustrator 16.0.0, SVG Export Plug-In . SVG Version: 6.00 Build 0)  -->
<!DOCTYPE svg PUBLIC "-//W3C//DTD SVG 1.1//EN" "http://www.w3.org/Graphics/SVG/1.1/DTD/svg11.dtd">
<svg version="1.1" id="Capa_1" xmlns="http://www.w3.org/2000/svg" xmlns:xlink="http://www.w3.org/1999/xlink" x="0px" y="0px"
	 width="254.2px" height="253.8px" viewBox="-227.1 -240.7 254.2 253.8" style="enable-background:new -227.1 -240.7 254.2 253.8;"
	 xml:space="preserve">
<g>
	<g>
		<circle style="fill:#FFFFFF;" cx="-100.2" cy="-113.1" r="120.3"/>
		<g>
			<defs>
				<circle id="SVGID_1_" cx="-100.2" cy="-113.1" r="120.3"/>
			</defs>
			<clipPath id="SVGID_2_">
				<use xlink:href="#SVGID_1_"  style="overflow:visible;"/>
			</clipPath>
			<rect x="-226.6" y="-213" style="clip-path:url(#SVGID_2_);fill:#FC0000;" width="260.4" height="20.1"/>
			<rect x="-226.6" y="-172.9" style="clip-path:url(#SVGID_2_);fill:#FC0000;" width="260.4" height="20.1"/>
			<rect x="-226.6" y="-132.7" style="clip-path:url(#SVGID_2_);fill:#FC0000;" width="260.4" height="20.1"/>
			<rect x="-226.6" y="-92.6" style="clip-path:url(#SVGID_2_);fill:#FC0000;" width="260.4" height="20.1"/>
			<rect x="-226.6" y="-52.5" style="clip-path:url(#SVGID_2_);fill:#FC0000;" width="260.4" height="20.1"/>
			<rect x="-226.6" y="-12.3" style="clip-path:url(#SVGID_2_);fill:#FC0000;" width="260.4" height="20.1"/>
		</g>
		<g>
			<defs>
				<rect id="SVGID_3_" x="-237.7" y="-257.8" width="134.8" height="144.7"/>
			</defs>
			<clipPath id="SVGID_4_">
				<use xlink:href="#SVGID_3_"  style="overflow:visible;"/>
			</clipPath>
			<circle style="clip-path:url(#SVGID_4_);fill:#022C9A;" cx="-100.2" cy="-113.1" r="120.3"/>
		</g>
		<g>
			<g>
				<g>
					<path style="fill:#032A70;" d="M-102.9-233.4c-59.7,1.3-108.6,46-116.5,103.8c13.1-52.6,60.1-91.9,116.4-93.1L-102.9-233.4z"/>
				</g>
				<g>
					<path style="fill:#AA0707;" d="M-10.3-192.9c-6.7-7.5-14.3-14.2-22.7-19.9l-19.3-0.1c11.8,5,22.6,11.8,32.1,20L-10.3-192.9z"/>
				</g>
				<path style="fill:#D3D3D3;" d="M4.1-172.9c-4.1-7.2-9-13.9-14.4-20.1l-9.9,0c6.9,6,13.2,12.7,18.6,20.1L4.1-172.9z"/>
				<g>
					<path style="fill:#AA0707;" d="M13.3-152.8c-2.4-7-5.5-13.7-9.2-20.1l-5.7,0c4.6,6.3,8.7,13,12.1,20.1L13.3-152.8z"/>
				</g>
				<path style="fill:#D3D3D3;" d="M13.3-152.8c2.6,7.4,4.5,15.2,5.6,23.2c-2-8.1-4.8-15.8-8.3-23.2L13.3-152.8z"/>
				<path style="fill:#D3D3D3;" d="M-33.2-213c-19.2-12.9-42.2-20.4-67-20.4c-0.9,0-1.8,0-2.6,0l-0.1,10.7c0.9,0,1.8,0,2.7,0
					c17,0,33.2,3.5,47.9,9.7L-33.2-213z"/>
			</g>
		</g>
		<g>
			<g>
				<path style="fill:#CC4E4E;" d="M-31.9-14.2c-19.4,13.5-43,21.3-68.4,21.3c-24.2,0-46.8-7.2-65.6-19.5l13.6,0
					c16.1,6.3,33.7,9.8,52,9.8c18.4,0,35.9-3.5,52-9.8L-31.9-14.2z"/>
			</g>
		</g>
		<g>
			<g>
				<path style="fill:#D3D3D3;" d="M-152.3-12.3c-15.4-6.1-29.4-14.7-41.7-25.5c8,9.9,17.5,18.5,28.1,25.5L-152.3-12.3z"/>
				<path style="fill:#D3D3D3;" d="M-34.6-12.3c10.7-7,20.2-15.6,28.1-25.5c-12.2,10.7-26.3,19.4-41.7,25.5L-34.6-12.3z"/>
			</g>
		</g>
		<path style="fill:#162954;" d="M-100.2-239.4c-69.8,0-126.3,56.6-126.3,126.3c0,69.8,56.6,126.3,126.3,126.3
			c69.8,0,126.3-56.6,126.3-126.3C26.1-182.9-30.5-239.4-100.2-239.4z M-100.2,7.2c-66.4,0-120.3-53.9-120.3-120.3
			c0-66.4,53.9-120.3,120.3-120.3c66.4,0,120.3,53.9,120.3,120.3C20-46.7-33.8,7.2-100.2,7.2z"/>
		<path style="fill:#283F72;" d="M20-113.1C20-46.7-33.8,7.2-100.2,7.2c-66.4,0-120.3-53.9-120.3-120.3h-6
			c0,69.8,56.6,126.3,126.3,126.3c69.8,0,126.3-56.6,126.3-126.3H20z"/>
	</g>
	<polygon style="fill:#FFFFFF;" points="-112.3,-218 -110.9,-220.7 -109.5,-218 -106.5,-217.5 -108.7,-215.4 -108.2,-212.4 
		-110.9,-213.8 -113.6,-212.4 -113.1,-215.4 -115.3,-217.6 	"/>
	<polygon style="fill:#FFFFFF;" points="-112.3,-199.3 -110.9,-202 -109.5,-199.3 -106.5,-198.8 -108.7,-196.7 -108.2,-193.7 
		-110.9,-195.1 -113.6,-193.7 -113.1,-196.7 -115.3,-198.9 	"/>
	<polygon style="fill:#FFFFFF;" points="-112.3,-180.6 -110.9,-183.3 -109.5,-180.6 -106.5,-180.1 -108.7,-178 -108.2,-175 
		-110.9,-176.4 -113.6,-175 -113.1,-178 -115.3,-180.2 	"/>
	<polygon style="fill:#FFFFFF;" points="-112.3,-161.9 -110.9,-164.6 -109.5,-161.9 -106.5,-161.4 -108.7,-159.3 -108.2,-156.3 
		-110.9,-157.7 -113.6,-156.3 -113.1,-159.3 -115.3,-161.5 	"/>
	<polygon style="fill:#FFFFFF;" points="-112.3,-143.2 -110.9,-145.9 -109.5,-143.2 -106.5,-142.7 -108.7,-140.6 -108.2,-137.6 
		-110.9,-139 -113.6,-137.6 -113.1,-140.6 -115.3,-142.8 	"/>
	<polygon style="fill:#FFFFFF;" points="-112.3,-124.5 -110.9,-127.2 -109.5,-124.5 -106.5,-124 -108.7,-121.9 -108.2,-118.9 
		-110.9,-120.3 -113.6,-118.9 -113.1,-121.9 -115.3,-124.1 	"/>
	<polygon style="fill:#FFFFFF;" points="-132.5,-218 -132.3,-218.5 -130.3,-219 -129.8,-218 -126.8,-217.5 -129,-215.4 
		-128.5,-212.4 -131.2,-213.8 -133.9,-212.4 -133.3,-215.4 -135.5,-217.6 	"/>
	<polygon style="fill:#FFFFFF;" points="-132.5,-199.3 -131.1,-202 -129.8,-199.3 -126.8,-198.8 -129,-196.7 -128.5,-193.7 
		-131.2,-195.1 -133.9,-193.7 -133.3,-196.7 -135.5,-198.9 	"/>
	<polygon style="fill:#FFFFFF;" points="-132.5,-180.6 -131.1,-183.3 -129.8,-180.6 -126.8,-180.1 -129,-178 -128.5,-175 
		-131.2,-176.4 -133.9,-175 -133.3,-178 -135.5,-180.2 	"/>
	<polygon style="fill:#FFFFFF;" points="-132.5,-161.9 -131.1,-164.6 -129.8,-161.9 -126.8,-161.4 -129,-159.3 -128.5,-156.3 
		-131.2,-157.7 -133.9,-156.3 -133.3,-159.3 -135.5,-161.5 	"/>
	<polygon style="fill:#FFFFFF;" points="-132.5,-143.2 -131.1,-145.9 -129.8,-143.2 -126.8,-142.7 -129,-140.6 -128.5,-137.6 
		-131.2,-139 -133.9,-137.6 -133.3,-140.6 -135.5,-142.8 	"/>
	<polygon style="fill:#FFFFFF;" points="-132.5,-124.5 -131.1,-127.2 -129.8,-124.5 -126.8,-124 -129,-121.9 -128.5,-118.9 
		-131.2,-120.3 -133.9,-118.9 -133.3,-121.9 -135.5,-124.1 	"/>
	<polygon style="fill:#FFFFFF;" points="-152.8,-199.3 -151.4,-202 -150.1,-199.3 -147.1,-198.8 -149.3,-196.7 -148.8,-193.7 
		-151.5,-195.1 -154.2,-193.7 -153.7,-196.7 -155.8,-198.9 	"/>
	<polygon style="fill:#FFFFFF;" points="-152.8,-180.6 -151.4,-183.3 -150.1,-180.6 -147.1,-180.1 -149.3,-178 -148.8,-175 
		-151.5,-176.4 -154.2,-175 -153.7,-178 -155.8,-180.2 	"/>
	<polygon style="fill:#FFFFFF;" points="-152.8,-161.9 -151.4,-164.6 -150.1,-161.9 -147.1,-161.4 -149.3,-159.3 -148.8,-156.3 
		-151.5,-157.7 -154.2,-156.3 -153.7,-159.3 -155.8,-161.5 	"/>
	<polygon style="fill:#FFFFFF;" points="-152.8,-143.2 -151.4,-145.9 -150.1,-143.2 -147.1,-142.7 -149.3,-140.6 -148.8,-137.6 
		-151.5,-139 -154.2,-137.6 -153.7,-140.6 -155.8,-142.8 	"/>
	<polygon style="fill:#FFFFFF;" points="-152.8,-124.5 -151.4,-127.2 -150.1,-124.5 -147.1,-124 -149.3,-121.9 -148.8,-118.9 
		-151.5,-120.3 -154.2,-118.9 -153.7,-121.9 -155.8,-124.1 	"/>
	<polygon style="fill:#FFFFFF;" points="-172.7,-199 -171.3,-198.8 -173.6,-196.7 -173,-193.7 -175.8,-195.1 -178.5,-193.7 
		-178.3,-194.7 	"/>
	<polygon style="fill:#FFFFFF;" points="-177.1,-180.6 -175.7,-183.3 -174.4,-180.6 -171.3,-180.1 -173.6,-178 -173,-175 
		-175.8,-176.4 -178.5,-175 -177.9,-178 -180.1,-180.2 	"/>
	<polygon style="fill:#FFFFFF;" points="-177.1,-161.9 -175.7,-164.6 -174.4,-161.9 -171.3,-161.4 -173.6,-159.3 -173,-156.3 
		-175.8,-157.7 -178.5,-156.3 -177.9,-159.3 -180.1,-161.5 	"/>
	<polygon style="fill:#FFFFFF;" points="-177.1,-143.2 -175.7,-145.9 -174.4,-143.2 -171.3,-142.7 -173.6,-140.6 -173,-137.6 
		-175.8,-139 -178.5,-137.6 -177.9,-140.6 -180.1,-142.8 	"/>
	<polygon style="fill:#FFFFFF;" points="-177.1,-124.5 -175.7,-127.2 -174.4,-124.5 -171.3,-124 -173.6,-121.9 -173,-118.9 
		-175.8,-120.3 -178.5,-118.9 -177.9,-121.9 -180.1,-124.1 	"/>
	<polygon style="fill:#FFFFFF;" points="-193,-180.3 -191.8,-180.1 -194,-178 -193.5,-175 -196.2,-176.4 	"/>
	<polygon style="fill:#FFFFFF;" points="-197.6,-161.9 -196.2,-164.6 -194.9,-161.9 -191.8,-161.4 -194,-159.3 -193.5,-156.3 
		-196.2,-157.7 -199,-156.3 -198.4,-159.3 -200.6,-161.5 	"/>
	<polygon style="fill:#FFFFFF;" points="-197.6,-143.2 -196.2,-145.9 -194.9,-143.2 -191.8,-142.7 -194,-140.6 -193.5,-137.6 
		-196.2,-139 -199,-137.6 -198.4,-140.6 -200.6,-142.8 	"/>
	<polygon style="fill:#FFFFFF;" points="-197.6,-124.5 -196.2,-127.2 -194.9,-124.5 -191.8,-124 -194,-121.9 -193.5,-118.9 
		-196.2,-120.3 -199,-118.9 -198.4,-121.9 -200.6,-124.1 	"/>
	<polygon style="fill:#FFFFFF;" points="-214.1,-143.2 -212.7,-145.9 -211.4,-143.2 -208.3,-142.7 -210.5,-140.6 -210,-137.6 
		-212.7,-139 -215.5,-137.6 -214.9,-140.6 -215.8,-141.5 -215.2,-143 	"/>
	<polygon style="fill:#FFFFFF;" points="-214.1,-124.5 -212.7,-127.2 -211.4,-124.5 -208.3,-124 -210.5,-121.9 -210,-118.9 
		-212.7,-120.3 -215.5,-118.9 -214.9,-121.9 -217.1,-124.1 	"/>
</g>
<linearGradient id="SVGID_5_" gradientUnits="userSpaceOnUse" x1="-101.1111" y1="32.6555" x2="-101.1111" y2="-153.0988">
	<stop  offset="0" style="stop-color:#FFFFFF;stop-opacity:0"/>
	<stop  offset="1" style="stop-color:#FFFFFF"/>
</linearGradient>
<path style="opacity:0.3;fill:url(#SVGID_5_);" d="M-101.1-239.4c-69.6,0-126.1,56.5-126.1,126.1s56.5,126.1,126.1,126.1
	C-31.5,12.8,25-43.7,25-113.3S-31.5-239.4-101.1-239.4z"/>
<path style="opacity:5.000000e-002;fill:#FFFFFF;" d="M-101.1-239.4c-69.6,0-126.1,56.5-126.1,126.1c0,9.7,1.1,19.1,3.2,28.1
	c18.9-21.7,227-22.5,245.1,3.3c2.6-10.1,4-20.6,4-31.5C25-183-31.5-239.4-101.1-239.4z"/>
</svg>
