<?xml version="1.0" encoding="utf-8"?>
<!-- Generator: Adobe Illustrator 16.0.0, SVG Export Plug-In . SVG Version: 6.00 Build 0)  -->
<!DOCTYPE svg PUBLIC "-//W3C//DTD SVG 1.1//EN" "http://www.w3.org/Graphics/SVG/1.1/DTD/svg11.dtd">
<svg version="1.1" id="Capa_1" xmlns="http://www.w3.org/2000/svg" xmlns:xlink="http://www.w3.org/1999/xlink" x="0px" y="0px"
	 width="170.5px" height="170.1px" viewBox="-227.1 -240.7 170.5 170.1" style="enable-background:new -227.1 -240.7 170.5 170.1;"
	 xml:space="preserve">
<g>
	<g>
		<g>
			<circle style="fill:#36CC08;" cx="-141.9" cy="-155.5" r="80.9"/>
			<g>
				<g>
					<path style="fill:#35A80F;" d="M-141.9-236.4c-40.9,0-74.7,30.4-80.1,69.8c8.9-36,41.4-62.6,80.1-62.6
						c38.7,0,71.2,26.7,80.1,62.6C-67.1-206-101-236.4-141.9-236.4z"/>
				</g>
			</g>
			<g>
				<g>
					<path style="fill:#75D656;" d="M-205-104.8c14.8,18.4,37.6,30.2,63.1,30.2c25.5,0,48.2-11.8,63.1-30.2
						C-95.6-90-117.7-81-141.9-81S-188.1-90-205-104.8z"/>
				</g>
			</g>
			<path style="fill:#162954;" d="M-141.9-240.5c-46.9,0-85,38-85,85s38,85,85,85s85-38,85-85S-95-240.5-141.9-240.5z M-141.9-74.6
				c-44.7,0-80.9-36.2-80.9-80.9s36.2-80.9,80.9-80.9c44.7,0,80.9,36.2,80.9,80.9S-97.2-74.6-141.9-74.6z"/>
			<path style="fill:#283F72;" d="M-61-155.5c0,44.7-36.2,80.9-80.9,80.9c-44.7,0-80.9-36.2-80.9-80.9h-4.1c0,46.9,38,85,85,85
				s85-38,85-85H-61z"/>
		</g>
	</g>
	<g>
		<polygon style="fill:#FFCC21;" points="-141.3,-200.8 -213.1,-155.5 -141.3,-110.2 -72,-155.5 		"/>
		<path style="fill:#0248A8;" d="M-111.7-155.3c0,16-13,29-29,29c-16,0-29-13-29-29c0-16,13-29,29-29
			C-124.7-184.3-111.7-171.3-111.7-155.3z"/>
		<path style="fill:#FFFFFF;" d="M-169.1-161.4c9.5-2.5,19.8-2.5,29.9,0.4c10.2,2.9,19,8.5,25.7,15.7c0.6-1.5,1.1-3,1.1-3.8
			c-6.9-7.7-16-13.6-26.6-16.7c-9.6-2.8-19.4-2.9-28.5-0.8C-168.5-164.2-168.9-162.3-169.1-161.4z"/>
	</g>
</g>
<linearGradient id="SVGID_1_" gradientUnits="userSpaceOnUse" x1="-141.5613" y1="-57.2957" x2="-141.5613" y2="-182.4719">
	<stop  offset="0" style="stop-color:#FFFFFF;stop-opacity:0"/>
	<stop  offset="1" style="stop-color:#FFFFFF"/>
</linearGradient>
<path style="opacity:0.3;fill:url(#SVGID_1_);" d="M-141.6-240.7c-46.9,0-85,38-85,85s38,85,85,85s85-38,85-85
	S-94.6-240.7-141.6-240.7z"/>
<path style="opacity:5.000000e-002;fill:#FFFFFF;" d="M-141.6-240.7c-46.9,0-85,38-85,85c0,6.5,0.7,12.9,2.1,19
	c12.8-14.6,152.9-15.1,165.2,2.2c1.7-6.8,2.7-13.9,2.7-21.2C-56.6-202.6-94.6-240.7-141.6-240.7z"/>
</svg>
