<?xml version="1.0" encoding="utf-8"?>
<!-- Generator: Adobe Illustrator 16.0.0, SVG Export Plug-In . SVG Version: 6.00 Build 0)  -->
<!DOCTYPE svg PUBLIC "-//W3C//DTD SVG 1.1//EN" "http://www.w3.org/Graphics/SVG/1.1/DTD/svg11.dtd">
<svg version="1.1" id="Capa_1" xmlns="http://www.w3.org/2000/svg" xmlns:xlink="http://www.w3.org/1999/xlink" x="0px" y="0px"
	 width="254.2px" height="254.2px" viewBox="-227.1 -240.7 254.2 254.2" style="enable-background:new -227.1 -240.7 254.2 254.2;"
	 xml:space="preserve">
<g>
	<g>
		<path style="fill:#25A64A;" d="M14.1-73.2C-2.5-26.2-47.3,7.5-100,7.5c-52.7,0-97.5-33.7-114.1-80.7L14.1-73.2z"/>
		<path style="fill:#C90505;" d="M-214.2-153.9c16.6-47,61.4-80.7,114.1-80.7c52.7,0,97.5,33.7,114.1,80.7L-214.2-153.9z"/>
		<g>
			<g>
				<g>
					<path style="fill:#AA0707;" d="M-100-234.6c-52.7,0-97.5,33.7-114.1,80.7c11.8-24.2,56.2-69.9,114.1-69.9
						c67.1,0,108,54.4,114.1,70C-2.5-200.9-47.3-234.6-100-234.6z"/>
				</g>
			</g>
		</g>
		<g>
			<g>
				<g>
					<path style="fill:#46BC64;" d="M-194.4-37.8c22.2,27.6,56.2,45.2,94.3,45.2c38.1,0,72.2-17.7,94.3-45.2
						C-30.9-15.6-63.9-2.2-100-2.2C-136.2-2.2-169.2-15.6-194.4-37.8z"/>
				</g>
			</g>
		</g>
		<path style="fill:#162954;" d="M-100-240.7c-70.2,0-127.1,56.9-127.1,127.1S-170.2,13.5-100,13.5c70.2,0,127.1-56.9,127.1-127.1
			S-29.9-240.7-100-240.7z M-100,7.5c-66.8,0-121-54.2-121-121s54.2-121,121-121s121,54.2,121,121S-33.2,7.5-100,7.5z"/>
		<path style="fill:#283F72;" d="M21-113.6c0,66.8-54.2,121-121,121s-121-54.2-121-121h-6.1c0,70.2,56.9,127.1,127.1,127.1
			c70.2,0,127.1-56.9,127.1-127.1H21z"/>
		<path style="fill:#FFCC21;" d="M-214.2-73.2c-4.5-12.6-6.9-26.2-6.9-40.3c0-14.1,2.4-27.7,6.9-40.3l228.3,0
			c4.5,12.6,6.9,26.2,6.9,40.3c0,14.1-2.4,27.7-6.9,40.3L-214.2-73.2z"/>
	</g>
</g>
<linearGradient id="SVGID_1_" gradientUnits="userSpaceOnUse" x1="-100.0447" y1="33.0129" x2="-100.0447" y2="-153.8157">
	<stop  offset="0" style="stop-color:#FFFFFF;stop-opacity:0"/>
	<stop  offset="1" style="stop-color:#FFFFFF"/>
</linearGradient>
<path style="opacity:0.3;fill:url(#SVGID_1_);" d="M-100-240.7c-70,0-126.8,56.8-126.8,126.8c0,70,56.8,126.8,126.8,126.8
	c70,0,126.8-56.8,126.8-126.8C26.8-183.9-30-240.7-100-240.7z"/>
<path style="opacity:5.000000e-002;fill:#FFFFFF;" d="M-100-240.7c-70,0-126.8,56.8-126.8,126.8c0,9.7,1.1,19.2,3.2,28.3
	c19-21.8,228.3-22.6,246.5,3.3c2.6-10.1,4-20.7,4-31.7C26.8-183.9-30-240.7-100-240.7z"/>
</svg>
