<?xml version="1.0" encoding="utf-8"?>
<!-- Generator: Adobe Illustrator 16.0.0, SVG Export Plug-In . SVG Version: 6.00 Build 0)  -->
<!DOCTYPE svg PUBLIC "-//W3C//DTD SVG 1.1//EN" "http://www.w3.org/Graphics/SVG/1.1/DTD/svg11.dtd">
<svg version="1.1" id="Capa_1" xmlns="http://www.w3.org/2000/svg" xmlns:xlink="http://www.w3.org/1999/xlink" x="0px" y="0px"
	 width="98.9px" height="99.1px" viewBox="0 0 98.9 99.1" style="enable-background:new 0 0 98.9 99.1;" xml:space="preserve">
<polygon style="fill:#1F336C;" points="29,40.1 22.1,47 44.2,69.1 93.4,19.9 86.5,13 44.2,55.3 "/>
<path style="fill:#3F80C2;" d="M88.5,49.4c0,21.6-17.7,39.3-39.3,39.3c-21.6,0-39.3-17.7-39.3-39.3s17.7-39.3,39.3-39.3
	c3.9,0,7.4,0.5,10.8,1.5l7.9-7.9c-5.9-2-12.3-3.4-18.7-3.4C22.1,0.3,0,22.4,0,49.4s22.1,49.2,49.2,49.2c27,0,49.2-22.1,49.2-49.2
	H88.5z"/>
</svg>
