<?xml version="1.0" encoding="utf-8"?>
<!-- Generator: Adobe Illustrator 16.0.0, SVG Export Plug-In . SVG Version: 6.00 Build 0)  -->
<!DOCTYPE svg PUBLIC "-//W3C//DTD SVG 1.1//EN" "http://www.w3.org/Graphics/SVG/1.1/DTD/svg11.dtd">
<svg version="1.1" id="Capa_1" xmlns="http://www.w3.org/2000/svg" xmlns:xlink="http://www.w3.org/1999/xlink" x="0px" y="0px"
	 width="98.9px" height="99.1px" viewBox="-72.6 -64.6 98.9 99.1" style="enable-background:new -72.6 -64.6 98.9 99.1;"
	 xml:space="preserve">
<polygon style="fill:#F29501;" points="-43.4,-24.4 -50.4,-17.5 -28.1,4.8 21.3,-44.7 14.4,-51.6 -28.1,-9.1 "/>
<path style="fill:#F9B515;" d="M16.4-15c0,21.7-17.8,39.5-39.5,39.5c-21.7,0-39.5-17.8-39.5-39.5s17.8-39.5,39.5-39.5
	c4,0,7.4,0.5,10.9,1.5l7.9-7.9c-5.9-2-12.4-3.5-18.8-3.5c-27.2,0-49.4,22.2-49.4,49.4s22.2,49.4,49.4,49.4C4,34.4,26.2,12.2,26.2-15
	H16.4z"/>
</svg>
