<?xml version="1.0" encoding="utf-8"?>
<!-- Generator: Adobe Illustrator 16.0.0, SVG Export Plug-In . SVG Version: 6.00 Build 0)  -->
<!DOCTYPE svg PUBLIC "-//W3C//DTD SVG 1.1//EN" "http://www.w3.org/Graphics/SVG/1.1/DTD/svg11.dtd">
<svg version="1.1" id="Capa_1" xmlns="http://www.w3.org/2000/svg" xmlns:xlink="http://www.w3.org/1999/xlink" x="0px" y="0px"
	 width="622.5px" height="622.5px" viewBox="-682 -268.9 622.5 622.5" style="enable-background:new -682 -268.9 622.5 622.5;"
	 xml:space="preserve">
<circle style="fill:#1F336C;" cx="-370.2" cy="43.6" r="301.1"/>
<g>
	<path style="fill:#1E2D54;" d="M-370.2-206.9C-212-206.9-82.4-84.4-71.2,71c0.5-7.2,0.8-14.5,0.8-21.8
		c0-165.5-134.2-299.7-299.7-299.7c-165.5,0-299.7,134.2-299.7,299.7c0,7.3,0.3,14.6,0.8,21.8C-657.9-84.4-528.4-206.9-370.2-206.9z
		"/>
</g>
<path style="fill:#84A3D5;" d="M-135.2,245.7c-5,5.7-10.1,11.3-15.5,16.7c-58.8,58.8-136.9,91.2-220.1,91.2s-161.3-32.4-220.1-91.2
	c-3.1-3.1-6.1-6.3-9.1-9.5l26.8-8.4c51.8,51.9,123.4,84,202.4,84c86.6,0,164.3-38.6,216.8-99.6L-135.2,245.7z"/>
<path style="fill:#5377B9;" d="M-656.6,27.4c-0.3,4.9-0.4,9.9-0.4,14.9c0,83.9,36.3,159.6,94.1,212l-28,8.1
	C-649.6,203.6-682,125.4-682,42.3c0-8.4,0.3-16.7,1-25L-656.6,27.4z M-61,11.4c1,10.2,1.5,20.5,1.5,30.9
	c0,83.1-32.4,161.3-91.2,220.1l-28.1-8C-121,202-84.6,126.3-84.6,42.3c0-6.3-0.2-12.5-0.6-18.7L-61,11.4z"/>
<path style="fill:#3A5CA3;" d="M-682,42.3c0-83.1,32.4-161.3,91.2-220.1c3-3,6.1-6,9.3-8.9l13.2,22.2
	C-622.9-112.4-657-38.9-657,42.3c0,3.6,0.1,7.2,0.2,10.7L-682,42.3z M-84.8,53c0.1-3.6,0.2-7.1,0.2-10.7
	c0-82.1-34.8-156.3-90.4-208.5l14-21.4c3.5,3.2,6.9,6.4,10.2,9.8C-91.9-119-59.5-40.8-59.5,42.3L-84.8,53z"/>
<path style="fill:#1F336C;" d="M-167.1-158.5c-51.9-52.7-124.1-85.4-203.7-85.4c-78.9,0-150.5,32.1-202.3,83.9l-12.5-23
	c58.1-55.5,134.1-86,214.8-86c81.2,0,157.7,30.9,216,87.1L-167.1-158.5z"/>
</svg>
