<?xml version="1.0" encoding="utf-8"?>
<!-- Generator: Adobe Illustrator 16.0.0, SVG Export Plug-In . SVG Version: 6.00 Build 0)  -->
<!DOCTYPE svg PUBLIC "-//W3C//DTD SVG 1.1//EN" "http://www.w3.org/Graphics/SVG/1.1/DTD/svg11.dtd">
<svg version="1.1" id="Capa_1" xmlns="http://www.w3.org/2000/svg" xmlns:xlink="http://www.w3.org/1999/xlink" x="0px" y="0px"
	 width="98.9px" height="79.1px" viewBox="-72.6 -64.6 98.9 79.1" style="enable-background:new -72.6 -64.6 98.9 79.1;"
	 xml:space="preserve">
<path style="fill:#F4A10F;" d="M-13.3-64.4c-2.2-0.6-4.4,3.2-1.9,4.9C-4.7-53.8,2-48.5,5.9-43.4c3.9,5.1,5.9,10.7,5.9,16.6
	c0,3.7-0.5,6.1-1.5,7.4c-1,1.4-2.2,2.1-3.4,2.1c-1.4,0-3.2-0.4-5.4-1.1c-2.2-0.8-4.3-1.1-6.2-1.1c-4.2,0-7.8,1.6-10.9,4.7
	c-3.1,3.1-4.7,6.9-4.7,11.5c0,4.8,1.9,9,5.7,12.5c3.8,3.5,8.5,5.3,14.1,5.3c6.8,0,13-2.9,18.5-8.8c5.5-5.9,8.3-13.2,8.3-22
	c0-10.1-3.4-19.6-10.2-28.5C9.3-53.7-0.5-60.1-13.3-64.4z"/>
<path style="fill:#F08817;" d="M-65.6-64.4c-2.2-0.6-4.4,3.2-1.9,4.9c10.5,5.7,17.2,11,21.1,16.1c3.9,5.1,5.9,10.7,5.9,16.6
	c0,3.7-0.5,6.1-1.5,7.4c-1,1.4-2.2,2.1-3.4,2.1c-1.4,0-3.2-0.4-5.4-1.1c-2.2-0.8-4.3-1.1-6.2-1.1c-4.2,0-7.8,1.6-10.9,4.7
	c-3.1,3.1-4.7,6.9-4.7,11.5c0,4.8,1.9,9,5.7,12.5c3.8,3.5,8.5,5.3,14.1,5.3c6.8,0,13-2.9,18.5-8.8c5.5-5.9,8.3-13.2,8.3-22
	c0-10.1-3.4-19.6-10.2-28.5C-43-53.7-52.8-60.1-65.6-64.4z"/>
</svg>
