<?xml version="1.0" encoding="utf-8"?>
<!-- Generator: Adobe Illustrator 16.0.0, SVG Export Plug-In . SVG Version: 6.00 Build 0)  -->
<!DOCTYPE svg PUBLIC "-//W3C//DTD SVG 1.1//EN" "http://www.w3.org/Graphics/SVG/1.1/DTD/svg11.dtd">
<svg version="1.1" id="Capa_1" xmlns="http://www.w3.org/2000/svg" xmlns:xlink="http://www.w3.org/1999/xlink" x="0px" y="0px"
	 width="98.9px" height="79.1px" viewBox="-72.6 -64.6 98.9 79.1" style="enable-background:new -72.6 -64.6 98.9 79.1;"
	 xml:space="preserve">
<path style="fill:#F4A10F;" d="M-33.1-64.4c2.2-0.6,4.4,3.2,1.9,4.9c-10.5,5.7-17.2,11-21.1,16.1c-3.9,5.1-5.9,10.7-5.9,16.6
	c0,3.7,0.5,6.1,1.5,7.4c1,1.4,2.2,2.1,3.4,2.1c1.4,0,3.2-0.4,5.4-1.1c2.2-0.8,4.3-1.1,6.2-1.1c4.2,0,7.8,1.6,10.9,4.7
	c3.1,3.1,4.7,6.9,4.7,11.5c0,4.8-1.9,9-5.7,12.5c-3.8,3.5-8.5,5.3-14.1,5.3c-6.8,0-13-2.9-18.5-8.8c-5.5-5.9-8.3-13.2-8.3-22
	c0-10.1,3.4-19.6,10.2-28.5C-55.7-53.7-45.9-60.1-33.1-64.4z"/>
<path style="fill:#F08817;" d="M19.2-64.4c2.2-0.6,4.4,3.2,1.9,4.9C10.6-53.8,3.9-48.5,0-43.4c-3.9,5.1-5.9,10.7-5.9,16.6
	c0,3.7,0.5,6.1,1.5,7.4c1,1.4,2.2,2.1,3.4,2.1c1.4,0,3.2-0.4,5.4-1.1c2.2-0.8,4.3-1.1,6.2-1.1c4.2,0,7.8,1.6,10.9,4.7
	c3.1,3.1,4.7,6.9,4.7,11.5c0,4.8-1.9,9-5.7,12.5c-3.8,3.5-8.5,5.3-14.1,5.3c-6.8,0-13-2.9-18.5-8.8c-5.5-5.9-8.3-13.2-8.3-22
	c0-10.1,3.4-19.6,10.2-28.5C-3.4-53.7,6.4-60.1,19.2-64.4z"/>
</svg>
