<?xml version="1.0" encoding="utf-8"?>
<!-- Generator: Adobe Illustrator 16.0.0, SVG Export Plug-In . SVG Version: 6.00 Build 0)  -->
<!DOCTYPE svg PUBLIC "-//W3C//DTD SVG 1.1//EN" "http://www.w3.org/Graphics/SVG/1.1/DTD/svg11.dtd">
<svg version="1.1" id="Capa_1" xmlns="http://www.w3.org/2000/svg" xmlns:xlink="http://www.w3.org/1999/xlink" x="0px" y="0px"
	 width="135.2px" height="156.7px" viewBox="-72.6 19.7 135.2 156.7" style="enable-background:new -72.6 19.7 135.2 156.7;"
	 xml:space="preserve">
<g>
	<path style="fill:#C9C9C9;" d="M-32,121.7h94.6c0,0,0,26.8,0,30.5c0,3.7-3.3,5.5-5.5,5.5c-0.3,0-1.6,0-3.8,0
		C36.2,157.7-32,121.7-32,121.7z"/>
	<path style="fill:#AAAAAA;" d="M0.7,121.7h51.8c0,0,0,14.4,0,26.6c0,2.4-0.8,9.4,5,9.4c-0.4,0-2.5,0-7.4,0
		C27.6,157.7,0.7,121.7,0.7,121.7z"/>
	<path style="fill:#F0F0F0;" d="M-46,19.7c8,0,88.3,0,90.5,0c2.3,0,5.5,2,5.5,5.7c0,3.7,0,125.7,0,125.7c0,4.1,1.8,6.7,7,6.7
		c-7.4,0-95.2,0-97.5,0c-2.3,0-5.5-2-5.5-5.7V19.7"/>
	<path style="fill:#DBDAD9;" d="M-46,49h85.1c0,0,0-20.4,0-22.8c0-6.5,6.1-6.5,5.4-6.5C12.3,19.7-46,42.1-46,42.1V49z"/>
	<path style="fill:#FFFFFF;" d="M36.8,46.3h-88.3c0,0,0-17.2,0-20.9c0-3.7,3.3-5.7,5.5-5.7c2.3,0,81.7,0,89.7,0c-8,0-7,6.7-7,6.7
		V46.3z"/>
	<path style="fill:#F0F0F0;" d="M50.1,51.2"/>
	
		<line style="fill:none;stroke:#DBDAD9;stroke-width:10;stroke-linecap:round;stroke-miterlimit:10;" x1="-39.4" y1="62.7" x2="39.2" y2="62.7"/>
	
		<line style="fill:none;stroke:#DBDAD9;stroke-width:10;stroke-linecap:round;stroke-miterlimit:10;" x1="-39.4" y1="77.3" x2="39.2" y2="77.3"/>
	
		<line style="fill:none;stroke:#DBDAD9;stroke-width:10;stroke-linecap:round;stroke-miterlimit:10;" x1="-39.4" y1="91.9" x2="39.2" y2="91.9"/>
	
		<line style="fill:none;stroke:#DBDAD9;stroke-width:10;stroke-linecap:round;stroke-miterlimit:10;" x1="-39.4" y1="106.6" x2="39.2" y2="106.6"/>
	
		<line style="fill:none;stroke:#DBDAD9;stroke-width:10;stroke-linecap:round;stroke-miterlimit:10;" x1="-39.4" y1="121.2" x2="39.2" y2="121.2"/>
	
		<line style="fill:none;stroke:#DBDAD9;stroke-width:10;stroke-linecap:round;stroke-miterlimit:10;" x1="-39.4" y1="135.8" x2="39.2" y2="135.8"/>
</g>
<g>
	<polygon style="fill:#1E336C;" points="-55.7,167.1 -50.5,176.1 -38.3,150.1 -53.7,144.7 -65.7,168.7 	"/>
	<polygon style="fill:#1E336C;" points="-24.1,167.1 -29.3,176.1 -41.5,150.1 -26.1,144.7 -14.1,168.7 	"/>
	<polygon style="fill:#172A56;" points="-34.8,147 -26.4,147 -21.3,154.3 -21.2,156 -28.3,153 -30.1,160.6 -35.9,155.4 -37.6,158.3 
		-40.5,151.1 	"/>
	<line style="fill:#172A56;" x1="-42.8" y1="147" x2="-34.8" y2="147"/>
	<polygon style="fill:#172A56;" points="-42.8,147 -50.3,147 -58.5,154.2 -58.7,156 -51.5,153 -49.8,160.6 -43.9,155.4 -42.2,158.3 
		-38.8,151.1 	"/>
	<polygon style="fill:#FDC816;" points="-39.8,97 -35.9,103.7 -30.1,98.6 -28.3,106.1 -21.2,103.1 -21.9,110.8 -14.2,110.1 
		-17.3,117.2 -9.7,118.9 -14.8,124.7 -8.2,128.7 -14.8,132.6 -9.7,138.5 -17.3,140.2 -14.2,147.3 -21.9,146.6 -21.2,154.3 
		-28.3,151.2 -30.1,158.8 -35.9,153.7 -39.8,160.3 -43.8,153.7 -49.6,158.8 -51.3,151.2 -58.5,154.3 -57.8,146.6 -65.5,147.3 
		-62.4,140.2 -70,138.5 -64.9,132.6 -71.5,128.7 -64.9,124.7 -70,118.9 -62.4,117.2 -65.5,110.1 -57.8,110.8 -58.5,103.1 
		-51.3,106.1 -49.6,98.6 -43.8,103.7 	"/>
	<circle style="fill:#CE9005;" cx="-39.8" cy="129.2" r="21.8"/>
	<circle style="fill:#E3A401;" cx="-39.8" cy="127.2" r="20.3"/>
	<polygon style="fill:#CE9005;" points="-39.4,115.8 -35.4,123.9 -26.8,124.1 -33,132.2 -31.4,140.1 -39.4,136.3 -47.3,140 
		-45.9,132.5 -52,124.1 -43.4,123.9 	"/>
	<polygon style="fill:#FDC818;" points="-39.4,115 -35.5,122.9 -26.8,124.1 -33.1,130.3 -31.6,139 -39.4,134.9 -47.2,139 
		-45.7,130.3 -52,124.1 -43.3,122.9 	"/>
</g>
<linearGradient id="SVGID_1_" gradientUnits="userSpaceOnUse" x1="-40.6162" y1="172.6494" x2="-39.51" y2="109.3431">
	<stop  offset="0.3871" style="stop-color:#FFFFFF;stop-opacity:0"/>
	<stop  offset="1" style="stop-color:#FFFFFF"/>
</linearGradient>
<polygon style="opacity:0.4;fill:url(#SVGID_1_);" points="-14.8,132.6 -8.2,128.7 -14.8,124.7 -9.7,118.9 -17.3,117.2 -14.2,110.1 
	-21.9,110.8 -21.2,103.1 -28.3,106.1 -30.1,98.6 -35.9,103.7 -39.8,97 -43.8,103.7 -49.6,98.6 -51.3,106.1 -58.5,103.1 -57.8,110.8 
	-65.5,110.1 -62.4,117.2 -70,118.9 -64.9,124.7 -71.5,128.7 -64.9,132.6 -70,138.5 -62.4,140.2 -65.5,147.3 -57.8,146.6 
	-58.4,154.2 -58.5,154.2 -58.5,154.3 -65.7,168.7 -55.7,167.1 -50.5,176.1 -42.2,158.3 -42.2,158.3 -41.7,157.3 -39.8,160.3 
	-38.1,157.4 -37.6,158.3 -37.6,158.3 -37.6,158.3 -29.3,176.1 -24.1,167.1 -14.1,168.7 -21.3,154.2 -21.2,154.3 -21.9,146.6 
	-14.2,147.3 -17.3,140.2 -9.7,138.5 "/>
<path style="opacity:0.1;fill:#FFFFFF;" d="M-17.3,140.2c2.5,0,7.5-1.7,7.5-1.7l-5.1-5.8l6.6-4l-6.6-4l5.1-5.8l-7.5-1.7l3-7.1
	l-7.7,0.7l0.7-7.7l-7.1,3l-1.7-7.5l-5.8,5.1l-4-6.6l-4,6.6l-5.8-5.1l-1.7,7.5l-7.1-3l0.7,7.7l-7.7-0.7l3,7.1l-7.5,1.7l5.1,5.8
	l-6.6,4l6.6,4l-5.1,5.8l7.5,1.7C-62.4,140.2-41.6,120.8-17.3,140.2z"/>
</svg>
