<?xml version="1.0" encoding="utf-8"?>
<!-- Generator: Adobe Illustrator 16.0.0, SVG Export Plug-In . SVG Version: 6.00 Build 0)  -->
<!DOCTYPE svg PUBLIC "-//W3C//DTD SVG 1.1//EN" "http://www.w3.org/Graphics/SVG/1.1/DTD/svg11.dtd">
<svg version="1.1" id="Capa_1" xmlns="http://www.w3.org/2000/svg" xmlns:xlink="http://www.w3.org/1999/xlink" x="0px" y="0px"
	 width="80px" height="106px" viewBox="-72.6 -68.2 80 106" style="enable-background:new -72.6 -68.2 80 106;"
	 xml:space="preserve">
<path style="fill:#F9B515;" d="M4.2-68.2h-73.6c-1.8,0-3.2,1.4-3.2,3.2v99.6c0,1.8,1.4,3.2,3.2,3.2H4.2c1.8,0,3.2-1.4,3.2-3.2V-65
	C7.4-66.8,6-68.2,4.2-68.2z M-1.5,28.8H-64v-88.2h7.9v10.9l3-3l3.2,3.2v-11h48.3V28.8z"/>
<rect x="-32.6" y="-41" style="fill:#F9B515;" width="23.3" height="3.5"/>
<rect x="-32.6" y="-27.8" style="fill:#F9B515;" width="23.3" height="3.5"/>
<rect x="-56.1" y="-14.5" style="fill:#F9B515;" width="46.8" height="3.5"/>
<rect x="-56.1" y="-1.3" style="fill:#F9B515;" width="46.8" height="3.5"/>
<rect x="-56.1" y="11.9" style="fill:#F9B515;" width="46.8" height="3.5"/>
<path style="fill:#F9B515;" d="M-42.3-23.3h3.9L-45-41.8h-0.6h-3.3h-0.6l-6.6,18.5h3.9l1.4-3.8h7.2L-42.3-23.3z M-49.7-30.2l2.5-7
	l2.5,7H-49.7z"/>
</svg>
