<?xml version="1.0" encoding="utf-8"?>
<!-- Generator: Adobe Illustrator 16.0.0, SVG Export Plug-In . SVG Version: 6.00 Build 0)  -->
<!DOCTYPE svg PUBLIC "-//W3C//DTD SVG 1.1//EN" "http://www.w3.org/Graphics/SVG/1.1/DTD/svg11.dtd">
<svg version="1.1" id="Capa_1" xmlns="http://www.w3.org/2000/svg" xmlns:xlink="http://www.w3.org/1999/xlink" x="0px" y="0px"
	 width="98.5px" height="79.9px" viewBox="-72.6 -68.2 98.5 79.9" style="enable-background:new -72.6 -68.2 98.5 79.9;"
	 xml:space="preserve">
<g>
	<g>
		<path style="fill:#1E3068;" d="M25.9-58.7c-3.6,1.6-7.5,2.7-11.6,3.2c4.2-2.5,7.4-6.5,8.9-11.2c-3.9,2.3-8.2,4-12.8,4.9
			c-3.7-3.9-8.9-6.4-14.8-6.4c-11.2,0-20.2,9-20.2,20.2c0,1.6,0.2,3.1,0.5,4.6c-16.8-0.8-31.7-8.9-41.6-21.1
			c-1.7,3-2.7,6.5-2.7,10.2c0,7,3.6,13.2,9,16.8c-3.3-0.1-6.4-1-9.2-2.5v0.3c0,9.8,7,18,16.2,19.8c-1.7,0.5-3.5,0.7-5.3,0.7
			c-1.3,0-2.6-0.1-3.8-0.4c2.6,8,10,13.9,18.9,14C-49.6-0.2-58.3,3-67.8,3c-1.6,0-3.2-0.1-4.8-0.3c8.9,5.7,19.6,9.1,31,9.1
			c37.2,0,57.5-30.8,57.5-57.5l-0.1-2.6C19.8-51.1,23.2-54.7,25.9-58.7z"/>
	</g>
</g>
</svg>
