<?xml version="1.0" encoding="utf-8"?>
<!-- Generator: Adobe Illustrator 16.0.0, SVG Export Plug-In . SVG Version: 6.00 Build 0)  -->
<!DOCTYPE svg PUBLIC "-//W3C//DTD SVG 1.1//EN" "http://www.w3.org/Graphics/SVG/1.1/DTD/svg11.dtd">
<svg version="1.1" id="Capa_1" xmlns="http://www.w3.org/2000/svg" xmlns:xlink="http://www.w3.org/1999/xlink" x="0px" y="0px"
	 width="801.9px" height="608.4px" viewBox="0 19.7 801.9 608.4" style="enable-background:new 0 19.7 801.9 608.4;"
	 xml:space="preserve">
<path style="fill:#09122A;" d="M440.6,194c10.8-19-34-48.7-70.2-27.2C339,185.5,371,217.5,414,211c0,0,137.5,69,146.6,74.7
	c9.1,5.7-142,63.4-159,64.5c-17,1.1-401-150.5-401.5-162.4C-0.6,175.9,382.9,19.7,399.5,19.7c17.3,0,402.4,161.3,402.4,166.9
	c0,9.1-186.8,82.6-200.6,84.9C587.4,273.8,440.6,194,440.6,194z"/>
<path style="fill:#09122A;" d="M621.9,499c0,0,0-168.6,0-193.9c0,0,44.1-19.6,50.2-22.3c0,17,0,139.2,0,153.2
	C672,465.1,638.1,499,621.9,499z"/>
<path style="fill:#09122A;" d="M126.5,284.3c0,15.5,0,141.1,0,152c21.9,106,235.4,143.4,392.8,108.7c0,12.8,0,47.5,0,54.7
	s10.9,28.3,38.5,28.3c27.5,0,31.7-15.8,34-23.8c-12.5,3-34.7-9.8-34.7-20.4c0-10.6,0-255.4,0-255.4s-134.3,62.4-156,62.4
	C379.3,390.9,126.5,273,126.5,284.3z"/>
</svg>
