<?xml version="1.0" encoding="utf-8"?>
<!-- Generator: Adobe Illustrator 16.0.0, SVG Export Plug-In . SVG Version: 6.00 Build 0)  -->
<!DOCTYPE svg PUBLIC "-//W3C//DTD SVG 1.1//EN" "http://www.w3.org/Graphics/SVG/1.1/DTD/svg11.dtd">
<svg version="1.1" id="Capa_1" xmlns="http://www.w3.org/2000/svg" xmlns:xlink="http://www.w3.org/1999/xlink" x="0px" y="0px"
	 width="191px" height="196.4px" viewBox="-72.6 -64.6 191 196.4" style="enable-background:new -72.6 -64.6 191 196.4;"
	 xml:space="preserve">
<path style="fill:#F9B515;" d="M-44.3,40l31.9-12c0,0,1.9-1.2,2.2-2.2C-7.7,15.7,6.1-22.6,8.4-34.5c0.2-0.8-0.8-4.8-0.8-4.8
	L2.2-56.7c0,0-2-4.4,1.3-5.6c3.3-1.3,9-2.1,12.6-0.2c5.4,3,14.2,21.8,16.3,27.4c2.1,5.6,1.7,13.2,5,16.9c1,1.1,1.3,3.9,7.5,1.6
	s31.6-11.7,37-13.7s12,0.7,14.4,7c2.4,6.3,4.6,12.4,4.6,12.4c4.4-1.7,10.5-1.7,12.7,4.2c2.2,5.9,3.1,8.3,4.3,11.5
	c1.9,5.1-0.8,10.6-7,12.9c1.7,4.4,4,10.9,5.3,14.4c1.3,3.5-0.9,10.8-4.9,12.2c-4,1.5-4.9,1.8-4.9,1.8s2.4,6.3,3.3,8.8
	c0.9,2.5,1.6,6.3-2.6,7.9s-61.3,23-65.8,24.6c-11.2,4.2-25.4,0.8-33.2-1.3L-35,102.3l-20.8-55.6L-44.3,40z"/>
<path style="fill:#F4A10F;" d="M96.2-23.4c-2.4-6.3-9-9-14.4-7S51-19,44.8-16.7s-6.6-0.5-7.5-1.6c-3.2-3.7-2.9-11.3-5-16.9
	C30.2-40.7,21.4-59.5,16-62.5c-0.9-0.5-1.9-0.8-3-1c5.2,8,14.9,25.3,15.6,30c0.7,4.7,0.1,28.6,10.2,24.8
	c11.9-4.4,45.6-17.1,45.6-17.1S89-27.9,96.2-23.4z"/>
<path style="fill:#F4A10F;" d="M109.5,54.9c0.9,2.5,1.6,6.3-2.6,7.9s-61.3,23-65.8,24.6c-11.2,4.2-25.4,0.8-33.2-1.3L-35,102.3
	l-20.8-55.6l11.6-6.6L-15,29L3.2,77.4c0,0,19.2,9.4,39,2.5C62,72.9,109.5,54.9,109.5,54.9z"/>
<rect x="-83.5" y="49.8" transform="matrix(0.3509 0.9364 -0.9364 0.3509 49.2417 76.5265)" style="fill:#1E336C;" width="105.8" height="48"/>
<circle style="fill:#5D73A3;" cx="-43.7" cy="38.7" r="8"/>
<linearGradient id="SVGID_1_" gradientUnits="userSpaceOnUse" x1="27.2251" y1="-41.646" x2="31.5019" y2="91.6151" gradientTransform="matrix(0.9364 -0.3509 0.3509 0.9364 -11.7082 13.0436)">
	<stop  offset="0" style="stop-color:#FFFFFF"/>
	<stop  offset="0.8816" style="stop-color:#FFFFFF;stop-opacity:0"/>
</linearGradient>
<path style="opacity:0.4;fill:url(#SVGID_1_);" d="M100.9-11c0,0-2.3-6.1-4.6-12.4c-2.4-6.3-9-9-14.4-7S51-19,44.8-16.7
	s-6.6-0.5-7.5-1.6c-3.2-3.7-2.9-11.3-5-16.9C30.2-40.7,21.4-59.5,16-62.5c-0.5-0.3-1.1-0.5-1.7-0.7c-0.4-0.1-0.8-0.2-1.3-0.3l0,0
	c-3.3-0.5-7.1,0.2-9.6,1.2c-3.3,1.2-1.3,5.6-1.3,5.6l5.4,17.3c0,0,1,4,0.8,4.8C6.1-22.6-7.7,15.7-10.2,25.9c-0.2,1-2.2,2.2-2.2,2.2
	l-2.6,1l-5.9,2.2l-5.8-15.4l-44.9,16.8l37.1,99.1l44.9-16.8l-9.7-26l7.2-2.7c7.9,2.1,22,5.5,33.2,1.3c4.4-1.7,61.6-23.1,65.8-24.6
	s3.6-5.5,2.6-7.9c-0.9-2.5-3.3-8.8-3.3-8.8s0.9-0.4,4.9-1.8c4-1.5,6.2-8.7,4.9-12.2c-1.3-3.5-3.6-10-5.3-14.4c6.2-2.3,9-7.8,7-12.9
	c-1.2-3.2-2.1-5.6-4.3-11.5C111.3-12.6,105.3-12.7,100.9-11z"/>
<path style="opacity:5.000000e-002;fill:#FFFFFF;" d="M116.1,32c3.4,1.7-3.6-10-5.3-14.4c6.2-2.3,9-7.8,7-12.9
	c-1.2-3.2-2.1-5.6-4.3-11.5c-2.2-5.9-8.2-5.9-12.7-4.2c0,0-2.3-6.1-4.6-12.4c-2.4-6.3-9-9-14.4-7S51-19,44.8-16.7s-6.6-0.5-7.5-1.6
	c-3.2-3.7-2.9-11.3-5-16.9C30.2-40.7,21.4-59.5,16-62.5c-0.5-0.3-1.1-0.5-1.7-0.7c-0.4-0.1-0.8-0.2-1.3-0.3l0,0
	c-3.3-0.5-7.1,0.2-9.6,1.2c-3.3,1.2-1.3,5.6-1.3,5.6l5.4,17.3c0,0,1,4,0.8,4.8C6.1-22.6-7.7,15.7-10.2,25.9c-0.2,1-2.2,2.2-2.2,2.2
	l-2.6,1l-5.9,2.2l-5.8-15.4l-44.9,16.8l31.7,84.6C-35.7,60.1,53.2,0.7,116.1,32z"/>
</svg>
