<?xml version="1.0" encoding="utf-8"?>
<!-- Generator: Adobe Illustrator 16.0.0, SVG Export Plug-In . SVG Version: 6.00 Build 0)  -->
<!DOCTYPE svg PUBLIC "-//W3C//DTD SVG 1.1//EN" "http://www.w3.org/Graphics/SVG/1.1/DTD/svg11.dtd">
<svg version="1.1" id="Capa_1" xmlns="http://www.w3.org/2000/svg" xmlns:xlink="http://www.w3.org/1999/xlink" x="0px" y="0px"
	 width="106.5px" height="99.1px" viewBox="-72.6 -64.6 106.5 99.1" style="enable-background:new -72.6 -64.6 106.5 99.1;"
	 xml:space="preserve">
<path style="fill:#F54812;" d="M-54.9-21c-3.1,1.1-12.5,5.4-14.5,6.7c-1.2,0.8-2.8,1.1-1.8,3.7c0,0,1.3,3.9,1.3,3.9
	c-5.3,2.7-2.9,18.9,7.2,18.2c1.2,2.2,2.9,3.7,5.9,3.2c0.8,3.6,6,18.7,9.4,19.6s10-4,9.9-5.5c-0.1-1.5-5.4-8-5.3-9.3
	c1.3-1.4,0.4-7.2-2.7-7c-0.4-1.1,0.3-2.6,0.3-2.6s1.6,0.3,2.8,0.1c1.1-0.2-10-29.1-10.5-30.4C-53.6-21.7-54.9-21-54.9-21z"/>
<path style="fill:#F54812;" d="M-47.3-21.5c1.3,3.3,9.1,25.1,9.7,26.3s8.3-0.3,18.5,2S0,12.2,1.2,12.5s1.6-0.1,0.9-2.2
	s-21.2-58.2-22.3-59.7s-1.7-1.3-2.7,0.7s-19.4,23.2-23.7,24.9C-48-23.2-47.3-21.5-47.3-21.5z"/>
<path style="fill:#F54812;" d="M11.7,17.6c-1.8,0-3.4-1.2-3.9-3C0.1-16.1-15.5-51.2-19.2-58.9c-1-2-0.1-4.4,1.8-5.3
	c2-1,4.4-0.1,5.3,1.8c1.4,3,4.6,9.8,8.4,19c6.9,1.3,19.9,18.1,13,34.7c2.3,7.1,4.5,14.3,6.3,21.3c0.5,2.1-0.8,4.3-2.9,4.9
	C12.4,17.6,12.1,17.6,11.7,17.6z"/>
<path style="fill:none;stroke:#F54812;stroke-width:4;stroke-linecap:round;stroke-miterlimit:10;" d="M12.7-56.8
	c17.1,8.4,24.2,29.1,15.7,46.2"/>
<path style="fill:none;stroke:#F54812;stroke-width:4;stroke-linecap:round;stroke-miterlimit:10;" d="M7.5-46.6
	C19-40.9,23.8-26.9,18.1-15.4"/>
</svg>
