<?xml version="1.0" encoding="utf-8"?>
<!-- Generator: Adobe Illustrator 16.0.0, SVG Export Plug-In . SVG Version: 6.00 Build 0)  -->
<!DOCTYPE svg PUBLIC "-//W3C//DTD SVG 1.1//EN" "http://www.w3.org/Graphics/SVG/1.1/DTD/svg11.dtd">
<svg version="1.1" id="Capa_1" xmlns="http://www.w3.org/2000/svg" xmlns:xlink="http://www.w3.org/1999/xlink" x="0px" y="0px"
	 width="257.1px" height="159px" viewBox="-72.6 17.3 257.1 159" style="enable-background:new -72.6 17.3 257.1 159;"
	 xml:space="preserve">
<path style="fill:#F9B515;" d="M-35.8,112.6l45,22.3l36.4,22.5c0,0,15.1,13.1,18.6,15.1c5.9,2.3,14.3,1.6,14.1-5.9
	c5.1,4.7,17.6,3.9,15.6-6.5c6.3,6.1,16.6,2,15.8-7.2c11.5,5.5,15.8-5.9,13.5-15.1c-2.3-9.2-14.1-34.6-16.6-37.5
	c-2.5-2.9-51.8-32.1-56.5-34l14.3-12.5c0,0-8.4-14.9-52,0l-32.5-12.9L-35.8,112.6z"/>
<polygon style="fill:#F4A10F;" points="-35.8,112.6 -19.9,120.5 1,49.2 -20.1,40.8 "/>
<path style="fill:#F4A10F;" d="M0,115.6c4.5-5.5,16.7,2.4,13.7,9c5.7-8.4,20.5-1,16.4,8.2c6.8-6.1,19.4,2.2,13.5,12.3
	c7.2-6.3,17.4,2.7,13.5,11.1c-3.9,8.4-8.7,13.6-11.7,15.6c-4.7,3.1-14.5-1.2-13.7-9.6c-5.9,10.3-21.3,5.9-18.4-4.1
	c-5.3,3.3-18.2,0.4-14.5-12.3c-5.3,2.9-16-3.9-12.7-11.5C-10.6,126.7,0,115.6,0,115.6z"/>
<path style="fill:#F4A10F;" d="M118.1,50.4c1.3,2.5,27.2,55.5,27.2,55.5l-27.6,15.6l-13.8-15.1c0,0-41.3-21.7-45.6-21.7
	c-4.4,0-20.3,1.7-22,2.3c-1.7,0.6-11.7,14.3-13.4,16.7C17,112,2.1,108,4.7,95.2c2.5-12,17.4-27,20.1-28.1
	c2.7-1.1,30.5-12.3,42.4-11.2c16.7,1.5,21.2,5.6,28.1,3.5C102,57.3,118.1,50.4,118.1,50.4z"/>
<polygon style="fill:#1E336C;" points="-39.2,21.1 1,36 -32.7,126.9 -72.6,111.7 "/>
<circle style="fill:#5D73A3;" cx="-47.9" cy="107.2" r="6.5"/>
<path style="fill:#1E336C;" d="M-2.4,118.8c4.5-5.5,16.7,2.4,13.7,9c5.7-8.4,20.5-1,16.4,8.2c6.8-6.1,19.4,2.2,13.5,12.3
	c7.2-6.3,17.4,2.7,13.5,11.1c-3.9,8.4-8.7,13.6-11.7,15.6c-4.7,3.1-14.5-1.2-13.7-9.6c-5.9,10.3-21.3,5.9-18.4-4.1
	c-5.3,3.3-18.2,0.4-14.5-12.3c-5.3,2.9-16-3.9-12.7-11.5C-12.9,130-2.4,118.8-2.4,118.8z"/>
<path style="fill:#1E336C;" d="M121.8,43.2c1.4,2.5,25.4,67.1,25.4,67.1l-29.8,12.2l-10.3-21.3c0,0-42.7-22.4-47.2-22.4
	c-4.5,0-20.9,1.8-22.7,2.3c-1.8,0.6-16.3,17.6-18,20.1C16.2,106,2,108.4,4.7,95.2c2.5-12.4,18-33.6,20.7-34.8
	c2.7-1.2,31.5-12.7,43.8-11.5c17.2,1.6,21.9,5.8,29,3.6S121.8,43.2,121.8,43.2z"/>
<path style="fill:#172A56;" d="M121.8,43.2c1.4,2.5,25.4,67.1,25.4,67.1l-12.5,5.1c0,0-31.4-64.6-28.3-65.9
	C113.7,46.7,121.8,43.2,121.8,43.2z"/>
<polygon style="fill:#F9B515;" points="110,32.2 149.9,17.3 184.5,107.2 145,122.4 "/>
<circle style="fill:#E2900C;" cx="134.7" cy="40.8" r="7"/>
<linearGradient id="SVGID_1_" gradientUnits="userSpaceOnUse" x1="49.252" y1="269.7451" x2="57.1015" y2="81.9449">
	<stop  offset="0.3655" style="stop-color:#FFFFFF;stop-opacity:0"/>
	<stop  offset="1" style="stop-color:#FFFFFF"/>
</linearGradient>
<path style="opacity:0.2;fill:url(#SVGID_1_);" d="M184.5,107.2l-34.6-89.9L110,32.2l5.3,13.7c-0.1,0-0.2,0.1-0.3,0.1
	c-0.3,0.1-0.7,0.3-1,0.4c-0.2,0.1-0.4,0.1-0.5,0.2c-0.2,0.1-0.4,0.2-0.6,0.2c-0.2,0.1-0.4,0.1-0.5,0.2c-0.2,0.1-0.4,0.2-0.6,0.2
	c-0.3,0.1-0.7,0.3-1.1,0.4c-0.1,0.1-0.3,0.1-0.4,0.2c-0.3,0.1-0.5,0.2-0.8,0.3c-0.2,0.1-0.3,0.1-0.5,0.2c-0.3,0.1-0.7,0.3-1,0.4
	c-0.1,0-0.1,0.1-0.2,0.1c-0.4,0.2-0.8,0.3-1.2,0.5c-3.2,1.2-6.2,2.4-8.4,3c-7,2.2-11.8-2.1-29-3.6c-2.7-0.2-6.2,0.1-10.1,0.9
	c-6.4-3-19.9-5.1-46.8,4l-15.6-6.2L1,36l-40.2-15l-33.4,90.6l39.9,15.2l4-10.8l20,9.9c-0.6,0.8-1.2,1.6-1.7,2.4
	c-2.3,3.1-4.6,6.4-5.8,9.2c-3.3,7.6,7.4,14.5,12.7,11.5c-3.7,12.7,9.2,15.6,14.5,12.3c-2.9,10,12.5,14.4,18.4,4.1
	c-0.8,8.4,9,12.7,13.7,9.6c2-1.4,4.9-4.2,7.8-8.6c0.7-0.9,1.4-1.8,2.1-2.9c4.4,3.7,9.4,7.7,11.2,8.8c5.9,2.3,14.3,1.6,14.1-5.9
	c5.1,4.7,17.6,3.9,15.6-6.5c6.3,6.1,16.6,2,15.8-7.2c11.5,5.5,15.8-5.9,13.5-15.1c-0.9-3.5-3.1-9.3-5.7-15.4l17.3-7.1l0,0l6.5-2.7
	l3.8,9.7L184.5,107.2z"/>
<path style="opacity:0.1;fill:#FFFFFF;" d="M168.4,113.4l16.1-6.2l-34.6-89.9L110,32.2l5.3,13.7c-0.1,0-0.2,0.1-0.3,0.1
	c-0.3,0.1-0.7,0.3-1,0.4c-0.2,0.1-0.4,0.1-0.5,0.2c-0.2,0.1-0.4,0.2-0.6,0.2c-0.2,0.1-0.4,0.1-0.5,0.2c-0.2,0.1-0.4,0.2-0.6,0.2
	c-0.3,0.1-0.7,0.3-1.1,0.4c-0.1,0.1-0.3,0.1-0.4,0.2c-0.3,0.1-0.5,0.2-0.8,0.3c-0.2,0.1-0.3,0.1-0.5,0.2c-0.3,0.1-0.7,0.3-1,0.4
	c-0.1,0-0.1,0.1-0.2,0.1c-0.4,0.2-0.8,0.3-1.2,0.5c-3.2,1.2-6.2,2.4-8.4,3c-7,2.2-11.8-2.1-29-3.6c-2.7-0.2-6.2,0.1-10.1,0.9
	c-6.4-3-19.9-5.1-46.8,4l-15.6-6.2L1,36l-40.2-15l-33.4,90.6l26.4,10.1C2.5,98.5,101.1,88.4,168.4,113.4z"/>
</svg>
