<?xml version="1.0" encoding="utf-8"?>
<!-- Generator: Adobe Illustrator 16.0.0, SVG Export Plug-In . SVG Version: 6.00 Build 0)  -->
<!DOCTYPE svg PUBLIC "-//W3C//DTD SVG 1.1//EN" "http://www.w3.org/Graphics/SVG/1.1/DTD/svg11.dtd">
<svg version="1.1" id="Capa_1" xmlns="http://www.w3.org/2000/svg" xmlns:xlink="http://www.w3.org/1999/xlink" x="0px" y="0px"
	 width="237.1px" height="257.7px" viewBox="-227.1 -240.7 237.1 257.7" style="enable-background:new -227.1 -240.7 237.1 257.7;"
	 xml:space="preserve">
<g>
	<g>
		<path style="fill:#FAB616;" d="M-227.1-168.3v154.7c0,3.8,2.4,7.1,5.9,8.3l66.5,22.4v-173.2l-60.9-20.5
			C-221.3-178.5-227.1-174.3-227.1-168.3z"/>
		<path style="fill:#FAB616;" d="M-53.3-97.2c-2.5,2.7-5.7,4.5-9.2,5.4v84.5l60.9,20.5C4.1,15.1,9.9,10.9,9.9,5v-154.7
			c0-3.8-2.4-7.1-5.9-8.3l-12.6-4.3c-2.8,7.7-7.2,16.3-13.3,25.8C-30-124-40.8-110.4-53.3-97.2z"/>
		<path style="fill:#FAB616;" d="M-80.9-97.2c-12.1-12.9-22.8-26.4-31-39c-6.3-9.8-10.9-18.6-13.7-26.3l-19.1,6.4V17.1l72.4-24.4
			V-92C-75.6-92.9-78.6-94.7-80.9-97.2z"/>
		<path style="fill:#FAB616;" d="M-67-240.7c-0.1,0-0.1,0-0.1,0c-29.2,0-53.3,23.4-54.1,52.6c-0.1,5.1,0.4,10,1.6,14.7
			c0.5,2.5,1.2,5.2,2.3,8c5,13.8,13,26.3,21.9,37.9c5.8,7.5,17.8,27.5,28.4,27.5c11.3,0,24.3-22.2,30.1-30.2
			c7.9-10.7,15.6-22.3,20.1-35c1-2.9,1.8-5.7,2.3-8.2c1-4.2,1.6-8.6,1.6-13.1C-13-216.3-37.1-240.6-67-240.7z M-62.5-159.5
			c-1.5,0.2-3.1,0.4-4.6,0.4c-1.8,0-3.6-0.2-5.3-0.5c-8.5-1.6-15.6-6.9-19.7-14.2c-2.3-4.1-3.6-8.8-3.6-13.8
			c0-15.8,12.8-28.5,28.5-28.5s28.5,12.8,28.5,28.5c0,5.1-1.3,9.9-3.7,14C-46.4-166.3-53.8-160.9-62.5-159.5z"/>
	</g>
</g>
</svg>
