<?xml version="1.0" encoding="utf-8"?>
<!-- Generator: Adobe Illustrator 16.0.0, SVG Export Plug-In . SVG Version: 6.00 Build 0)  -->
<!DOCTYPE svg PUBLIC "-//W3C//DTD SVG 1.1//EN" "http://www.w3.org/Graphics/SVG/1.1/DTD/svg11.dtd">
<svg version="1.1" id="Capa_1" xmlns="http://www.w3.org/2000/svg" xmlns:xlink="http://www.w3.org/1999/xlink" x="0px" y="0px"
	 width="205.5px" height="241px" viewBox="-72.6 -64.6 205.5 241" style="enable-background:new -72.6 -64.6 205.5 241;"
	 xml:space="preserve">
<path style="fill:#F9B515;" d="M86.4,71.4v39.3c4.1,1.8,4.2,9,0,10.2v14.2l-1.5-4.1l-1.3,4.1l-1.4-4.4l-1.4,4.4v-14.2
	c-3.6-0.9-5-8,0.2-10.2V73.7L86.4,71.4z"/>
<path style="fill:#1E336C;" d="M38.2,145.3"/>
<g>
	<path style="fill:#F4A10F;" d="M51.2,22.5c-0.3-0.5-1.2-1.5-2.5-1.8c-1.3-0.3-2.8-1.3-3.4-1.1c-0.6,0.2-2.5-0.1-2.6,0.6
		c-0.2,0.6-1.4,1.3-1.7,1.4c-0.2,0.1-2,1.1-2,1.1s-1.6-1.7-2.3-1.5c-0.7,0.2-1.8,1.2-2.5,0c-0.7-1.2-1-1.5-1.4-2.1
		c-0.4-0.6-1.3-1.9-1.4-2.4c-0.1-0.6-1-0.3-0.4-1.9c0.6-1.6,0.6-1.6,0.6-1.6s-1.1,1.3-0.5-1.2c0.6-2.5,0.7-2.5,1-3.6
		c0.3-1,0.4-2.5,0.5-3.2c0.1-0.7,0.3-3-0.3-3.3c-0.6-0.3-1.1-1.9-2.8-2c-1.7-0.1-3.3-0.6-4.2-0.6c-0.9,0-3.2-0.1-4.3,0
		c-1.1,0.1-2.9-0.5-3.5,0c-0.6,0.4-1.7,1.1-2.3,1.1c-0.6-0.1,0.8-0.6,0-0.9c-0.8-0.3-3.2-0.2-2.7-1.2c0.6-1,0.3-2.5,0.6-3.5
		c0.2-0.9,0.8,0.9,1-1.1c0.2-2,2.9-5.6,2.7-6.4c-0.2-0.7-1-0.2-0.1-1.7c0.9-1.5,2.5-1.5,2.7-2.4c0.2-0.9-0.5-3.1-1.5-3
		c-1,0.1-1.3,0.4-2.2,0.4c-0.9,0-2-0.4-3.6,0c-1.7,0.4-4,0.9-4.4,1.4C7.4-17.5,6-14.6,6-14.4s0.1,2.7-0.8,2.8
		c-0.9,0.2-3.8,1-4.9,1.7c-1.1,0.6-3.2,1-3.7,1.2c-0.6,0.2-1.3,1.1-3-0.7c-1.7-1.8-2.4-1.7-3-2.5s2.3-1.3,0.9-3.1
		c-1.4-1.7-3.6-3.6-3.6-5.5c0-2-0.2-2.7,0-4.9c0.2-2.2-0.5-2.9,0-4.3c0.6-1.3,1.6-3.7,1.6-4.5s-0.1-1.9-1.1-1.7
		c-1,0.2-1.4,0.6-2.3,0c-0.9-0.6-1.3-0.9-1.7-1.3c-0.4-0.4-2.5-1.7-2.5-3.2c0.1-1.4-1.6-0.5-2.1-3.4c-0.6-2.9-4.2-5.1-5-5.5
		c-0.9-0.5-3-2-3.8-0.9c-0.8,1.1-0.8,3-2,2.2s-3.9-2.9-3.9-4c0.1-1.1-1-1.8-1.9-3.1c-0.9-1.3-1.7-2.8-3.1-3c-1.3-0.2-3.4-1-4.4-0.6
		c-0.9,0.4,0.1,2.1-3.6,1.3c-3.7-0.8-6.2-0.6-6.6-1c-0.4-0.5-4-1.7-5.4-2.9c-1.4-1.2-5.2-2.5-5.7-2.7c-0.5-0.2-3.5-0.1-3.9,0
		c-0.4,0.1-1.6-1-1.7-0.1c-0.1,0.9,0.3,3.8,0.7,4.2c0.4,0.4,2.7,4.1,3.5,6c0.8,1.9,0.6,3,1.7,3.4c1.1,0.4,1.4,1.9,2.1,2.8
		c0.7,0.9,0.9,3.1-0.4,3.2c-1.3,0.1-2.8-1.3-2.1-0.2c0.8,1.1-0.2,2.5,1.3,2.8c1.5,0.3,3.6-1.8,4.2-1.8c0.6-0.1,2.1,5,2.2,5.6
		c0.1,0.6,1.9,1.3,0.7,2.9c-1.2,1.7-1.2,2.2,0.8,3.7s1.3,2.3,2,3.5c0.7,1.2,1,3.6,1.9,3.4c0.9-0.2,3.4-2.8,3.4-2.8s-0.8-2-1.7-2.5
		c-0.9-0.5-0.7-1.3-1.6-1.7c-0.9-0.3-1-0.3-1.1-1.7c-0.1-1.3-0.2-2.1-1-3.4c-0.9-1.3-0.5-2.3-1.3-3.6c-0.9-1.3-1-2.9-1.7-3.5
		c-0.7-0.6-0.7-2.3-2.1-4c-1.4-1.7-2.8-2.4-3-4.2c-0.2-1.8-0.2-3.3-0.7-3.9c-0.5-0.6,1-2.1,2-1.9s3,0.9,2.9,1.7
		c-0.1,0.8-0.6,1.5,0.3,3c0.9,1.5,2.5-1.7,2.5-0.6c-0.1,1.1-0.2,1.3,1.2,3c1.4,1.7,1.5,1.9,1.9,2.8c0.4,0.9,1.7,1.4,2,2.3
		s-0.7,0.6,0.9,1.5c1.7,0.9,2.9,1.8,2.8,2.2c-0.2,0.4-1.7,0-0.4,2.1c1.3,2.1,2.8,2.1,3.1,2.9c0.2,0.8,1.7,3.2,3.4,4.7
		c1.7,1.4,1.8,1.4,3,4.3c1.2,2.8,1.3,4.3,1.3,5.5c0,1.2-0.6,0.7-0.8,2.3c-0.2,1.6,2.3,4.1,3.4,4.6c1.1,0.5,1.3,1.7,3.5,3.1
		c2.2,1.4,2.5,0.9,4,1.6c1.4,0.6,1.3,0.9,2.3,1.7c1,0.7,2.9,1.6,4.1,2.2c1.2,0.6,1.1,0.2,2.7,1.4c0.7,0.5,2.2,0.5,3.8,1.1
		c2.1,0.9,4.4,2.4,5.4,1.9c1.7-0.9,4.7-2,6.1-1.5c1.3,0.5,6.1,3.6,6.6,4.9c0.6,1.3,0.2,2,1.7,2.5c1.4,0.6,4.1,0.5,5.3,1
		c1.2,0.6-0.3,3.4,0.8,3.5c1.1,0.1,3.2-1.3,4.8-1.3c1.6,0,1.5-0.6,2.5-0.6c0.9,0,0.9,0,0.9,0s1,1.2,0.1,1.3
		c-0.9,0.1-0.6,0.6,0.4,1.4c0.9,0.8,1.2,2.5,3,3s2.2,2,2.2,2s0.5,0.6-0.1,2c-0.6,1.3-0.1,2.1,0.9,2.4c0.9,0.2,0.5,0.2,1.8,0.2
		c1.3-0.1,0.6,1.2,1.2,2.2c0.6,1,2.1,0.5,2.1,1.7c0,1.2-0.8,1.3,0.3,2c1.1,0.7,1.3,1.3,2.2,0.9s2.5-0.8,3.1,0.1s1.7,1.5,1.7,1.5
		s-0.9-1.3-0.5-0.6c0.4,0.7,0.8,0.9,2,0.4c1.2-0.5,2.1-0.2,1.1-0.9c-0.9-0.8,0.6-0.6,1.9-0.7c1.3-0.2,1.3-1.2,3.2-0.9
		c1.8,0.3,3.4-0.1,3.6,1.3c0.2,1.3,1.1,2.5,1.1,2.5s1.5-1.1,1.9-1.3c0.4-0.2,0.5-0.9,0.5-1.6C54.3,23.9,51.2,22.5,51.2,22.5z"/>
	<path style="fill:#F9B515;" d="M51.1,24.6c-0.3-0.5-1.2-1.5-2.5-1.8c-1.3-0.3-2.8-1.3-3.4-1.1c-0.6,0.2-2.5-0.1-2.6,0.6
		c-0.2,0.6-1.4,1.3-1.7,1.4c-0.2,0.1-2.5,0.9-2.5,0.9s-1.6-1.7-2.3-1.5c-0.7,0.2-1.8,1.2-2.5,0c-0.7-1.2-1-1.5-1.4-2.1
		c-0.4-0.6-1.9-2.3-2-2.8c-0.1-0.6-1-0.3-0.4-1.9c0.6-1.6,0.6-1.6,0.6-1.6s-1.1,1.3-0.5-1.2c0.6-2.5,0.7-2.5,1-3.6
		c0.3-1,0.4-2.5,0.5-3.2c0.1-0.7,0.3-3-0.3-3.3c-0.6-0.3-1.1-1.9-2.8-2c-1.7-0.1-3.3-0.6-4.2-0.6s-3.2-0.1-4.3,0
		c-1.1,0.1-2.9-0.5-3.5,0c-0.6,0.4-1.7,1.1-2.3,1.1c-0.6-0.1,0.8-0.6,0-0.9c-0.8-0.3,0.1-0.6,0.6-1.6s0.3-2.5,0.6-3.5
		c0.2-0.9,1.3-0.9,1.6-2.9c0.2-2,1.2-3.3,1-4c-0.2-0.7-1-0.2-0.1-1.7c0.9-1.5,1.3-2.5,1.6-3.3s0.6-2.1-0.4-2.1s-1.3,0.4-2.2,0.4
		c-0.9,0-2-0.4-3.6,0c-1.7,0.4-4,0.9-4.4,1.4c-0.4,0.5-1.8,3.3-1.8,3.6c0,0.2,0.1,2.7-0.8,2.8C5.3-9.8,2.3-9,1.2-8.3
		C0.1-7.7-3.4-7.7-3.9-7.5c-0.6,0.2-1.3,1.1-3-0.7c-1.7-1.8-2.4-1.7-3-2.5c-0.6-0.8,0.5-1.7-0.9-3.4c-1.4-1.7-3.6-3.6-3.6-5.5
		s-0.2-2.7,0-4.9c0.2-2.2,0.1-2.1,0.6-3.5c0.6-1.3,1.6-3.7,1.6-4.5c0-0.8-0.1-1.9-1.1-1.7c-1,0.2-1.4,0.6-2.3,0
		c-0.9-0.6-1.3-0.9-1.7-1.3c-0.4-0.4-2.5-1.7-2.5-3.2c0.1-1.4-1.6-0.5-2.1-3.4c-0.6-2.9-2.3-4.7-3.2-5.2c-0.9-0.5-3-2-3.8-0.9
		c-0.8,1.1-0.5,3.6-1.7,2.8s-4.4-3-4.4-4.1c0.1-1.1-1-1.8-1.9-3.1c-0.9-1.3-1.7-2.8-3.1-3c-1.3-0.2-3.4-1-4.4-0.6
		c-0.9,0.4,0.1,2.1-3.6,1.3c-3.7-0.8-6.2-0.6-6.6-1c-0.4-0.5-4-1.7-5.4-2.9c-1.4-1.2-5.2-2.5-5.7-2.7c-0.5-0.2-3.5-0.1-3.9,0
		c-0.4,0.1-1.6-1-1.7-0.1c-0.1,0.9,0.3,3.8,0.7,4.2c0.4,0.4,0.9,1.8,1.7,3.7c0.8,1.9,0.6,3,1.7,3.4c1.1,0.4,1.4,1.9,2.1,2.8
		c0.7,0.9,0.9,3.1-0.4,3.2s-2.8-1.3-2.1-0.2c0.8,1.1-0.2,2.5,1.3,2.8c1.5,0.3,2.4,1.8,3,1.7c0.6-0.1,3.3,1.4,3.4,2
		c0.1,0.6,1.9,1.3,0.7,2.9c-1.2,1.7-1.2,2.2,0.8,3.7c2,1.5,2.8,2.2,3.6,3.4c0.7,1.2,0.6,2.5,1.4,2.3c0.9-0.2,2.3-1.6,2.3-1.6
		s-0.8-2-1.7-2.5c-0.9-0.5-0.7-1.3-1.6-1.7c-0.9-0.3-1-0.3-1.1-1.7c-0.1-1.3-0.2-2.1-1-3.4c-0.9-1.3-0.5-2.3-1.3-3.6
		c-0.9-1.3-1-2.9-1.7-3.5c-0.7-0.6-0.7-2.3-2.1-4c-1.4-1.7-2.8-2.4-3-4.2c-0.2-1.8-0.2-3.3-0.7-3.9c-0.5-0.6,1-2.1,2-1.9
		c0.9,0.2,3,0.9,2.9,1.7c-0.1,0.8-0.6,1.5,0.3,3c1,1.5,1.3,1.9,1.3,3s-0.2,1.3,1.2,3c1.4,1.7,1.5,1.9,1.9,2.8c0.4,0.9,1.7,1.4,2,2.3
		c0.3,0.9-0.7,0.6,0.9,1.5c1.7,0.9,2.9,1.8,2.8,2.2c-0.2,0.4-1.7,0-0.4,2.1c1.3,2.1,2.8,2.1,3.1,2.9s1.7,3.2,3.4,4.7
		c1.7,1.4,1.8,1.4,3,4.3c1.2,2.8,1.3,4.3,1.3,5.5c0,1.2-0.6,0.7-0.8,2.3c-0.2,1.6,2.3,4.1,3.4,4.6c1.1,0.5,1.3,1.7,3.5,3.1
		c2.2,1.4,2.5,0.9,4,1.6c1.4,0.6,1.3,0.9,2.3,1.7c1,0.7,2.9,1.6,4.1,2.2c1.2,0.6,1.1,0.2,2.7,1.4c0.7,0.5,2.2,0.5,3.8,1.1
		c2.1,0.9,4.4,2.4,5.4,1.9c1.7-0.9,4.7-2,6.1-1.5C-3.6,0,1.1,3.1,1.7,4.5c0.6,1.3,0.2,2,1.7,2.5c1.4,0.6,4.1,0.5,5.3,1
		c1.2,0.6,1.3,1.1,2.5,1.2c1.1,0.1,1.5,1,3.1,1c1.6,0,1.5-0.6,2.5-0.6s0.9,0,0.9,0s1,1.2,0.1,1.3c-0.9,0.1-0.6,0.6,0.4,1.4
		c0.9,0.8,1.2,2.5,3,3c1.8,0.6,2.2,2,2.2,2s0.5,0.6-0.1,2c-0.6,1.3-0.1,2.1,0.9,2.4c0.9,0.2,0.5,0.2,1.8,0.2
		c1.3-0.1,1.7-0.4,2.3,0.6c0.6,0.9,2.1,0.5,2.1,1.7c0,1.2-0.8,1.3,0.3,2c1.1,0.7,1.3,1.3,2.2,0.9c0.9-0.4,2.5-0.8,3.1,0.1
		c0.6,1,1.7,1.5,1.7,1.5s1.3,0.2,1.7,0.9c0.4,0.7,0.8,0.9,2,0.4c1.2-0.5,2.1-0.2,1.1-0.9c-0.9-0.8-1.5-2.1-0.2-2.2
		c1.3-0.2,1.3-1.2,3.2-0.9c1.8,0.3,3.4-0.1,3.6,1.3c0.2,1.3,1.1,2.5,1.1,2.5s1.5-1.1,1.9-1.3c0.4-0.2,0.5-0.9,0.5-1.6
		C52.5,26.1,51.1,24.6,51.1,24.6z"/>
</g>
<linearGradient id="SVGID_1_" gradientUnits="userSpaceOnUse" x1="44.7456" y1="33.71" x2="-28.9867" y2="-33.0708">
	<stop  offset="0.3655" style="stop-color:#FFFFFF;stop-opacity:0"/>
	<stop  offset="1" style="stop-color:#FFFFFF"/>
</linearGradient>
<path style="opacity:0.4;fill:url(#SVGID_1_);" d="M51.2,22.5c-0.3-0.5-1.2-1.5-2.5-1.8c-1.3-0.3-2.8-1.3-3.4-1.1
	c-0.6,0.2-2.5-0.1-2.6,0.6c-0.2,0.6-1.4,1.3-1.7,1.4c-0.2,0.1-2,1.1-2,1.1s-1.6-1.7-2.3-1.5c-0.7,0.2-1.8,1.2-2.5,0
	c-0.7-1.2-1-1.5-1.4-2.1c-0.4-0.6-1.3-1.9-1.4-2.4c-0.1-0.6-1-0.3-0.4-1.9c0.6-1.6,0.6-1.6,0.6-1.6s-1.1,1.3-0.5-1.2
	c0.6-2.5,0.7-2.5,1-3.6c0.3-1,0.4-2.5,0.5-3.2c0.1-0.7,0.3-3-0.3-3.3c-0.6-0.3-1.1-1.9-2.8-2c-1.7-0.1-3.3-0.6-4.2-0.6
	c-0.9,0-3.2-0.1-4.3,0c-1.1,0.1-2.9-0.5-3.5,0c-0.6,0.4-1.7,1.1-2.3,1.1c-0.6-0.1,0.8-0.6,0-0.9c-0.2-0.1-0.4-0.1-0.6-0.2
	c0.5-1,0.3-2.5,0.5-3.5c0.2-0.9,1.3-0.9,1.6-2.9c0.2-2,1.2-3.3,1-4c-0.2-0.7-1-0.2-0.1-1.7c0.9-1.5,1.3-2.5,1.6-3.3
	c0.1-0.2,0.1-0.4,0.2-0.6l0,0c0,0,0,0,0,0c0.1-0.6,0.2-1.1-0.1-1.4c-0.2-0.8-0.8-1.7-1.4-1.6c-1,0.1-1.3,0.4-2.2,0.4
	c-0.9,0-2-0.4-3.6,0c-1.7,0.4-4,0.9-4.4,1.4C7.4-17.5,6-14.6,6-14.4s0.1,2.7-0.8,2.8c-0.9,0.2-3.8,1-4.9,1.7c-1.1,0.6-3.2,1-3.7,1.2
	c-0.6,0.2-1.3,1.1-3-0.7c-1.7-1.8-2.4-1.7-3-2.5s2.3-1.3,0.9-3.1c-1.4-1.7-3.6-3.6-3.6-5.5c0-2-0.2-2.7,0-4.9c0.2-2.2-0.5-2.9,0-4.3
	c0.6-1.3,1.6-3.7,1.6-4.5s-0.1-1.9-1.1-1.7c-1,0.2-1.4,0.6-2.3,0c-0.9-0.6-1.3-0.9-1.7-1.3c-0.4-0.4-2.5-1.7-2.5-3.2
	c0.1-1.4-1.6-0.5-2.1-3.4c-0.6-2.9-4.2-5.1-5-5.5c-0.9-0.5-3-2-3.8-0.9c-0.8,1.1-0.8,3-2,2.2s-3.9-2.9-3.9-4c0.1-1.1-1-1.8-1.9-3.1
	c-0.9-1.3-1.7-2.8-3.1-3c-1.3-0.2-3.4-1-4.4-0.6c-0.9,0.4,0.1,2.1-3.6,1.3c-3.7-0.8-6.2-0.6-6.6-1c-0.4-0.5-4-1.7-5.4-2.9
	c-1.4-1.2-5.2-2.5-5.7-2.7c-0.5-0.2-3.5-0.1-3.9,0c-0.4,0.1-1.6-1-1.7-0.1c0,0.4,0,1.3,0.2,2.1c-0.1,0-0.1,0.1-0.2,0.3
	c-0.1,0.9,0.3,3.8,0.7,4.2c0.4,0.4,0.9,1.8,1.7,3.7c0.8,1.9,0.6,3,1.7,3.4c1.1,0.4,1.4,1.9,2.1,2.8c0.5,0.7,0.8,2.1,0.3,2.8
	c-0.9-0.3-1.6-0.8-1,0c0.1,0.1,0.2,0.3,0.2,0.4c-1.2,0-2.7-1.3-2-0.2c0.8,1.1-0.2,2.5,1.3,2.8c1.5,0.3,2.4,1.8,3,1.7
	c0.6-0.1,3.3,1.4,3.4,2c0.1,0.6,1.9,1.3,0.7,2.9c-1.2,1.7-1.2,2.2,0.8,3.7c2,1.5,2.8,2.2,3.6,3.4c0.6,1,0.6,2.1,1.1,2.3
	c0.2,0.6,0.5,1.1,0.9,1c0.9-0.2,3.4-2.8,3.4-2.8s-0.8-2-1.7-2.5c-0.9-0.5-0.7-1.3-1.6-1.7c-0.9-0.3-1-0.3-1.1-1.7
	c-0.1-1.3-0.2-2.1-1-3.4c-0.9-1.3-0.5-2.3-1.3-3.6c-0.9-1.3-1-2.9-1.7-3.5c-0.7-0.6-0.7-2.3-2.1-4c-1.4-1.7-2.8-2.4-3-4.2
	c-0.2-1.8-0.2-3.3-0.7-3.9c-0.3-0.3,0.2-1.1,0.8-1.6c1,0.3,2.4,0.8,2.3,1.5c-0.1,0.8-0.6,1.5,0.3,3c1,1.5,1.3,1.9,1.3,3
	s-0.2,1.3,1.2,3c1.4,1.7,1.5,1.9,1.9,2.8c0.4,0.9,1.7,1.4,2,2.3c0.3,0.9-0.7,0.6,0.9,1.5c1.7,0.9,2.9,1.8,2.8,2.2
	c-0.2,0.4-1.7,0-0.4,2.1c1.3,2.1,2.8,2.1,3.1,2.9s1.7,3.2,3.4,4.7c1.7,1.4,1.8,1.4,3,4.3c1.2,2.8,1.3,4.3,1.3,5.5
	c0,1.2-0.6,0.7-0.8,2.3c-0.2,1.6,2.3,4.1,3.4,4.6c1.1,0.5,1.3,1.7,3.5,3.1c2.2,1.4,2.5,0.9,4,1.6c1.4,0.6,1.3,0.9,2.3,1.7
	c1,0.7,2.9,1.6,4.1,2.2c1.2,0.6,1.1,0.2,2.7,1.4c0.7,0.5,2.2,0.5,3.8,1.1c2.1,0.9,4.4,2.4,5.4,1.9c1.7-0.9,4.7-2,6.1-1.5
	C-3.6,0,1.1,3.1,1.7,4.5c0.6,1.3,0.2,2,1.7,2.5c1.4,0.6,4.1,0.5,5.3,1c1.2,0.6,1.3,1.1,2.5,1.2c1.1,0.1,1.5,1,3.1,1
	c1.6,0,1.5-0.6,2.5-0.6s0.9,0,0.9,0s1,1.2,0.1,1.3c-0.9,0.1-0.6,0.6,0.4,1.4c0.9,0.8,1.2,2.5,3,3c1.8,0.6,2.2,2,2.2,2s0.5,0.6-0.1,2
	c-0.6,1.3-0.1,2.1,0.9,2.4c0.9,0.2,0.5,0.2,1.8,0.2c1.3-0.1,1.7-0.4,2.3,0.6c0.6,0.9,2.1,0.5,2.1,1.7c0,1.2-0.8,1.3,0.3,2
	c1.1,0.7,1.3,1.3,2.2,0.9c0.9-0.4,2.5-0.8,3.1,0.1c0.6,1,1.7,1.5,1.7,1.5s1.3,0.2,1.7,0.9c0.4,0.7,0.8,0.9,2,0.4
	c1.2-0.5,2.1-0.2,1.1-0.9c-0.9-0.8-1.5-2.1-0.2-2.2c1.3-0.2,1.3-1.2,3.2-0.9c1.8,0.3,3.4-0.1,3.6,1.3c0.2,1.3,1.1,2.5,1.1,2.5
	s1.5-1.1,1.9-1.3c0.3-0.2,0.4-0.7,0.5-1.2c0.5-0.3,1.1-0.8,1.3-0.9c0.4-0.2,0.5-0.9,0.5-1.6C54.3,23.9,51.2,22.5,51.2,22.5z"/>
<g>
	<path style="fill:#1E336C;" d="M122.3,85.2c3.9,8.5-2.8,20.7-14.9,20.7c-18,0-25.8-16.6-33.3-31.6l6.6,0.7L67.2,57.6l-9,17.8l6-0.2
		c5.9,21.2,16.2,40.4,39.5,41.7c15.9,0.9,31.8-7.9,20.8-36.5C113.4,51.9,122.3,85.2,122.3,85.2z"/>
</g>
<path style="fill:#F4A10F;" d="M64,23.7c-0.9-0.6-2.1-1.7-3.6-1.5c-1.5,0.2-4.7,2.1-5.5,3.8c-0.9,1.7-1.9,2.8-3.2,4.5
	c-1.3,1.7-3.2,4.9-1.7,8.5c0.6,1.9-3.4,6.8-5.5,9.2c-2.1,2.3-1.5,8.1,0,8.1c1.5,0-1.3,1.3-0.4,3.4c0.9,2.1,1.9,2.8,3.8,4.9
	c1.9,2.1,5.3,15.8,9.4,17.9c4,2.1,8.3,3.2,8.3,5.7c0,2.6-1.9,15.3-1.5,17c0.4,1.7-0.4,4-0.6,7.5c-0.2,3.4-0.2,5.5-0.2,5.5
	s-1.1,3.2-1.1,4c0,0.9-3,3-3.2,6.8c-0.2,3.8,1.3,8.5,0,10.9c-1.3,2.3-2.1,6.6-2.1,6.6h1.9l0.6,4.5c0,0-2.8,0.6-3.2,3.4s-0.4,6,0.9,7
	c1.3,1.1,0.4,6.6,2.1,8.7c1.7,2.1,3.9,4.8,12.4,5.2c8.5,0.4-1.1-5.4-2.6-6.5c-1.5-1.1-3.6-3-3.8-3.6c-0.2-0.6,0.1-4.3,1.4-4.6
	c1.3-0.2,5.4-4.7,5.6-5.9c0.2-1.3-5.1-2.1-4.5-4.5c0.6-2.3,3.6-1.2,4.8-1.4c1.3-0.2,0.4-5.3-0.1-5.9c-0.4-0.6-0.9-3.6,1.1-2.6
	c1.9,1.1,2.1,1.1,4.7,0c2.6-1.1-0.1-5.8,2-5.8s2.6,1.3,5.1,0.6c2.6-0.6,5.1-2.6,5.5-3.6c0.4-1.1-0.8-2.1-0.8-2.1s-4.3-5.7-2.1-4.7
	c2.1,1.1,4.6,2.1,6.5,1c1.9-1.1,6-4.7,6-7s1.9-4.3,1.9-4.3c2.3-0.2-0.9,1.3,0,1.5c0.9,0.2,3.4-4,3.4-5.3c0-1.3-1.7-4.5,0-6.6
	c1.7-2.1,4.7-6,5.5-6c0.9,0,4.9-1.9,6.8-1.9s2.8,1.7,4.7-0.9c1.9-2.6,3.4-6.6,3.4-11.7c0-5.1,2.3-12.1,4.3-12.6s3-0.6,2.3-4
	c-0.6-3.4-1.1-5.1,0.2-6.2c1.3-1.1-3.4-7.4-6-7.4c-2.6,0-3.5-3-7.1-3s-6.6-3-9.6-3.2c-3-0.2-9.9-0.6-8.4-2.4c2-2.4-0.2-4.5-0.2-4.5
	s1.1-4-2.1-5.5c-3.2-1.5-9.3-5.2-13-4c-5.1,1.5-1.3-4.9-6.2-6.2c-4.9-1.3-7.2,0.8-8.4,0.6C65.5,24.5,64,23.7,64,23.7z"/>
<path style="fill:#F9B515;" d="M59.2,21.1c-0.9-0.6-2.1-1.7-3.6-1.5c-1.5,0.2-4.7,2.1-5.5,3.8c-0.9,1.7-1.9,2.8-3.2,4.5
	c-1.3,1.7-3.2,4.9-1.7,8.5c0.6,1.9-3.4,6.8-5.5,9.2c-2.1,2.3-1.5,8.1,0,8.1c1.5,0-1.3,1.3-0.4,3.4c0.9,2.1,1.9,2.8,3.8,4.9
	c1.9,2.1,5.3,15.8,9.4,17.9c4,2.1,8.3,3.2,8.3,5.7c0,2.6-1.9,15.3-1.5,17c0.4,1.7-0.4,4-0.6,7.5c-0.2,3.4-0.2,5.5-0.2,5.5
	s-1.1,3.2-1.1,4c0,0.9-3,3-3.2,6.8c-0.2,3.8,1.3,8.5,0,10.9c-1.3,2.3-2.1,6.6-2.1,6.6h1.9l0.6,4.5c0,0-2.8,0.6-3.2,3.4s-0.4,6,0.9,7
	c1.3,1.1,0.4,6.6,2.1,8.7s5.3,6.8,13.8,7.2c8.5,0.4,0.4-3.4-1.1-4.5c-1.5-1.1-3.6-3-3.8-3.6c-0.2-0.6-1.3-6.4,0-6.6
	c1.3-0.2,4.3-4.5,4.5-5.7c0.2-1.3-5.1-2.1-4.5-4.5c0.6-2.3,3.2-3.4,4.5-3.6c1.3-0.2,2.6-7,2.1-7.7c-0.4-0.6-0.9-3.6,1.1-2.6
	c1.9,1.1,1.9,2.8,4.5,1.7c2.6-1.1-2.1-5.7,0-5.7c2.1,0,2.6,1.3,5.1,0.6c2.6-0.6,5.1-2.6,5.5-3.6c0.4-1.1,0-3.6,0-3.6
	s-4.3-5.7-2.1-4.7c2.1,1.1,3.8,3.6,5.7,2.6c1.9-1.1,6-4.7,6-7s1.9-4.3,1.9-4.3c2.3-0.2-0.9,1.3,0,1.5c0.9,0.2,3.4-4,3.4-5.3
	c0-1.3-1.7-4.5,0-6.6c1.7-2.1,4.7-6,5.5-6c0.9,0,4.9-1.9,6.8-1.9c1.9,0,2.8,1.7,4.7-0.9c1.9-2.6,3.4-6.6,3.4-11.7
	c0-5.1,2.3-12.1,4.3-12.6c1.9-0.4,3-0.6,2.3-4c-0.6-3.4-1.1-5.1,0.2-6.2c1.3-1.1-5.9-6.4-8.5-6.4c-2.6,0-3,1.1-6.6,1.1
	c-3.6,0-3.6-4-6.6-4.3c-3-0.2-8.9,0.6-9.6,0c-0.6-0.6-0.6-3.6,1.5-4.5c2.1-0.9-0.4-3.4-0.4-3.4s1.9-3.2-1.3-4.7
	c-3.2-1.5-5.7-3-9.6-3.2c-3.8-0.2-3.2,2.8-5.7-2.8c-2.6-5.5,1.7-4.9-3.2-6.2c-4.9-1.3-9.8-1.1-11.1-1.3C60.7,22,59.2,21.1,59.2,21.1
	z"/>
<linearGradient id="SVGID_2_" gradientUnits="userSpaceOnUse" x1="61.2979" y1="151.3271" x2="93.3455" y2="29.6045">
	<stop  offset="0.3655" style="stop-color:#FFFFFF;stop-opacity:0"/>
	<stop  offset="1" style="stop-color:#FFFFFF"/>
</linearGradient>
<path style="opacity:0.4;fill:url(#SVGID_2_);" d="M126.9,53.5c-2.6,0-3.5-3-7.1-3s-6.6-3-9.6-3.2c-3-0.2-9.9-0.6-8.4-2.4
	c2-2.4-0.2-4.5-0.2-4.5s1.1-4-2.1-5.5c-3.2-1.5-9.3-5.2-13-4c-5.1,1.5-1.3-4.9-6.2-6.2c-0.4-0.2-1-0.4-2.1-0.7
	c-4.9-1.3-9.8-1.1-11.1-1.3c-6.4-0.9-7.9-1.7-7.9-1.7c-0.9-0.6-2.1-1.7-3.6-1.5c-1.5,0.2-4.7,2.1-5.5,3.8c-0.9,1.7-1.9,2.8-3.2,4.5
	c-1.3,1.7-3.2,4.9-1.7,8.5c0.6,1.9-3.4,6.8-5.5,9.2c-2.1,2.3-1.5,8.1,0,8.1c1.5,0-1.3,1.3-0.4,3.4c0.9,2.1,1.9,2.8,3.8,4.9
	c1.9,2.1,5.3,15.8,9.4,17.9c1.3,0.7,2.5,1.2,3.7,1.7c0.3,0.4,0.7,0.6,1.1,0.8c0.9,0.4,1.7,0.8,2.5,1.2c0.6,0.6,1,1.2,1,2
	c0,2.6-1.9,15.3-1.5,17c0.4,1.7-0.4,4-0.6,7.5c-0.2,3.4-0.2,5.5-0.2,5.5s-1.1,3.2-1.1,4c0,0.9-3,3-3.2,6.8c-0.2,3.8,1.3,8.5,0,10.9
	c-1.3,2.3-2.1,6.6-2.1,6.6h1.9l0.6,4.5c0,0-2.8,0.6-3.2,3.4s-0.4,6,0.9,7c1.3,1.1,0.4,6.6,2.1,8.7c1.6,1.9,4.7,6,11.7,7
	c1.5,0.4,3.3,0.6,5.5,0.7c8.5,0.4-1.1-5.4-2.6-6.5c-1.5-1.1-3.6-3-3.8-3.6c-0.2-0.6,0.1-4.3,1.4-4.6c1.3-0.2,5.4-4.7,5.6-5.9
	c0.2-1.3-5.1-2.1-4.5-4.5c0.6-2.3,3.6-1.2,4.8-1.4c1.3-0.2,0.4-5.3-0.1-5.9c-0.4-0.6-0.9-3.6,1.1-2.6c1.9,1.1,2.1,1.1,4.7,0
	c2.6-1.1-0.1-5.8,2-5.8s2.6,1.3,5.1,0.6c2.6-0.6,5.1-2.6,5.5-3.6c0.4-1.1-0.8-2.1-0.8-2.1s-4.3-5.7-2.1-4.7c2.1,1.1,4.6,2.1,6.5,1
	c1.9-1.1,6-4.7,6-7s1.9-4.3,1.9-4.3c2.3-0.2-0.9,1.3,0,1.5c0.9,0.2,3.4-4,3.4-5.3c0-1.3-1.7-4.5,0-6.6c1.7-2.1,4.7-6,5.5-6
	c0.9,0,4.9-1.9,6.8-1.9s2.8,1.7,4.7-0.9c1.9-2.6,3.4-6.6,3.4-11.7c0-5.1,2.3-12.1,4.3-12.6s3-0.6,2.3-4c-0.6-3.4-1.1-5.1,0.2-6.2
	C134.2,59.9,129.5,53.5,126.9,53.5z"/>
<g>
	<path style="fill:#3F5891;" d="M25.6,147c-17.3,0-27.2-13.2-27.2-35.7c0-23.9,13.4-40.6,31.5-40.6c8.8,0,13.7,3.9,20.1,10.3
		L38.3,95.4c-3.6-3.6-6.5-5.7-11-5.7c-6.6,0-10.7,4.3-11,11.5c2.7-2.3,5.9-6.6,10.7-6.6c14.6,0,25.8,13.3,25.8,26.9
		C52.7,135.8,41.1,147,25.6,147z M34.3,121.5c0-4.8-3.9-8.6-8.7-8.6c-4.8,0-8.7,3.8-8.7,8.6c0,5,4.1,9.3,8.7,9.3
		C30.2,130.8,34.3,126.5,34.3,121.5z"/>
</g>
<g>
	<path style="fill:#1E336C;" d="M22.5,142.9c-17.3,0-27.2-13.2-27.2-35.7c0-23.9,11-38.3,29.2-38.3c8.8,0,16.6,3.4,23,9.8L36.8,91.1
		c-3.6-3.6-8.1-5.5-12.6-5.5c-6.6,0-10.7,4.3-11,11.5c2.7-2.3,6.2-3.5,11-3.5c14.6,0,25.5,10.2,25.5,23.8
		C49.6,131.7,38,142.9,22.5,142.9z M31.2,117.4c0-4.8-3.9-8.6-8.7-8.6c-4.8,0-8.7,3.8-8.7,8.6c0,5,4.1,9.3,8.7,9.3
		C27.1,126.7,31.2,122.4,31.2,117.4z"/>
</g>
<g style="opacity:0.1;">
	<linearGradient id="SVGID_3_" gradientUnits="userSpaceOnUse" x1="22.2983" y1="129.4673" x2="22.6544" y2="87.8054">
		<stop  offset="0" style="stop-color:#FFFFFF;stop-opacity:0"/>
		<stop  offset="1" style="stop-color:#FFFFFF"/>
	</linearGradient>
	<path style="fill:url(#SVGID_3_);" d="M22.5,142.9c-17.3,0-27.2-13.2-27.2-35.7c0-23.9,11-38.3,29.2-38.3c8.8,0,16.6,3.4,23,9.8
		L36.8,91.1c-3.6-3.6-8.1-5.5-12.6-5.5c-6.6,0-10.7,4.3-11,11.5c2.7-2.3,6.2-3.5,11-3.5c14.6,0,25.5,10.2,25.5,23.8
		C49.6,131.7,38,142.9,22.5,142.9z M31.2,117.4c0-4.8-3.9-8.6-8.7-8.6c-4.8,0-8.7,3.8-8.7,8.6c0,5,4.1,9.3,8.7,9.3
		C27.1,126.7,31.2,122.4,31.2,117.4z"/>
</g>
<g style="opacity:5.000000e-002;">
	<path style="fill:#FFFFFF;" d="M30.7,114.5c-1.2-3.3-4.4-5.6-8.2-5.6c-2.4,0-4.6,0.9-6.1,2.5c-2.8-0.6-16.9-3.5-21.1-4.1
		c0-23.9,11-38.3,29.2-38.3c8.8,0,16.6,3.4,23,9.8L36.8,91.1c-3.6-3.6-8.1-5.5-12.6-5.5c-6.6,0-10.7,4.3-11,11.5
		c2.7-2.3,6.2-3.5,11-3.5c14.6,0,25.5,10.2,25.5,23.8C46,117,40.7,116.1,30.7,114.5z"/>
</g>
<g>
	<path style="fill:#1E336C;" d="M122.6,95.4c-2,5.7-7.5,10.5-15.1,10.5c-18,0-25.8-16.6-33.3-31.6l6.6,0.7L67.2,57.6l-9,17.8l6-0.2
		c5.9,21.2,16.2,40.4,39.5,41.7c15,0.9,30-6.9,22.4-31.7"/>
</g>
</svg>
