<?xml version="1.0" encoding="utf-8"?>
<!-- Generator: Adobe Illustrator 16.0.0, SVG Export Plug-In . SVG Version: 6.00 Build 0)  -->
<!DOCTYPE svg PUBLIC "-//W3C//DTD SVG 1.1//EN" "http://www.w3.org/Graphics/SVG/1.1/DTD/svg11.dtd">
<svg version="1.1" id="Capa_1" xmlns="http://www.w3.org/2000/svg" xmlns:xlink="http://www.w3.org/1999/xlink" x="0px" y="0px"
	 width="15.8px" height="16px" viewBox="0 0 15.8 16" style="enable-background:new 0 0 15.8 16;" xml:space="preserve">
<g>
	<polygon style="fill:#D9F0FF;" points="12,16 0,16 0,0 8.4,0 12,3.5 	"/>
	<polygon style="fill:#9CD6EF;" points="8.6,1.2 8.4,3.5 12,4.3 12,3.5 	"/>
	<polygon style="fill:#BBE7FF;" points="8.4,0 8.4,3.5 12,3.5 	"/>
	<line style="fill:none;stroke:#9CD6EF;stroke-width:0.5;stroke-miterlimit:10;" x1="1.8" y1="5.7" x2="10.2" y2="5.7"/>
	<line style="fill:none;stroke:#9CD6EF;stroke-width:0.5;stroke-miterlimit:10;" x1="1.8" y1="8" x2="10.2" y2="8"/>
	<line style="fill:none;stroke:#9CD6EF;stroke-width:0.5;stroke-miterlimit:10;" x1="1.8" y1="10.3" x2="10.2" y2="10.3"/>
	<line style="fill:none;stroke:#9CD6EF;stroke-width:0.5;stroke-miterlimit:10;" x1="1.8" y1="12.6" x2="10.2" y2="12.6"/>
</g>
<ellipse style="fill:#9CD6EF;" cx="11.2" cy="11.5" rx="4.3" ry="4.4"/>
<circle style="fill:#FAB61B;" cx="11.5" cy="11.5" r="4.3"/>
<polygon style="fill:#EAA315;" points="13.5,9.8 11.5,11.8 10.5,10.8 9.5,11.8 11.5,13.8 14.5,10.8 "/>
<polygon style="fill:#0D225E;" points="13.2,9.5 11.2,11.5 10.2,10.5 9.2,11.5 11.2,13.5 14.2,10.5 "/>
</svg>
