<?xml version="1.0" encoding="utf-8"?>
<!-- Generator: Adobe Illustrator 16.0.0, SVG Export Plug-In . SVG Version: 6.00 Build 0)  -->
<!DOCTYPE svg PUBLIC "-//W3C//DTD SVG 1.1//EN" "http://www.w3.org/Graphics/SVG/1.1/DTD/svg11.dtd">
<svg version="1.1" id="Capa_1" xmlns="http://www.w3.org/2000/svg" xmlns:xlink="http://www.w3.org/1999/xlink" x="0px" y="0px"
	 width="945px" height="792.2px" viewBox="-753.9 -797.2 945 792.2" style="enable-background:new -753.9 -797.2 945 792.2;"
	 xml:space="preserve">
<path style="fill:#F9B515;" d="M76-372.5H-96.3c0,0-11.2,2.3-14.1,6.6c-30,43.6-199.4,204.2-231.6,256.4
	c-2.3,3.7-20.5,90.3-40.8,101.8c-15.7,8.9-46.6-5.9-59.8-21.4c-20.2-23.6-13.5-89.9-13.5-119.8c0-30,51.7-69.2,43-92.5
	c-2.6-6.9,0.6-20.8-32.9-20.8c-33.5,0-170.4-0.6-199.5-0.6s-55.6-24.6-55.6-58.7c0-34.1,0-66.9,0-66.9c-24,0-52.4-10.7-52.4-42.3
	s0-44.8,0-61.9c0-27.8,22.7-48.6,56.2-48.6c0-24,0.6-58.7,0.6-77.6c0-18.9,23.4-49.2,44.8-49.2c21.5,0,26.5,0,26.5,0s0-34.1,0-47.3
	c0-13.3,3.8-32.8,26.5-32.8c22.7,0,330.8,0,354.8,0c60.6,0,121.4,41,154.9,65h231.5v299.9L76-372.5z"/>
<path style="fill:#F4A10F;" d="M-701-321.6c0,34.1,26.5,58.7,55.6,58.7s166,0.6,199.5,0.6c33.5,0,30.3,13.9,32.9,20.8
	c8.7,23.4-43,62.5-43,92.5c0,30-6.7,96.3,13.5,119.8c3.3,3.9,7.6,7.1,12.4,9.9c-10.7-46.9-10.7-107.5-5.7-131.1
	c5.1-23.6,86.8-139.3,32-139.3c-64,0-245.8,0-245.8,0S-674.9-287.5-701-321.6z"/>
<path style="fill:#F4A10F;" d="M-625.2-715.5c0-13.3,3.8-32.8,26.5-32.8c22.7,0,330.8,0,354.8,0c60.6,0,121.4,41,154.9,65h231.5
	v299.9L76-372.5H-82.3v-260.9c0,0-74.1-78.4-180.1-80.8C-368.5-716.6-625.2-715.5-625.2-715.5z"/>
<rect x="-50.3" y="-797.2" style="fill:#1E336C;" width="242.4" height="534.2"/>
<circle style="fill:#5D73A3;" cx="70.9" cy="-697.2" r="40.4"/>
</svg>
