<?xml version="1.0" encoding="utf-8"?>
<!-- Generator: Adobe Illustrator 16.0.0, SVG Export Plug-In . SVG Version: 6.00 Build 0)  -->
<!DOCTYPE svg PUBLIC "-//W3C//DTD SVG 1.1//EN" "http://www.w3.org/Graphics/SVG/1.1/DTD/svg11.dtd">
<svg version="1.1" id="Capa_1" xmlns="http://www.w3.org/2000/svg" xmlns:xlink="http://www.w3.org/1999/xlink" x="0px" y="0px"
	 width="205.5px" height="159px" viewBox="-72.6 17.3 205.5 159" style="enable-background:new -72.6 17.3 205.5 159;"
	 xml:space="preserve">
<path style="fill:#1E336C;" d="M100.1,71.8c0,7.3,0,36,0,43.5s-7,29.9-50.6,29.9H38.2c-43.7,0-50.6-22.4-50.6-29.9s0-36.2,0-43.5
	l56.5,22L100.1,71.8z"/>
<path style="fill:#172A56;" d="M100.1,71.8c0,1.3,0,1.6,0,4.1c0,3.5-12.6,11.7-55.7,23.8C11.6,89.2-12.5,81.6-12.5,77.9
	c0-2.6,0-4.7,0-6.1l56.5,22L100.1,71.8z"/>
<polygon style="fill:#5D73A3;" points="-45,53.7 -45,59.4 44,93.9 132.9,58.8 132.9,53.7 40.1,78.2 "/>
<polygon style="fill:#1E336C;" points="43.8,18.9 -45,53.7 43.8,87.6 132.9,53.7 "/>
<path style="fill:#F9B515;" d="M55.4,166.5c0,0-91.4-47.6-94.4-49.4c0.4-7,2.4-13.1,12.2-12.4c7.7,4.8,42.9,22.3,56.1,25.6
	c13.2,3.3,44.5,14.2,51.9,21.6c3.9,3.9,2.6,13.3-1.6,17.3c-5.4,5.1-15.2,8.6-21.2,3.5C57,171.3,56.4,169,55.4,166.5z"/>
<path style="fill:#F4A10F;" d="M-32.6,120.5c-3.5,1.2-4.4,6.5,0,8.7c8.1,1.9,62.7,23.5,83.4,40.9c1.2,1,7.3,8.3,17,4.9
	c-12.6,0.8-14.7-12.8-9.8-17.5C25.6,149.7-26,124-32.6,120.5z"/>
<path style="fill:#172A56;" d="M20.4,127.3c-2.9,0.6-14.9,5.1-9,20.4c0.7,1.9,5.9,3.2,5.8,2.1c-1-3.8-7.2-16.4,12.1-19.6
	C30.3,129.4,24.3,126.5,20.4,127.3z"/>
<path style="fill:#1E336C;" d="M15.6,150.2c0.9,0.2,1.6,0.1,1.6-0.3c-1-3.8-7.2-16.4,12.1-19.6c0.4-0.3-0.2-0.9-1.1-1.4
	C21.2,128.7,8,132.2,15.6,150.2z"/>
<g>
	<path style="fill:#F4A10F;" d="M71.7,159c0,0-0.3,0-0.9,0c-0.6,0-1.3,0.2-2.3,0.5c-0.9,0.3-1.9,0.9-2.7,1.7
		c-0.8,0.8-1.3,1.9-1.3,2.9c0,1,0.4,1.9,1.2,3l0,0.1c0.1,0.2-0.1-0.3-0.1-0.2l0,0l0,0l0.1,0.2l0.2,0.3c0-0.1,0-0.1,0-0.2
		c0-0.1,0-0.1,0-0.1c0,0,0-0.1,0-0.2c0-0.1,0.1-0.1,0.3-0.1c0.2-0.1,0.4-0.1,0.7-0.2c0.5-0.2,1.2-0.5,2-1c0.7-0.4,1.4-1,2.1-1.5
		c0.7-0.6,1.3-1.2,1.8-1.8c0.5-0.6,0.8-1.2,0.8-1.2c0,0,0,0,0,0.1c0,0,0,0.1,0,0.1l0,0c0,0.1,0-0.3,0,0.3l0,0l0-0.1l0-0.9
		c0,0,0-0.1,0-0.1c0-0.1,0-0.3-0.1-0.4c-0.1-0.5-0.3-1.1-0.6-1.6c-0.3-0.5-0.6-0.9-0.9-1.2c-0.4-0.3-0.8-0.5-1.3-0.7
		c-0.5-0.2-1.1-0.2-1.8-0.2l-0.1,0l0,0l0,0c0,0,0.2,0,0.1,0l-0.1,0l-0.4,0.1l-0.8,0.1c-0.4,0.1-0.8,0.1-1.3,0.2
		c-1.7,0.3-3.3,0.7-4.6,1.3c-1.3,0.6-2.4,1.3-3.2,2.2c-0.8,0.9-1.4,1.8-1.8,2.8c-0.4,0.9-0.6,1.7-0.7,2.3c-0.1,0.6-0.2,0.9-0.2,0.9
		s-0.1-0.3-0.4-0.8c-0.1-0.3-0.3-0.6-0.4-1c-0.1-0.4-0.3-0.9-0.3-1.5c-0.2-1.2-0.1-2.7,0.4-4.4c0.5-1.7,1.7-3.5,3.2-5
		c1.6-1.5,3.5-2.8,5.7-3.8c0.5-0.3,1.2-0.5,1.7-0.7l0.8-0.3l0.4-0.1l0.1,0l0.2-0.1l0.3-0.1c0.7-0.2,1.4-0.4,2.3-0.4
		c0.8-0.1,1.6-0.1,2.5,0c1.7,0.2,3.5,0.7,5.1,1.6c1.6,0.9,2.9,2.2,4,3.7c1,1.5,1.8,3.1,2.2,4.9c0.1,0.4,0.2,0.9,0.2,1.4
		c0.1,0.5,0.1,1.1,0.1,1.7l0,0.9l0,0.1l0,0.4l0,0.3l-0.1,0.5c-0.1,0.4-0.1,0.6-0.2,0.9c-0.4,1.2-0.9,2.1-1.4,2.8
		c-0.5,0.8-1,1.4-1.6,2c-1.1,1.2-2.2,2.1-3.4,3c-1.2,0.9-2.5,1.6-3.8,2.2c-1.4,0.6-2.8,1.1-4.5,1.3c-0.8,0.1-1.7,0.1-2.6,0.1
		c-0.9-0.1-1.9-0.3-2.9-0.7c-1-0.5-1.9-1.1-2.6-1.9c-0.2-0.2-0.4-0.4-0.5-0.7c-0.2-0.3-0.4-0.5-0.5-0.8c-0.1-0.1-0.1-0.2-0.2-0.4
		l-0.1-0.2l0,0l0,0c0,0-0.2-0.4-0.1-0.3l0-0.1c-0.2-0.7-0.4-1.3-0.6-2c-0.1-0.7-0.3-1.4-0.2-2.1c0-0.7,0-1.4,0.2-2.1
		c0.1-0.3,0.1-0.7,0.2-1c0.1-0.3,0.3-0.6,0.4-0.9c0.2-0.6,0.7-1.1,1-1.6c0.4-0.5,0.8-0.9,1.2-1.3c0.9-0.7,1.8-1.2,2.6-1.5
		c1.7-0.6,3.3-0.6,4.5-0.4c1.2,0.2,2.1,0.7,2.5,1C71.4,158.8,71.7,159,71.7,159z"/>
</g>
<path style="fill:#F4A10F;" d="M44.8,56.2c-3.8,0.4-11.6-1.4-6.7-4.4c4.9-3,15.8-0.3,12.4,2.9l36,16.8v39.3c4.1,1.8,4.2,9,0,10.2
	v14.2l-1.5-4.1l-1.3,4.1l-1.4-4.4l-1.4,4.4v-14.2c-3.6-0.9-5-8,0.2-10.2V73.7L44.8,56.2z"/>
<path style="fill:#F9B515;" d="M86.4,71.4v39.3c4.1,1.8,4.2,9,0,10.2v14.2l-1.5-4.1l-1.3,4.1l-1.4-4.4l-1.4,4.4v-14.2
	c-3.6-0.9-5-8,0.2-10.2V73.7L86.4,71.4z"/>
<path style="fill:#1E336C;" d="M38.2,145.3"/>
<circle style="fill:#F9B515;" cx="-32.6" cy="61.9" r="39.2"/>
<path style="fill:#F4A10F;" d="M4.6,49.5c1.3,3.9,2,8.1,2,12.4C6.6,83.5-11,101-32.6,101c-13.9,0-26.1-7.3-33.1-18.2
	C-43.2,99.6,2.3,85.7,4.6,49.5z"/>
<path style="fill:#F4A10F;" d="M-36.5,84.2c-1,0-2-0.3-2.8-1l-13.3-10.8c-1.9-1.5-2.2-4.3-0.6-6.1c1.5-1.9,4.3-2.2,6.1-0.6l9.4,7.6
	l19.8-32.6c1.3-2.1,3.9-2.7,6-1.5c2.1,1.3,2.7,3.9,1.5,6l-22.5,36.8c-0.7,1.1-1.7,1.8-3,2C-36,84.2-36.3,84.2-36.5,84.2z"/>
<path style="fill:#1E336C;" d="M-38.2,81.2c-1,0-2-0.3-2.8-1l-13.3-10.8c-1.9-1.5-2.2-4.3-0.6-6.1c1.5-1.9,4.3-2.2,6.1-0.6l9.4,7.6
	l19.8-32.6c1.3-2.1,3.9-2.7,6-1.5c2.1,1.3,2.7,3.9,1.5,6l-22.5,36.8c-0.7,1.1-1.7,1.8-3,2C-37.7,81.2-38,81.2-38.2,81.2z"/>
<path style="fill:#172A56;" d="M-16.3,35.7c-1.3,0.2-2.5,0.9-3.2,2.1l-19.8,32.6l-9.4-7.6c-1-0.8-2.2-1.1-3.3-0.9L-38.6,73
	L-16.3,35.7z"/>
<linearGradient id="SVGID_1_" gradientUnits="userSpaceOnUse" x1="30.5679" y1="154.8594" x2="30.5679" y2="15.7706">
	<stop  offset="0.3655" style="stop-color:#FFFFFF;stop-opacity:0"/>
	<stop  offset="1" style="stop-color:#FFFFFF"/>
</linearGradient>
<path style="opacity:0.4;fill:url(#SVGID_1_);" d="M132.9,58.8v-5.1L43.8,18.9L-2.3,37c-7.2-8.7-18.1-14.3-30.3-14.3
	c-21.6,0-39.2,17.5-39.2,39.2c0,7.7,2.2,14.9,6.1,21c0,0,0,0,0,0c0,0,0,0,0,0.1c0.2,0.3,0.4,0.6,0.6,0.9c0,0.1,0.1,0.1,0.1,0.2
	c0.2,0.3,0.3,0.5,0.5,0.7c0.1,0.1,0.1,0.2,0.2,0.3c0.2,0.2,0.3,0.4,0.5,0.6c0.1,0.1,0.1,0.2,0.2,0.3c0.2,0.3,0.4,0.5,0.6,0.8
	c0,0,0,0,0,0.1c0.2,0.3,0.5,0.6,0.7,0.8c0.1,0.1,0.1,0.2,0.2,0.2c0.2,0.2,0.4,0.4,0.5,0.6c0.1,0.1,0.2,0.2,0.2,0.3
	c0.2,0.2,0.4,0.4,0.6,0.6c0.1,0.1,0.1,0.1,0.2,0.2c0.3,0.3,0.5,0.5,0.8,0.8c0.1,0,0.1,0.1,0.2,0.1c0.2,0.2,0.4,0.4,0.7,0.6
	c0.1,0.1,0.2,0.2,0.3,0.2c0.2,0.2,0.4,0.3,0.6,0.5c0.1,0.1,0.2,0.1,0.3,0.2c0.3,0.2,0.5,0.4,0.8,0.7c0,0,0,0,0,0
	c0.3,0.2,0.6,0.5,0.9,0.7c0.1,0.1,0.2,0.1,0.3,0.2c0.2,0.2,0.4,0.3,0.7,0.5c0.1,0.1,0.2,0.1,0.3,0.2c0.2,0.2,0.5,0.3,0.7,0.5
	c0.1,0,0.1,0.1,0.2,0.1c0.3,0.2,0.6,0.4,0.9,0.6c0.1,0,0.1,0.1,0.2,0.1c0.3,0.2,0.5,0.3,0.8,0.4c0.1,0.1,0.2,0.1,0.3,0.2
	c0.2,0.1,0.5,0.3,0.7,0.4c0.1,0.1,0.2,0.1,0.3,0.2c0.3,0.2,0.6,0.3,1,0.5c0,0,0,0,0,0c0.3,0.2,0.7,0.3,1,0.5c0.1,0,0.2,0.1,0.3,0.1
	c0.2,0.1,0.5,0.2,0.7,0.3c0.1,0,0.2,0.1,0.3,0.1c0.3,0.1,0.5,0.2,0.8,0.3c0.1,0,0.2,0.1,0.3,0.1c0.3,0.1,0.7,0.3,1.1,0.4
	c0.1,0,0.2,0.1,0.2,0.1c0.3,0.1,0.6,0.2,0.8,0.3c0.1,0,0.2,0.1,0.4,0.1c0.3,0.1,0.5,0.1,0.8,0.2c0.1,0,0.2,0.1,0.3,0.1
	c0.4,0.1,0.7,0.2,1.1,0.3c0,0,0,0,0,0c0.4,0.1,0.7,0.2,1.1,0.2c0.1,0,0.2,0,0.3,0.1c0.3,0.1,0.5,0.1,0.8,0.1c0.1,0,0.2,0,0.4,0.1
	c0.3,0,0.6,0.1,0.9,0.1c0.1,0,0.2,0,0.3,0c0.4,0,0.8,0.1,1.1,0.1c0.1,0,0.2,0,0.3,0c0.3,0,0.6,0.1,0.9,0.1c0.1,0,0.3,0,0.4,0
	c0.3,0,0.6,0,0.8,0c0.1,0,0.2,0,0.4,0c0.4,0,0.8,0,1.2,0c7.4,0,14.2-2,20.1-5.6c0,6.5,0,12.8,0,16.9c-6.5-3.3-11.8-6.1-14.3-7.7
	c-9.8-0.6-11.8,5.5-12.2,12.4c0.4,0.3,2.8,1.5,6.4,3.4c-3.5,1.2-4.4,6.5,0,8.7c4.6,1.1,23.9,8.4,43.6,17.7c0.1,0.3,0.2,0.5,0.3,0.8
	c0.5,1.2,2.7,2.2,4.2,2.4c0.1,0,0.1,0,0.2,0c0,0,0,0,0.1,0c0,0,0.1,0,0.1,0c0,0,0,0,0.1,0c0.1,0,0.1,0,0.2,0c0,0,0,0,0,0
	c0.1,0,0.1,0,0.2,0c0,0,0,0,0.1,0c0,0,0.1,0,0.1,0c0,0,0,0,0,0c0,0,0.1,0,0.1,0c0,0,0,0,0,0c0,0,0.1,0,0.1,0c0,0,0,0,0,0
	c0,0,0.1,0,0.1,0c0,0,0,0,0,0c0,0,0.1,0,0.1,0c0,0,0,0,0,0c0,0,0,0,0.1-0.1c0,0,0,0,0,0c0,0,0,0,0-0.1c0,0,0,0,0,0c0,0,0-0.1,0-0.1
	v0c13.2,6.5,25.8,13.6,33.6,20.2c1.2,1,7.3,8.3,17,4.9c0,0,0,0,0,0c4.4-0.6,8.8-2.9,11.8-5.8c4.2-4,5.5-13.4,1.6-17.3
	c-2.5-2.5-7.6-5.3-13.8-8.1c27.7-5.2,32.7-22.1,32.7-28.4c0-6.5,0-28.7,0-39.4c0-1.7,0-3.1,0-4.1L132.9,58.8z"/>
<path style="opacity:5.000000e-002;fill:#FFFFFF;" d="M100.1,113.4c0-8.9,0-31,0-37.5c0-1.7,0-3.1,0-4.1l32.8-13v-5.1L43.8,18.9
	L-2.3,37c-7.2-8.7-18.1-14.3-30.3-14.3c-21.6,0-39.2,17.5-39.2,39.2c0,7.7,2.2,14.9,6.1,21c0,0,0,0,0,0c0,0,0,0,0,0.1
	c0.2,0.3,0.4,0.6,0.6,0.9c0,0.1,0.1,0.1,0.1,0.2c0.2,0.3,0.3,0.5,0.5,0.7c0.1,0.1,0.1,0.2,0.2,0.3c0.2,0.2,0.3,0.4,0.5,0.6
	c0.1,0.1,0.1,0.2,0.2,0.3c0.2,0.3,0.4,0.5,0.6,0.8c0,0,0,0,0,0.1c0.2,0.3,0.5,0.6,0.7,0.8c0.1,0.1,0.1,0.2,0.2,0.2
	c0.2,0.2,0.4,0.4,0.5,0.6c0.1,0.1,0.2,0.2,0.2,0.3c0.2,0.2,0.4,0.4,0.6,0.6c0.1,0.1,0.1,0.1,0.2,0.2c0.3,0.3,0.5,0.5,0.8,0.8
	c0.1,0,0.1,0.1,0.2,0.1c0.2,0.2,0.4,0.4,0.7,0.6c0.1,0.1,0.2,0.2,0.3,0.2c0.2,0.2,0.4,0.3,0.6,0.5c0.1,0.1,0.2,0.1,0.3,0.2
	c0.3,0.2,0.5,0.4,0.8,0.7c0,0,0,0,0,0c0.3,0.2,0.6,0.5,0.9,0.7c0.1,0.1,0.2,0.1,0.3,0.2c0.2,0.2,0.4,0.3,0.7,0.5
	c0.1,0.1,0.2,0.1,0.3,0.2c0.2,0.2,0.5,0.3,0.7,0.5c0.1,0,0.1,0.1,0.2,0.1c0.3,0.2,0.6,0.4,0.9,0.6c0.1,0,0.1,0.1,0.2,0.1
	c0.3,0.2,0.5,0.3,0.8,0.4c0.1,0.1,0.2,0.1,0.3,0.2c0.2,0.1,0.5,0.3,0.7,0.4c0.1,0.1,0.2,0.1,0.3,0.2c0.3,0.2,0.6,0.3,1,0.5
	c0,0,0,0,0,0c0.3,0.2,0.7,0.3,1,0.5c0.1,0,0.2,0.1,0.3,0.1c0.2,0.1,0.5,0.2,0.7,0.3c0.1,0,0.2,0.1,0.3,0.1c0.3,0.1,0.5,0.2,0.8,0.3
	c0.1,0,0.2,0.1,0.3,0.1c0.3,0.1,0.7,0.3,1.1,0.4c0.1,0,0.2,0.1,0.2,0.1c0.3,0.1,0.6,0.2,0.8,0.3c0.1,0,0.2,0.1,0.4,0.1
	c0.3,0.1,0.5,0.1,0.8,0.2c0.1,0,0.2,0.1,0.3,0.1c0.4,0.1,0.7,0.2,1.1,0.3c0,0,0,0,0,0c0.4,0.1,0.7,0.2,1.1,0.2c0.1,0,0.2,0,0.3,0.1
	c0.3,0.1,0.5,0.1,0.8,0.1c0.1,0,0.2,0,0.4,0.1c0.3,0,0.6,0.1,0.9,0.1c0.1,0,0.2,0,0.3,0c0.4,0,0.8,0.1,1.1,0.1c0.1,0,0.2,0,0.3,0
	c0.3,0,0.6,0.1,0.9,0.1c0.1,0,0.3,0,0.4,0c0.3,0,0.6,0,0.8,0c0.1,0,0.2,0,0.4,0c0.4,0,0.8,0,1.2,0c7.4,0,14.2-2,20.1-5.6
	c0,2.3,0,15.8,0,17.9C3.2,102.1,67.2,98.9,100.1,113.4z"/>
</svg>
