<?xml version="1.0" encoding="utf-8"?>
<!-- Generator: Adobe Illustrator 16.0.0, SVG Export Plug-In . SVG Version: 6.00 Build 0)  -->
<!DOCTYPE svg PUBLIC "-//W3C//DTD SVG 1.1//EN" "http://www.w3.org/Graphics/SVG/1.1/DTD/svg11.dtd">
<svg version="1.1" id="Capa_1" xmlns="http://www.w3.org/2000/svg" xmlns:xlink="http://www.w3.org/1999/xlink" x="0px" y="0px"
	 width="37.3px" height="79.9px" viewBox="-72.6 -68.2 37.3 79.9" style="enable-background:new -72.6 -68.2 37.3 79.9;"
	 xml:space="preserve">
<path id="Facebook" style="fill:#1E3068;" d="M-64.5-52.7c0,2,0,11,0,11h-8.1v13.5h8.1v40H-48v-40h11.1c0,0,1-6.5,1.5-13.5
	c-1.4,0-12.6,0-12.6,0s0-7.8,0-9.2c0-1.4,1.8-3.2,3.6-3.2c1.8,0,5.5,0,9,0c0-1.8,0-8.2,0-14c-4.7,0-9.9,0-12.3,0
	C-65-68.2-64.5-54.7-64.5-52.7z"/>
</svg>
