<?xml version="1.0" encoding="utf-8"?>
<!-- Generator: Adobe Illustrator 16.0.0, SVG Export Plug-In . SVG Version: 6.00 Build 0)  -->
<!DOCTYPE svg PUBLIC "-//W3C//DTD SVG 1.1//EN" "http://www.w3.org/Graphics/SVG/1.1/DTD/svg11.dtd">
<svg version="1.1" id="Capa_1" xmlns="http://www.w3.org/2000/svg" xmlns:xlink="http://www.w3.org/1999/xlink" x="0px" y="0px"
	 width="80px" height="79.9px" viewBox="-72.6 -68.2 80 79.9" style="enable-background:new -72.6 -68.2 80 79.9;"
	 xml:space="preserve">
<g>
	<g>
		<path style="fill:#1F336C;" d="M-31.7-68.2l-26.7,8.1l-14.2,28.3l6.5,24.5l34.2,19L2.7-9.8l4.2-21.3l-10.5-29L-31.7-68.2z"/>
	</g>
	<g>
		<path style="fill:#1F336C;" d="M-31.9,11.7L2.7-9.8l4.2-21.3l-10.5-29l-28.1-8.1L-31.9,11.7z"/>
	</g>
</g>
<polygon style="fill:#1F336C;" points="-31.3,11.1 -32,11.2 -31.9,11.7 -5.6,3.1 2.7,-9.8 "/>
<polygon style="fill:#1F336C;" points="-31.3,11.1 -32,11.2 -31.9,11.7 -5.6,3.1 2.7,-9.8 "/>
<polygon style="fill:#1F336C;" points="-31.3,11.1 -32,11.2 -31.9,11.7 -5.6,3.1 2.7,-9.8 "/>
<polyline style="fill:#1D2E55;" points="-31.9,11.7 -31.9,11.2 -66.1,-7.3 -57,3 -31.9,11.7 "/>
<g style="opacity:0.3;">
	<g>
		<g>
			<path style="fill:#1F336C;" d="M-29.6-19.6c-0.5-3.3-0.9-6.9-1.2-10.7c-0.6,2-1.2,4.2-1.7,6.8c-0.6,2.6-1,5.3-1.2,8
				c-0.1,0.1-0.2,0.2-0.4,0.2c-0.2,0-0.4,0.1-0.7,0.1c-0.7,0-1.5-0.1-2.2-0.3c-0.7-0.2-1.2-0.4-1.2-0.7c-1-3.5-1.8-6.7-2.6-9.7
				c-0.8-3-1.5-5.7-2.2-8.1c-0.2,1.4-0.4,2.9-0.5,4.6c-0.1,1.7-0.2,3.4-0.2,5.2c0,1.8,0.2,3.5,0.5,5.2c0.3,1.7,1.5,2.8,2.2,4.2
				c-0.1,0-0.3,0.5-0.8,0.6c-0.1,0-0.1,0-0.2,0l-1.1,0c-0.9,0-2,0-3.3-0.2c-1.3-0.2-2.4-0.5-3.4-1.1c-1-0.6-1.5-1.5-1.6-2.7
				c0-0.7,0-1.3,0-1.8c0.1-0.4,0.2-1,0.4-1.7c0.2-0.7,0.5-1.7,0.9-3.2c0.4-1.4,1-3.5,1.7-6.3c0.7-2.7,1.7-6.7,2.7-10.9
				c-1.2-1.8,0.3-4.8,2.5-5c1-0.1,1.9,0.2,2.4,0.8c0.5,0.6,0.8,1.4,1.1,2.4c0.2,1.1,0.5,2.4,0.8,4c0.5,2.2,0.9,4,1.2,5.3
				c0.3,1.4,0.6,2.4,0.8,3.1c0.1,0.4,0.2,0.8,0.3,1.1c0.1,0.3,0.2,0.5,0.2,0.7c0.3-0.3,0.6-0.6,0.8-1c0.3-0.4,0.5-0.9,0.8-1.5
				c0.5-1,0.9-2.3,1.5-4c0.5-1.7,1.6-3.9,1.5-6.7c0-0.4-0.6-2.7,0.5-3.4c0.5-0.3,0.9-0.3,1.4-0.3c0.7,0,1.5,0.1,2.3,0.3
				c0.8,0.2,1.5,0.5,2,0.8c0.6,0.3,0.9,0.7,1,1.1c0.1,2.8,0.1,5.2,0.1,7c0,1.8,0.1,3.5,0.1,4.8c0,3.7,0.2,7,0.6,9.8
				c0.3,2.8,1,5.1,1.9,6.8c0,0.1,0.1,0.2,0.1,0.3c0.1,0.2,0.2,0.4,0.4,0.6c0.6,0.9,1.2,1.5,1.9,1.9c0.7,0.4,1.5,0.4,2.3,0.1
				c0.1,0,0.2-0.1,0.3-0.1c0.1-0.1,0.2-0.1,0.3-0.2c1.2-1.1,2.4-2.3,3.4-3.6c1-1.2,2-2.4,3.1-3.4c1-1,2.2-1.8,3.4-2.4
				c1.4-0.6,2.5-0.7,3.4-0.4c0.9,0.3,1.5,0.8,1.8,1.7c0.3,0.6,0.3,1.4,0.3,2.2c-0.1,0.9-0.3,1.7-0.8,2.7c-1.6-0.4-3.1-0.5-4.3-0.4
				c-1.2,0.1-2.3,0.3-3.3,0.7c-1.2,0.5-2.3,1.2-3.1,2c-0.9,0.8-1.7,1.7-2.4,2.6c-0.7,0.9-1.2,1.7-2.2,2.5c-2,1.5-3.7,2-6.2,1.7
				C-28.9-7.8-29.1-16.3-29.6-19.6z"/>
		</g>
	</g>
</g>
<g style="opacity:0.3;">
	<g>
		<g>
			<path style="fill:#1F336C;" d="M-34.8-32.1c0.5-1,0.9-2.3,1.5-4c0.5-1.7,1.6-3.9,1.5-6.7c0-0.4-0.6-2.7,0.5-3.4
				c0.5-0.3,0.9-0.3,1.4-0.3c0.7,0,1.5,0.1,2.3,0.3c0.8,0.2,1.5,0.5,2,0.8c0.6,0.3,0.9,0.7,1,1.1c0.1,2.8,0.1,5.2,0.1,7
				c0,1.8,0,3.5,0.1,4.8c0,3.7,0.2,7,0.6,9.8c0.3,2.8,1,5.1,1.9,6.8c0,0.1,0.1,0.2,0.1,0.3c0.1,0.2,0.2,0.4,0.4,0.6
				c0.6,0.9,1.2,1.5,1.9,1.9c0.7,0.4,1.5,0.4,2.3,0.1c0.1,0,0.2-0.1,0.3-0.1c0.1-0.1,0.2-0.1,0.3-0.2c1.2-1.1,2.4-2.3,3.4-3.6
				c1-1.2,2-2.4,3.1-3.4c1-1,2.2-1.8,3.4-2.4c1.4-0.6,2.5-0.7,3.4-0.4c0.9,0.3,1.5,0.8,1.8,1.7c0.3,0.6,0.3,1.4,0.3,2.2
				c-0.1,0.9-0.3,1.7-0.8,2.7c-1.6-0.4-3.1-0.5-4.3-0.4c-1.2,0.1-2.3,0.3-3.3,0.7c-1.2,0.5-2.3,1.2-3.1,2c-0.9,0.8-1.7,1.7-2.4,2.6
				c-0.7,0.9-1.2,1.7-2.2,2.5c-2,1.5-3.7,2-6.2,1.7c-5.4-0.7-5.6-9.2-6.1-12.5c-0.5-3.3-0.9-6.9-1.2-10.7c-0.3,1.1-0.7,2.4-1,3.7
				C-32.3-31.6-35-31.5-34.8-32.1z"/>
		</g>
	</g>
</g>
<g>
	<g>
		<g>
			<path style="fill:#FFFFFF;" d="M-29.6-21.1c-0.5-3.3-0.9-6.9-1.2-10.7c-0.6,2-1.2,4.2-1.7,6.8c-0.6,2.6-1,5.3-1.2,8
				c-0.1,0.1-0.2,0.2-0.4,0.2c-0.2,0-0.4,0.1-0.7,0.1c-0.7,0-1.5-0.1-2.2-0.3c-0.7-0.2-1.2-0.4-1.2-0.7c-1-3.5-1.8-6.7-2.6-9.7
				c-0.8-3-1.5-5.7-2.2-8.1c-0.2,1.4-0.4,2.9-0.5,4.6c-0.1,1.7-0.2,3.4-0.2,5.2c0,1.8,0.2,3.5,0.5,5.2c0.3,1.7,0.8,3.3,1.6,4.8
				c-0.1,0-0.1,0-0.2,0c-0.1,0-0.1,0-0.2,0l-1.1,0c-0.9,0-2,0-3.3-0.2c-1.3-0.2-2.4-0.5-3.4-1.1c-1-0.6-1.5-1.5-1.6-2.7
				c0-0.7,0-1.3,0-1.8c0.1-0.4,0.2-1,0.4-1.7c0.2-0.7,0.5-1.7,0.9-3.2c0.4-1.4,1-3.5,1.7-6.3c0.7-2.7,1.7-6.7,2.7-10.9
				c-1.2-1.8,0.3-4.8,2.5-5c1-0.1,1.9,0.2,2.4,0.8c0.5,0.6,0.8,1.4,1.1,2.4c0.2,1.1,0.5,2.4,0.8,4c0.5,2.2,0.9,4,1.2,5.3
				c0.3,1.4,0.6,2.4,0.8,3.1c0.1,0.4,0.2,0.8,0.3,1.1c0.1,0.3,0.2,0.5,0.2,0.7c0.3-0.3,0.6-0.6,0.8-1c0.3-0.4,0.5-0.9,0.8-1.5
				c0.5-1,0.9-2.3,1.5-4c0.5-1.7,1.6-3.9,1.5-6.7c0-0.4-0.6-2.7,0.5-3.4c0.5-0.3,0.9-0.3,1.4-0.3c0.7,0,1.5,0.1,2.3,0.3
				c0.8,0.2,1.5,0.5,2,0.8c0.6,0.3,0.9,0.7,1,1.1c0.1,2.8,0.1,5.2,0.1,7c0,1.8,0,3.5,0.1,4.8c0,3.7,0.2,7,0.6,9.8
				c0.3,2.8,1,5.1,1.9,6.8c0,0.1,0.1,0.2,0.1,0.3c0.1,0.2,0.3,0.4,0.4,0.6c0.6,0.9,1.2,1.5,1.9,1.9c0.7,0.4,1.5,0.4,2.3,0.1
				c0.1,0,0.2-0.1,0.3-0.1c0.1-0.1,0.2-0.1,0.3-0.2c1.2-1.1,2.4-2.3,3.4-3.6c1-1.2,2-2.4,3.1-3.4c1-1,2.2-1.8,3.4-2.4
				c1.4-0.6,2.5-0.7,3.4-0.4c0.9,0.3,1.5,0.8,1.8,1.7c0.3,0.6,0.3,1.4,0.3,2.2c-0.1,0.9-0.3,1.7-0.8,2.7c-1.6-0.4-3.1-0.5-4.3-0.4
				c-1.2,0.1-2.3,0.3-3.3,0.7c-1.2,0.5-2.3,1.2-3.1,2c-0.9,0.8-1.7,1.7-2.4,2.6c-0.7,0.9-1.2,1.7-2.2,2.5c-2,1.5-3.7,2-6.2,1.7
				C-28.9-9.3-29.1-17.8-29.6-21.1z"/>
		</g>
	</g>
</g>
<g>
	<g>
		<g>
			<path style="fill:#D1E0E3;" d="M-34.7-16.7c0-0.1-1.1-3-1.1-3l0.1-6.1l0.2-3.5l0.7-4.2c0.5-1,0.9-2.3,1.5-4
				c0.5-1.7,1.6-3.9,1.5-6.7c0-0.4-0.6-2.7,0.5-3.4c0.5-0.3,0.9-0.3,1.4-0.3c0.7,0,1.5,0.1,2.3,0.3c0.8,0.2,1.5,0.5,2,0.8
				c0.6,0.3,0.9,0.7,1,1.1c0.1,2.8,0.1,5.2,0.1,7c0,1.8,0.1,3.5,0.1,4.8c0,3.7,0.2,7,0.6,9.8c0.3,2.8,1,5.1,1.9,6.8
				c0,0.1,0.1,0.2,0.1,0.3c0.1,0.2,0.2,0.4,0.4,0.6c0.6,0.9,1.2,1.5,1.9,1.9c0.7,0.4,1.5,0.4,2.3,0.1c0.1,0,0.2-0.1,0.3-0.1
				c0.1-0.1,0.2-0.1,0.3-0.2c1.2-1.1,2.4-2.3,3.4-3.6c1-1.2,2-2.4,3.1-3.4c1-1,2.2-1.8,3.4-2.4c1.4-0.6,2.5-0.7,3.4-0.4
				c0.9,0.3,1.5,0.8,1.8,1.7c0.3,0.6,0.3,1.4,0.3,2.2c-0.1,0.9-0.3,1.7-0.8,2.7c-1.6-0.4-3.1-0.5-4.3-0.4c-1.2,0.1-2.3,0.3-3.3,0.7
				c-1.2,0.5-2.3,1.2-3.1,2c-0.9,0.8-1.7,1.7-2.4,2.6c-0.7,0.9-1.2,1.7-2.2,2.5c-2,1.5-3.7,2-6.2,1.7c-5.4-0.7-5.6-9.2-6.1-12.5
				c-0.5-3.3-0.9-6.9-1.2-10.7c-0.6,2-1.2,4.2-1.7,6.8c-0.6,2.6-1,5.3-1.2,8C-34-16.8-34.5-16.7-34.7-16.7z"/>
		</g>
	</g>
</g>
</svg>
