<?xml version="1.0" encoding="utf-8"?>
<!-- Generator: Adobe Illustrator 16.0.0, SVG Export Plug-In . SVG Version: 6.00 Build 0)  -->
<!DOCTYPE svg PUBLIC "-//W3C//DTD SVG 1.1//EN" "http://www.w3.org/Graphics/SVG/1.1/DTD/svg11.dtd">
<svg version="1.1" id="Capa_1" xmlns="http://www.w3.org/2000/svg" xmlns:xlink="http://www.w3.org/1999/xlink" x="0px" y="0px"
	 width="428.4px" height="290px" viewBox="-227.1 -240.7 428.4 290" style="enable-background:new -227.1 -240.7 428.4 290;"
	 xml:space="preserve">
<g>
	<g>
		<g>
			<path style="fill:#1E336C;" d="M-81.2-213.7H82c-1.1-15-13.7-26.9-29.1-26.9H-198c-16.1,0-29.2,13.1-29.2,29.2V-82
				c0,16.1,13.1,29.2,29.2,29.2h22v51.4c0,3.6,2.1,6.8,5.3,8.3c1.2,0.6,2.5,0.8,3.8,0.8c2.1,0,4.3-0.8,5.9-2.2l39-33.7
				c-1.3-4.1-2.1-8.6-2.1-13.1v-129.4C-123.9-194.5-104.8-213.7-81.2-213.7z"/>
			<path style="fill:#1E336C;" d="M172.1-198.9H-78.7c-16.1,0-29.2,13.1-29.2,29.2v129.4c0,16.1,13.1,29.2,29.2,29.2H67.7l67.4,58.2
				c1.7,1.5,3.8,2.2,5.9,2.2c1.3,0,2.6-0.3,3.8-0.8c3.2-1.5,5.3-4.7,5.3-8.3v-51.4h22c16.1,0,29.2-13.1,29.2-29.2v-129.4
				C201.3-185.8,188.2-198.9,172.1-198.9z M-25.9-83.5c-12.8,0-23.2-10.4-23.2-23.2c0-12.8,10.4-23.1,23.2-23.1
				c12.8,0,23.1,10.4,23.1,23.1C-2.8-93.9-13.1-83.5-25.9-83.5z M46.7-83.5c-12.8,0-23.1-10.4-23.1-23.2c0-12.8,10.4-23.1,23.1-23.1
				c12.8,0,23.1,10.4,23.1,23.1C69.8-93.9,59.5-83.5,46.7-83.5z M119.3-83.5c-12.8,0-23.2-10.4-23.2-23.2
				c0-12.8,10.4-23.1,23.2-23.1s23.1,10.4,23.1,23.1C142.5-93.9,132.1-83.5,119.3-83.5z"/>
		</g>
	</g>
</g>
</svg>
