<?xml version="1.0" encoding="utf-8"?>
<!-- Generator: Adobe Illustrator 16.0.0, SVG Export Plug-In . SVG Version: 6.00 Build 0)  -->
<!DOCTYPE svg PUBLIC "-//W3C//DTD SVG 1.1//EN" "http://www.w3.org/Graphics/SVG/1.1/DTD/svg11.dtd">
<svg version="1.1" id="Capa_1" xmlns="http://www.w3.org/2000/svg" xmlns:xlink="http://www.w3.org/1999/xlink" x="0px" y="0px"
	 width="254.6px" height="220.6px" viewBox="-753.9 -797.2 254.6 220.6" style="enable-background:new -753.9 -797.2 254.6 220.6;"
	 xml:space="preserve">
<path style="fill:#1E336C;" d="M-507.8-661.4c-4.7,0-8.5,3.8-8.5,8.5v59.4h-220.6v-59.4c0-4.7-3.8-8.5-8.5-8.5
	c-4.7,0-8.5,3.8-8.5,8.5v67.9c0,4.7,3.8,8.5,8.5,8.5h237.6c4.7,0,8.5-3.8,8.5-8.5v-67.9C-499.3-657.6-503.1-661.4-507.8-661.4z
	 M-632.7-629.9c1.7,1.7,3.9,2.5,6.1,2.5s4.4-0.8,6.1-2.5l50.9-59.3c3.3-3.3,3.3-8.8,0-12.1c-3.3-3.3-8.8-3.3-12.1,0l-36.3,42.4
	v-129.7c0-4.7-3.8-8.5-8.5-8.5c-4.7,0-8.5,3.8-8.5,8.5V-659l-36.4-42.4c-3.3-3.3-8.8-3.3-12.1,0c-3.3,3.3-3.3,8.8,0,12.1
	L-632.7-629.9z"/>
</svg>
