<?xml version="1.0" encoding="utf-8"?>
<!-- Generator: Adobe Illustrator 16.0.0, SVG Export Plug-In . SVG Version: 6.00 Build 0)  -->
<!DOCTYPE svg PUBLIC "-//W3C//DTD SVG 1.1//EN" "http://www.w3.org/Graphics/SVG/1.1/DTD/svg11.dtd">
<svg version="1.1" id="Capa_1" xmlns="http://www.w3.org/2000/svg" xmlns:xlink="http://www.w3.org/1999/xlink" x="0px" y="0px"
	 width="945px" height="833.8px" viewBox="-753.9 -797.2 945 833.8" style="enable-background:new -753.9 -797.2 945 833.8;"
	 xml:space="preserve">
<path style="fill:#1E336C;" d="M17.1-516.2c0,39,0,191,0,231s-37,159-269,159h-60c-232,0-269-119-269-159s0-192,0-231l300,117
	L17.1-516.2z"/>
<path style="fill:#172A56;" d="M17.1-516.2c0,7.1,0,8.5,0,21.7c0,18.7-67,62.3-296.1,126.1c-174.3-55.5-301.9-96.1-301.9-115.5
	c0-13.8,0-25,0-32.3l300,117L17.1-516.2z"/>
<polygon style="fill:#5D73A3;" points="-753.9,-612.2 -753.9,-582.2 -280.9,-399.2 191.1,-585.2 191.1,-612.2 -301.9,-482.2 "/>
<polygon style="fill:#1E336C;" points="-281.9,-797.2 -753.9,-612.2 -281.9,-432.2 191.1,-612.2 "/>
<path style="fill:#F9B515;" d="M-220.2-13.2c0,0-485.2-253-501.5-262.5c2.2-36.9,12.9-69.4,64.9-66C-615.9-316-429-223.1-359-205.7
	S-122.4-130.3-83.1-91C-62.4-70.3-69-20.6-91.5,0.8C-120,28-172.4,46.3-204,19.3C-212.1,12.3-214.9-0.1-220.2-13.2z"/>
<path style="fill:#F4A10F;" d="M-687.6-257.5c-18.5,6.2-23.4,34.5,0.1,46.2c42.9,10.1,333,124.7,443,217.1
	c6.3,5.3,38.9,44.2,90.2,26c-67,4.3-78.1-67.9-51.8-93.1C-378.9-102.4-652.7-239.2-687.6-257.5z"/>
<path style="fill:#172A56;" d="M-406.3-221.5c-15.6,3.1-79.3,27.1-47.9,108.6c3.9,10.2,31.3,17.2,31,11.4
	c-5.3-20.3-38.3-86.8,64.1-104.2C-353.7-210.5-385.6-225.6-406.3-221.5z"/>
<path style="fill:#1E336C;" d="M-431.8-99.9c5,0.9,8.8,0.5,8.6-1.6c-5.3-20.3-38.3-86.8,64.1-104.2c1.9-1.7-0.8-4.6-6-7.5
	C-402.2-214-472.3-195.5-431.8-99.9z"/>
<g>
	<path style="fill:#F4A10F;" d="M-133.9-53.3c0,0-0.4-0.1-1.1-0.3c-0.4-0.1-0.8-0.2-1.4-0.4c-0.5-0.2-1.2-0.3-1.9-0.4
		c-2.9-0.6-7.2-1.2-12.6-0.6c-5.4,0.6-11.9,2.3-18.1,6.3c-3.1,2-6.1,4.5-8.7,7.7c-1.3,1.6-2.4,3.3-3.5,5.1c-0.9,1.9-1.8,3.8-2.4,5.9
		c-0.6,2.1-0.9,4.3-1.1,6.5c-0.1,2.2,0,4.5,0.4,6.9c0.7,4.6,2.3,9.3,4.7,13.8c2.1,4.3,5.5,7.6,9.9,9.1c4.4,1.6,9.7,1.5,14.9,0.4
		c5.3-1.1,10.6-3.2,15.8-5.8c5.2-2.6,10.2-5.8,14.9-9.5c4.7-3.6,9.1-7.7,13-12.1c1.9-2.2,3.7-4.5,5.3-7c1.5-2.4,2.8-4.9,3.6-7.3
		c0.4-1.2,0.6-2.4,0.7-3.5l0.1-1.2c0-0.4,0.1-0.8,0.1-1.1c0-0.7,0-1.3,0-2c0-2.8-0.4-5.7-1-8.4c-1.2-5.6-3.4-10.9-6.5-15.6
		c-3.1-4.7-7.1-8.7-11.6-11.7c-4.6-3-9.7-4.9-15-5.8c-2.6-0.5-5.3-0.6-8-0.6c-1.3,0.1-2.7,0.1-4,0.3c-0.7,0.1-1.3,0.1-2,0.2
		c-0.7,0.1-1.3,0.2-2,0.3c-5.4,0.9-10.8,2.2-15.8,3.8c-5.1,1.5-9.9,3.3-14.4,5.4c-4.5,2-8.7,4.3-12.5,6.9
		c-7.6,5.1-13.4,11.3-17.2,17.7c-1.9,3.2-3.3,6.4-4.4,9.5c-1,3.1-1.7,6-2.1,8.7c-0.8,5.4-0.8,9.8-0.8,12.7c0.2,3,0.3,4.6,0.3,4.6
		s-0.1-0.4-0.2-1.1c-0.1-0.8-0.4-1.9-0.6-3.4c-0.4-3-1-7.3-0.7-13c0.1-2.8,0.6-5.9,1.3-9.3c0.7-3.4,2-6.9,3.8-10.5
		c1.8-3.6,4.1-7.3,6.9-10.7c2.9-3.5,6.3-6.8,10.2-9.8c3.9-3,8.3-5.8,13-8.3c4.7-2.5,9.8-4.6,15-6.5c5.3-1.9,10.8-3.5,16.6-4.8
		c3-0.7,6.1-1.1,9.2-1.3c3.2-0.1,6.4-0.1,9.6,0.4c3.2,0.5,6.5,1.1,9.6,2.3c3.1,1.1,6.2,2.6,9.1,4.4c5.8,3.6,10.8,8.5,14.6,14.2
		c3.8,5.7,6.6,12.1,8.2,18.9c0.8,3.4,1.2,6.9,1.3,10.4c0,0.9,0,1.8,0,2.8c0,0.5,0,0.8-0.1,1.2l-0.1,1.2c-0.1,2.1-0.6,4-1.1,5.8
		c-0.6,1.8-1.3,3.5-2.1,5.1c-0.8,1.6-1.7,3.1-2.6,4.6c-1.9,2.9-4,5.6-6.2,8.1c-4.5,5-9.4,9.4-14.7,13.3C-123.4,3-129,6.4-134.8,9.2
		c-5.8,2.8-11.9,5-18.3,6.1c-3.2,0.5-6.5,0.8-9.8,0.7c-1.7-0.1-3.3-0.3-5-0.6c-1.6-0.4-3.3-0.8-4.8-1.5c-3.1-1.3-6.1-3.2-8.3-5.6
		c-1.2-1.2-2.2-2.5-3.1-3.8l-0.7-1.1c-0.2-0.4-0.5-0.7-0.6-1l-0.5-0.9l-0.1-0.2l-0.1-0.1c-0.1-0.3-0.1-0.1-0.1-0.2l-0.2-0.5
		c-2.4-5.3-4.1-10.8-4.6-16.4c-0.3-2.8-0.2-5.5,0.1-8.2c0.4-2.7,0.9-5.3,1.9-7.7c0.8-2.5,2-4.7,3.3-6.8c0.7-1,1.3-2,2.1-3
		c0.8-0.9,1.5-1.9,2.3-2.7c3.2-3.3,6.8-5.9,10.4-7.8c7.2-3.8,14.3-4.9,19.9-5c5.7,0,10,1.1,12.9,2.1c1.4,0.5,2.5,0.9,3.2,1.3
		C-134.3-53.5-133.9-53.3-133.9-53.3z"/>
</g>
<path style="fill:#F4A10F;" d="M-276.9-599.2c-20,2-61.7-7.3-35.7-23.3s83.7-1.7,65.7,15.3l191,89v208.5c22,9.5,22.3,47.8,0,54.2
	v75.3l-8-22l-7,22l-7.7-23.3l-7.7,23.3v-75.3c-19.3-4.7-26.3-42.7,1-54.2v-196.8L-276.9-599.2z"/>
<path style="fill:#F9B515;" d="M-55.9-518.2v208.5c22,9.5,22.3,47.8,0,54.2v75.3l-8-22l-7,22l-7.7-23.3l-7.7,23.3v-75.3
	c-19.3-4.7-26.3-42.7,1-54.2v-196.8L-55.9-518.2z"/>
<path style="fill:#1E336C;" d="M-311.9-126.2"/>
</svg>
