<?xml version="1.0" encoding="utf-8"?>
<!-- Generator: Adobe Illustrator 16.0.0, SVG Export Plug-In . SVG Version: 6.00 Build 0)  -->
<!DOCTYPE svg PUBLIC "-//W3C//DTD SVG 1.1//EN" "http://www.w3.org/Graphics/SVG/1.1/DTD/svg11.dtd">
<svg version="1.1" id="Capa_1" xmlns="http://www.w3.org/2000/svg" xmlns:xlink="http://www.w3.org/1999/xlink" x="0px" y="0px"
	 width="245.1px" height="156.7px" viewBox="-72.6 19.7 245.1 156.7" style="enable-background:new -72.6 19.7 245.1 156.7;"
	 xml:space="preserve">
<g>
	<g>
		<path style="fill:#F9B515;" d="M135.5,59.7c12.6-1.5,17.5,8,17.1,14.1C144.9,76.5,134.6,69.8,135.5,59.7z"/>
		<path style="fill:#F9B515;" d="M133.5,80c12.6-1,17.2,8.8,16.5,14.8C142.2,97.2,132.2,90.1,133.5,80z"/>
		<path style="fill:#F9B515;" d="M130.3,96.4c12.5,1.8,14.8,12.3,12.8,18.1C135,115,126.8,105.9,130.3,96.4z"/>
		<path style="fill:#F9B515;" d="M122.2,112.5c11.1,6.2,9.4,16.8,5.5,21.5C119.9,131.6,115.5,120.1,122.2,112.5z"/>
		<path style="fill:#F9B515;" d="M109.6,129.5c8.8,9.1,4.1,18.8-1,22.1C101.8,147.1,101,134.9,109.6,129.5z"/>
		<path style="fill:#F9B515;" d="M88.9,140.6c5.4,11.4-2.1,19.2-8,20.7C76,154.8,79.1,142.9,88.9,140.6z"/>
		<path style="fill:#F4A10F;" d="M149.2,57.3c0,0,11.6,31.8-16.5,70.1c-28.2,38.3-66,33.8-66,33.8l-0.2,4.7
			c12.6-0.9,30.2,1.4,58-23.6c27.8-25,33.7-63.8,27.7-85.9L149.2,57.3z"/>
		<path style="fill:#F9B515;" d="M151.5,37.5c9.2,8.7,4.9,18.6,0,22.2C144.5,55.5,143.2,43.3,151.5,37.5z"/>
		<path style="fill:#F9B515;" d="M172.4,61.2c-2.2,12.5-12.8,14.4-18.5,12.2C153.7,65.3,163,57.4,172.4,61.2z"/>
		<path style="fill:#F9B515;" d="M170.3,83.2c-2.7,12.4-13.4,13.8-19,11.4C151.4,86.5,161.1,79,170.3,83.2z"/>
		<path style="fill:#F9B515;" d="M164.9,107.8c-5.4,11.5-16.1,10.5-21,6.9C145.7,106.9,156.9,101.7,164.9,107.8z"/>
		<path style="fill:#F9B515;" d="M151.9,136.2c-9.2,8.8-18.8,4-22.1-1.1C134.3,128.4,146.6,127.5,151.9,136.2z"/>
		<path style="fill:#F9B515;" d="M129.8,160c-11.3,5.8-19.2-1.6-20.9-7.4C115.2,147.4,127.2,150.2,129.8,160z"/>
		<path style="fill:#F9B515;" d="M99.4,176.2c-12.5,1.8-17.7-7.6-17.4-13.7C89.6,159.6,100.1,166,99.4,176.2z"/>
	</g>
	<g>
		<path style="fill:#F9B515;" d="M-35.7,59.7c-12.6-1.5-17.5,8-17.1,14.1C-45.1,76.5-34.8,69.8-35.7,59.7z"/>
		<path style="fill:#F9B515;" d="M-33.6,80c-12.6-1-17.2,8.8-16.5,14.8C-42.3,97.2-32.3,90.1-33.6,80z"/>
		<path style="fill:#F9B515;" d="M-30.5,96.4c-12.5,1.8-14.8,12.3-12.8,18.1C-35.2,115-27,105.9-30.5,96.4z"/>
		<path style="fill:#F9B515;" d="M-22.4,112.5c-11.1,6.2-9.4,16.8-5.5,21.5C-20.1,131.6-15.7,120.1-22.4,112.5z"/>
		<path style="fill:#F9B515;" d="M-9.7,129.5c-8.8,9.1-4.1,18.8,1,22.1C-2,147.1-1.1,134.9-9.7,129.5z"/>
		<path style="fill:#F9B515;" d="M10.9,140.6c-5.4,11.4,2.1,19.2,8,20.7C23.8,154.8,20.8,142.9,10.9,140.6z"/>
		<path style="fill:#F4A10F;" d="M-49.4,57.3c0,0-11.6,31.8,16.5,70.1c28.2,38.3,66,33.8,66,33.8l0.2,4.7
			c-12.6-0.9-30.2,1.4-58-23.6c-27.8-25-33.7-63.8-27.7-85.9L-49.4,57.3z"/>
		<path style="fill:#F9B515;" d="M-51.7,37.5c-9.2,8.7-4.9,18.6,0,22.2C-44.7,55.5-43.3,43.3-51.7,37.5z"/>
		<path style="fill:#F9B515;" d="M-72.6,61.2c2.2,12.5,12.8,14.4,18.5,12.2C-53.8,65.3-63.2,57.4-72.6,61.2z"/>
		<path style="fill:#F9B515;" d="M-70.5,83.2c2.7,12.4,13.4,13.8,19,11.4C-51.5,86.5-61.2,79-70.5,83.2z"/>
		<path style="fill:#F9B515;" d="M-65.1,107.8c5.4,11.5,16.1,10.5,21,6.9C-45.9,106.9-57,101.7-65.1,107.8z"/>
		<path style="fill:#F9B515;" d="M-52,136.2c9.2,8.8,18.8,4,22.1-1.1C-34.5,128.4-46.7,127.5-52,136.2z"/>
		<path style="fill:#F9B515;" d="M-30,160c11.3,5.8,19.2-1.6,20.9-7.4C-15.4,147.4-27.3,150.2-30,160z"/>
		<path style="fill:#F9B515;" d="M0.4,176.2c12.5,1.8,17.7-7.6,17.4-13.7C10.2,159.6-0.2,166,0.4,176.2z"/>
	</g>
	<g>
		<path style="fill:#1E336C;" d="M90.8,105.7v23.1H13.2v-23.1h27.1V47.8c-4.4,5.9-21,13.9-31,13.9V37.8c9.4,0,28.9-13.8,31-18.2
			h26.2v86H90.8z"/>
	</g>
	<g>
		<path style="fill:#172A56;" d="M40.4,47.8l5.1,57.9h-5.1V47.8c-4.4,5.9-21,13.9-31,13.9v-5.3C12,58.5,35,52.5,40.4,47.8L40.4,47.8
			z M66.5,105.7h24.3v3.1"/>
	</g>
	<g>
		<path style="fill:#5D73A3;" d="M66.5,23H42.1C29,38.4,9.4,41.5,9.4,41.5v-3.7c9.4,0,28.9-13.8,31-18.2h26.2L66.5,23z"/>
	</g>
</g>
<linearGradient id="SVGID_1_" gradientUnits="userSpaceOnUse" x1="119.4883" y1="176.3843" x2="119.4883" y2="37.5347">
	<stop  offset="0.2203" style="stop-color:#FFFFFF;stop-opacity:0"/>
	<stop  offset="1" style="stop-color:#FFFFFF"/>
</linearGradient>
<path style="opacity:0.4;fill:url(#SVGID_1_);" d="M153.2,88.5c0.8-5.1,1.2-10.1,1.2-14.9c5.8,1.9,15.9-0.2,18-12.4
	c-8.2-3.3-16.3,2.2-18.1,9c-0.2-4.2-0.7-8.1-1.5-11.7c4.3-4.2,7-13.1-1.3-21c-7.5,5.1-7.2,15.4-2,20.6c0.4,1.4,1.3,4.6,1.7,9.1
	c-2.2-4.6-7.2-8.6-15.7-7.6c-0.8,9.7,8.6,16.2,16.1,14.4c0,4.9-0.4,10.6-1.9,17.1c-1.1-5.6-6-11.9-16.3-11.1
	c-1.3,9.6,7.7,16.4,15.3,15.1c-1.2,4.4-2.9,9-5.1,13.9c-0.6-5.4-4.2-11.3-13.4-12.6c-3.2,8.7,3.3,17,10.7,18c-2.3,4.2-5,8.6-8.3,13
	c-1.3,1.8-2.7,3.5-4,5.1c3.1-5.1,3.6-14.4-6.5-20.1c-6.6,7.6-2.4,18.9,5.3,21.4c-4.9,5.6-10,10-15,13.6c2.8-4.6,3.4-11.4-2.9-18
	c-8.1,5.1-7.8,16.2-2.1,21.3c-8.5,5-16.6,7.7-23.4,9.1c5-3,9.3-9.9,4.8-19.3c-9.5,2.3-12.7,13.4-8.4,20c-8.3,1.3-13.8,0.6-13.8,0.6
	l-0.2,4.7c4.5-0.3,9.6-0.2,15.6-1.1c0.9,5.9,6.3,13,17.3,11.3c0.4-6.4-3.6-11.3-8.5-13.3c5.5-1.7,11.6-4.4,18.5-8.8
	c2.5,5.5,10,11.2,20.3,6c-1.9-7.1-8.7-10.5-14.7-9.8c3-2.3,6.2-4.8,9.5-7.8c2.2-1.9,4.2-4,6.1-6.1c3.9,4.6,12.8,8,21.3-0.1
	c-3.8-6.2-11.2-7.5-16.8-5.2c3.8-5,7-10.2,9.6-15.6c5.2,3.1,15.1,3.4,20.2-7.5c-5.7-4.3-12.9-3-17.3,0.9c1.8-4.6,3.3-9.3,4.3-13.9
	c5.7,2,15.7,0.2,18.3-11.7C163.5,80.1,156.5,83.3,153.2,88.5z"/>
<linearGradient id="SVGID_2_" gradientUnits="userSpaceOnUse" x1="-19.6553" y1="176.3843" x2="-19.6553" y2="37.5347">
	<stop  offset="0.1236" style="stop-color:#FFFFFF;stop-opacity:0"/>
	<stop  offset="1" style="stop-color:#FFFFFF"/>
</linearGradient>
<path style="opacity:0.4;fill:url(#SVGID_2_);" d="M19.3,160.5c4.3-6.6,1.1-17.7-8.4-20c-4.5,9.5-0.1,16.3,4.8,19.3
	c-6.8-1.4-14.9-4.1-23.4-9.1c5.7-5.1,6-16.2-2.1-21.3c-6.3,6.6-5.7,13.4-2.9,18c-5-3.6-10.1-8-15-13.6c7.7-2.5,11.9-13.8,5.3-21.4
	c-10.1,5.6-9.6,14.9-6.5,20.1c-1.4-1.6-2.7-3.3-4-5.1c-3.3-4.4-6-8.8-8.3-13c7.3-1,13.9-9.3,10.7-18c-9.1,1.3-12.8,7.3-13.4,12.6
	c-2.2-4.9-3.9-9.5-5.1-13.9c7.6,1.4,16.6-5.5,15.3-15.1c-10.3-0.8-15.2,5.5-16.3,11.1c-1.4-6.4-1.9-12.2-1.9-17.1
	c7.5,1.8,17-4.7,16.1-14.4c-8.5-1-13.5,3-15.7,7.6c0.5-4.6,1.3-7.8,1.7-9.1c5.1-5.1,5.5-15.5-2-20.6c-8.3,7.9-5.6,16.8-1.3,21
	c-0.8,3.6-1.3,7.5-1.5,11.7c-1.8-6.8-10-12.3-18.1-9c2.1,12.2,12.3,14.3,18,12.4c0,4.7,0.4,9.7,1.2,14.9c-3.3-5.2-10.3-8.4-17.1-5.3
	c2.6,11.9,12.6,13.7,18.3,11.7c1.1,4.6,2.5,9.3,4.3,13.9c-4.4-3.9-11.6-5.2-17.3-0.9c5.1,10.9,15,10.6,20.2,7.5
	c2.6,5.4,5.8,10.6,9.6,15.6c-5.6-2.3-13-1-16.8,5.2c8.5,8.1,17.4,4.7,21.3,0.1c1.9,2.1,3.9,4.1,6.1,6.1c3.3,3,6.5,5.6,9.5,7.8
	c-6-0.6-12.8,2.7-14.7,9.8c10.4,5.3,17.9-0.5,20.3-6c6.9,4.4,13,7.1,18.5,8.8c-4.9,2.1-8.9,7-8.5,13.3c11,1.6,16.3-5.5,17.3-11.3
	c6,0.9,11.1,0.8,15.6,1.1l-0.2-4.7C33.1,161.2,27.6,161.8,19.3,160.5z"/>
<linearGradient id="SVGID_3_" gradientUnits="userSpaceOnUse" x1="50.1099" y1="128.7852" x2="50.1099" y2="19.6763">
	<stop  offset="0" style="stop-color:#FFFFFF;stop-opacity:0"/>
	<stop  offset="0.9103" style="stop-color:#FFFFFF;stop-opacity:0.9103"/>
	<stop  offset="1" style="stop-color:#FFFFFF"/>
</linearGradient>
<path style="opacity:0.3;fill:url(#SVGID_3_);" d="M40.4,47.8v57.9H13.2v23.1h77.6v-20v-3.1H66.5v-86H40.4
	c-2.1,4.4-21.6,18.2-31,18.2v3.7v14.9v5.3C19.3,61.7,36,53.7,40.4,47.8z"/>
<path style="opacity:5.000000e-002;fill:#FFFFFF;" d="M66.5,92.3V19.7H40.4c-2.1,4.4-21.6,18.2-31,18.2v3.7v14.9v5.3
	c9.9,0,26.6-8,31-13.9v43.9C44.6,74.2,63.9,72.8,66.5,92.3z"/>
</svg>
