<?xml version="1.0" encoding="utf-8"?>
<!-- Generator: Adobe Illustrator 16.0.0, SVG Export Plug-In . SVG Version: 6.00 Build 0)  -->
<!DOCTYPE svg PUBLIC "-//W3C//DTD SVG 1.1//EN" "http://www.w3.org/Graphics/SVG/1.1/DTD/svg11.dtd">
<svg version="1.1" id="Capa_1" xmlns="http://www.w3.org/2000/svg" xmlns:xlink="http://www.w3.org/1999/xlink" x="0px" y="0px"
	 width="490.3px" height="505.3px" viewBox="-227.1 -240.7 490.3 505.3" style="enable-background:new -227.1 -240.7 490.3 505.3;"
	 xml:space="preserve">
<g>
	<g>
		<path style="fill:#F5A212;" d="M113.4,89.2c32.3-35,52.5-81.8,52.5-133.4c0-108.2-88-196.5-196.5-196.5s-196.5,88.3-196.5,196.5
			c0,108.2,88,196.5,196.5,196.5c44.2,0,84.8-14.5,117.7-39.1l146.1,146.1c3.6,3.6,8,5.3,12.4,5.3c4.4,0,9.2-1.8,12.4-5.3
			c6.8-6.8,6.8-18.1,0-25.2L113.4,89.2z M-191.6-44.2c0-88.6,72-160.9,160.9-160.9c88.6,0,160.9,72,160.9,160.9
			s-72,160.9-160.9,160.9S-191.6,44.5-191.6-44.2z"/>
	</g>
</g>
</svg>
