<?xml version="1.0" encoding="utf-8"?>
<!-- Generator: Adobe Illustrator 16.0.0, SVG Export Plug-In . SVG Version: 6.00 Build 0)  -->
<!DOCTYPE svg PUBLIC "-//W3C//DTD SVG 1.1//EN" "http://www.w3.org/Graphics/SVG/1.1/DTD/svg11.dtd">
<svg version="1.1" id="Capa_1" xmlns="http://www.w3.org/2000/svg" xmlns:xlink="http://www.w3.org/1999/xlink" x="0px" y="0px"
	 width="409.8px" height="139.4px" viewBox="0 0 409.8 139.4" style="enable-background:new 0 0 409.8 139.4;" xml:space="preserve"
	>
<g>
	<g>
		<path style="fill:#FFFFFF;" d="M6.8,135.6l-1.7,3.8h-3l7.4-16.8h3l7.4,16.8h-3l-1.7-3.8H6.8z M14.1,133l-3-6.9L8,133H14.1z"/>
		<path style="fill:#FFFFFF;" d="M30.9,135.6c0,1.2-0.4,2.2-1.3,2.9c-0.9,0.7-2,1.1-3.4,1.1c-0.9,0-1.9-0.2-2.9-0.5
			c-1-0.3-1.9-0.8-2.7-1.4l1.3-2.1c1.5,1.1,2.9,1.7,4.3,1.7c0.6,0,1.1-0.1,1.4-0.4c0.4-0.3,0.5-0.6,0.5-1.1c0-0.6-0.8-1.2-2.5-1.7
			c-0.1,0-0.2-0.1-0.3-0.1c-2.7-0.7-4-1.9-4-3.6c0-1.2,0.5-2.1,1.4-2.8c0.9-0.7,2.1-1.1,3.6-1.1c1.5,0,2.9,0.4,4.2,1.3l-1,2
			c-1-0.7-2.2-1-3.4-1c-0.6,0-1.2,0.1-1.6,0.3c-0.4,0.2-0.6,0.6-0.6,1c0,0.4,0.2,0.7,0.6,0.9c0.3,0.1,0.7,0.3,1.2,0.4
			c0.5,0.1,1,0.3,1.4,0.4c0.4,0.1,0.8,0.3,1.2,0.4c0.4,0.2,0.8,0.4,1.2,0.7C30.5,133.5,30.9,134.4,30.9,135.6z"/>
		<path style="fill:#FFFFFF;" d="M44.7,137.7c-1.3,1.3-2.9,1.9-4.8,1.9s-3.5-0.6-4.8-1.9c-1.3-1.3-1.9-2.8-1.9-4.7s0.6-3.4,1.9-4.7
			c1.3-1.3,2.9-1.9,4.8-1.9s3.5,0.6,4.8,1.9c1.3,1.3,1.9,2.8,1.9,4.7S46,136.5,44.7,137.7z M37,136.1c0.8,0.8,1.7,1.2,2.9,1.2
			c1.2,0,2.1-0.4,2.9-1.2c0.8-0.8,1.1-1.8,1.1-3s-0.4-2.2-1.1-3c-0.8-0.8-1.7-1.2-2.9-1.2c-1.2,0-2.1,0.4-2.9,1.2
			c-0.8,0.8-1.1,1.8-1.1,3S36.2,135.3,37,136.1z"/>
		<path style="fill:#FFFFFF;" d="M55.3,139.6c-1.8,0-3.3-0.6-4.6-1.8c-1.3-1.2-1.9-2.8-1.9-4.7c0-2,0.7-3.5,2-4.8
			c1.3-1.2,3-1.8,4.9-1.8c1.9,0,3.5,0.7,4.9,2l-1.6,1.9c-1.1-1-2.2-1.4-3.3-1.4c-1.1,0-2.1,0.4-2.9,1.1c-0.8,0.7-1.2,1.7-1.2,2.9
			s0.4,2.2,1.2,3s1.8,1.2,3,1.2s2.3-0.5,3.4-1.6l1.6,1.7C59.1,138.9,57.3,139.6,55.3,139.6z"/>
		<path style="fill:#FFFFFF;" d="M63.6,124.1c-0.3-0.3-0.5-0.7-0.5-1.2c0-0.5,0.2-0.9,0.5-1.2s0.7-0.5,1.2-0.5
			c0.5,0,0.9,0.2,1.2,0.5s0.5,0.7,0.5,1.2c0,0.5-0.2,0.9-0.5,1.2s-0.7,0.5-1.2,0.5C64.4,124.6,64,124.5,63.6,124.1z M66.2,139.4
			h-2.7v-12.8h2.7V139.4z"/>
		<path style="fill:#FFFFFF;" d="M80.4,139.4h-2.4v-1.7c-1.1,1.3-2.5,1.9-4.2,1.9c-1.3,0-2.4-0.4-3.3-1.1c-0.9-0.8-1.3-1.8-1.3-3
			s0.5-2.2,1.4-2.8c0.9-0.6,2.2-0.9,3.8-0.9h3.5v-0.5c0-1.7-0.9-2.5-2.8-2.5c-1.2,0-2.4,0.4-3.7,1.3l-1.2-1.7
			c1.6-1.2,3.3-1.8,5.3-1.8c1.5,0,2.7,0.4,3.7,1.1c1,0.8,1.4,2,1.4,3.6V139.4z M77.7,134.7v-1.1h-3c-1.9,0-2.9,0.6-2.9,1.8
			c0,0.6,0.2,1.1,0.7,1.4c0.5,0.3,1.1,0.5,2,0.5s1.6-0.2,2.2-0.7C77.4,136.2,77.7,135.5,77.7,134.7z"/>
		<path style="fill:#FFFFFF;" d="M89.8,139.6c-1.8,0-3.3-0.6-4.6-1.8c-1.3-1.2-1.9-2.8-1.9-4.7c0-2,0.7-3.5,2-4.8
			c1.3-1.2,3-1.8,4.9-1.8s3.5,0.7,4.9,2l-1.6,1.9c-1.1-1-2.2-1.4-3.3-1.4s-2.1,0.4-2.9,1.1S86,131.8,86,133s0.4,2.2,1.2,3
			c0.8,0.8,1.8,1.2,3,1.2s2.3-0.5,3.4-1.6l1.6,1.7C93.6,138.9,91.8,139.6,89.8,139.6z"/>
		<path style="fill:#FFFFFF;" d="M98.1,124.1c-0.3-0.3-0.5-0.7-0.5-1.2c0-0.5,0.2-0.9,0.5-1.2s0.7-0.5,1.2-0.5
			c0.5,0,0.9,0.2,1.2,0.5c0.3,0.3,0.5,0.7,0.5,1.2c0,0.5-0.2,0.9-0.5,1.2c-0.3,0.3-0.7,0.5-1.2,0.5
			C98.9,124.6,98.5,124.5,98.1,124.1z M100.6,139.4H98v-12.8h2.7V139.4z"/>
		<path style="fill:#FFFFFF;" d="M115.2,137.7c-1.3,1.3-2.9,1.9-4.8,1.9s-3.5-0.6-4.8-1.9s-1.9-2.8-1.9-4.7s0.6-3.4,1.9-4.7
			s2.9-1.9,4.8-1.9s3.5,0.6,4.8,1.9s1.9,2.8,1.9,4.7S116.5,136.5,115.2,137.7z M107.5,136.1c0.8,0.8,1.7,1.2,2.9,1.2
			s2.1-0.4,2.9-1.2s1.1-1.8,1.1-3s-0.4-2.2-1.1-3s-1.7-1.2-2.9-1.2s-2.1,0.4-2.9,1.2c-0.8,0.8-1.1,1.8-1.1,3
			S106.8,135.3,107.5,136.1z M111.6,125h-2.4l2.5-3.5l2.8,1.2L111.6,125z"/>
		<path style="fill:#FFFFFF;" d="M122.9,132.5v6.9h-2.7v-12.8h2.7v2.3c0.4-0.8,1-1.4,1.8-1.8s1.6-0.7,2.5-0.7c1.4,0,2.6,0.4,3.5,1.3
			c0.9,0.9,1.3,2.2,1.3,3.8v7.8h-2.7v-7c0-2.4-1-3.5-2.9-3.5c-0.9,0-1.7,0.3-2.4,0.9C123.2,130.4,122.9,131.3,122.9,132.5z"/>
		<path style="fill:#FFFFFF;" d="M142.6,139.4v-16.8h2.8v14.1h7.7v2.7H142.6z"/>
		<path style="fill:#FFFFFF;" d="M166.2,139.4h-2.4v-1.7c-1.1,1.3-2.5,1.9-4.2,1.9c-1.3,0-2.4-0.4-3.3-1.1c-0.9-0.8-1.3-1.8-1.3-3
			s0.5-2.2,1.4-2.8c0.9-0.6,2.2-0.9,3.8-0.9h3.5v-0.5c0-1.7-0.9-2.5-2.8-2.5c-1.2,0-2.4,0.4-3.7,1.3l-1.2-1.7
			c1.6-1.2,3.3-1.8,5.3-1.8c1.5,0,2.7,0.4,3.7,1.1s1.4,2,1.4,3.6V139.4z M163.5,134.7v-1.1h-3c-1.9,0-2.9,0.6-2.9,1.8
			c0,0.6,0.2,1.1,0.7,1.4c0.5,0.3,1.1,0.5,2,0.5s1.6-0.2,2.2-0.7C163.2,136.2,163.5,135.5,163.5,134.7z"/>
		<path style="fill:#FFFFFF;" d="M173.1,128.8v6.5c0,0.6,0.2,1.1,0.5,1.5c0.3,0.4,0.8,0.5,1.3,0.5c0.6,0,1.1-0.3,1.7-0.8l1.1,1.9
			c-0.9,0.8-2,1.3-3.1,1.3c-1.1,0-2.1-0.4-2.9-1.2c-0.8-0.8-1.2-1.9-1.2-3.2v-6.4h-1.6v-2.2h1.6v-4h2.7v4h3.4v2.2H173.1z"/>
		<path style="fill:#FFFFFF;" d="M180,124.1c-0.3-0.3-0.5-0.7-0.5-1.2c0-0.5,0.2-0.9,0.5-1.2c0.3-0.3,0.7-0.5,1.2-0.5
			s0.9,0.2,1.2,0.5s0.5,0.7,0.5,1.2c0,0.5-0.2,0.9-0.5,1.2s-0.7,0.5-1.2,0.5S180.3,124.5,180,124.1z M182.5,139.4h-2.7v-12.8h2.7
			V139.4z"/>
		<path style="fill:#FFFFFF;" d="M189.1,132.5v6.9h-2.7v-12.8h2.7v2.3c0.4-0.8,1-1.4,1.8-1.8c0.8-0.4,1.6-0.7,2.5-0.7
			c1.4,0,2.6,0.4,3.5,1.3c0.9,0.9,1.3,2.2,1.3,3.8v7.8h-2.7v-7c0-2.4-1-3.5-2.9-3.5c-0.9,0-1.7,0.3-2.4,0.9
			C189.4,130.4,189.1,131.3,189.1,132.5z"/>
		<path style="fill:#FFFFFF;" d="M212.6,137.7c-1.3,1.3-2.9,1.9-4.8,1.9s-3.5-0.6-4.8-1.9s-1.9-2.8-1.9-4.7s0.6-3.4,1.9-4.7
			s2.9-1.9,4.8-1.9s3.5,0.6,4.8,1.9c1.3,1.3,1.9,2.8,1.9,4.7S213.9,136.5,212.6,137.7z M204.9,136.1c0.8,0.8,1.7,1.2,2.9,1.2
			s2.1-0.4,2.9-1.2c0.8-0.8,1.1-1.8,1.1-3s-0.4-2.2-1.1-3c-0.8-0.8-1.7-1.2-2.9-1.2s-2.1,0.4-2.9,1.2c-0.8,0.8-1.1,1.8-1.1,3
			S204.1,135.3,204.9,136.1z"/>
		<path style="fill:#FFFFFF;" d="M227.9,139.4h-2.4v-1.7c-1.1,1.3-2.5,1.9-4.2,1.9c-1.3,0-2.4-0.4-3.3-1.1c-0.9-0.8-1.3-1.8-1.3-3
			s0.5-2.2,1.4-2.8c0.9-0.6,2.2-0.9,3.8-0.9h3.5v-0.5c0-1.7-0.9-2.5-2.8-2.5c-1.2,0-2.4,0.4-3.7,1.3l-1.2-1.7
			c1.6-1.2,3.3-1.8,5.3-1.8c1.5,0,2.7,0.4,3.7,1.1c1,0.8,1.4,2,1.4,3.6V139.4z M225.2,134.7v-1.1h-3c-1.9,0-2.9,0.6-2.9,1.8
			c0,0.6,0.2,1.1,0.7,1.4c0.5,0.3,1.1,0.5,2,0.5s1.6-0.2,2.2-0.7C224.9,136.2,225.2,135.5,225.2,134.7z"/>
		<path style="fill:#FFFFFF;" d="M234.3,132.5v6.9h-2.7v-12.8h2.7v2.3c0.4-0.8,1-1.4,1.7-1.8c0.8-0.4,1.6-0.7,2.5-0.7
			c2,0,3.4,0.8,4.1,2.5c1.3-1.7,2.8-2.5,4.7-2.5c1.4,0,2.6,0.4,3.5,1.3c0.9,0.9,1.3,2.2,1.3,3.8v7.8h-2.7v-7c0-2.4-1-3.5-2.9-3.5
			c-0.9,0-1.7,0.3-2.4,0.9c-0.7,0.6-1,1.4-1.1,2.6v7.1h-2.7v-7c0-1.2-0.2-2.1-0.6-2.7c-0.4-0.6-1.1-0.9-2-0.9
			c-0.9,0-1.7,0.3-2.4,0.9C234.7,130.4,234.3,131.3,234.3,132.5z"/>
		<path style="fill:#FFFFFF;" d="M267.8,134.2h-10c0.1,0.9,0.5,1.7,1.3,2.2s1.7,0.9,2.7,0.9c1.6,0,2.8-0.5,3.6-1.5l1.5,1.7
			c-1.4,1.4-3.2,2.1-5.4,2.1c-1.8,0-3.3-0.6-4.6-1.8c-1.3-1.2-1.9-2.8-1.9-4.8s0.6-3.6,1.9-4.8c1.3-1.2,2.8-1.8,4.5-1.8
			c1.7,0,3.2,0.5,4.4,1.6c1.2,1,1.8,2.5,1.8,4.3V134.2z M257.8,132.1h7.3c0-1.1-0.3-1.9-1-2.5c-0.7-0.6-1.5-0.9-2.5-0.9
			s-1.9,0.3-2.7,0.9C258.2,130.3,257.8,131.1,257.8,132.1z"/>
		<path style="fill:#FFFFFF;" d="M277.5,129.2c-1.3,0-2.3,0.4-3,1.3s-1,2-1,3.5v5.5h-2.7v-12.8h2.7v2.6c0.4-0.8,1-1.5,1.8-2
			c0.7-0.5,1.5-0.8,2.4-0.8l0,2.7C277.6,129.2,277.5,129.2,277.5,129.2z"/>
		<path style="fill:#FFFFFF;" d="M280.5,124.1c-0.3-0.3-0.5-0.7-0.5-1.2c0-0.5,0.2-0.9,0.5-1.2s0.7-0.5,1.2-0.5s0.9,0.2,1.2,0.5
			s0.5,0.7,0.5,1.2c0,0.5-0.2,0.9-0.5,1.2s-0.7,0.5-1.2,0.5S280.8,124.5,280.5,124.1z M283,139.4h-2.7v-12.8h2.7V139.4z"/>
		<path style="fill:#FFFFFF;" d="M292.6,139.6c-1.8,0-3.3-0.6-4.6-1.8c-1.3-1.2-1.9-2.8-1.9-4.7c0-2,0.7-3.5,2-4.8
			c1.3-1.2,3-1.8,4.9-1.8c1.9,0,3.5,0.7,4.9,2l-1.6,1.9c-1.1-1-2.2-1.4-3.3-1.4c-1.1,0-2.1,0.4-2.9,1.1s-1.2,1.7-1.2,2.9
			s0.4,2.2,1.2,3s1.8,1.2,3,1.2c1.2,0,2.3-0.5,3.4-1.6l1.6,1.7C296.4,138.9,294.6,139.6,292.6,139.6z"/>
		<path style="fill:#FFFFFF;" d="M311,139.4h-2.4v-1.7c-1.1,1.3-2.5,1.9-4.2,1.9c-1.3,0-2.4-0.4-3.3-1.1s-1.3-1.8-1.3-3
			s0.5-2.2,1.4-2.8c0.9-0.6,2.2-0.9,3.8-0.9h3.5v-0.5c0-1.7-0.9-2.5-2.8-2.5c-1.2,0-2.4,0.4-3.7,1.3l-1.2-1.7
			c1.6-1.2,3.3-1.8,5.3-1.8c1.5,0,2.7,0.4,3.7,1.1s1.4,2,1.4,3.6V139.4z M308.3,134.7v-1.1h-3c-1.9,0-2.9,0.6-2.9,1.8
			c0,0.6,0.2,1.1,0.7,1.4c0.5,0.3,1.1,0.5,2,0.5s1.6-0.2,2.2-0.7C308,136.2,308.3,135.5,308.3,134.7z"/>
		<path style="fill:#FFFFFF;" d="M317.4,132.5v6.9h-2.7v-12.8h2.7v2.3c0.4-0.8,1-1.4,1.8-1.8c0.8-0.4,1.6-0.7,2.5-0.7
			c1.4,0,2.6,0.4,3.5,1.3c0.9,0.9,1.3,2.2,1.3,3.8v7.8h-2.7v-7c0-2.4-1-3.5-2.9-3.5c-0.9,0-1.7,0.3-2.4,0.9
			C317.7,130.4,317.4,131.3,317.4,132.5z"/>
		<path style="fill:#FFFFFF;" d="M340.9,137.7c-1.3,1.3-2.9,1.9-4.8,1.9s-3.5-0.6-4.8-1.9c-1.3-1.3-1.9-2.8-1.9-4.7s0.6-3.4,1.9-4.7
			c1.3-1.3,2.9-1.9,4.8-1.9s3.5,0.6,4.8,1.9c1.3,1.3,1.9,2.8,1.9,4.7S342.2,136.5,340.9,137.7z M333.2,136.1
			c0.8,0.8,1.7,1.2,2.9,1.2c1.2,0,2.1-0.4,2.9-1.2c0.8-0.8,1.1-1.8,1.1-3s-0.4-2.2-1.1-3c-0.8-0.8-1.7-1.2-2.9-1.2
			c-1.2,0-2.1,0.4-2.9,1.2c-0.8,0.8-1.1,1.8-1.1,3S332.4,135.3,333.2,136.1z"/>
		<path style="fill:#FFFFFF;" d="M366.2,128.1c0,2.8-1.2,4.5-3.6,5.2l4.4,6.1h-3.6l-4-5.6h-3.7v5.6h-2.8v-16.8h6.2
			c2.6,0,4.4,0.4,5.5,1.3C365.7,124.8,366.2,126.2,366.2,128.1z M362.4,130.5c0.6-0.5,0.9-1.3,0.9-2.4s-0.3-1.8-0.9-2.3
			c-0.6-0.4-1.6-0.6-3.2-0.6h-3.6v6h3.5C360.8,131.2,361.9,131,362.4,130.5z"/>
		<path style="fill:#FFFFFF;" d="M378.6,133.6v-6.9h2.7v12.8h-2.7v-2.3c-0.4,0.8-1,1.4-1.8,1.8c-0.8,0.4-1.6,0.7-2.5,0.7
			c-1.4,0-2.6-0.4-3.5-1.3c-0.9-0.9-1.3-2.2-1.3-3.8v-7.8h2.7v7c0,2.4,1,3.5,2.9,3.5c0.9,0,1.7-0.3,2.4-0.9
			C378.3,135.7,378.6,134.8,378.6,133.6z"/>
		<path style="fill:#FFFFFF;" d="M394.3,135.6c0,1.2-0.4,2.2-1.3,2.9c-0.9,0.7-2,1.1-3.4,1.1c-0.9,0-1.9-0.2-2.9-0.5
			c-1-0.3-1.9-0.8-2.7-1.4l1.3-2.1c1.5,1.1,2.9,1.7,4.3,1.7c0.6,0,1.1-0.1,1.4-0.4c0.4-0.3,0.5-0.6,0.5-1.1c0-0.6-0.8-1.2-2.5-1.7
			c-0.1,0-0.2-0.1-0.3-0.1c-2.7-0.7-4-1.9-4-3.6c0-1.2,0.5-2.1,1.4-2.8c0.9-0.7,2.1-1.1,3.6-1.1c1.5,0,2.9,0.4,4.2,1.3l-1,2
			c-1-0.7-2.2-1-3.4-1c-0.6,0-1.2,0.1-1.6,0.3c-0.4,0.2-0.6,0.6-0.6,1c0,0.4,0.2,0.7,0.6,0.9c0.3,0.1,0.7,0.3,1.2,0.4
			c0.5,0.1,1,0.3,1.4,0.4c0.4,0.1,0.8,0.3,1.2,0.4c0.4,0.2,0.8,0.4,1.2,0.7C393.9,133.5,394.3,134.4,394.3,135.6z"/>
		<path style="fill:#FFFFFF;" d="M407.7,139.4h-2.4v-1.7c-1.1,1.3-2.5,1.9-4.2,1.9c-1.3,0-2.4-0.4-3.3-1.1c-0.9-0.8-1.3-1.8-1.3-3
			s0.5-2.2,1.4-2.8c0.9-0.6,2.2-0.9,3.8-0.9h3.5v-0.5c0-1.7-0.9-2.5-2.8-2.5c-1.2,0-2.4,0.4-3.7,1.3l-1.2-1.7
			c1.6-1.2,3.3-1.8,5.3-1.8c1.5,0,2.7,0.4,3.7,1.1s1.4,2,1.4,3.6V139.4z M405,134.7v-1.1h-3c-1.9,0-2.9,0.6-2.9,1.8
			c0,0.6,0.2,1.1,0.7,1.4c0.5,0.3,1.1,0.5,2,0.5c0.9,0,1.6-0.2,2.2-0.7C404.7,136.2,405,135.5,405,134.7z"/>
	</g>
	<g>
		<path style="fill:#FFFFFF;" d="M66.6,2.7c-1-2.2-1.6-2.5-3.8-2.5H44.5c-2.2,0-2.8,0.3-3.8,2.5c-1,2.2-38.3,88.4-38.3,88.4
			C2,92,2.1,94.9,4.9,94.9h20.8c1.8,0,2.6-1.4,3.6-3.5c1-2.1,8.2-18.5,8.2-18.5h32.3c0,0,7.1,16.5,8.2,18.5c1,2.1,1.8,3.5,3.6,3.5
			h20.8c2.8,0,2.9-2.8,2.5-3.7C105,91.2,67.6,4.9,66.6,2.7z M48.5,42.2c0.8-1.9,1.7-3.9,2.6-5.8c0.9-1.9,1.7-3.7,2.6-5.3l10.2,22.1
			H43.4c0.8-1.6,1.7-3.4,2.6-5.3C46.9,46.1,47.7,44.2,48.5,42.2z"/>
		<path style="fill:#FFFFFF;" d="M271.3,2.7c-1-2.2-1.6-2.5-3.8-2.5h-18.3c-2.2,0-2.8,0.3-3.8,2.5c-1,2.2-38.3,88.4-38.3,88.4
			c-0.4,0.8-0.3,3.7,2.5,3.7h20.8c1.8,0,2.6-1.4,3.6-3.5c1-2.1,8.2-18.5,8.2-18.5h32.3c0,0,7.1,16.5,8.2,18.5c1,2.1,1.8,3.5,3.6,3.5
			h20.8c2.8,0,2.9-2.8,2.5-3.7C309.6,91.2,272.3,4.9,271.3,2.7z M253.2,42.2c0.8-1.9,1.7-3.9,2.6-5.8c0.9-1.9,1.7-3.7,2.6-5.3
			l10.2,22.1h-20.4c0.8-1.6,1.7-3.4,2.6-5.3S252.3,44.2,253.2,42.2z"/>
		<path style="fill:#FFFFFF;" d="M193.1,73.4h-49.4c-9.1,0-11.5-2.7-11.5-10.4V2.8c0-1-0.5-2.5-2.6-2.5h-18c-2,0-2.6,1.5-2.6,2.5
			v59.1c0,22.7,12.8,33,34.5,33h49.5c1,0,2.5-0.5,2.5-2.6V76C195.7,74,194.1,73.4,193.1,73.4z"/>
		<path style="fill:#FFFFFF;" d="M395.7,53.7c7.1-3.1,11.8-10.3,11.8-25.8C407.5,4.2,392.8,0,383,0l-59.4,0c-2,0-2.6,1.5-2.6,2.5
			v89.8c0,1,0.5,2.5,2.6,2.5h18c2,0,2.6-1.5,2.6-2.5l0-31.6c0,0,21.9,0,28.6,0c3.8,0,11.7,3.6,11.7,17.7v13.9c0,1,0.5,2.5,2.6,2.5
			h18c2,0,2.6-1.5,2.6-2.5v-21C407.5,64.6,403.3,55.6,395.7,53.7z M344.1,39.6V18.8c0,0,25.2,0,28.5,0c4,0,10.2,1.6,10.2,10.4
			s-6.1,10.4-10.2,10.4C369.3,39.6,344.1,39.6,344.1,39.6z"/>
	</g>
	<path style="fill:#FFFFFF;" d="M407.5,111.1H2.3c-1.3,0-2.3-1-2.3-2.3c0-1.3,1-2.3,2.3-2.3h405.2c1.3,0,2.3,1,2.3,2.3
		C409.8,110,408.8,111.1,407.5,111.1z"/>
</g>
</svg>
